<svg width="364" height="824" viewBox="0 0 364 824" fill="none" xmlns="http://www.w3.org/2000/svg">
<g clip-path="url(#clip0_17_7251)">
<g clip-path="url(#clip1_17_7251)">
<path d="M-165 -174V998H529V-174H-165Z" fill="white"/>
<path d="M169.564 993.925L169.416 993.611C167.234 988.609 168.901 984.311 169.522 979.19C169.984 975.378 170.037 971.493 170.182 967.664L149.27 967.676C149.259 970.411 148.372 975.699 149.227 978.148C149.671 979.413 160.235 987.705 162.144 989.359C161.429 990.755 155.145 993.834 153.383 994.875C151.598 992.993 149.101 991.098 146.201 990.715C139.625 989.845 133.474 993.668 128.425 996.798C127.292 995.058 125.367 992.649 124.869 990.744C124.037 987.567 126.215 981.959 126.765 978.657C127.364 975.058 127.518 971.355 127.754 967.727L106.614 967.698C106.622 969.736 105.871 975.395 106.654 977.055C107.095 977.993 109.103 979.561 109.914 980.38L119.258 989.496L110.629 995.282C109.367 993.742 107.957 992.38 105.977 991.482C97.8817 987.814 92.5947 994.337 85.7516 995.997L84.7817 995.144C83.5794 993.948 81.8899 991.184 82.1576 989.599C83.4168 982.154 85.0596 975.292 85.1823 967.704L64.2281 967.687C64.226 969.604 63.4195 976.122 64.2193 977.524C64.7642 978.486 66.7696 979.922 67.6595 980.758L76.2477 988.826L76.1955 989.427L68.0546 995.139C66.1169 993.176 63.6954 990.972 60.5412 990.595C54.1847 989.834 48.6083 993.107 43.8473 996.254C43.5972 996.146 43.4345 996.094 43.2346 995.888C42.4322 995.081 40.2627 992.266 39.9842 991.293C39.6968 990.297 40.2803 988.174 40.4904 987.115L42.4796 977.267C43.0001 974.119 43.0719 970.915 43.2095 967.744L22.7833 967.71C22.7433 970.319 22.1855 974.262 22.8389 976.746C23.133 977.862 24.9974 979.51 25.8514 980.443L33.8764 989.399L26.7067 994.967C23.886 993.199 21.4359 990.818 17.8162 990.337C11.9965 989.565 5.63524 994.023 1.1344 996.718C0.310277 995.362 -2.48741 991.865 -2.60601 990.555C-2.85067 987.848 -0.785622 982.863 -0.217003 980.025C0.604411 975.922 0.931076 971.859 1.16286 967.704L-19.9336 967.698C-19.9276 969.781 -20.61 974.651 -19.9093 976.466C-19.4145 977.747 -17.6517 979.424 -16.6866 980.546L-8.95571 989.456L-15.731 995.528C-18.099 993.05 -20.2542 991.241 -23.9912 990.406C-29.9695 989.061 -37.4612 993.902 -42.3328 996.335C-43.3067 994.99 -46.4731 991.51 -46.7503 990.097C-46.9658 988.992 -45.0891 984.643 -44.7597 983.224C-43.569 978.079 -42.8207 972.935 -42.1708 967.727L-63.8393 967.698C-63.8278 970.131 -64.5415 974.76 -63.7966 976.952C-63.5371 977.719 -61.9186 979.27 -61.3134 979.996L-53.0498 989.553L-59.2965 995.127C-60.3754 994.566 -61.3032 993.92 -62.307 993.267C-69.3371 988.712 -72.4262 990.95 -79.6997 992.054C-82.1761 992.432 -84.8789 992.386 -87.3926 992.397C-89.1574 992.403 -91.4563 992.54 -93.1425 992.14C-96.9223 991.247 -99.6546 988.3 -104.11 988.935C-106.789 989.319 -109.719 993.536 -111.206 995.339C-112.343 993.187 -114.501 990.131 -114.854 987.842C-115.546 983.361 -114.969 978.096 -114.939 973.536C-114.927 971.744 -114.503 969.959 -115.598 968.402C-118 968.351 -120.53 967.922 -122.642 968.917C-123.588 971.876 -119.374 976.225 -117.974 979.029C-116.924 981.135 -116.293 983.487 -115.616 985.696C-116.915 988.363 -118.318 990.52 -120.254 992.89C-123.309 991.825 -126.14 990.835 -128.55 988.867C-132.541 985.605 -135.733 980.889 -138.859 977.003C-140.977 974.365 -143.83 971.39 -144.356 968.162C-144.862 965.049 -143.646 961.65 -143.61 958.479C-143.533 951.772 -144.542 945.042 -144.583 938.318C-144.606 934.513 -143.695 930.759 -143.697 926.959L-144.59 906.821C-144.563 903.113 -143.899 899.427 -143.887 895.702L-144.612 877.321L-143.954 858.132L-144.641 829.817C-144.642 826.252 -143.86 822.692 -143.848 819.092C-143.833 814.56 -144.611 810.119 -144.647 805.644L-144.653 789.632C-144.465 785.792 -143.816 782.01 -143.812 778.147L-144.676 755.182C-144.671 751.554 -143.437 748.063 -143.473 744.389L-144.71 719.616C-144.693 716.239 -143.302 712.708 -143.264 709.206C-143.175 700.948 -144.936 692.427 -144.753 684.169C-144.677 680.73 -143.245 677.428 -143.169 673.897C-142.973 664.896 -144.559 655.59 -144.579 646.526C-144.588 642.125 -143.161 637.724 -143.155 633.186C-143.152 630.806 -143.694 628.643 -143.835 626.313L-144.189 608.304L-143.374 562.168L-143.721 459.195L-143.253 357.331L-143.347 139.147L-143.148 33.1109L-143.149 -1.43735C-143.145 -7.4839 -143.612 -13.8607 -142.933 -19.8712C-142.277 -25.6739 -139.27 -30.4775 -134.392 -34.5973C-130.932 -37.5193 -125.965 -40.0636 -121.18 -41.0278C-116.34 -42.003 -109.883 -41.3958 -104.904 -41.3901L-70.4012 -41.3283L-81.209 -85.7893L-11.2776 -164.827L20.0215 -164.39C21.5749 -164.542 22.0005 -165.32 22.91 -166.274L26.46 -166.486L27.9368 -165.271C29.4101 -164.284 32.298 -164.685 34.1306 -164.694L52.3976 -164.779C54.4552 -164.789 59.9726 -164.239 61.7022 -164.822C62.1563 -164.975 62.5975 -165.858 63.0576 -166.051C63.9597 -166.429 66.6788 -166.366 67.8018 -166.463L69.835 -164.722C76.6733 -164.376 83.5652 -164.568 90.4151 -164.614C91.6472 -164.622 94.9654 -164.3 96.003 -164.653C97.6675 -165.22 100.29 -167.64 102.227 -168.563C103.211 -168.823 104.368 -168.702 105.391 -168.69C107.093 -167.358 107.023 -167.34 107.207 -165.375C110.472 -163.735 135.099 -164.618 140.319 -164.978L141.675 -166.672C144.625 -166.761 147.969 -167.131 150.868 -166.647C151.087 -166.007 151.221 -165.495 151.813 -165.017C152.31 -164.616 153.002 -164.766 153.652 -164.761L178.95 -164.772C179.434 -165.967 180.027 -166.754 180.983 -167.721L185.05 -167.856C186.623 -167.151 186.581 -166.603 187.154 -165.239C189.493 -164.184 193.406 -164.693 196.096 -164.71L216.903 -164.848L218.598 -166.664L227.747 -166.872C228.237 -165.994 228.618 -165.501 229.441 -164.825C238.035 -164.777 247.969 -163.901 256.4 -164.987C256.027 -166.791 255.603 -167.08 256.773 -168.659L259.601 -168.871C262.318 -168.165 264.045 -166.364 265.94 -164.679L282.129 -164.562C284.339 -164.551 287.014 -164.239 289.094 -164.841C289.295 -165.581 289.597 -166.165 289.976 -166.847C292.656 -167.058 295.204 -167.136 297.893 -167.015C298.568 -166.005 299.299 -165.25 300.265 -164.427L345.88 -164.32C352.036 -164.308 359.868 -163.533 365.842 -164.558C366.144 -165.385 366.397 -165.986 367.137 -166.611C368.143 -167.46 372.708 -167.086 374.315 -167.096C381.188 -160.784 386.95 -152.792 393.091 -145.901L446.582 -85.815L436.367 -41.5022L468.451 -41.3574C475.224 -41.3328 482.794 -41.9257 489.368 -40.3646C496.798 -38.6003 503.536 -33.9643 507.268 -28.2846C509.645 -24.6673 510.806 -20.8017 510.87 -16.6802L510.845 182.692L510.162 547.627L510.535 611.434L509.943 671.019C509.952 673.914 509.66 677.216 510.242 680.061C510.723 682.401 512.08 684.473 512.055 686.905C512.023 690.001 510.992 693.206 510.609 696.301C510.018 701.08 509.994 705.978 510.006 710.78C510.011 712.72 509.954 714.723 510.394 716.634C510.949 719.038 512.114 721.035 512.108 723.559C512.101 726.832 510.969 730.065 510.431 733.281C509.974 736.017 510.092 738.884 510.076 741.636C510.058 744.704 509.744 748.109 510.267 751.142C510.834 754.415 512.115 757.059 512.122 760.464C512.129 763.577 511.039 766.49 510.57 769.551C510.017 773.168 510.101 776.854 510.078 780.493C510.061 783.183 509.708 786.319 510.182 788.963C510.726 791.996 512.089 794.422 512.052 797.655C511.997 802.354 510.446 807.178 510.265 811.974C510.099 816.369 509.866 821.09 510.449 825.456C510.827 828.295 512.003 830.853 512.068 833.748C512.146 837.245 511.048 840.799 510.551 844.266C510.051 847.774 510.234 851.477 510.23 855.008C510.227 857.2 510.026 859.603 510.457 861.772C511.059 864.805 512.127 867.409 512.074 870.568C512.019 873.715 511.018 876.891 510.619 880.027C510.068 884.359 510.261 888.926 510.249 893.287C510.237 897.996 512.141 902.111 512.096 906.861C512.041 912.664 510.219 918.255 510.196 924.166C510.179 928.87 511.794 933.151 511.986 937.723C512.17 942.09 510.89 946.256 510.746 950.605L510.833 962.405C511.027 965.444 511.784 968.585 510.682 971.561C509.525 974.68 506.636 977.335 504.07 979.693C497.173 986.04 490.898 989.742 482.013 993.839C481.454 991.957 479.55 988.197 479.652 986.463C480.066 979.453 488.871 975.224 490.273 969.1L489.353 968.334L479.519 968.448L479.372 994.475C477.03 992.569 474.124 989.891 470.964 989.067C468.491 988.426 458.79 992.443 456.108 993.468C454.961 992.352 453.191 990.875 451.587 990.251C446.621 988.323 437.654 992.203 433.156 993.937C431.763 992.409 429.574 990.377 427.231 989.971C423.537 989.336 418.885 992.26 415.813 993.754C413.853 992.346 411.738 990.761 409.193 990.2C402.483 988.718 395.697 991.819 390.177 994.704C388.58 993.365 386.746 991.55 384.607 990.841C380.149 989.364 374.507 992.523 370.612 994.108C368.931 992.678 367.425 991.55 365.104 990.938C357.883 989.032 352.245 992.128 345.963 994.812L339.338 989.988C335.321 991.19 331.668 992.626 327.916 994.326L326.889 993.708C325.684 992.884 324.645 992.123 323.21 991.573C317.415 989.353 312.452 990.389 307.042 992.93C305.035 993.868 303.267 995.242 301.118 995.928C299.93 994.126 298.192 991.905 297.657 989.897C296.918 987.121 297.913 983.006 298.16 980.088C298.508 975.962 298.464 971.802 298.469 967.664L276.711 967.67L276.824 978.531L292.004 989.336L283.321 994.847C281.802 993.021 279.156 991.156 276.544 990.612C270.04 989.25 262.693 993.439 257.578 996.346C256.176 994.103 254.543 991.688 254.196 989.124C253.835 986.457 254.829 983.316 255.077 980.626L255.596 967.658L234.029 967.67L234.171 978.308L248.778 989.805L239.815 994.858L239.631 994.612C238.095 992.666 236.054 991.31 233.317 990.847C226.16 989.633 220.474 993.204 214.858 996.415C213.713 994.686 212.087 992.575 211.552 990.658C210.84 988.111 211.798 984.306 212.107 981.69L213.071 967.698L191.513 967.676C191.513 969.369 190.79 976.517 191.514 977.604C192.079 978.451 194.205 979.705 195.12 980.494L205.242 989.41L196.814 995.041L196.318 994.641C194.98 993.582 193.782 992.352 192.173 991.568C184.047 987.596 178.562 994.469 171.495 996.146L169.564 993.925ZM451.044 -22.9362L451.093 -5.66982L472.783 -5.74364L472.833 12.5111L451.437 12.4618C451.359 18.0357 452.071 24.8611 451.059 30.3005C445.88 31.0547 439.512 30.5099 434.197 30.55L434.121 48.0402L450.609 48.0373C451.363 46.9082 451.012 44.7994 451.018 43.5147L451.059 30.3005L472.786 30.3205L472.762 48.0339C466.014 48.7675 458.053 48.1987 451.195 48.2313L451.124 66.4625L472.817 66.4299L472.762 48.0339C476.419 47.6922 479.512 49.4565 482.614 50.8506C489.104 48.1123 494.566 43.9754 500.177 40.1423C495.441 35.7777 489.578 31.793 484.03 28.1728C483.883 28.0767 482.724 27.2744 482.646 27.2732C482.468 27.2709 481.075 27.9914 480.818 28.1064C478.501 29.1451 475.978 30.6284 473.256 30.3755L472.786 30.3205L472.833 12.5111C476.487 12.2037 478.779 13.5028 481.798 14.993C483.45 14.8407 485.061 13.5606 486.426 12.7497L500.461 3.59458C498.575 2.31214 484.096 -8.60096 483.09 -8.51856C479.714 -8.24158 477.466 -5.20285 473.303 -5.67211L472.783 -5.74364L472.793 -22.9374L451.044 -22.9362L450.992 -34.5435L434.182 -34.5349L433.948 -23.01L451.044 -22.9362ZM451.521 102.92L472.743 102.929L472.754 84.6623C476.395 84.6463 479.532 86.105 482.719 87.408C489.161 84.2823 495.063 80.0338 500.713 75.985L493.618 71.0155L482.982 63.3557C479.445 64.5334 476.482 66.2256 472.765 67.2036L472.754 84.6623L451.475 84.7647L451.521 102.92ZM451.606 176.285L472.84 176.319L472.751 157.935C476.103 158.375 479.317 159.859 482.396 161.022C488.722 157.83 494.644 153.981 499.988 149.704C499.431 148.03 494.676 145.17 492.986 143.873L482.756 136.51C479.485 138.07 476.4 139.512 472.792 140.465L472.751 157.935L451.603 158.04L451.606 176.285ZM451.58 250.091L473.13 250.087L472.825 231.76C476.07 232.077 479.217 233.469 482.206 234.534C488.652 231.065 494.797 227.668 500.349 223.197C498.548 221.316 496.25 219.761 494.11 218.162L481.812 210.035L472.777 214.444L472.825 231.76L451.507 231.871L451.58 250.091ZM500.059 254.458C500.495 254.187 500.875 253.806 501.258 253.482L488.557 242.423L488.928 240.819C492.753 239.209 498.586 233.399 501.435 230.592L500.221 229.145C497.588 230.017 491.326 235.744 489.529 237.812C488.389 239.124 488.623 239.254 488.928 240.819C487.473 241.412 487.382 241.35 486.815 242.609C490.225 246.988 495.648 250.766 500.059 254.458ZM451.138 268.385L451.478 286.777L472.927 286.752L472.806 268.342C475.521 268.417 478.861 270.096 481.366 271.018L484.506 269.644C488.048 267.956 498.451 263.116 499.519 259.859C498.951 257.669 494.734 255.366 492.716 253.93L481.571 246.651C478.912 248.156 476.322 249.62 473.399 250.748L472.767 250.988L472.806 268.342L451.138 268.385L451.132 250.618L434.142 250.624L434.207 268.29L451.138 268.385ZM308.04 333.6L309.075 335.248L310.877 323.932C311.539 322.611 313.634 321.89 315.048 321.18C316.469 318.694 316.895 315.403 317.516 312.688L321.089 296.688L337.487 223.825L352.073 163.591L385.923 16.5644L407.915 -79.7027L433.781 -79.626L393.792 77.6864C392.96 81.4387 395.019 82.7223 397.44 85.737L399.579 77.6326L441.44 -84.7066L403.033 -84.7174L381.482 6.76781L341.634 184.059L320.972 275.228L314.874 303.092C313.347 309.953 311.451 316.963 310.877 323.932L306.179 325.066C305.617 327.495 307.325 331.172 308.04 333.6ZM451.724 468.792L473.304 468.86C473.347 463.578 474.605 455.893 472.765 450.937L481.927 453.867L500.829 442.507L493.749 436.813L481.506 428.722L472.722 433.803L472.765 450.937L451.755 450.925L451.724 468.792ZM-14.486 505.331L-15.2559 506.429C-15.5162 506.55 -15.6151 506.584 -15.8598 506.779C-20.5314 510.453 -24.1261 516.765 -27.3847 521.429C-43.0742 543.884 -54.4256 568.675 -60.4723 594.267C-62.0067 600.762 -62.5632 607.526 -63.5418 614.096L-48.7387 612.247C-47.512 585.105 -40.3646 557.121 -28.4833 531.89C-24.448 523.317 -18.9137 515.071 -15.2559 506.429L-14.486 505.331ZM451.77 541.979L473.382 541.984L473.447 530.837C473.45 528.662 473.765 526.299 472.834 524.238L481.271 527.14C488.186 524.484 495.37 520.301 501.096 516.124C499.675 514.104 496.575 512.301 494.482 510.727L481.729 501.823L472.845 507.093L472.834 524.238L451.769 524.221L451.77 541.979ZM499.18 581.362C497.606 578.151 493.034 574.924 490.048 572.56L489.1 572.383C489.744 574.781 495.1 579.405 497.705 580.841C498.14 581.082 498.684 581.236 499.18 581.362ZM491.728 603.537C493.894 602.679 496.375 600.258 497.78 598.593L495.504 599.405C493.349 600.424 492.412 601.632 491.728 603.537ZM499.143 617.443C497.685 615.011 492.635 609.878 489.887 608.51C490.459 611.967 494.303 614.817 497.447 616.82C498.057 617.209 498.406 617.323 499.143 617.443ZM452.546 653.176L473.514 653.061C473.449 647.584 475.037 640.397 473.43 635.178C473.78 635.258 473.612 635.201 473.99 635.407C476.496 636.792 478.24 637.507 481.22 637.839C488.061 636.105 496.522 630.039 502.146 626.25L495.28 621.14L482.148 612.058C478.779 613.678 475.851 615.755 472.843 617.804C472.798 623.057 471.681 630.188 473.43 635.178L452.245 635.206L452.546 653.176ZM489.715 643.636C491.978 642.428 495.998 637.896 497.193 635.807C495.31 636.259 493.695 637.335 492.249 638.417C489.927 640.157 489.837 641.169 489.715 643.636ZM-127.744 681.52C-127.519 678.292 -129.912 675.723 -131.013 672.747C-132.341 669.159 -133.029 665.416 -134.544 661.874L-133.887 678.006C-132.325 679.036 -129.63 681.279 -127.744 681.52ZM-81.6387 762.736C-82.0107 759.743 -81.9043 756.595 -82.5475 753.648C-83.3493 749.963 -84.805 746.312 -86.0182 742.712C-86.8172 740.337 -87.4489 737.676 -88.7793 735.479L-90.8538 735.559C-90.3726 743.548 -85.9077 755.485 -81.6387 762.736ZM324.278 786.788C323.582 787.16 322.835 787.458 322.351 788.024C323.146 787.801 323.669 787.269 324.278 786.788ZM485.984 832.884L487.08 834.326L487.997 834.464C490.271 831.791 492.651 828.38 493.726 825.216C491.319 825.519 486.514 828.626 484.608 830.011L485.984 832.884ZM180.674 -161.124C178.552 -158.819 176.437 -156.576 173.89 -154.588C171.635 -152.828 167.022 -150.608 165.589 -148.482C164.768 -147.265 165.032 -146.161 165.072 -144.814C166.329 -142.489 168.198 -141.338 171.003 -140.437C175.101 -139.12 179.531 -138.952 183.865 -138.755C188.529 -139.345 195.654 -139.996 198.577 -143.407C199.657 -144.667 199.559 -145.619 199.699 -147.104C198.703 -149.748 194.367 -151.91 191.86 -153.687C188.772 -155.876 185.899 -158.266 183.955 -161.285C182.884 -161.268 181.713 -161.329 180.674 -161.124ZM99.1558 -160.552C97.5367 -156.645 94.3161 -153.241 90.268 -150.882C88.9037 -150.087 86.9139 -149.333 85.9197 -148.231C84.7553 -146.94 84.2917 -144.887 85.2799 -143.422C86.7228 -141.282 90.4842 -140.262 93.1511 -139.817L102.239 -139.017C106.3 -139.526 112.46 -140.025 115.075 -143.078C116.321 -144.532 116.201 -145.297 116.056 -147.006C114.37 -149.556 111.419 -150.983 108.844 -152.823C105.677 -155.086 103.45 -157.487 101.914 -160.748C100.929 -160.798 100.087 -160.896 99.1558 -160.552ZM264.582 -160.552L263.183 -157.963C260.628 -152.259 248.672 -149.213 250.436 -143.098C253.121 -140.474 257.439 -139.415 261.445 -139.157L266.915 -138.979C270.482 -139.177 276.945 -139.68 279.539 -142.072C281.073 -143.486 280.774 -144.48 280.696 -146.245C278.839 -149.244 275.079 -150.977 272.358 -153.38C270.018 -155.445 268.179 -157.97 266.378 -160.381L264.582 -160.552ZM-3.81848 -159.407C-1.40032 -155.911 4.24451 -154.562 8.52508 -153.217C5.91242 -155.796 2.63965 -159.3 -1.67346 -159.557C-2.45963 -159.604 -3.05874 -159.567 -3.81848 -159.407ZM17.7707 -155.589C13.52 -154.826 2.89786 -151.253 0.650496 -148.085C0.212002 -147.467 0.510889 -146.912 0.715564 -146.239C1.23132 -144.545 3.0551 -143.144 4.80704 -142.314C9.77958 -139.958 15.9178 -139.684 21.4834 -139.597C26.1801 -139.97 33.0625 -139.934 36.3983 -143.206C37.8988 -144.678 37.7863 -146.163 37.6243 -147.962C35.0543 -151.69 30.1421 -153.966 25.2794 -155.02C22.7928 -155.559 20.3251 -155.731 17.7707 -155.589ZM342.621 -155.635C337.855 -154.339 325.701 -152.424 323.405 -148.609C322.659 -147.369 322.962 -147.029 323.388 -145.752C327.548 -141.651 333.35 -140.645 339.454 -140.268L346.055 -140.152C352.96 -140.488 358.656 -141.066 363.549 -145.673C364.14 -147.378 364.345 -147.516 363.294 -149.167C358.778 -151.905 348.402 -155.758 342.621 -155.635ZM248.553 -148.534C243.49 -146.716 240.908 -143.87 238.849 -139.597C237.323 -136.431 236.768 -132.88 238.386 -129.638C240.453 -125.495 245.174 -122.751 249.984 -121.171C259.887 -117.919 270.537 -118.272 280.192 -121.967C284.08 -123.454 287.043 -125.41 289.701 -128.234C292.196 -132.642 292.736 -136.165 290.754 -140.858C289.525 -143.767 287.199 -146.558 283.826 -147.869L282.982 -148.178L282.236 -147.676C283.414 -145.653 284.036 -144.24 283.108 -141.975C282.195 -139.746 279.681 -137.939 277.215 -136.961C270.828 -134.428 261.841 -134.274 255.258 -136.362C252.5 -137.237 249.631 -138.572 248.349 -140.938C247.639 -142.25 247.34 -144.657 247.985 -146.014C248.223 -146.514 248.533 -146.922 248.836 -147.39L249.203 -148.049L249.438 -148.457L248.553 -148.534ZM40.4247 -147.962C41.0835 -145.927 41.2549 -143.468 39.9015 -141.574C37.9855 -138.894 33.36 -137.977 30.0425 -137.219C29.4773 -137.089 27.1587 -136.764 26.809 -136.504C26.5074 -136.28 26.8673 -135.828 26.8958 -135.49L27.2929 -130.166L27.7531 -114.484L28.8321 -113.789L33.7856 -114.675C38.8368 -116.157 45.4575 -118.476 47.9658 -122.761C49.7415 -125.795 48.3393 -138.423 47.0238 -141.607C45.9455 -144.217 43.8344 -146.118 41.484 -147.961L40.4247 -147.962ZM161.232 -147.962C156.835 -144.892 153.31 -139.776 152.716 -134.88C152.227 -130.845 154.083 -127.056 157.111 -123.992C160.323 -120.742 165.879 -118.582 170.495 -117.128C173.094 -116.679 173.839 -116.223 176.239 -117.293C178.452 -120.643 176.881 -130.071 176.784 -134.137C175.459 -135.167 173.272 -135.646 171.614 -136.248C166.646 -138.053 163.09 -140.481 162.816 -145.336L162.834 -148.2L161.232 -147.962ZM202.209 -147.962C202.179 -144.222 201.615 -141.52 198.312 -138.82C195.65 -136.645 191.006 -135.587 187.627 -134.329C187.592 -131.63 186.621 -119.844 187.511 -118.204C187.742 -117.778 188.708 -117.102 189.116 -116.727C191.315 -116.892 193.285 -117.116 195.403 -117.659C201.339 -119.894 208.423 -123.021 210.926 -128.439C212.944 -132.809 211.658 -137.498 209.379 -141.609C207.896 -144.284 205.525 -146.87 202.209 -147.962ZM-7.7141 -147.39C-9.47146 -139.954 -9.29458 -131.7 -9.6958 -124.105C-4.58365 -117.852 3.69488 -115.156 12.2276 -113.564L13.9029 -113.938L13.9849 -136.962C8.75416 -138.209 2.66676 -139.225 -0.260375 -143.577C-1.16515 -144.923 -1.6599 -146.348 -2.6826 -147.658C-4.40608 -147.808 -6.16751 -148.179 -7.7141 -147.39ZM81.2067 -147.39C76.9363 -144.858 73.5117 -141.683 72.5622 -137.181C71.9373 -134.218 72.8238 -131.728 74.8766 -129.292C79.2467 -124.107 86.817 -121.665 94.0254 -120.748C103.6 -119.53 114.863 -120.785 122.815 -125.734C124.275 -126.643 125.564 -127.71 126.803 -128.824C128.698 -131.985 129.924 -134.67 128.567 -138.211C127.435 -141.166 123.636 -145.863 120.284 -147.185C119.754 -147.393 119.204 -147.517 118.632 -147.61L118.734 -147.224C119.29 -144.956 119.353 -142.826 117.749 -140.842C115.682 -138.285 110.849 -136.249 107.252 -135.784C100.569 -134.919 91.4317 -135.048 85.8688 -138.656C83.9461 -139.903 82.228 -141.656 82.0342 -143.777C81.9224 -145 82.3473 -146.374 82.7831 -147.526L81.2067 -147.39ZM319.889 -147.39C313.445 -141.535 315.024 -132.248 315.048 -124.692C319.543 -118.723 325.043 -116.447 332.542 -113.876L335.507 -113.764C336.374 -116.355 335.969 -119.534 335.965 -122.214C335.958 -125.825 336.49 -130.159 335.384 -133.655L335.294 -133.951C334.741 -135.72 333.788 -136.721 331.934 -137.661C328.446 -139.429 322.934 -140.951 321.71 -144.629L321.147 -147.211L319.889 -147.39ZM366.351 -147.39C365.272 -144.17 364.332 -141.954 360.676 -140.207C357.74 -138.803 352.992 -137.707 351.412 -135.086L351.245 -134.827C349.89 -132.676 350.073 -129.902 350.038 -127.527L350.048 -114.198L351.095 -113.379L354.809 -114.023C361.958 -115.695 368.003 -118.368 371.781 -123.974C371.848 -131.882 373.571 -140.5 367.871 -147.229L366.351 -147.39ZM140.487 -144.459C138.374 -142.103 135.598 -139.377 134.597 -136.517C133.237 -132.633 134.341 -125.834 134.386 -121.638C135.565 -120.263 136.49 -119.525 138.569 -119.278L142.353 -119.066C144.544 -119.791 146.034 -120.279 147.483 -121.924L147.469 -132.283C147.467 -133.472 147.76 -135.306 147.463 -136.433C146.803 -138.937 142.596 -142.632 140.487 -144.459ZM59.8276 -144.136C57.8235 -141.796 55.6798 -139.545 54.5236 -136.803L54.3 -136.306C52.6815 -132.377 53.854 -125.338 53.9062 -121.065C55.5897 -119.634 56.7405 -118.962 59.2061 -118.952L61.5124 -119.028C62.6964 -119.352 66.365 -120.058 66.8841 -120.858C68.0546 -122.661 67.7672 -134.057 66.8943 -136.169C66.6476 -136.767 66.2762 -137.29 65.9048 -137.835C64.1894 -140.349 62.363 -142.178 59.8276 -144.136ZM223.917 -144.348C221.338 -141.813 218.319 -138.608 217.411 -135.302C216.388 -131.576 217.248 -126.112 217.319 -122.21C218.292 -120.789 219.362 -119.49 221.356 -119.037C222.508 -118.776 223.85 -118.597 225.036 -118.66C227.274 -119.148 229.334 -119.392 230.758 -121.065C230.805 -125.783 232.107 -133.859 229.641 -138.028L229.446 -138.366C228.091 -140.655 225.967 -142.496 223.917 -144.348ZM302.982 -142.239C300.412 -140.084 298.923 -138.079 297.294 -135.391L297.287 -124.892C297.287 -124.056 296.989 -122.082 297.285 -121.352C297.438 -120.976 298.55 -120.136 298.909 -119.791C300.823 -119.262 302.289 -118.92 304.331 -118.998C306.452 -119.136 307.415 -119.329 309.075 -120.546C311.113 -122.808 310.49 -132.269 309.95 -135.231C309.725 -136.464 309.009 -137.54 308.245 -138.583C307.209 -139.997 306.226 -141.456 304.489 -142.335L302.982 -142.239ZM72.3955 -125.644C72.3711 -122.7 72.4246 -120.927 74.9492 -118.755C81.2616 -113.326 91.9983 -111.038 100.786 -111.042C109.52 -111.047 119.768 -112.921 126.077 -118.351C126.858 -119.024 127.574 -119.706 128.19 -120.493C128.336 -122.093 128.826 -124.074 128.12 -125.587C120.711 -119.379 111.555 -116.224 100.997 -116.228C91.1877 -116.232 80.8204 -118.82 73.9285 -124.885L73.1688 -125.595L72.3955 -125.644ZM236.095 -125.071C235.563 -122.341 235.9 -120.633 237.78 -118.33C241.431 -113.858 251.854 -111.14 257.874 -110.259C266.806 -108.952 280.227 -110.951 287.388 -115.674C289.056 -116.775 290.82 -118.326 291.797 -119.921C292.207 -121.337 292.311 -122.227 291.843 -123.641L291.054 -123.766C282.495 -117.534 272.797 -113.826 261.319 -114.573C252.162 -115.168 242.867 -118.839 236.871 -124.742L236.615 -125.002L236.095 -125.071ZM211.433 -122.782C206.268 -117.748 201.209 -115.285 193.796 -113.108C192.243 -112.652 189.866 -112.246 188.567 -111.41C187.422 -110.672 187.679 -109.585 187.597 -108.476L189.116 -107.313C196.433 -107.614 205.702 -111.336 210.557 -116.007C212.516 -117.892 212.611 -119.693 212.386 -122.1L212.328 -122.675L211.433 -122.782ZM153.082 -122.21C152.965 -119.397 152.514 -117.495 154.93 -115.259C159.547 -110.987 168.012 -107.799 174.83 -107.211L176.054 -107.903C176.495 -109.418 176.695 -109.767 176.108 -111.216C172.963 -112.799 169.221 -113.427 165.867 -114.656C161.246 -116.35 157.687 -119.273 153.822 -121.918C153.448 -122.175 153.592 -122.091 153.082 -122.21ZM-10.3898 -120.493L-35.2044 -84.738L75.0874 -84.2694L80.001 -84.3655C78.6232 -86.0943 73.2738 -87.9135 70.9234 -89.1977C65.591 -92.1105 60.6476 -95.8543 54.996 -98.2853C45.8567 -91.2338 31.6419 -86.7576 19.2313 -87.2074C8.83551 -87.5845 -2.8744 -91.1549 -10.7754 -96.9931C-10.1228 -99.2753 -9.34473 -101.643 -9.13735 -103.987C-8.74358 -108.423 -9.23629 -112.769 -7.52908 -117.06L-9.48367 -120.382L-10.3898 -120.493ZM315.128 -118.204C315.254 -115.54 315.876 -112.902 318.274 -110.978C321.531 -108.365 330.205 -104.871 334.721 -104.917L335.762 -105.042C335.989 -106.91 336.534 -107.751 335.168 -109.287C330.429 -110.46 326.269 -111.66 322.222 -114.146C320.257 -115.353 317.369 -118.162 315.128 -118.204ZM46.668 -117.06C42.3874 -114.155 38.115 -112.107 32.8625 -110.719C31.6684 -110.404 29.2732 -110.222 28.2817 -109.742C28.1774 -109.692 27.6914 -108.647 27.5986 -108.476L27.8595 -106.375L29.1709 -105.879C34.7365 -106.496 43.9977 -109.244 47.5931 -113.139C48.0445 -113.628 47.7015 -116.203 47.6846 -116.952L46.668 -117.06ZM367.587 -115.343C364.632 -113.664 361.612 -112.124 358.324 -110.95C355.86 -110.069 351.987 -109.989 350.113 -108.476L350.233 -105.352L351.773 -104.834C357.755 -105.841 364.213 -107.626 367.902 -112.063C368.848 -113.201 369.128 -113.977 368.775 -115.333L367.587 -115.343ZM57.6907 -114.831C55.8858 -114.342 54.8591 -114.239 53.5531 -113.054L53.5192 -102.258L62.8008 -96.3693C65.3389 -101.881 67.2528 -107.286 68.7858 -113.054C66.1251 -115.081 61.2935 -114.791 57.6907 -114.831ZM-2.83712 -114.198C-2.66769 -112.055 -2.52672 -111.976 -0.608053 -110.581C2.26419 -108.492 9.18182 -105.161 13.0191 -105.664L13.583 -105.812L13.8121 -109.048C12.0859 -110.184 9.89682 -110.191 7.87853 -110.765C4.92632 -111.604 0.0622254 -114.193 -2.83712 -114.198ZM135.837 -114.198C135.03 -113.487 134.496 -113.316 134.525 -112.283C134.648 -107.81 138.34 -101.667 140.19 -97.4143L141.137 -97.0303L143.823 -98.9554C145.396 -99.9477 147.587 -100.724 147.87 -102.415C148.373 -105.416 147.894 -109.065 147.848 -112.129C146.376 -113.581 145.398 -114.369 143.027 -114.508C140.807 -114.638 137.974 -114.693 135.837 -114.198ZM220.977 -114.198C219.772 -113.593 217.934 -113.04 217.52 -111.849C216.531 -109.003 217.371 -103.827 217.408 -100.739C219.849 -99.637 222.344 -98.3202 224.951 -97.5408L225.714 -98.4037C226.953 -101.675 231.583 -111.014 230.458 -113.738C227.557 -114.529 223.913 -115.13 220.977 -114.198ZM299.868 -114.31L296.568 -113.626C295.876 -112.262 296.874 -110.075 297.242 -108.659L300.607 -95.4217L306.763 -98.354L312 -100.75C312.237 -102.512 313.539 -107.324 313.087 -108.852C312.793 -109.847 310.957 -111.965 310.168 -112.817C309.604 -113.428 308.904 -113.676 308.059 -113.921L307.43 -114.108C305.12 -114.759 302.268 -114.442 299.868 -114.31ZM374.523 -113.626L374.366 -113.206C372.919 -109.118 375.438 -101.01 372.723 -97.9665C367.503 -92.1128 359.163 -88.9665 350.687 -87.8397C339.196 -86.3123 326.619 -88.7296 317.216 -94.5822C315.361 -95.737 313.726 -97.1533 312.121 -98.5434C311.311 -98.3946 285.849 -84.2688 285.798 -84.2081L297.723 -84.2138L400.012 -84.2299C396.877 -88.1024 376.983 -113.083 374.523 -113.626ZM154.404 -106.187C154.102 -103.139 155.334 -101.26 157.654 -98.9611C162.137 -94.5163 171.192 -91.9503 177.934 -91.5612C187.637 -91.0003 198.49 -92.9672 205.976 -98.489C208.423 -100.294 209.948 -102.067 210.804 -104.716V-106.731C207.213 -104.697 203.755 -102.74 199.627 -101.545C196.55 -100.656 190.218 -100.381 187.803 -98.9657C184.897 -97.2598 185.726 -93.7352 180.813 -94.0608C178.708 -95.6431 177.137 -97.0767 175.675 -99.1162C171.171 -100.031 166.342 -100.791 162.136 -102.457C159.774 -103.393 156.664 -105.681 154.404 -106.187ZM97.1734 -105.84C92.3859 -104.653 86.409 -102.814 84.1216 -98.703C83.4032 -97.412 83.7353 -95.5527 83.8756 -94.169C85.8465 -90.7926 89.1159 -88.7565 93.3192 -87.5736C98.1792 -86.2059 103.642 -86.2231 108.653 -86.967C112.788 -88.1602 118.101 -89.6298 120.044 -93.2963C120.839 -94.7985 120.945 -96.794 120.267 -98.3522C118.961 -101.35 115.23 -103.289 111.911 -104.441C106.784 -106.22 102.536 -105.83 97.1734 -105.84ZM261.416 -105.194C256.671 -104.525 250.803 -103.388 247.846 -99.8413C246.089 -97.7348 246.275 -95.773 246.585 -93.3106C248.733 -89.873 252.036 -88.1585 256.379 -87.0145C259.946 -86.0754 264.087 -86.3518 267.786 -86.4033C271.803 -87.2949 277.68 -89.0323 279.753 -92.3875C280.744 -93.991 281.01 -95.9504 280.267 -97.6569C279.052 -100.455 276.375 -102.094 273.261 -103.25C269.458 -104.661 265.543 -105.092 261.416 -105.194ZM46.9147 -105.119C44.4098 -103.879 41.8086 -102.467 39.1065 -101.567C36.3847 -100.661 33.4434 -100.055 30.628 -99.3886C30.0933 -99.2621 28.218 -98.9995 27.8527 -98.7374C24.7982 -96.541 24.3841 -92.2496 18.6762 -93.4462C15.8345 -94.0419 14.3339 -96.6537 13.1493 -98.6653L12.7982 -99.2713C7.29772 -100.534 2.42752 -102.358 -2.88118 -103.984C-4.29764 -102.707 -4.80933 -101.515 -5.47215 -99.8916C-1.13804 -95.5069 9.05033 -92.11 15.6711 -91.6281C26.0032 -90.8756 38.8957 -92.8888 47.116 -98.6636C47.7937 -99.1397 48.054 -99.4664 48.3142 -100.178C47.7171 -101.832 47.1932 -103.4 46.9147 -105.119ZM366.262 -104.47C361.552 -102.383 356.457 -100.853 351.834 -98.7471C348.742 -97.3388 345.833 -94.9902 342.501 -94.09C335.269 -98.9485 328.208 -100.95 319.919 -104.125C318.837 -103.55 318.811 -103.429 318.516 -102.373C318.33 -101.709 318.421 -101.14 318.564 -100.481C321.52 -95.9356 327.343 -94.4208 332.933 -93.0508C343.154 -90.5448 353.573 -91.5972 362.99 -95.8903C365.192 -96.8947 366.668 -98.0741 367.337 -100.152C367.766 -101.485 367.747 -102.792 367.625 -104.157L366.262 -104.47ZM149.234 -100.347C140.885 -93.9927 132.477 -88.9322 122.786 -84.0988L230.458 -84.1978L241.226 -84.1681C231.755 -88.8126 223.389 -93.8834 215.139 -99.9483C206.594 -91.7746 197.383 -87.7562 184.384 -87.0517C174.494 -86.5161 162.686 -88.9757 155.17 -94.6909C152.973 -96.3619 151.051 -98.3808 149.234 -100.347ZM-75.9992 -84.6854L-48.2745 27.5399L-37.9004 68.7539C-36.3877 74.2288 -35.2064 79.9159 -33.1827 85.2689C-31.7018 83.2883 -29.5927 81.0496 -28.8005 78.8115L-68.6343 -79.7078L-43.0241 -79.8269L12.6816 162.132L25.0957 219.875L41.4257 293.923L45.9381 315.134C46.6578 318.679 46.8727 322.883 48.5907 326.146L49.8418 326.63C50.422 326.273 52.4423 325.269 52.5209 324.755C52.8537 322.586 52.0472 320.016 51.6317 317.861L48.874 304.229L36.7419 247.943L-37.9648 -84.6196L-75.9992 -84.6854ZM-31.6029 -80.4787L-12.4982 0.892914L21.1418 151.047L48.6964 280.84L54.0885 306.13C55.0041 310.665 55.3674 316.587 57.5266 320.807L59.6866 321.296C60.4328 322.709 59.7808 324.583 59.4596 326.072L53.0909 350.084L39.1594 406.312L36.992 415.084C36.7195 416.086 35.8269 418.043 35.8805 418.97C35.9618 420.361 37.2082 422.598 37.6595 424.018L41.3912 437.088L-57.2517 436.831L-57.2687 252.274L-57.2761 218.027C-57.2761 216.064 -56.5632 210.71 -57.2782 209.132C-57.3812 208.903 -58.0339 208.434 -58.2568 208.228L-61.2483 208.411C-63.4212 211.852 -61.4605 418.341 -61.3785 441.363L-61.2761 531.283C-57.5025 526.184 -54.3192 521.022 -52.0332 515.317C-50.8275 512.301 -50.0603 507.151 -48.2182 504.655C-40.4812 509.434 -33.9695 509.943 -24.6731 509.84L-13.2722 497.279C-23.2044 499.963 -31.4687 500.14 -40.8682 496.031C-48.6262 492.644 -54.532 486.555 -57.1846 479.533C-59.964 472.179 -59.0593 464.717 -54.8682 457.838C-51.0681 451.606 -43.8787 446.508 -35.9804 444.413C-27.6598 442.204 -18.4074 442.565 -10.5714 445.987C-2.9686 449.306 3.22521 455.538 5.71249 462.428C7.34312 466.937 7.19674 470.943 7.009 475.596C32.8063 450.067 64.6537 428.401 101.822 415.834C115.991 411.044 130.578 406.947 145.595 404.509L162.704 402.002C164.235 401.768 166.571 401.682 167.624 400.703L167.259 400.091C169.318 399.141 172.117 399.198 174.424 399.09C181.275 398.758 188.387 398.866 195.048 400.4L195.206 400.732C195.463 401.19 195.664 401.43 196.232 401.63C197.61 402.111 199.94 402.168 201.445 402.374L213.763 404.023C221.265 405.11 228.911 406.523 236.249 408.246C281.957 418.959 329.187 443.984 357.932 476.22C357.133 467.721 358.601 460.168 365.382 453.483C370.834 448.104 378.391 444.133 386.871 443.578C396.189 442.965 404.767 444.608 411.945 449.884C419.003 455.074 423.01 462.617 423.545 470.451C424.031 477.559 421.402 484.844 415.702 490.166C411.551 494.046 405.833 497.514 399.788 498.887C390.621 501.022 383.983 499.705 375.207 497.061L384.949 510.676C389.955 509.211 394.689 508.558 399.724 507.448C403.225 506.676 406.202 504.753 409.956 506.344C414.91 508.438 422.025 521.039 423.623 525.515C424.224 527.203 423.958 529.297 423.794 531.031C420.548 535.718 416.508 539.449 411.999 543.283C419.297 556.234 424.295 569.911 428.506 583.788L428.626 87.4218C426.026 92.8468 425.276 99.3798 423.832 105.103L413.267 148.02L405.32 177.614C403.926 182.648 402.058 187.747 401.175 192.865L422.159 192.904L421.843 437.729L355.29 437.752H335.279C332.196 437.746 328.702 438.032 325.68 437.689C324.952 437.609 324.322 437.26 323.749 436.893C322.515 435.108 323.406 433.231 324.015 431.285C324.926 428.367 327.231 423.892 327.022 420.933C326.843 418.398 325.589 415.29 324.95 412.75L319.857 393.322L299.455 321.296C301.445 320.696 305.462 321.576 306.206 319.865L395.382 -80.5891L-31.6029 -80.4787ZM-120.105 -34.9258C-122.672 -33.91 -125.226 -32.9291 -127.607 -31.6186L-117.897 -24.5088C-117.024 -23.8147 -116.386 -22.693 -115.187 -22.4555L-109.426 -22.4996C-107.758 -24.0092 -108.623 -32.4141 -108.618 -34.9183L-120.105 -34.9258ZM-85.6725 -34.9521L-85.6908 -22.8355L-67.2951 -22.8487L-68.1307 -34.9389L-85.6725 -34.9521ZM472.807 -34.4061L472.731 -23.631C476.201 -23.0764 479.088 -22.4298 482.31 -21.1433L489.786 -26.5197L496.11 -31.6907C493.996 -32.5657 491.53 -33.7921 489.236 -34.2196C484.447 -35.1135 477.793 -34.429 472.807 -34.4061ZM-131.302 -27.7862C-129.593 -24.0996 -129.054 -20.246 -128.471 -16.3409C-128.198 -14.5056 -128.27 -12.0477 -127.296 -10.4168L-125.524 -13.7159L-121.636 -21.9302C-123.987 -24.0184 -127.811 -27.6568 -131.302 -27.7862ZM498.689 -27.2139C494.278 -23.7414 489.734 -20.3496 485.988 -16.3409L486.083 -15.7423C486.713 -15.7388 487.367 -15.6999 487.99 -15.7686L500.486 -26.0694L500.107 -27.1607L498.689 -27.2139ZM-107.548 -22.2993L-107.556 -5.65952L-86.4045 -5.72019L-86.4533 -22.297L-107.548 -22.2993ZM486.973 -13.4795C489.593 -9.43361 495.767 -4.10755 500.219 -1.40645L500.963 -1.46195C500.263 -4.44803 492.137 -10.9576 488.983 -12.9073C488.44 -13.2432 488.008 -13.3679 487.379 -13.5545L486.973 -13.4795ZM-123.44 -4.89555C-125.021 -2.94698 -125.536 -2.5464 -125.461 -0.190387C-123.282 2.2921 -120.45 4.51651 -118.468 7.07568C-117.63 8.15841 -116.207 11.2063 -115.187 11.9039C-114.905 12.0962 -113.853 12.2638 -113.492 12.3016L-109.765 12.3245L-108.351 11.7002L-108.521 -5.17939C-112.246 -5.18225 -120.255 -6.04351 -123.44 -4.89555ZM-85.6908 -5.15536L-85.7234 12.1162L-67.5269 12.0985L-67.6001 -5.16051L-85.6908 -5.15536ZM434.129 -5.38942L434.114 11.96L451.015 11.9771L451.022 -5.35908L434.129 -5.38942ZM-133.755 -0.00839335L-130.164 16.1346C-129.624 18.6932 -129.317 22.0198 -127.953 24.3358C-126.96 23.4945 -126.771 22.7271 -126.436 21.5935L-121.752 9.70409C-124.623 5.04127 -128.776 2.88613 -133.755 -0.00839335ZM499.761 9.41109C495.45 12.8006 490.76 16.1203 487.063 19.998L487.698 20.8163L488.675 20.6298L501.552 10.5499L501.283 9.47519L499.761 9.41109ZM-107.643 13.0564L-107.655 30.1117L-86.4052 30.1294L-86.4153 13.0604L-107.643 13.0564ZM486.251 22.0009C489.444 26.341 495.344 31.8542 500.262 34.8374L501.136 34.5908C500.835 31.6722 490.505 24.4851 487.775 22.1074L486.251 22.0009ZM-124.316 30.5849C-125.403 32.0688 -126.06 33.1126 -126.324 34.8769C-125.32 37.6009 -122.076 39.8001 -119.878 41.9066C-117.825 43.8729 -116.208 46.1872 -114.702 48.4711L-110.442 48.6622L-108.593 48.0173L-108.528 30.3474C-112.955 30.3428 -120.252 29.5051 -124.316 30.5849ZM-85.7044 30.3635L-85.7071 48.5758L-67.3256 48.5775L-67.3649 30.3806L-85.7044 30.3635ZM-133.643 36.2063L-131.047 48.8265C-130.397 52.5153 -129.98 56.6573 -128.296 60.1253L-125.644 55.2032L-121.689 45.3414C-124.846 41.1106 -128.745 38.8439 -133.643 36.2063ZM500.413 45.4638L485.803 56.9091C486.307 57.3807 486.6 57.6474 487.319 57.8551L501.863 47.1806L501.534 45.5107L500.413 45.4638ZM427.015 46.328L413.56 98.922C413.113 100.908 411.304 105.561 411.62 107.325C411.812 108.396 414.059 111.1 414.802 112.141L416.157 113.716C418.522 109.08 419.449 103.43 420.678 98.4962C422.794 90.0067 425.37 81.069 426.471 72.473C427.102 67.5458 426.937 62.4069 427.027 57.4499C427.095 53.7834 427.44 49.9744 427.015 46.328ZM-60.4018 48.8974C-60.6967 54.7099 -61.0023 61.2286 -60.1497 67.0028C-59.1609 73.696 -56.7753 80.5282 -55.0586 87.1345L-49.0369 108.985L-48.4297 109.199L-47.2179 107.874C-46.797 107.297 -45.1732 105.528 -45.1061 104.979C-44.7902 102.372 -47.1427 96.8476 -47.8428 94.1018L-57.7065 56.0828C-58.1816 54.394 -58.8919 49.8405 -60.4018 48.8974ZM-107.711 49.076L-107.792 66.3836L-86.397 66.4293L-86.3909 49.1155L-107.711 49.076ZM487.557 59.1982C488.973 62.7525 496.637 68.1645 500.076 70.6641L501.216 70.6435C500.685 67.6494 491.792 61.7825 489.028 59.4099L487.557 59.1982ZM-124.922 67.2099C-126.287 69.1957 -126.281 69.7811 -126.207 72.0742C-122.434 76.6712 -117.981 79.2349 -115.187 84.6205L-109.765 84.8517C-109.461 84.5879 -108.677 84.066 -108.513 83.7638C-107.829 82.5071 -108.544 69.0595 -108.549 66.8482C-112.891 66.8053 -121.104 65.8433 -124.922 67.2099ZM-85.7247 66.9306L-85.7464 85.1705L-67.0945 85.139L-67.3473 66.9404L-85.7247 66.9306ZM434.142 66.9415L434.146 84.6205L451.101 84.6068L451.129 66.9261L434.142 66.9415ZM378.864 68.9267L375.15 85.6483C374.809 87.1974 373.766 89.962 374.067 91.3904C374.539 93.6286 378.703 97.7992 380.29 100.019L409.962 140.647L413.45 126.794C413.719 125.765 414.836 123.495 414.714 122.629C414.474 120.923 410.79 116.54 409.631 114.686C400.098 99.4393 390.43 83.7587 379.566 69.1522L378.864 68.9267ZM-13.0628 68.2864C-16.8567 73.3452 -50.1938 120.686 -50.3131 122.224C-50.3904 123.227 -49.5628 125.14 -49.2985 126.175L-46.9502 135.645L-46.0224 138.919L-45.1325 139.315L-26.7808 115.288L-13.7195 97.6213C-11.8896 95.0392 -9.35151 92.183 -8.36608 89.3017L-13.0628 68.2864ZM-134.299 72.2933L-128.741 96.7251C-127.587 95.8638 -127.244 94.8635 -126.722 93.6818C-125.319 90.8336 -121.084 83.8497 -122.596 80.8997C-124.609 76.9716 -130.165 74.4588 -134.299 72.2933ZM499.991 82.0888C495.426 85.5447 489.495 89.2954 486.453 93.8203L486.988 94.325L487.997 94.0995C491.258 92.3484 500.725 85.4457 501.552 82.5798C501.031 82.387 500.554 82.1701 499.991 82.0888ZM-107.677 85.2512L-107.69 102.504L-86.4221 102.511L-86.4682 85.2632L-107.677 85.2512ZM-60.2046 87.5271L-59.3371 194.53C-54.8519 194.524 -39.2443 195.579 -36.3565 193.681L-51.4124 136.46C-52.5788 131.578 -56.2758 122.384 -54.7604 117.708C-53.815 114.793 -54.8031 111.007 -55.3758 108.055L-60.2046 87.5271ZM487.143 95.2509C489.365 99.7501 495.771 104.413 499.971 107.777L500.874 107.835C500.423 104.483 491.567 98.0831 488.6 95.1748L487.143 95.2509ZM482.206 100.077C479.13 101.54 476.106 103.05 472.787 104.095L472.773 120.809C476.664 121.626 479.851 122.906 483.374 124.471L488.474 121.189C492.357 118.567 496.832 115.982 500.146 112.861C495.326 108.516 488.355 102.953 482.206 100.077ZM-123.717 102.69C-125.196 103.672 -126.124 104.478 -126.401 106.124C-126.862 108.867 -123.976 110.727 -121.964 112.642C-119.18 115.289 -117.251 117.989 -115.012 120.956L-111.12 121.068L-109.087 120.859C-108.332 119.049 -108.625 116.917 -108.626 115.022L-108.677 102.85L-123.717 102.69ZM-85.5668 103.062L-85.6414 121.257L-66.6377 121.219L-66.5631 103.107L-85.5668 103.062ZM434.112 103.008L434.102 121.163L451.034 121.166L451.015 103.012L434.112 103.008ZM-134.039 109.116C-131.718 116.908 -132.071 126.298 -128.661 133.642C-127.77 132.688 -127.314 131.768 -126.826 130.631L-121.692 118.716C-125.011 113.86 -128.346 111.863 -134.039 109.116ZM-3.82662 109.158L-35.0878 151.165C-36.793 153.573 -39.7662 156.502 -40.8248 159.084C-41.1129 159.786 -40.6466 160.873 -40.4649 161.588L-35.8414 178.262L-6.21021 138.938C-4.41354 136.443 -0.179732 131.996 0.496647 129.207C0.992749 127.162 -0.89677 121.692 -1.40439 119.293L-3.82662 109.158ZM369.515 110.482L365.541 127.837C365.293 129.227 364.514 131.586 364.698 132.932C364.928 134.625 393.879 172.083 396.981 176.097L399.234 178.961L400.188 178.229L405.28 159.206L369.515 110.482ZM500.032 118.714L485.54 131.012C489.811 135.366 494.313 140.483 499.578 143.996L500.976 143.894L500.886 143.627C499.522 140.165 490.939 134.356 487.8 131.471L498.441 122.727C499.66 121.744 501.454 120.702 501.872 119.286C501.196 118.973 500.82 118.674 500.032 118.714ZM451.488 121.484L451.368 139.546L472.757 139.542L472.775 121.536L451.488 121.484ZM-107.813 121.73L-107.832 139.082L-86.4363 139.189L-86.4424 121.711L-107.813 121.73ZM-124.217 139.315C-125.636 140.792 -126.395 142.226 -126.229 144.18C-125.964 147.301 -120.449 150.055 -118.187 152.492C-116.87 153.911 -116.025 155.635 -115.187 157.28C-113.525 157.727 -112.155 157.778 -110.442 157.757L-108.872 157.314C-108.01 151.446 -108.63 145.062 -108.665 139.133C-113.108 139.123 -120.087 138.316 -124.217 139.315ZM-85.6942 139.58L-85.7085 157.766L-66.7319 157.717L-67.0342 139.575L-85.6942 139.58ZM434.245 139.801L434.159 157.875L450.994 157.879L451.025 139.804L434.245 139.801ZM-133.434 145.841C-132.542 154.273 -131.097 162.306 -128.525 170.496L-125.706 164.486C-124.084 161.059 -121.03 156.77 -122.786 153.192C-124.51 149.677 -129.655 147.529 -133.434 145.841ZM4.86736 148.097L-31.8591 197.922L-25.6897 218.892L4.36312 178.458C5.2984 177.162 9.66979 172.081 9.70978 171.01C9.78433 169.013 8.64573 166.076 8.21943 164.053L5.23131 149.326L4.86736 148.097ZM359.826 151.165L356.078 167.284C355.838 168.293 354.704 171.639 354.977 172.406C355.307 173.331 356.819 174.867 357.472 175.741L363.448 183.754L386.928 215.703L389.024 218.073L389.982 217.144C390.748 214.632 395.764 200.282 395.232 198.679C394.971 197.892 393.865 196.695 393.354 195.966L359.826 151.165ZM500.009 155.339L487.163 166.212L487.387 167.058L489.353 167.012C492.377 164.503 500.737 159.041 501.706 155.911C501.045 155.586 500.789 155.356 500.009 155.339ZM-107.693 158.103L-107.919 175.685L-86.5319 175.683L-86.4682 158.164L-107.693 158.103ZM485.739 166.871C489.652 172.493 494.223 176.395 499.791 180.892L500.874 180.846C500.005 177.539 489.31 168.861 485.739 166.871ZM481.103 173.651L472.981 177.498L472.906 194.546L482.593 197.537L487.292 194.946L500.545 186.325C495.481 182.238 488.486 176.125 482.243 173.48L481.103 173.651ZM-122.916 175.94C-124.345 176.604 -125.258 176.821 -125.764 178.229C-126.341 179.838 -126.076 181.647 -125.077 183.094C-123.642 185.171 -120.943 186.704 -119.082 188.53C-117.625 189.961 -116.811 192.061 -116.01 193.796C-114.603 193.926 -113.216 194.079 -111.798 194.047L-108.998 193.768C-107.894 188.158 -108.715 181.556 -108.741 175.834C-113.129 175.819 -118.671 175.246 -122.916 175.94ZM-85.6996 176.132L-85.6983 193.966L-66.8308 193.935L-66.8315 176.173L-85.6996 176.132ZM434.075 176.788L434.084 194.57L451.08 194.616L451.05 176.776L434.075 176.788ZM-134.126 181.918L-130.814 199.418C-130.311 201.559 -129.969 204.391 -128.688 206.27C-127.754 204.819 -126.999 203.433 -126.357 201.87C-124.132 197.18 -121.061 193.423 -123.601 188.454C-125.156 185.411 -130.794 183.417 -134.126 181.918ZM12.7758 190.819C9.36412 195.835 -20.1498 235.212 -20.4467 236.859C-20.6039 237.73 -19.4423 240.163 -19.1326 241.18L-14.6087 255.831L18.2059 208.877L13.9687 191.132C13.5742 191.036 13.1513 190.958 12.7758 190.819ZM349.993 191.277L346.844 204.855C346.542 206.099 345.494 208.695 345.634 209.88C345.684 210.307 346.896 211.676 347.194 212.099L353.4 220.663L378.078 253.904L379.203 253.196C380.859 247.78 382.963 242.178 383.798 236.635L349.993 191.277ZM499.94 192.536L487.094 203.409L487.412 204.164L489.353 204.111L501.552 193.675L501.354 192.566L499.94 192.536ZM-107.552 194.547L-107.587 211.702L-86.3984 211.68L-86.4072 194.558L-107.552 194.547ZM451.289 195.015L451.423 212.883L472.84 212.908L472.826 194.972L451.289 195.015ZM487.099 205.126C489.064 209.411 495.88 214.496 499.845 217.677L500.976 217.716C500.469 214.234 491.814 208.154 488.675 205.355L487.099 205.126ZM397.821 206.953L328.393 433.826L417.136 433.735L417.237 360.496L417.778 345.131C417.847 343.504 418.257 339.905 417.45 338.464L416.377 340.331L398.46 399.982C395.844 408.692 394.07 418.552 390.071 426.833L352.96 426.822C347.205 426.816 340.715 427.302 335.051 426.627L362.856 334.322L417.447 334.278L417.732 207.022L397.821 206.953ZM-52.5808 208.268L-52.5246 335.213L0.22352 334.866L27.4671 427.354L-28.5266 427.028L-43.6347 370.165L-49.0037 348.389C-49.9769 344.56 -50.6249 340.535 -52.2223 336.851L-52.5232 347.864L-52.4439 432.802L34.5372 432.916L-33.1163 208.259L-52.5808 208.268ZM-124.005 212.565C-125.199 213.45 -126.292 214.306 -126.469 215.713C-126.766 218.079 -125.34 219.592 -123.494 221.22C-121.697 222.804 -119.632 224.293 -118.076 226.053C-117.265 226.97 -115.895 229.612 -115 230.193C-114.625 230.436 -112.638 230.516 -112.141 230.526L-110.442 230.517L-108.885 229.996L-108.738 212.183C-112.815 212.172 -120.399 211.325 -124.005 212.565ZM-85.6888 212.262L-85.7091 230.481L-66.3686 230.366L-66.4764 212.255L-85.6888 212.262ZM434.114 213.393L434.121 231.24L451.095 231.335L451.08 213.384L434.114 213.393ZM-134.244 218.786C-133.032 227.172 -131.611 235.057 -128.983 243.222L-126.079 238.173C-124.824 235.679 -121.391 229.853 -122.41 227.295C-124.057 223.16 -129.936 220.63 -134.244 218.786ZM22.1997 228.01L-2.16684 263.286C-4.01841 265.97 -8.34101 270.748 -9.09329 273.641C-9.34134 274.596 -8.31458 276.847 -7.99672 277.832L-3.84627 290.899L19.1066 257.793C21.2102 254.728 25.297 250.169 26.3942 246.862C26.6267 246.161 25.5776 243.4 25.3614 242.475L22.1997 228.01ZM341.072 228.666L338.482 242.338C338.234 243.776 337.506 245.944 337.636 247.351C337.752 248.61 342.267 253.53 343.243 254.926L367.074 289.249L367.938 289.315L368.464 288.104L372.13 276.294C372.285 275.789 373.169 273.709 373.048 273.306C372.746 272.306 371.282 270.697 370.641 269.766L341.072 228.666ZM-107.796 230.965L-107.785 248.336L-86.5034 248.347L-86.4784 230.952L-107.796 230.965ZM-123.604 249.19C-125.184 250.688 -126.469 252.227 -126.239 254.4C-125.955 257.087 -120.7 259.928 -118.706 262.085C-117.356 263.546 -116.4 265.416 -115.364 267.054L-111.12 267.276L-108.914 266.931L-108.706 248.896C-112.858 248.907 -119.81 248.141 -123.604 249.19ZM-85.6468 248.874L-85.6481 267.177L-66.6187 267.176L-66.6438 248.882L-85.6468 248.874ZM-134.322 254.894C-133.068 263.524 -131.816 271.239 -129.02 279.605C-128.367 278.435 -127.556 277.23 -127.05 276.015C-124.842 271.658 -121.131 266.62 -123.407 261.902C-125.007 258.584 -130.794 256.554 -134.322 254.894ZM332.904 263.719L330.126 277.073C329.857 278.354 328.99 280.721 329.203 281.961C329.322 282.655 330.473 284.133 330.877 284.826L335.396 292.598C342.008 304.043 347.993 316.34 355.638 327.298L356.414 327.18L356.911 325.874L361.951 308.435L332.904 263.719ZM30.2282 265.18L6.26282 302.024C5.27468 303.572 1.66438 307.885 1.46378 309.439C1.3533 310.293 2.61864 312.942 2.91956 313.898L6.92158 327.436L29.3302 290.649C30.4823 288.656 33.5972 284.567 33.8656 282.632C34.0398 281.377 33.0001 278.756 32.7121 277.434C31.8243 273.364 31.3051 269.215 30.2282 265.18ZM499.525 266.358C495.584 269.127 489.82 272.741 487.455 276.659C488.543 276.92 488.675 276.933 489.755 276.659L501.552 267.289L501.446 266.285L499.525 266.358ZM-107.607 267.792L-107.723 285.138L-86.5353 285.131L-86.536 267.795L-107.607 267.792ZM486.648 278.376C489.262 282.961 495.616 287.504 500.082 290.958L501.1 290.966C500.085 287.189 491.664 281.1 488.038 278.376L486.648 278.376ZM481.633 283.292L472.749 288.261L472.731 305.038L480.836 308.38L488.045 304.68C492.607 302.118 496.962 299.575 501.037 296.473L481.633 283.292ZM-123.201 285.815C-124.636 287.062 -125.674 287.967 -125.735 289.821C-125.873 293.973 -120.77 297.134 -117.794 300.114C-116.541 301.368 -115.808 302.859 -114.571 304.128L-111.12 304.181L-109.087 303.963C-107.438 299.097 -108.653 290.765 -108.681 285.552C-113.072 285.562 -119.014 284.95 -123.201 285.815ZM-85.6705 285.865L-85.6339 304.084L-66.6648 304.041L-66.6838 285.926L-85.6705 285.865ZM434.161 287.317L434.179 304.982L451.198 305.011L451.108 287.326L434.161 287.317ZM-134.074 291.693C-133.473 299.72 -132.457 306.994 -129.419 314.643L-128.543 315.162C-127.65 313.777 -126.982 312.434 -126.355 310.955C-124.461 307.037 -121.157 302.772 -123.319 298.586C-124.768 295.782 -130.967 293.106 -134.074 291.693ZM324.456 301.267C324.023 302.663 323.321 304.395 323.364 305.833C323.432 308.049 325.536 311.421 326.412 313.57L332.665 331.27C333.243 333.194 334.343 335.367 334.435 337.319C334.58 340.363 332.168 345.36 331.235 348.525L324.138 373.383C323.338 375.967 321.722 378.682 321.708 381.384C321.692 384.265 323.277 387.251 324.036 390.039L329.407 410.1L330.134 410.569L331 408.429L341.453 372.014L346.919 354.225C347.353 352.73 348.553 350.145 348.509 348.667C348.458 346.964 345.634 342.638 344.828 340.912C338.709 327.811 332.799 313.816 324.863 301.442L324.456 301.267ZM499.886 302.411L487.319 313.544L487.417 314.268L489.353 314.156C492.409 311.803 500.882 306.162 501.552 302.824C500.973 302.635 500.506 302.431 499.886 302.411ZM-107.609 304.897L-107.639 322.022L-86.5468 322.072L-86.5502 304.935L-107.609 304.897ZM451.587 305.438L451.583 323.289L472.863 323.283L472.871 305.437L451.587 305.438ZM37.5226 305.723L21.4773 338.209L17.5769 345.923C17.2774 346.514 16.2167 348.049 16.1815 348.647C16.0493 350.916 18.254 355.444 18.9053 357.841L32.6308 406.563L33.2373 408.555L34.014 408.521L37.9001 391.463C38.4776 389.076 39.8378 385.764 39.7219 383.415C39.5823 380.58 37.9449 377.487 37.2549 374.685L29.5172 343.614C29.0977 341.921 27.5728 338.343 27.9069 336.785C28.2072 335.386 29.7978 333.187 30.5264 331.805L37.16 319.453C37.7626 318.371 39.2793 316.412 39.5077 315.301C39.8405 313.677 38.1211 307.409 37.5226 305.723ZM485.952 313.506C489.598 318.546 493.968 323.166 499.445 326.885L500.386 327.018C500.151 324.229 492.036 317.777 489.387 315.827L485.952 313.506ZM481.856 320.328L472.746 324.707L472.738 341.392C475.606 342.323 479.047 343.849 482.077 344.148L487.31 341.369L500.451 333.06C495.074 328.534 488.685 323.208 481.856 320.328ZM-123.029 322.44C-124.542 323.676 -125.909 324.587 -126.164 326.446C-125.003 331.748 -122.799 331.852 -119.222 335.538C-117.522 337.29 -116.222 339.279 -114.509 341.036L-111.798 341.054L-108.991 340.82C-107.758 335.204 -108.68 327.964 -108.708 322.182C-112.898 322.189 -119.099 321.511 -123.029 322.44ZM-85.699 322.733L-85.6475 340.955L-66.7292 340.956L-66.7224 322.757L-85.699 322.733ZM434.035 323.831L434.028 341.292L451.105 341.4L451.163 323.722L434.035 323.831ZM-134.725 328.036C-133.884 335.964 -133.695 344.4 -129.341 351.626H-128.561L-127.09 348.897C-125.471 345.42 -121.524 339.552 -123.449 335.805C-125.144 332.503 -131.185 329.868 -134.725 328.036ZM366.512 338.218L340.814 422.879L385.659 422.867C386.047 422.535 386.862 422.009 387.109 421.625C387.97 420.292 388.314 417.539 388.77 416.006L392.955 401.842L411.567 338.23L366.512 338.218ZM500.53 338.464C495.468 342.283 490.892 346.058 486.565 350.504L489.336 354.179C490.997 356.607 497.151 362.157 500.122 363.427L501.032 362.499L488.203 350.943L501.855 339.608L501.35 338.676L500.53 338.464ZM-46.8994 338.656L-24.9862 422.924L21.0808 422.93L-3.33323 338.679L-46.8994 338.656ZM-107.616 341.606L-107.726 358.568L-86.5387 358.481L-86.6058 341.602L-107.616 341.606ZM451.624 341.632L451.647 359.604L472.858 359.564L472.861 341.622L451.624 341.632ZM480.177 356.776C478.756 357.56 473.208 360.09 472.897 361.204C471.589 365.886 472.715 372.946 472.726 377.883L481.147 380.559L488.245 377.162L500.772 369.247L482.575 356.59C481.765 356.628 480.974 356.644 480.177 356.776ZM-123.07 359.065C-124.583 360.487 -125.789 361.843 -125.627 363.867C-125.364 367.159 -121.07 369.999 -118.878 372.514C-117.478 374.119 -116.578 375.975 -115.187 377.594L-111.12 377.6L-109.087 377.37C-107.469 372.474 -108.692 363.992 -108.716 358.727C-112.776 358.714 -119.344 357.977 -123.07 359.065ZM-85.6197 359.335L-85.621 377.593L-66.2487 377.541L-66.4696 359.341L-85.6197 359.335ZM434.084 360.056L434.008 377.495L451.065 377.544L451.096 360.029L434.084 360.056ZM-134.544 364.378C-134.11 371.642 -134.012 380.801 -129.084 387.106C-128.074 386.656 -127.924 385.824 -127.473 384.956C-125.699 381.264 -121.97 375.588 -123.957 371.545C-125.435 368.538 -131.271 365.886 -134.544 364.378ZM499.86 375.089C495.506 378.672 490.839 382.176 487.418 386.447C489.099 391.321 494.423 396.318 499.399 399.175L500.767 399.124L488.763 387.614C491.15 384.444 495.411 381.476 498.543 378.762C499.035 378.335 500.934 376.979 501.113 376.519C501.177 376.353 500.917 375.525 500.873 375.301L499.86 375.089ZM451.638 377.873L451.628 395.975L473.078 395.978L473.018 378.061L451.638 377.873ZM-107.475 378.216L-107.57 394.992L-86.6885 394.902L-86.6356 378.217L-107.475 378.216ZM481.118 392.505L472.704 397.665L472.679 414.186C475.562 415.302 478.484 416.635 481.633 417.087L488.281 413.757L500.877 405.865C494.579 400.909 488.613 396.182 481.118 392.505ZM-122.216 395.69C-123.824 396.905 -125.569 398.038 -125.742 399.982C-126.234 405.505 -119.045 409.345 -115.864 413.791C-114.469 414.02 -113.219 414.112 -111.798 414.077L-109.36 413.866C-108.399 412.669 -108.748 410.987 -108.745 409.585L-108.798 395.587C-112.825 395.542 -118.38 394.908 -122.216 395.69ZM-85.6874 395.93L-85.6705 413.757L-66.5123 413.762L-66.5455 395.958L-85.6874 395.93ZM433.562 396.534L433.616 413.991L451.178 414.049L451.206 396.519L433.562 396.534ZM-135.053 400.686C-134.442 407.29 -134.327 414.06 -131.533 420.326C-130.937 421.66 -130.387 423.405 -129.145 424.384C-128.564 423.611 -128.102 422.896 -127.698 422.043C-125.972 418.003 -122.295 412.217 -124.763 408.034C-126.251 405.51 -132.319 402.432 -135.053 400.686ZM170.241 405.373L161.737 406.106C161.349 410.546 162.456 415.485 162.99 419.943L165.585 442.41C175.267 441.826 185.402 441.157 195.022 442.525L197.416 442.044C198.775 437.134 198.87 431.955 199.444 426.942L201.873 406.34C191.645 405.144 180.537 404.383 170.241 405.373ZM228.294 410.398L219.029 445.317C230.481 447.812 241.505 450.937 252.101 455.406C253.995 456.202 257.371 458.228 259.385 457.89L261.774 453.358L275.201 425.437C261.946 418.226 243.42 413.728 228.294 410.398ZM132.967 410.884C117.499 414.884 102.233 419.325 87.7685 425.517L102.955 456.923L104.205 458.119C117.212 452.905 130.128 448.373 144.155 445.46L135.56 411.142C134.508 410.792 134.077 410.718 132.967 410.884ZM500.043 411.714C495.612 414.97 491.166 418.529 487.769 422.587L488.239 423.171L489.193 423.159L501.091 412.858L500.713 411.903L500.043 411.714ZM-107.487 414.564L-107.608 431.606L-86.5753 431.611L-86.6959 414.587L-107.487 414.564ZM451.686 414.369L451.677 432.584H473.056L472.907 414.432L451.686 414.369ZM488.377 424.876C490.025 428.596 495.159 432.619 498.743 435.177H499.892C498.512 431.755 492.829 427.72 489.708 425.128L488.377 424.876ZM-121.996 432.315C-123.866 434.204 -125.096 436.006 -126.303 438.244C-123.872 443.44 -120.254 446.084 -116.195 450.279C-114.708 450.45 -113.298 450.49 -111.798 450.462L-109.087 450.244C-107.541 445.025 -108.695 437.552 -108.724 432.081C-112.474 432.092 -118.534 431.446 -121.996 432.315ZM-85.6176 432.573L-85.5919 450.319L-66.6052 450.279L-66.5686 432.59L-85.6176 432.573ZM433.612 433.157L433.595 450.342L451.262 450.359L451.189 433.145L433.612 433.157ZM65.0759 436.527C44.4294 449.214 23.1547 463.424 7.91513 480.941C-1.83408 492.14 -9.46469 504.844 -16.9008 517.222L10.1537 532.29L19.3343 537.103C35.6304 510.058 55.8323 486.251 85.5225 468.54L73.3572 449.037C70.7906 444.899 68.3697 440.264 65.0759 436.527ZM298.819 436.705L277.815 468.631C306.526 486.892 326.007 509.308 342.597 536.01L380.787 516.301C383.198 521.12 385.253 526.608 388.351 531.123C390.612 534.413 394.052 536.903 395.945 540.434C397.942 544.153 399.221 548.325 400.614 552.239C404.437 562.964 407.101 574.14 408.758 585.253C409.251 588.561 410.269 592.264 410.237 595.56L411.671 613.317L429.952 615.658C427.305 597.803 423.369 580.858 416.532 563.765C413.516 556.228 410.165 548.434 405.197 541.635C397.475 531.06 387.493 521.595 379.512 511.093C372.04 501.262 365.032 490.795 356.837 481.387C345.793 468.706 331.026 456.888 316.276 447.229L298.819 436.705ZM-135.131 438.278C-134.975 445.003 -135.361 451.212 -132.123 457.455C-131.56 458.537 -130.985 460.196 -130.097 461.06C-129.722 461.427 -129.646 461.427 -129.214 461.633L-127.44 458.519C-125.667 454.405 -122.765 449.884 -125.223 445.569C-126.88 442.668 -131.908 439.949 -135.131 438.278ZM-29.2362 446.977C-37.5297 448.47 -44.286 451.538 -49.0227 457.672C-53.3609 463.292 -55.0674 469.867 -53.2843 476.454C-51.6706 482.411 -46.8539 488.283 -40.6357 491.522C-34.8147 494.555 -28.6256 495.631 -21.8422 494.956C-13.1021 493.382 -7.19699 490.16 -2.34034 483.785C1.66304 478.526 3.3289 472.219 1.66506 466.062C-0.0848496 459.59 -4.34305 453.987 -11.0899 450.428C-16.7998 447.417 -22.688 446.736 -29.2362 446.977ZM389.381 447.692C380.889 448.539 374.238 450.908 368.83 456.751C364.138 461.816 362.046 468.288 363.06 474.663C363.998 480.569 368.496 487.688 374.156 491.242C379.47 494.572 386.039 496.323 392.665 495.848C401.126 494.572 408.647 491.419 413.741 485.342C417.623 480.712 419.449 473.232 418.134 467.618C416.51 460.694 412.064 454.828 405.023 450.96C400.148 448.282 394.996 447.921 389.381 447.692ZM499.349 448.911C495.145 452.213 491.33 455.629 487.867 459.504C488.282 459.939 488.364 460.179 489.011 460.356C492.888 456.991 497.645 453.558 500.835 449.769L500.152 448.98L499.349 448.911ZM-107.575 450.908L-107.619 468.105L-86.704 468.042L-86.5963 450.908H-107.575ZM488.301 462.645C491.313 466.966 496.733 471.098 501.601 473.919L490.156 462.548L488.301 462.645ZM174.117 464.316C131.73 466.829 96.0138 483.997 68.4117 510.79C37.892 540.416 23.1886 582.707 26.397 621.627C29.6589 661.199 51.1776 698.344 86.6713 724.325C115.785 745.636 153.883 756.613 192.331 754.695C235.504 750.873 272.951 733.144 300.356 704.714C329.764 674.206 343.713 633.57 338.849 594.467C334.12 556.451 310.976 517.583 275.48 493.542C252.189 477.765 224.576 466.943 194.621 464.637C188.27 464.145 181.099 463.641 174.723 464.236L174.117 464.316ZM480.482 466.079C477.971 467.504 475.469 469.078 472.754 470.211L472.738 487.562L481.45 490.263L488.358 487.058L500.795 479.316C496.27 475.785 491.786 472.071 486.957 468.843C485.3 467.733 483.417 466.302 481.315 465.942L480.482 466.079ZM-120.705 468.94C-123.454 471.104 -125.047 473.29 -125.95 476.38C-125.433 479.888 -120.95 483.791 -118.32 486.475C-116.468 487.236 -114.277 487.081 -112.263 487.104L-109.426 486.847C-108.337 485.204 -108.745 483.379 -108.745 481.507L-108.743 468.717C-112.013 468.717 -117.736 468.116 -120.705 468.94ZM-85.6617 468.935L-85.6468 486.869L-66.5069 486.806L-66.6058 469.083L-85.6617 468.935ZM433.467 469.244L433.389 487.07L451.586 487.116L451.538 469.255L433.467 469.244ZM-134.951 475.046C-134.827 479.527 -135.309 484.861 -134.228 489.216C-133.475 492.249 -131.755 494.938 -130.097 497.674L-129.238 498.126L-128.391 496.443C-126.838 492.638 -123.449 486.555 -125.584 482.726C-127.377 479.51 -131.891 477.387 -134.951 475.046ZM498.997 486.108C496.424 488.043 488.899 492.947 488.298 495.762L490.03 496.34L500.634 486.681L500.34 486.097L498.997 486.108ZM-107.771 487.505L-107.777 504.724L-86.761 504.73L-86.5956 487.505H-107.771ZM451.843 487.699L451.836 505.857H473.211L473.265 487.859L451.843 487.699ZM488.787 498.698C489.065 501.6 495.165 505.743 497.944 507.746L501.295 510.023C498.4 505.743 494.225 502.315 490.215 498.778L488.787 498.698ZM-120.389 505.525C-123.078 508.284 -126.78 512.181 -126.282 515.946C-125.864 519.111 -123.096 523.449 -120.608 525.761C-119.19 525.526 -118.699 524.753 -117.763 523.878L-108.698 523.643L-108.727 505.48L-120.389 505.525ZM-85.6908 505.703L-85.6929 523.597L-66.349 523.535L-66.4493 505.851L-85.6908 505.703ZM433.274 506.424L433.24 523.952L451.605 524.004L451.577 506.412L433.274 506.424ZM-135.149 512.066C-135.135 516.198 -135.924 522.218 -134.605 526.115C-133.685 528.834 -131.603 531.638 -130.021 534.133L-129.253 534.402L-128.293 532.462C-126.062 527.489 -126.147 523.952 -126.495 518.705L-135.149 512.066ZM-46.8438 511.425C-45.8638 518.27 -44.4419 523.34 -39.958 529.234L-38.8526 529.503L-37.3297 527.958L-33.5385 522.527C-38.528 519.466 -43.1494 515.597 -46.8438 511.425ZM407.791 513.005L393.866 523.866L399.808 530.51L413.958 517.863C412.588 516.009 411.359 514.178 409.354 512.759L407.791 513.005ZM499.23 522.733C495.443 524.805 490.742 528.902 488.434 532.176C489.032 532.759 489.176 532.994 490.03 533.234L500.478 523.878L500.22 522.842L499.23 522.733ZM-107.696 524.193L-107.7 541.492L-86.6681 541.469L-86.5245 524.233L-107.696 524.193ZM-61.3365 533.944L-61.4523 565.367C-61.5249 570.683 -62.3869 576.372 -61.6123 581.637L-58.1863 570.546L-45.3379 541.555C-51.0315 539.358 -56.103 536.834 -61.3365 533.944ZM489.785 535.323L489.156 536.714C492.756 540.393 496.783 543.873 501.197 546.866C498.89 543.289 493.695 537.647 489.785 535.323ZM480.478 539.329L472.743 543.472L472.752 555.782C472.753 556.766 472.397 559.061 472.755 559.931C472.922 560.337 473.742 561.029 474.112 561.31C475.883 562.666 479.303 563.399 481.574 564.08L488.625 560.606C493.005 558.162 497.57 555.816 501.567 552.938C497.128 549 492.166 545.555 487.227 542.082C485.62 540.949 483.746 539.203 481.645 538.957L480.478 539.329ZM-120.52 542.391C-123.218 545.87 -125.997 549.338 -127.453 553.35C-126.253 556.646 -124.751 560.348 -121.286 562.443L-119.684 562.397C-118.512 561.035 -118.459 560.984 -116.542 560.549L-108.784 560.509L-108.822 542.425L-120.52 542.391ZM-85.6874 542.476L-85.6942 560.24L-66.6011 560.211L-66.6573 542.482L-85.6874 542.476ZM433.4 542.511L433.306 560.262L451.58 560.297L451.574 542.499L433.4 542.511ZM-135.228 548.165C-135.216 557.052 -135.245 563.055 -129.419 570.907L-128.525 569.659C-127.7 565.636 -125.374 558.328 -128.346 554.78L-135.228 548.165ZM396.15 557.642L356.479 572.171C360.191 588.012 362.094 603.589 361.461 619.732C361.266 624.711 360.925 629.776 360.189 634.72C359.922 636.523 358.353 641.084 358.908 642.566C358.936 642.64 358.991 642.709 359.033 642.783C362.674 643.693 369.175 646.2 372.731 646.194L403.316 654.034C408.384 621.289 407.305 590.358 397.468 558.214L396.15 557.642ZM-34.1796 558.042C-42.0197 586.123 -46.7706 614.542 -42.3267 643.344C-41.9214 645.971 -41.6483 652.025 -40.0102 654.188L-39.7804 654.423L-11.668 646.297L3.86092 641.828C4.46682 635.441 2.16252 627.91 1.75656 621.398C0.693196 604.361 2.31026 588.138 5.89209 571.364L-34.1796 558.042ZM498.17 559.931L488.4 568.515L488.598 569.648L489.505 569.659L499.951 560.503L499.634 559.891L498.17 559.931ZM-107.878 561.144L-107.906 578.523L-86.5902 578.461L-86.5848 561.184L-107.878 561.144ZM451.963 561.241L451.843 579.079H473.414L473.426 561.333L451.963 561.241ZM480.89 575.954L472.958 580.784L472.781 597.9C475.752 598.948 478.613 599.938 481.761 600.561C484.109 599.549 486.863 598.621 489.003 597.34L500.682 590.261L500.874 588.95C495.72 584.04 488.739 579.697 482.575 575.685L480.89 575.954ZM-119.886 579.124C-122.891 582.512 -128.904 587.977 -128.263 592.407C-127.859 595.199 -124.845 598.65 -122.348 600.418L-121.008 600.682C-120.492 599.886 -120.002 599.119 -119.616 598.272C-116.634 596.79 -112.342 597.42 -108.879 597.42L-108.883 579.113L-119.886 579.124ZM-85.6319 579.227L-85.6658 597.414L-66.4283 597.403L-66.494 579.285L-85.6319 579.227ZM433.467 579.679L433.45 597.374L451.673 597.42L451.649 579.668L433.467 579.679ZM-135.13 584.99L-135.062 596.063C-135.043 597.443 -135.212 599.594 -134.499 600.853C-133.875 601.958 -131.711 603.669 -130.644 604.567C-128.077 606.719 -125.131 608.968 -122.069 610.605C-123.513 609.048 -126.674 606.49 -127.489 604.773C-128.696 602.227 -128.439 596.155 -128.333 593.231L-135.13 584.99ZM-108.058 597.992L-107.99 616.058L-87.0016 616.024L-86.948 597.992H-108.058ZM451.824 597.981L452.156 615.732L473.453 615.738L473.553 598.043L451.824 597.981ZM-120.285 616.837C-123.915 620.591 -127.81 624.425 -129.711 629.072C-127.214 634.131 -125.681 636.94 -120.608 640.523L-119.849 640.025L-120.402 638.795C-119.512 637.656 -118.885 636.168 -117.219 635.876C-114.711 635.435 -111.476 635.756 -108.89 635.773L-109.123 616.837H-120.285ZM-85.7207 616.86L-85.7057 635.275L-77.2896 635.201L-73.4503 628.997L-67.4639 620.305L-67.5953 617.449C-70.6783 615.795 -81.6061 616.848 -85.7207 616.86ZM434.555 617.157C433.971 619.212 434.132 621.077 434.308 623.166L443.25 634.68L451.593 634.611L451.584 616.854C446.569 616.871 439.275 616.081 434.555 617.157ZM-135.06 621.524C-135.048 624.064 -135.825 636.048 -134.984 637.49C-133.929 639.292 -130.886 641.965 -129.168 643.407L-127.902 644.426C-128.685 639.939 -129.238 635.447 -129.239 630.909C-129.239 627.956 -133.142 623.973 -135.06 621.524ZM433.489 629.404C434.241 653.971 431.89 677.428 423.443 701.08L454.202 716.251L459.272 718.751C463.232 687.632 453.456 655.791 433.489 629.404ZM-68.9067 630.674C-81.3642 647.069 -86.1476 664.329 -88.515 683.54C-89.8013 693.978 -90.4038 704.966 -89.1378 715.421L-83.5499 712.491L-59.8997 701.795C-61.7112 691.523 -65.4544 681.503 -67.165 671.139C-68.4974 663.064 -69.3371 654.572 -69.3737 646.423L-68.9067 630.674ZM-107.917 636.345L-108.008 654.601L-86.9148 654.566L-86.8925 636.351L-107.917 636.345ZM480.787 651.493C478.375 653.061 475.955 654.864 473.267 656.077C473.274 661.273 472.339 667.866 473.639 672.884L481.385 676.993L489.641 672.787L502.934 664.69L482.918 651.247L480.787 651.493ZM-119.805 655.442C-123.791 658.784 -129.677 663.162 -129.56 668.289C-129.492 671.271 -127.529 674.372 -124.977 676.369C-124.084 677.068 -123.086 677.485 -121.964 677.863C-121.434 677.468 -121.155 677.239 -120.907 676.673L-120.337 674.956C-116.82 674.355 -112.896 674.647 -109.313 674.67L-109.37 655.407L-119.805 655.442ZM-43.6096 659.505L-63.6333 665.92C-61.6577 677.863 -58.5679 689.371 -54.9861 701.034C-52.1491 710.265 -49.1664 719.782 -44.2081 728.394L-43.1264 728.869L-41.6706 728.177L-28.2996 720.76C-26.0475 719.53 -23.201 718.328 -21.4152 716.628C-26.2888 704.056 -32.1085 692.078 -36.2847 679.248C-37.5039 675.5 -40.12 661.262 -42.3931 659.362L-43.6096 659.505ZM405.404 658.933C403.04 669.176 400.667 679.271 397.122 689.274L389.991 707.014C388.823 709.675 386.553 713.166 386.327 715.982C392.88 720.462 400.376 725.23 407.761 728.686C417.568 708.05 423.823 686.647 427.637 664.661C420.62 662.606 412.738 659.871 405.404 658.933ZM460.929 673.72L465.423 692.404C467.063 693.251 470.308 693.085 472.222 692.811L472.753 692.696C473.751 690.665 473.451 688.398 473.456 686.241L473.42 673.64L460.929 673.72ZM496.873 673.92C493.586 675.917 487.683 678.659 485.684 681.537C485.81 683.345 485.876 683.735 487.212 685.257L488.762 685.348L496.873 673.92ZM-107.989 675.231L-108.04 693.766L-95.1934 693.606C-94.5271 692.834 -94.3394 692.502 -94.2459 691.552C-93.7708 686.167 -93.2991 680.513 -91.6691 675.271L-107.989 675.231ZM480.297 692.124L474.015 695.46L474 712.302L479.748 715.329C484.126 714.03 488.033 712.062 492.043 710.122L503.784 703.844C499.201 701.046 485.979 691.363 480.685 692.032L480.297 692.124ZM339.824 692.61C332.369 703.838 326.162 715.444 316.814 725.716C310.141 733.052 301.752 739.473 293.769 745.797L326.059 782.759L331.829 777.798C351.897 759.462 369.295 739.925 381.136 716.892L350.874 698.819C347.262 696.794 343.631 694.299 339.824 692.61ZM-121.351 694.985C-125.085 696.696 -128.42 699.254 -129.605 702.837C-130.365 705.132 -129.366 707.707 -127.901 709.647C-126.354 711.695 -124.102 713.464 -121.212 713.956C-120.259 714.116 -119.374 714.191 -118.406 714.168L-109.304 714.11L-109.408 694.716C-112.598 694.728 -118.497 694.133 -121.351 694.985ZM24.176 694.985L-17.59 715.793C-5.92014 738.603 12.5576 762.255 34.4566 779.097L39.2143 782.965L60.1407 757.545C63.2461 753.797 67.7652 749.488 70.0044 745.413C54.4355 732.492 40.6836 718.683 29.9706 702.522C28.788 700.737 26.1604 695.523 24.176 694.985ZM-134.834 700.708C-134.727 704.382 -135.599 711.358 -133.99 714.574C-132.008 715.873 -129.803 717.71 -127.218 717.876C-128.233 714.625 -131.476 712.502 -132.668 709.343C-133.215 707.896 -133.634 701.343 -134.412 700.931L-134.834 700.708ZM465.404 713.298L462.21 731.353L470.376 731.404L472.777 731.038L472.923 713.87L472.07 713C470.274 712.954 466.903 712.537 465.404 713.298ZM495.233 713.424C491.987 715.123 488.694 716.737 485.851 718.912C486.13 720.234 486.873 721.287 487.612 722.454L488.748 723.141L495.233 713.424ZM-108.047 714.562L-108.061 732.371L-91.7383 732.389L-94.2222 714.597L-108.047 714.562ZM-125.533 718.523C-123.546 720.606 -121.66 722.517 -119.194 724.222L-117.904 723.599L-117.706 722.219C-120.223 720.754 -122.786 719.633 -125.533 718.523ZM457.674 729.321C456.819 732.474 453.697 740.767 454.886 743.553L455.082 743.628C456.952 738.809 457.172 734.586 458.306 729.768L457.674 729.321ZM481.65 729.893L474.439 733.155C473.851 737.751 472.909 744.601 474.256 749.064C476.341 750.918 478.224 751.909 481.22 752.446C484.327 751.422 487.094 750.186 489.965 748.778L503.77 741.402C499.249 738.363 494.549 735.633 489.685 733.001C487.235 731.673 484.651 729.951 481.65 729.893ZM-122.029 732.657C-125.371 734.197 -128.373 736.337 -129.57 739.525C-130.333 741.562 -129.749 743.868 -128.583 745.705C-127.142 747.971 -124.519 749.843 -121.554 750.506C-120.53 750.741 -119.464 750.867 -118.406 750.884L-109.299 750.77L-109.247 732.64L-122.029 732.657ZM408.212 735.456L399.525 750.495C397.524 753.648 386.273 768.539 386.289 770.936L422.556 795.681L445.389 758.272L422.42 743.668C417.894 740.875 413.214 737.619 408.212 735.456ZM-135.117 737.333C-134.563 742.1 -134.836 747.176 -133.681 751.834C-131.175 753.345 -128.748 754.707 -125.973 755.863C-127.855 753.225 -131.02 750.306 -132.16 747.496C-133.45 744.32 -132.689 740.223 -134.317 737.344L-135.117 737.333ZM-43.6008 737.287L-78.578 757.797C-74.1002 768.539 -69.2659 778.582 -63.3541 788.831C-62.1741 790.874 -60.6194 794.64 -58.6065 796.036L-56.9014 795.155L-22.4135 769.935L-43.6008 737.287ZM495.963 750.014L484.497 756.218C484.641 757.448 485.759 758.346 486.642 759.279L487.997 760.79C490.525 759.703 494.348 752.406 495.963 750.014ZM-108.037 752.017L-108.085 769.054L-87.9463 769.071L-88.5488 752.034L-108.037 752.017ZM455.1 751.926C454.293 753.173 452.579 755.113 452.188 756.418C451.25 759.554 452.272 765.282 452.305 768.687L470.376 768.716L472.672 768.424C474.202 763.869 473.009 756.756 472.964 751.92L455.1 751.926ZM2.71352 755.645L-17.3752 770.467C-9.26137 780.482 -0.493518 790.691 9.66572 799.326L30.746 781.323L4.27638 755.497L2.71352 755.645ZM359.286 755.359L333.007 781.38L353.744 798.623L355.35 798.565L381.52 770.644C374.491 765.626 367.08 759.462 359.286 755.359ZM-125.012 756.218C-123.788 758.352 -121.45 759.794 -119.354 761.311L-118.575 761.362L-118.413 760.08C-119.872 758.644 -122.73 756.372 -125.012 756.218ZM272.651 758.804C248.818 772.253 223.117 779.309 194.707 781.787L199.667 832.363L223.719 829.101C252.537 823.241 279.35 813.232 303.313 798.399C302.528 796.248 300.724 794.193 299.306 792.299L289.437 779.738L278.686 766.009C276.824 763.657 274.939 760.859 272.651 758.804ZM89.8302 758.993L61.9895 798.588C86.472 813.513 114.525 824.489 144.164 829.645L164.901 832.323L169.951 781.666C148.104 779.818 128.467 775.686 108.639 767.566C102.655 765.116 96.0186 760.618 89.8302 758.993ZM481.693 767.663C478.962 768.539 476.474 769.431 473.994 770.748L473.786 786.359C476.161 787.555 478.768 789.186 481.49 789.672L491.352 785.083C494.982 783.189 500.707 780.985 503.5 778.37C499.805 776.024 486.667 766.805 482.342 767.526L481.693 767.663ZM-122.331 769.74C-125.456 771.251 -128.603 773.374 -129.588 776.47C-130.228 778.485 -129.54 780.985 -128.204 782.702C-126.475 784.923 -123.21 787.606 -120.043 788.133C-119.286 788.259 -118.498 788.339 -117.728 788.333L-109.475 788.247L-109.398 769.632L-122.331 769.74ZM445.13 769.952C440.941 774.713 437.997 781.203 434.771 786.548L435.134 787.807L441.606 787.944L451.1 787.915L450.997 770.524C449.082 769.54 447.345 769.906 445.13 769.952ZM-86.8701 770.244L-86.7888 788.556L-68.3009 788.551C-70.6553 784.837 -73.0884 781.111 -75.1175 777.266C-75.962 775.663 -77.1981 771.091 -78.7447 770.21L-86.8701 770.244ZM-134.449 774.53L-133.951 788.436C-132.183 789.592 -130.421 791.034 -128.148 791.338L-127.145 791.126C-127.795 788.448 -131.114 786.399 -132.461 783.686C-133.806 780.974 -133.011 777.706 -133.91 774.816L-134.449 774.53ZM495.788 787.378L485.638 792.843C485.227 794.331 486.379 796.099 487.179 797.421L488.529 797.289L495.788 787.378ZM452.18 788.585L452.171 805.816L473.092 805.742L473.061 788.631L452.18 788.585ZM-108.017 789.363L-108.102 806.274L-87.7701 806.302L-87.8487 789.472L-108.017 789.363ZM-123.191 793.987C-122.883 795.269 -121.014 797.226 -119.563 797.85L-118.984 797.993L-117.904 796.276C-118.968 795.137 -121.143 794.079 -122.919 793.981L-123.191 793.987ZM429.017 793.987C418.399 806.898 409.175 820.346 397.549 832.718C359.501 873.206 309.543 903.147 250.532 917.591C242.081 919.662 233.582 921.797 224.913 923.119C197.044 927.377 165.007 927.371 137.199 922.661C97.9379 916.017 60.4124 900.457 27.7538 881.258C4.65658 867.684 -16.6338 850.802 -33.954 832.083L-48.635 815.562C-51.0098 812.7 -59.4212 800.259 -61.7329 799.138L-61.9972 803.418L-61.7607 929.792L429.355 929.042L429.408 825.496L429.414 803.069C429.412 800.534 430.045 796.288 429.017 793.987ZM52.7025 797.364L33.8012 819.43C41.3803 824.357 48.8991 829.382 56.9323 833.771C76.6977 844.587 97.9338 852.81 120.258 859.048L128.201 860.942L136.418 831.785C114.253 827.007 93.2636 819.985 73.7435 809.816C66.3867 805.982 59.7503 801.535 52.7025 797.364ZM310.416 798.565C292.025 810.137 272.026 819.836 250.31 826.189L226.985 832.169L227.184 832.484C228.958 835.431 229.539 839.225 230.442 842.435L235.908 861.406L243.651 859.311C274.312 851.591 304.377 836.449 328.862 819.276L315.342 803.699C314.317 802.508 311.948 799.086 310.416 798.565ZM5.42242 800.46L-29.7364 831.408L-2.56129 855.22L-0.976062 856.027L31.1479 819.894L30.8551 819.751C21.0008 814.972 14.3319 806.268 5.42242 800.46ZM357.625 801.318L333.736 820.97L364.649 856.725C365.806 856.307 366.424 855.889 367.281 855.117L392.768 831.528C390.067 828.111 385.038 824.867 381.564 821.937L357.625 801.318ZM481.797 804.288C479.066 805.312 476.552 806.382 474.056 807.773L474.005 823.116L480.845 826.212C484.59 824.953 487.943 823.419 491.412 821.702C495.117 819.808 500.618 817.713 503.519 815.075C499.312 812.397 487.235 803.584 482.132 804.231L481.797 804.288ZM-120.312 806.571C-123.777 806.949 -125.843 808.002 -127.977 810.36C-129.53 812.071 -130.091 813.587 -129.72 815.739C-129.24 818.526 -126.59 821.319 -123.912 822.887L-120.523 824.478L-120.181 824.632L-109.393 824.643L-109.402 806.606L-120.312 806.571ZM-86.6559 807.418L-86.7122 824.735L-66.7238 824.684L-66.6662 807.413L-86.6559 807.418ZM434.203 807.252V824.603L450.91 824.609L450.919 807.315L434.203 807.252ZM-134.834 811.727L-133.612 824.89C-132.011 825.965 -128.694 828.535 -126.493 828.323C-127.534 825.267 -130.834 823.562 -132.132 820.655C-133.009 818.686 -133.139 812.626 -134.834 811.727ZM451.826 825.324L451.786 842.349L473.033 842.372L473.188 825.485L451.826 825.324ZM-108.107 825.742L-108.146 842.555L-87.7627 842.481L-87.7369 825.736L-108.107 825.742ZM-126.624 828.707C-124.276 830.618 -121.961 832.747 -119.256 834.292L-117.897 833.742L-118.103 832.329C-120.905 830.83 -123.516 829.702 -126.624 828.707ZM167.543 835.454L165.463 867.363C176.291 867.89 186.42 867.993 197.249 867.375L198.825 866.665L196.619 835.557C187.215 836.415 176.937 836.409 167.543 835.454ZM300.66 840.913L276.257 852.347L297.604 896.995C299.523 897.493 300.468 896.692 302.212 895.965L329.739 881.698L301.648 841.062L300.66 840.913ZM481.613 840.913L474.179 844.209C474.049 849.039 473.156 854.813 474.249 859.529L481.553 863.048L492.775 857.921L504.346 851.809L489.405 843.099C488.053 842.361 485.527 840.799 483.931 840.615C483.351 840.552 482.231 840.833 481.613 840.913ZM62.8523 841.245L34.9473 880.731C35.5836 882.677 56.7805 892.394 60.3521 894.105L64.4809 896.011L67.124 897.207C69.6615 895.85 72.0898 888.703 73.2454 886.236L89.3625 853.171L62.8523 841.245ZM-121.788 843.002C-124.782 844.106 -128.041 845.932 -129.357 848.593C-130.201 850.298 -129.724 852.702 -128.816 854.327C-127.143 857.32 -123.947 859.643 -120.264 860.725L-118.373 861.211L-109.326 861.114L-109.346 842.927L-121.788 843.002ZM-86.6539 843.597L-86.7 861.223L-66.7421 861.183L-66.7204 843.626L-86.6539 843.597ZM434.129 843.471L434.125 860.965L450.821 861.08L450.865 843.442L434.129 843.471ZM-134.547 846.063C-134.555 851.002 -134.981 856.57 -133.574 861.377C-131.998 862.27 -129.402 864.158 -127.586 864.376C-128.023 861.103 -129.702 860.959 -131.491 858.281C-133.866 854.722 -132.919 850.098 -134.184 846.224L-134.547 846.063ZM451.875 861.841C451.862 864.33 450.96 877.469 452.199 878.923L473.057 878.957L472.969 861.858L451.875 861.841ZM494.316 861.194L484.867 866.665C484.997 868.09 485.792 869.051 486.642 870.242L488.139 870.842C490.376 867.689 492.659 864.605 494.316 861.194ZM-108.141 862.253L-108.103 878.848L-87.7484 878.791L-87.7518 862.276L-108.141 862.253ZM130.023 864.135L115.521 914.117L149.992 920.675L159.103 921.379L163.174 869.389L130.023 864.135ZM232.529 864.754L201.756 869.355L205.779 921.345L218.697 920.012L248.9 914.026L238.935 878.396L236.31 868.359C236.101 867.621 235.841 865.812 235.405 865.234C235.277 865.068 234.43 864.713 234.186 864.588L232.529 864.754ZM-125.33 865.326C-123.766 866.963 -121.335 870.31 -119.009 870.968L-117.897 870.448L-117.904 868.954C-120.326 867.563 -122.654 866.339 -125.33 865.326ZM482.992 877.2C480.186 878.305 476.568 879.329 474.254 881.069C473.507 885.779 473.023 890.918 474.281 895.599L481.488 899.874L489.368 896.062L503.884 888.216C497.405 884.359 490.444 879.489 482.992 877.2ZM-122.519 879.535C-125.363 880.937 -128.482 882.877 -129.329 885.739C-129.936 887.787 -129.279 890.282 -127.953 892.045C-126.414 894.088 -122.754 896.737 -119.86 897.224C-119.152 897.344 -118.445 897.338 -117.728 897.293L-110.104 897.195C-108.128 894.391 -109.351 883.146 -109.349 879.409L-122.519 879.535ZM-86.761 879.89L-86.7393 897.235L-66.7285 897.27L-66.7488 879.976L-86.761 879.89ZM434.15 880.119L434.138 897.659L450.594 897.493L450.712 880.119H434.15ZM-134.469 882.688L-134.428 883.072L-133.853 897.882C-131.804 899.015 -129.604 900.497 -127.386 901.344L-127.069 899.284C-129.441 897.172 -131.233 895.232 -132.308 892.417C-133.153 890.202 -132.504 883.644 -134.143 882.654L-134.469 882.688ZM-108.362 898.42L-108.378 914.529L-88.0073 914.443L-88.0561 898.42H-108.362ZM492.675 898.712L484.71 903.29C484.553 904.715 485.709 905.568 486.648 906.724L488.159 907.473L493.504 898.798L492.675 898.712ZM451.744 898.752L451.678 914.993L473.111 914.941L472.957 898.889L451.744 898.752ZM-126.8 901.338L-119.253 907.508C-118.242 907.422 -118.126 907.273 -117.325 906.724C-118.021 904.766 -121.226 903.507 -123.387 902.546L-126.8 901.338ZM481.421 913.591C478.195 914.661 475.894 915.433 474.293 918.169C474.024 922.186 472.634 928.67 476.057 931.823C477.492 933.139 479.262 933.729 481.22 934.318C484.758 933.414 487.809 931.897 491.006 930.369L503.277 923.731C499.155 921.356 486.503 912.749 482.175 913.419L481.421 913.591ZM-122.852 915.88C-125.916 917.368 -128.232 918.512 -129.182 921.539C-129.808 923.537 -129.224 925.677 -127.937 927.405C-126.202 929.734 -122.919 931.794 -119.724 932.39C-118.857 932.556 -117.936 932.699 -117.049 932.653L-110.442 932.47C-108.419 930.564 -109.485 918.684 -109.473 915.502C-113.33 915.525 -119.283 914.924 -122.852 915.88ZM-86.9474 915.576L-86.9338 932.052L-66.7936 931.989L-66.7333 915.594L-86.9474 915.576ZM434.434 915.662L434.306 931.113L450.558 931.182L450.493 915.628L434.434 915.662ZM-134.657 918.169C-134.735 923.01 -134.544 927.628 -133.779 932.43C-132.05 933.654 -129.37 935.869 -127.033 935.961L-126.401 935.909C-130.326 931.297 -132.492 928.229 -133.443 922.518C-133.617 921.465 -133.677 918.661 -134.657 918.169ZM405.242 932.893L405.066 948.671L427.361 948.631L427.387 932.996L405.242 932.893ZM450.935 932.853L450.938 948.264L472.9 948.241L472.892 932.842L450.935 932.853ZM-108.219 933.397L-108.682 948.287L-87.4773 948.264L-87.7464 933.448L-108.219 933.397ZM205.744 933.597L192.159 933.815L192.1 948.693L198.774 948.705L212.63 948.676L212.583 933.42L205.744 933.597ZM252.204 933.626L234.148 933.637L234.145 947.927C235.417 948.871 235.679 948.711 237.405 948.705L255.069 948.659L255.004 934.192C253.752 933.506 253.622 933.563 252.204 933.626ZM277.017 933.586L276.927 948.659L297.903 948.528L297.935 933.517L277.017 933.586ZM318.934 933.397L318.89 948.676L340.014 948.596L340.027 933.403L318.934 933.397ZM361.93 933.237L361.742 948.722L383.434 948.688L383.37 933.288L361.93 933.237ZM-63.2992 933.9L-63.3324 948.528L-42.3335 948.476L-42.2447 933.883L-63.2992 933.9ZM-19.4179 933.906L-19.4206 948.276L1.15744 948.281L1.04698 933.9L-19.4179 933.906ZM23.2421 933.895L23.2001 948.476L43.1838 948.379L43.1804 933.906L23.2421 933.895ZM65.0319 933.906L64.9844 948.722L85.429 948.671L85.187 933.889L65.0319 933.906ZM107.51 933.86L107.4 948.35L127.981 948.339L127.906 933.86H107.51ZM149.57 933.706L149.551 948.682L170.117 948.602L170.083 933.809L149.57 933.706ZM494.1 933.082L482.976 939.2L486.005 942.204L487.428 943.349C490.207 941.592 492.271 935.8 494.1 933.082ZM-123.767 938.77L-119.256 943.062L-117.897 942.576C-118.823 940.842 -120.342 939.806 -122.001 938.576L-123.767 938.77ZM481.639 947.927C478.953 948.533 476.397 948.957 473.628 949.18L473.651 967.63L478.106 963.023L493.728 963.069L494.224 963.767L496.24 965.707C499.361 964.036 502.15 961.941 504.987 959.944C499.963 956.722 494.719 953.855 489.384 951.017C487.103 949.804 484.409 947.978 481.639 947.927ZM-119.609 949.369C-124.718 952.379 -130.006 955.927 -133.969 960.001C-134.367 958.119 -134.858 956.362 -135.573 954.548C-135.655 956.305 -136.532 960.66 -135.17 961.913L-130.003 965.667L-128.431 966.239L-128.25 965.879C-127.655 964.723 -127.046 963.91 -126.03 962.994L-109.46 963.137L-109.497 949.352L-119.609 949.369ZM-85.7715 949.34L-85.9511 967.103H-64.6587L-64.6696 949.34H-85.7715ZM-41.119 949.306L-41.3717 967.103L-20.6066 967.098L-20.631 949.317L-41.119 949.306ZM2.01138 949.306L1.82637 967.115L22.2262 967.109V949.277L2.01138 949.306ZM43.9679 949.294L43.8811 967.092L64.0688 967.109L64.1102 949.306L43.9679 949.294ZM85.9176 949.3L85.8268 967.098L106.586 967.08L106.639 949.312L85.9176 949.3ZM128.414 949.283L128.366 967.103L148.748 967.092L148.752 949.317L128.414 949.283ZM170.785 949.26L170.651 967.109H191.135L191.175 949.266L170.785 949.26ZM213.469 949.3L213.43 967.098L233.382 967.08L233.416 949.306L213.469 949.3ZM255.858 949.317L255.858 967.086L276.221 967.075L276.192 949.329L255.858 949.317ZM298.541 949.294L298.538 967.092L318.255 967.063L318.269 949.34L298.541 949.294ZM340.589 949.271L340.618 967.069L361.452 966.989L361.348 949.323L340.589 949.271ZM383.85 949.277L383.964 967.063L404.399 967.023L404.539 949.271L383.85 949.277ZM427.955 949.312L427.921 967.046L449.726 967.017L449.737 949.312H427.955ZM-108.066 967.584L-108.083 985.153C-100.081 984.122 -94.8267 984.082 -86.9677 985.782L-86.7861 967.687L-108.066 967.584ZM318.797 967.641L318.833 979.293C325.018 984.128 332.651 986.108 340.271 988.867L340.753 967.67L318.797 967.641ZM361.72 967.595C361.737 970.119 361.01 978.4 362.957 979.996C368.406 984.466 377.706 985.393 384.649 987.596L383.844 967.584L361.72 967.595ZM404.329 967.63L404.265 984.317C407.835 984.157 411.77 983.762 415.318 984.117C419.47 984.534 424.065 986.125 427.975 987.356L428.015 967.63H404.329ZM449.763 967.658L449.823 985.147C457.434 984.277 464.015 983.384 471.58 985.124L472.728 984.809L472.894 967.658H449.763Z" fill="black"/>
<path d="M316.966 247.322L303.673 308.922L60.2301 308.969L6.83276 60.6862L-14.484 -31.5058L-20.6128 -57.2578C-22.015 -63.1864 -23.7114 -69.2393 -24.0502 -75.2916L388.064 -75.5439L316.966 247.322ZM112.866 -71.3498L117.401 -24.0761L159.176 -24.075L158.857 -71.1598L112.866 -71.3498ZM20.4118 -71.1158L29.7266 -24.0698L71.2812 -24.1133L65.1918 -71.086L20.4118 -71.1158ZM205.015 -71.2623C204.968 -65.9448 203.642 -25.5777 204.774 -24.0727C210.107 -24.0738 243.807 -23.2211 246.382 -24.6386L246.869 -26.4384L251.243 -71.1484L205.015 -71.2623ZM298.296 -71.0482L291.586 -24.0681L333.474 -24.0858C333.939 -24.5499 334.374 -24.9643 334.729 -25.497L342.74 -71.1261L298.296 -71.0482ZM334.697 -21.0454L328.056 14.8454L351.358 14.8099C354.917 14.8031 359.167 15.1796 362.651 14.668L370.682 -21.0809L334.697 -21.0454ZM-6.17905 -20.6562L1.90158 14.8305L35.0814 14.8002L28.2058 -20.6654L-6.17905 -20.6562ZM76.0017 -20.6677L79.9854 14.838L117.102 14.8025L113.901 -20.7009L76.0017 -20.6677ZM162.327 -20.7552L162.996 14.8437L188.476 14.8174C192.441 14.8116 197.054 15.2008 200.946 14.6634L201.519 -20.8279L162.327 -20.7552ZM248.853 -20.7672L245.465 14.8483L281.288 14.8254L282.341 13.417L287.258 -20.7129L248.853 -20.7672ZM39.181 17.4063L45.6331 52.0495L80.5106 52.0392L76.7173 17.2112L39.181 17.4063ZM122.225 17.1413L125.163 52.0621L160.336 52.0896L159.029 17.1711L122.225 17.1413ZM203.725 17.1619L202.997 51.7651C205.071 52.5566 209.577 52.0701 211.915 52.0707L237.235 52.0495C238.211 51.2569 238.142 51.123 238.345 50.042L241.707 17.2037L203.725 17.1619ZM287.264 17.1516L282.785 52.0827L307.513 52.0564C309.756 52.0535 313.777 52.5228 315.853 52.0472C316.2 51.9677 316.931 51.3874 317.259 51.1866L323.237 17.1711L287.264 17.1516ZM10.8077 54.9607L18.0933 88.6236L48.7554 88.6534L42.8645 54.9469L10.8077 54.9607ZM85.4567 54.9841L88.9484 88.7237L123.336 88.6929L120.856 55.0396L85.4567 54.9841ZM163.799 55.0419L164.67 88.686L198.588 88.674L199.397 54.9858L163.799 55.0419ZM242.532 55.399L239.985 88.6917L272.139 88.7043C272.692 88.2236 273.156 87.9094 273.353 87.2393L277.449 55.5455C273.406 55.0917 269.052 55.3544 264.97 55.3589L242.532 55.399ZM320.503 55.415L315.249 88.7472L336.745 88.7266C339.327 88.7237 343.886 89.3252 345.73 87.8745L346.069 86.667L353.583 55.4728L320.503 55.415ZM153.961 91.2194L126.984 91.4866L129.247 123.898L135.31 123.806L161.763 123.938L160.896 91.1359L153.961 91.2194ZM276.418 91.1279L272.589 123.703L295.529 123.635C298.277 123.626 303.122 124.281 305.098 122.72L310.363 91.4889L276.418 91.1279ZM51.9787 91.533L57.4324 124.09L89.879 124.053L86.0769 91.4071L51.9787 91.533ZM202.236 91.4781L201.499 123.842L232.491 123.649L233.169 121.651L235.772 91.4895L202.236 91.4781ZM93.6661 125.973L97.4072 157.98L128.582 158.053L126.353 125.997L93.6661 125.973ZM166.367 125.982L167.064 158.339L195.805 158.223L196.528 126.288L166.367 125.982ZM26.4437 126.448L33.5436 157.987L59.8092 157.976L54.9458 126.43L26.4437 126.448ZM236.226 126.366L234.065 158.431C237.938 158.425 262.873 159.087 264.127 157.995C264.681 157.514 264.785 157.145 264.909 156.483L268.801 126.306L236.226 126.366ZM308.177 126.457L303.028 158.386L329.746 158.317L330.928 157.056L337.252 126.525L308.177 126.457ZM64.02 159.721L68.4205 192.239L98.0518 192.076L94.3289 159.674L64.02 159.721ZM132.214 159.865L134.113 192.382L163.71 192.566L163.096 159.724L132.214 159.865ZM199.553 159.704L198.701 192.335L227.747 192.29C228.134 191.799 228.491 191.376 228.739 190.819L230.908 159.689L199.553 159.704ZM268.109 159.703L264.371 192.227C273.761 192.192 284.835 193.142 294.012 191.878L294.809 190.247L299.73 159.698L268.109 159.703ZM40.6904 192.814L47.3138 224.778L69.9576 224.694L65.2758 192.816L40.6904 192.814ZM101.152 192.806L104.197 224.73L133.293 224.667L131.134 192.8L101.152 192.806ZM166.587 192.801L167.158 224.695L195.183 224.662L195.979 192.816L166.587 192.801ZM231.109 192.818L228.664 224.829L257.873 224.805L260.842 192.808L231.109 192.818ZM296.018 192.823C295.432 196.686 289.862 223.239 290.561 224.855L317.221 224.611L324.054 192.826L296.018 192.823ZM72.5439 225.341L76.9966 255.802L104.92 255.818L101.947 225.274L72.5439 225.341ZM135.092 225.392L137.539 255.67L164.405 255.559L164.302 225.386L135.092 225.392ZM197.546 225.357L196.891 255.782L222.325 255.784C222.865 255.3 223.22 254.978 223.468 254.341L225.491 225.268L197.546 225.357ZM259.897 225.348L256.457 255.738L283.999 255.666L284.885 254.341L290.098 225.242L259.897 225.348ZM285.115 255.813L279.984 284.86L304.276 284.463L310.428 255.818L285.115 255.813ZM53.8147 256.838L59.5686 283.679L78.5235 283.604L74.7065 256.863L53.8147 256.838ZM107.929 256.948L110.988 284.23L136.584 284.154L134.498 256.864L107.929 256.948ZM167.676 256.808L168.365 283.978L194.893 283.932L194.892 256.884L167.676 256.808ZM225.7 256.897L223.294 284.176L250.255 284.265L253.23 256.886L225.7 256.897ZM81.6465 284.962L84.8705 305.582L110.265 305.608L108.03 284.957L81.6465 284.962ZM253.376 284.993L250.956 305.579L268.812 305.557C271.373 305.554 274.093 306.024 276.159 304.7L279.866 284.974L253.376 284.993Z" fill="black"/>
<path d="M98.6942 410.827L47.7896 410.861L70.043 320.923L119.904 320.876L106.606 410.747L98.6942 410.827ZM74.0213 324.979L53.9339 406.867L94.2334 406.901L102.471 406.85L114.4 324.991L74.0213 324.979Z" fill="black"/>
<path d="M169.292 398.277L122.184 398.346L130.662 320.907L175.484 320.919L175.74 398.317L169.292 398.277ZM135.152 324.973L127.917 394.206L165.904 394.199L170.272 394.052C172.029 391.487 170.712 333.655 170.574 324.977L135.152 324.973Z" fill="black"/>
<path d="M237.827 398.306L185.256 398.334L185.272 320.998L231.128 320.899L237.827 398.306ZM190.156 325.038L190.226 394.262L232.48 394.276L226.283 325.232C222.67 324.598 218.19 325.003 214.484 325.004L190.156 325.038Z" fill="black"/>
<path d="M312.679 410.878L253.248 410.936L241.429 320.874L289.44 320.815L312.679 410.878ZM246.822 324.996L257.994 406.861C261.447 407.782 267.418 407.17 271.14 407.187L306.358 407.199L294.612 359.922C291.824 348.425 289.849 335.964 285.327 324.907L246.822 324.996Z" fill="black"/>
<path d="M92.7085 401.705L60.4978 401.694L77.9698 329.033L109.036 329.02L99.9576 383.629L98.0484 395.609C97.7502 397.521 97.7305 399.879 96.5316 401.55L92.7085 401.705Z" fill="black"/>
<path d="M161.837 389.077L133.212 389.088L139.423 328.976L165.974 328.991L166.097 372.294C166.134 375.792 167.473 386.223 165.581 388.917L161.837 389.077Z" fill="black"/>
<path d="M226.745 388.963L195.198 389.05L194.9 329.021L221.881 329.025L226.745 388.963Z" fill="black"/>
<path d="M299.276 401.116L263.246 401.127L251.976 328.976L282.025 328.98L299.276 401.116Z" fill="black"/>
<path d="M14.2296 417.803L-21.0635 417.791L-40.6906 343.136L-7.76834 343.213C-6.75852 344.018 -6.51115 345.816 -6.17228 346.963L-2.70364 359.267L14.2296 417.803Z" fill="black"/>
<path d="M382.571 416.292C382.27 416.487 381.558 417.082 381.238 417.156C379.271 417.625 375.28 417.156 373.14 417.156L349.129 417.15L370.482 343.239L404.774 343.208L382.571 416.292Z" fill="black"/>
<path d="M-21.9655 492.546C-27.5514 492.787 -31.792 492.415 -36.9082 490.309C-43.1718 487.728 -47.4565 483.304 -49.6611 477.736C-51.9797 471.882 -51.0146 466.113 -47.6313 460.688C-43.8631 454.645 -37.7642 451.812 -30.3504 449.901C-23.9574 449.352 -18.282 449.993 -12.7124 452.808C-7.36372 455.515 -2.87848 460.311 -1.4532 465.49C0.127274 471.235 -0.60196 477.833 -4.36745 482.846C-8.66497 488.569 -14.3783 491.081 -21.9655 492.546ZM-27.897 462.645C-30.9143 463.555 -32.9767 464.637 -34.4297 467.138C-35.7364 469.387 -35.8801 471.567 -34.835 473.925C-33.9526 475.916 -31.7086 477.868 -29.4179 478.738C-27.4369 479.487 -25.407 479.39 -23.2891 479.276C-20.4711 478.074 -17.9391 476.597 -16.8459 473.965C-15.8998 471.687 -15.9093 469.398 -17.2085 467.224C-18.5145 465.038 -21.0906 463.355 -23.853 462.674C-25.2274 462.331 -26.509 462.451 -27.897 462.645Z" fill="black"/>
<path d="M196.396 740.372L193.963 740.612C160.137 743.691 122.334 732.967 96.1053 715.009C63.5984 692.759 44.4301 659.207 40.3006 624.368C35.9103 587.336 48.8204 548.72 76.861 519.878C99.9514 496.129 134.467 479.871 170.767 476.895C204.638 474.308 238.118 483.894 264.728 501.451C298.755 523.901 319.312 557.207 324.469 593.202C329.566 628.786 317.858 665.76 291.451 693.967C267.382 719.679 235.19 736.532 196.396 740.372ZM176.322 482.618C138.771 485.067 106.626 499.614 82.1372 523.7C55.0542 550.339 42.897 586.873 46.1061 621.581C49.0177 653.073 65.9014 685.24 94.5946 705.916C120.125 724.308 154.636 736.389 188.609 734.329C223.618 732.944 256.495 718.723 280.029 696.965C307.84 671.253 321.368 637.066 319.468 602.467C317.621 568.812 299.962 535.392 270.268 512.719C244.928 493.365 210.838 481.061 176.322 482.618Z" fill="black"/>
<path d="M188.197 730.111C155.726 730.403 123.75 721.767 99.1076 703.443C70.5771 682.224 53.6547 651.602 51.2169 619.618C48.6924 586.501 60.4748 551.427 86.7695 526.299C110.975 503.168 142.107 489.622 178.752 487.774L179.284 487.739C208.259 485.902 240.62 497.823 262.223 513.371C292.614 535.249 310.943 566.472 313.881 600.098C316.729 632.688 303.841 666.813 278.549 691.575C254.784 714.837 224.389 727.839 188.197 730.111ZM172.264 494.069C138.104 497.062 109.088 511.448 87.578 533.904C64.5479 557.951 53.9333 592.012 57.917 622.577C61.8479 652.723 77.1023 681.096 105.615 700.313C129.716 716.554 161.673 726.511 192.783 723.564L194.034 723.433C226.068 720.949 254.823 706.688 275.194 685.903C299.131 661.485 310.625 629.518 306.952 597.986C303.082 564.755 285.308 536.554 254.643 515.443C231.431 499.471 201.917 492.306 172.264 494.069Z" fill="black"/>
<path d="M193.012 718.643C184.937 719.072 176.499 719.318 168.453 718.442C146.461 716.045 123.444 707.077 106.634 694.968C80.6909 676.266 65.4466 648.265 62.88 619.727C60.0966 588.784 71.3795 557.149 95.454 533.538C115.703 513.674 143.312 501.17 174.374 499.225C200.503 496.798 228.307 504.627 249.016 517.949C277.843 536.496 295.807 563.416 300.639 593.66C305.444 623.732 296.49 655.447 274.41 679.631C253.679 702.345 226.375 714.969 193.012 718.643ZM176.064 504.942C145.284 506.916 118.979 518.956 98.9714 538.665C77.2073 560.108 66.6306 589.648 69.2121 617.735C71.7868 645.736 85.2737 671.482 110.813 689.909C132.397 705.486 159.937 713.647 188.264 712.863C219.006 710.579 245.517 699.735 265.432 679.568C287.061 657.674 297.905 627.99 294.879 599.589C291.811 570.809 276.025 544.113 249.57 525.64C230.718 512.478 201.753 501.977 176.744 504.839L176.064 504.942Z" fill="black"/>
<path d="M190.634 707.215C164.966 708.582 137.745 702.19 117.656 688.255C91.8796 670.372 77.7841 646.114 74.6455 618.187C71.7401 592.327 81.5848 564.057 101.222 544.027C120.296 524.57 144.944 512.427 174.947 510.092L175.422 510.018C180.851 509.451 187.095 509.903 192.51 510.401C212.097 512.209 229.15 518.207 244.625 528.525C270.636 545.864 285.359 571.41 289.128 598.908C292.621 624.391 283.057 653.439 264.145 673.508C245.33 693.475 220.402 704.313 190.634 707.215ZM171.552 516.364C145.092 519.22 121.599 531.025 105.311 548.846C85.2907 570.746 78.0708 596.985 82.3588 624.219C86.0504 647.665 101.219 669.897 123.533 684.21C144.474 697.635 168.29 702.831 194.29 700.88C221.85 697.023 244.419 686.104 260.86 666.744C278.69 645.753 286.523 619.515 281.455 593.952C276.482 568.875 261.625 545.676 236.682 530.774C217.214 519.14 195.213 514.561 171.552 516.364Z" fill="black"/>
<path d="M190.973 695.146C167.496 696.942 145.044 691.357 126.342 679.162C104.05 664.621 91.1321 642.577 87.7156 619.246C84.1738 595.068 92.6536 570.912 110.428 551.845C127.064 534.001 148.52 524.221 174.939 521.526C196.695 519.775 218.394 525.515 235.682 536.662C258.598 551.438 272.705 573.551 276.358 597.569C279.975 621.358 272.379 645.776 254.913 664.712C238.936 682.029 216.676 692.479 190.973 695.146ZM173.67 527.809C149.585 530.505 129.082 540.977 114.273 557.252C98.3371 574.769 91.2005 597.689 94.6441 619.572C97.8993 640.26 110.889 661.267 130.688 674.069C148.384 685.509 170.028 691.18 192.23 688.851C217.316 685.245 237.357 675.053 252.197 657.41C266.2 640.769 273.445 617.558 269.378 597.265C264.858 574.718 252.394 553.847 229.78 540.365C213.22 530.488 193.77 526.23 173.67 527.809Z" fill="black"/>
<path d="M190.767 681.514L189.766 681.652C171.235 683.883 150.561 677.445 135.917 668.089C117.074 656.048 105.535 638.583 102.399 618.874C99.2337 598.982 104.73 578.266 119.27 562.214C133.326 546.688 151.872 537.275 174.713 534.671C196.546 533.063 214.992 538.362 231.868 550.076C249.688 562.443 259.978 581.425 262.215 600.579C264.562 620.688 257.409 642.079 242.084 657.702C229.027 671.007 211.202 679.843 190.767 681.514ZM180.736 579.846C171.126 580.979 163.507 584.246 157.661 590.862C152.338 596.893 150.405 604.516 151.671 611.915C152.906 619.126 157.912 626.033 164.88 630.319C171.252 634.234 177.36 635.321 185.054 635.258C194.394 633.598 202.277 629.942 207.54 623C211.899 617.243 213.882 609.186 212.047 602.479C209.885 594.587 204.764 587.485 196.422 583.228C191.562 580.744 186.324 580.086 180.736 579.846Z" fill="black"/>
<path d="M186.96 627.864C181.639 628.517 176.607 628.162 171.761 626.079C165.738 623.481 162.041 619.04 159.987 613.729C158.016 608.631 158.472 602.347 161.448 597.614C165.072 591.852 170.647 589.03 177.755 587.176C182.41 587.056 186.689 586.81 191.035 588.51C196.375 590.587 201.532 594.988 203.532 599.709C205.953 605.426 205.987 611.229 202.895 616.751C199.562 622.697 194.098 625.753 186.96 627.864ZM177.297 590.644C171.286 592.813 166.484 595.829 163.938 601.134C161.862 605.454 162.69 610.811 164.844 614.988C166.906 618.988 170.501 622.096 175.363 623.658C179.263 624.906 182.563 624.951 186.658 624.499C192.63 622.479 196.879 619.841 199.57 614.674C201.77 610.445 201.754 605.226 199.763 600.945C197.61 596.315 193.918 593.237 188.495 591.36C184.992 590.152 181 590.244 177.297 590.644Z" fill="black"/>
</g>
</g>
<defs>
<clipPath id="clip0_17_7251">
<rect width="364" height="824" fill="white"/>
</clipPath>
<clipPath id="clip1_17_7251">
<rect width="694" height="1172" fill="white" transform="translate(-165 -174)"/>
</clipPath>
</defs>
</svg>
