<svg width="416" height="101" viewBox="0 0 416 101" fill="none" xmlns="http://www.w3.org/2000/svg">
<g clip-path="url(#clip0_17_7429)">
<g clip-path="url(#clip1_17_7429)">
<rect width="174" height="416" transform="translate(0.0580139 174) rotate(-90)" fill="white"/>
<path d="M-108.438 219.439L525.135 219.439L525.135 -45.4395L-108.438 -45.4394L-108.438 219.439Z" fill="white"/>
<path d="M519.019 78.0751L521.781 81.3364L388.938 210.438L-44.4584 206.153L-99.003 96.77C-99.028 96.6415 -99.1518 96.2786 -99.1196 96.171C-98.9712 95.6748 -98.2311 94.8848 -97.8957 94.434L-94.9597 90.4613L-76.4195 65.0389L-27.5667 -1.5342L-1.29101 -36.7168L426.761 -33.0157L519.019 78.0751ZM180.488 94.487C179.667 90.4595 168.431 83.068 164.384 80.7503C161.536 79.1196 157.552 78.3312 155.844 75.7523C154.071 73.075 155.067 70.9042 156.029 68.1887L142.303 72.2403L135.743 74.2897C149.876 74.6907 161.471 79.3307 171.656 87.4248C174.375 89.586 177.38 92.8512 180.488 94.487ZM187.85 144.275L203.389 140.245L198.24 139.796C196.13 139.433 194.302 138.585 193.128 137.04C190.685 133.827 193.084 130.634 193.979 127.393C194.656 124.944 195.47 120.33 194.71 117.847C194.169 116.076 192.55 113.692 191.375 112.13C191.396 113.298 191.995 114.71 192.237 115.889C192.698 118.139 192.705 120.385 192.559 122.659C191.934 132.385 186.355 140.683 177.814 147.071L187.85 144.275ZM251.631 37.8526C248.726 38.2015 244.537 40.7396 241.867 41.9936L226.291 49.3668L226.04 49.9312C228.617 49.3231 231.148 47.8396 233.496 46.7573L247.093 40.3099C248.243 39.7266 250.861 38.7502 251.631 37.8526ZM289.364 41.4778C287.368 42.1199 285.59 43.3097 283.767 44.2347L269.175 51.9178L261.648 55.9743C260.472 56.6274 258.991 57.2837 258.056 58.1582L259.083 58.4919L262.688 59.4999C268.828 56.5746 274.651 53.1599 280.439 49.7757C281.778 48.9933 283.424 48.3442 284.606 47.4182C285.404 46.7935 285.874 45.9236 286.481 45.1755C287.458 43.9644 288.587 42.7914 289.364 41.4778ZM341.702 -3.51693C343.069 -3.67808 345.049 -4.51048 346.014 -5.34547C344.721 -5.31184 342.633 -4.24043 341.702 -3.51693ZM419.995 123.451C423.218 122.421 426.393 120.558 429.393 119.121L450.888 108.983L460.132 105.203C460.985 104.861 462.934 104.241 463.513 103.684C463.609 103.591 463.655 103.469 463.726 103.361L462.053 103.426L461.87 103.077L501.388 82.9588L502.294 82.4733C501.651 81.9616 500.24 82.0108 499.359 82.0271C497.79 82.0563 496.438 82.8846 495.077 83.4513L482.969 89.0668C476.952 91.8563 470.647 94.3726 464.914 97.5577C461.753 99.3143 459.024 101.579 455.955 103.449C451.961 105.881 447.469 107.891 443.213 109.991C439.302 111.919 434.826 114.519 430.485 115.621C428.623 116.094 425.771 119.208 424.174 120.388C422.971 121.278 420.911 122.384 419.995 123.451ZM423.358 42.4753C423.119 41.3992 422.083 40.1658 421.437 39.2188L416.354 31.9973L391.892 -2.13251L386.367 -10.113C385.594 -11.2799 384.653 -13.3105 383.447 -14.0927L381.953 -13.5482C381.486 -13.3058 381.442 -13.2603 381.204 -12.8469L407.828 22.8856C412.663 29.3115 416.942 37.0393 423.358 42.4753ZM436.063 111.301C439.862 110.472 456.905 102.012 458.91 99.6702C457.728 99.9056 456.62 100.594 455.578 101.111L449.619 104.114L440.076 108.888C438.733 109.603 437.127 110.313 436.063 111.301ZM439.086 146.248C437.093 146.647 435.098 147.727 433.279 148.522L423.729 152.671L408.035 159.6C406.052 160.486 403.75 161.264 401.903 162.315C401.028 162.813 400.177 163.888 399.478 164.585L394.299 169.786L374.299 189.543L397.826 180.273C401.065 179.033 405.136 178.002 408.054 176.391C409 175.868 409.777 174.954 410.516 174.235L429.963 155.25L435.874 149.594C436.92 148.606 438.371 147.42 439.086 146.248ZM467.012 94.5183C468.364 94.3437 469.595 93.6507 470.783 93.1062L478.102 89.6069L494.183 81.8625L494.198 81.5082C493.524 81.4792 492.423 81.3126 491.782 81.4047C490.257 81.6238 468.84 93.041 467.355 94.136C467.2 94.2498 467.117 94.3739 467.012 94.5183ZM-94.9813 96.7889L-93.1623 100.467L-79.0247 95.1482C-78.9838 94.8641 -78.9226 94.6461 -79.0491 94.3721L-81.1369 90.5707C-82.7119 90.8294 -84.5802 91.8178 -86.0628 92.3988L-94.9813 95.822C-95.1673 96.2889 -95.1563 96.3171 -94.9813 96.7889ZM-91.8876 92.6331L34.0403 45.9642C34.0558 45.7477 34.0821 45.5721 34.0227 45.3595C28.8408 46.3996 23.4233 49.0985 18.4797 50.8353L-40.0315 72.4066L-81.9456 87.759L-88.0493 89.9328C-88.7603 90.183 -90.0767 90.4918 -90.6502 90.8687C-90.9694 91.0788 -91.5401 91.7386 -91.7285 92.0441C-91.8558 92.2503 -91.8638 92.4063 -91.8876 92.6331ZM-86.2757 85.1774C-84.6776 84.5975 -81.2497 83.7558 -80.0556 82.8442C-79.6093 82.5038 -79.096 81.5586 -78.7575 81.1039L-75.0553 76.0283L-10.1793 -12.7191L-11.4535 -15.819L-11.7629 -16.5164C-13.2107 -15.744 -18.907 -7.01931 -20.1735 -5.28233L-47.7918 32.6792L-86.2757 85.1774ZM-82.9161 121.722L-80.062 127.108C-78.1514 126.408 -63.9012 121.583 -63.4891 120.866L-63.4263 120.704L-66.4773 115.375L-82.7772 121.089L-82.9161 121.722ZM-78.8944 90.3863L-76.8236 94.272L-63.1043 89.1969L-63.0669 88.4227C-63.6915 87.2067 -64.2517 85.6808 -65.1906 84.6234L-78.8417 89.7611L-78.8944 90.3863ZM-74.5634 96.2118L-65.4134 113.023L-54.9248 109.339C-54.018 109.031 -51.8856 108.582 -51.3018 107.952L-51.6706 107.177L-61.1482 90.2885L-70.8622 93.913C-71.9833 94.3165 -73.9366 94.7672 -74.7372 95.5325L-74.5634 96.2118ZM-72.7468 80.1605C-71.1994 79.5826 -67.2968 78.5291 -66.3223 77.5412C-63.7502 74.933 -61.7456 71.3993 -59.6119 68.5007L-47.8558 52.9046L-5.51132 -3.90413L-7.21188 -6.53301L-7.77369 -7.05682L-72.7468 80.1605ZM-68.9949 148.498L-61.2255 164.452C-59.1859 164.112 -43.4932 158.5 -42.988 157.88L-43.221 157.229L-51.8769 141.21L-64.7266 145.988C-66.0148 146.479 -68.1846 147.057 -69.122 147.916L-68.9949 148.498ZM-64.3544 114.849L-61.5052 120.145L-52.5541 117.008C-50.8857 116.464 -48.886 115.992 -47.3667 115.22L-50.4805 109.606L-60.7807 113.314C-61.7001 113.645 -63.7917 114.194 -64.3544 114.849ZM-62.8076 84.3443L-60.6111 88.5828L-49.6597 84.6604C-49.536 84.2527 -49.635 84.1653 -49.8144 83.7835L-51.9837 79.7503C-55.4337 81.078 -59.5989 82.1836 -62.807 83.8047L-62.8076 84.3443ZM-60.0234 122.241L-53.0194 135.269C-52.5148 136.205 -51.605 138.576 -50.71 139.184L-36.7389 133.83L-46.2496 116.709L-59.9114 121.533L-60.0234 122.241ZM-59.5859 75.1824C-58.4462 74.8032 -55.1212 74.0236 -54.3438 73.3663C-53.3294 72.5088 -52.3654 70.6197 -51.5493 69.5581L-35.7369 48.4581L-5.73624 8.71176C-4.32369 6.84933 -2.69613 5.06968 -1.39867 3.15267L-2.84803 0.951378L-3.32475 0.438171C-4.77319 1.78947 -5.91752 3.55619 -7.08536 5.08934L-52.7558 65.8025C-54.9003 68.6654 -58.225 72.0284 -59.5859 75.1824ZM-54.4548 177.969L-47.2885 192.235C-44.8962 191.483 -28.2095 186.133 -27.7448 185.299L-28.0811 184.648L-36.0286 170.206L-54.4548 176.927C-54.7008 177.447 -54.6476 177.464 -54.4548 177.969ZM-49.8144 79.5415C-49.3003 80.5105 -48.2453 83.2343 -47.3333 83.8192L-37.1977 80.2327C-35.9324 79.7955 -33.6073 79.2627 -32.8385 78.3643L-32.9458 78.0759L-35.4777 73.7519L-44.8393 77.1866C-46.4257 77.7694 -48.3357 78.2939 -49.7259 79.1579L-49.8144 79.5415ZM-49.505 141.177L-40.8909 157.273C-39.0721 156.819 -37.2611 156.002 -35.5194 155.361L-27.3133 152.519L-27.0887 151.797L-36.071 135.646C-37.7697 136.255 -49.0828 140.037 -49.4537 140.886C-49.5075 141.009 -49.5004 141.058 -49.505 141.177ZM-48.2676 109.37L-45.2711 114.871L-36.1883 111.544C-36.8887 110.432 -37.6689 109.343 -37.2234 108.045C-36.8042 106.824 -35.6132 105.894 -34.2937 105.331C-30.9888 103.921 -27.2935 102.941 -23.8754 101.69L-13.2834 97.5579L17.374 88.0432L106.647 60.7121L130.179 53.6708L150.47 47.2232L154.668 45.8773C155.136 45.7268 156.074 45.5514 156.452 45.3217C156.747 45.1417 157.259 44.1916 157.468 43.8977C158.302 42.727 161.504 37.4258 162.371 36.9289C162.788 36.6898 164.07 36.5383 164.596 36.42L172.471 34.8403L205.258 28.014L227.832 59.5064L244.989 84.0354L257.422 102.515L275.869 129.072C278.041 132.345 280.556 135.62 282.406 139.022L47.8586 204.685C49.7249 204.75 52.008 204.926 53.8292 204.581C56.4334 204.087 59.1422 202.892 61.7124 202.164L86.9461 194.787L239.318 151.006C242.771 155.281 245.88 159.027 250.7 162.333C252.036 163.249 253.496 164.285 255.216 164.62L256.327 164.213C255.894 163.246 253.026 161.75 251.987 161.051C250.291 159.912 248.683 158.705 247.17 157.397C244.828 155.372 243.021 153.088 241.289 150.686L258.923 146.354L249.23 156.712C249.465 157.267 249.722 157.354 250.267 157.708C251.315 157.367 252.333 155.969 253.011 155.225L259.486 148.133C260.111 147.46 260.937 146.255 261.704 145.738C262.143 145.442 264.135 145.138 264.785 144.977C268.572 144.041 281.933 141.485 283.968 139.389L205.777 26.6371C201.239 27.9013 161.795 36.1081 161.576 36.2612C161.196 36.5264 160.718 37.3958 160.44 37.7672L157.038 42.4714C156.756 42.8672 156.28 43.7968 155.892 44.0801C155.474 44.3858 154.339 44.6711 153.806 44.8654L147.506 46.8781L123.422 54.6085L67.9711 71.3499L5.07783 90.9554L-24.6491 100.335L-48.2231 108.635L-48.2676 109.37ZM-47.8527 71.061L-42.8064 69.3295C-41.8106 68.9738 -40.0853 66.1708 -39.4823 65.348L-29.8535 52.2476L-8.40572 23.6451C-4.78835 18.9158 -0.71373 14.1477 2.57231 9.26686L1.28969 7.44349L0.766251 6.87002C-0.197723 7.29269 -1.08033 8.8279 -1.69534 9.61038L-8.02148 17.8397L-47.8527 71.061ZM-46.7208 85.6128L-37.0099 102.885L-21.1848 97.4527L-31.6193 80.04C-33.4371 80.7536 -46.3313 84.9514 -46.7208 85.6128ZM-39.6055 159.766L-35.2988 167.7L-25.2362 164.214C-24.2305 163.858 -22.185 163.395 -21.7061 162.599L-21.7537 162.403L-26.4189 154.112C-27.7294 154.275 -29.3643 155.1 -30.6037 155.565L-39.6055 158.795C-39.6967 159.176 -39.7007 159.386 -39.6055 159.766ZM-34.965 133.874L-33.7025 136.133L-24.1287 132.393L-24.1374 131.655L-25.2737 129.561L-34.8577 133.233L-34.965 133.874ZM-34.2609 169.42L-25.7352 184.803C-23.5168 184.077 -12.8157 180.849 -11.6342 179.814L-11.6478 179.216L-20.0909 164.325L-29.4547 167.609C-31.0105 168.164 -32.8338 168.674 -34.2609 169.42ZM-33.1089 73.8205L-30.7268 78.1149L-9.2645 70.3315C-9.20541 69.9999 -9.18345 69.8054 -9.28801 69.4733L-12.0064 65.0456L-25.5125 70.1104C-27.7755 70.9299 -31.3566 71.7573 -33.2159 73.03L-33.1089 73.8205ZM-33.6657 65.775L-29.3743 64.1972C-28.9294 64.0352 -27.9849 63.8076 -27.6384 63.5668C-27.0101 63.1301 -26.0319 61.2105 -25.5524 60.5132L-18.434 50.2383L2.05846 21.623L6.60175 15.5818L5.20652 13.6374L4.63327 12.9568C3.66342 13.6632 2.97447 14.8684 2.29573 15.7799L-2.09534 21.6893L-23.6984 51.7843C-26.9912 56.4184 -30.0378 61.3251 -33.6657 65.775ZM-32.7995 110.706L19.1473 204.141C20.751 204.237 22.5376 204.335 24.1107 203.994C28.624 203.016 33.2131 201.374 37.6493 200.132L71.1037 190.469L136.549 170.331L80.4631 76.6897L-32.7995 109.921C-32.819 110.2 -32.8351 110.428 -32.7995 110.706ZM-24.1374 153.863L-19.6161 162.153C-17.5647 161.949 -14.2579 160.248 -12.2164 159.519C-11.5238 159.272 -10.0803 158.932 -9.64624 158.482C-9.43774 158.266 -9.52158 158.016 -9.52653 157.747L-14.0219 149.469L-23.9214 153.09C-24.0319 153.362 -24.1374 153.573 -24.1374 153.863ZM-23.5186 186.825L-14.3482 203.351L-5.70126 200.348C-4.29646 199.869 -2.10586 199.382 -1.01257 198.557L-0.935235 198.297L-10.3757 181.501C-12.2597 182.175 -22.8569 185.415 -23.6328 186.338L-23.5186 186.825ZM-18.9404 60.4133C-17.552 59.8864 -14.4268 59.0745 -13.4115 58.284C-12.6266 57.6732 -11.7279 55.8134 -11.1627 54.9843L-3.35879 43.4355L11.3306 22.4697L9.72939 20.2555L8.80966 19.2141L8.5269 19.2376C6.74435 23.2602 3.65785 27.1066 1.14336 30.8465L-18.9404 60.4133ZM-9.59737 65.1286C-8.9706 66.1439 -7.73563 68.8607 -6.75 69.4691L6.79881 64.6224C6.84335 64.3218 6.86192 64.1377 6.74343 63.849L3.81625 59.1293L-5.82996 62.7944C-6.71319 63.1301 -9.45692 63.9033 -9.75793 64.5125L-9.59737 65.1286ZM-8.97865 180.224L-8.26278 181.286C-6.28905 181.229 -3.00208 179.732 -1.04969 179.097C-0.338784 178.866 1.18328 178.545 1.6863 178.075C1.89172 177.883 1.84253 177.885 1.84902 177.65L0.920936 176.255C-0.127488 176.139 -1.14127 176.637 -2.09039 176.964C-4.38709 177.755 -6.98883 178.426 -9.09899 179.504L-8.97865 180.224ZM-8.53627 -20.9852L6.6859 0.520172C7.99914 -9.52686 11.4708 -17.3993 19.9448 -24.7688C24.2131 -28.3408 29.132 -30.7117 34.6352 -32.7175L0.92897 -33.3148L-8.53627 -20.9852ZM-8.54089 203.447L2.45754 203.652L0.933929 201.148L0.302215 200.266C-2.28653 200.777 -6.25131 202.286 -8.54089 203.447ZM-6.13623 71.232L4.61811 89.3084C9.51717 87.6806 15.2382 86.4092 19.8363 84.3306L19.6509 83.7666L8.73387 65.7244L-0.653404 69.1825C-2.43657 69.8183 -4.47929 70.3988 -6.13623 71.232ZM-5.03923 55.3204L-0.893471 53.8203C-0.519142 53.6905 0.45565 53.4649 0.722633 53.2657C1.23215 52.8855 1.95172 51.2903 2.31522 50.7409L8.96094 40.8394L16.5193 30.2539L14.9783 28.1687L14.5329 27.5182C12.819 28.3392 -2.65065 51.8229 -5.03923 55.3204ZM2.77711 199.997L4.87582 203.649L16.3878 203.927L14.5752 200.631C13.9807 199.5 12.8966 196.589 11.8587 195.873L5.93044 197.986C4.865 198.356 3.59228 198.676 2.6843 199.263L2.77711 199.997ZM5.9397 58.4588L9.3792 63.9931C12.1975 62.9615 16.11 62.081 18.6235 60.7224L18.5546 60.1741L15.129 54.7549C12.1582 55.951 8.72643 57.0278 5.9397 58.4588ZM8.27447 50.4416C9.63132 49.9248 12.7664 49.09 13.7242 48.262C14.7101 47.4097 15.5739 45.6624 16.2922 44.6041C17.7972 42.3868 19.551 40.2052 20.8565 37.9046L19.5498 35.6202L19.0186 34.9524C18.2669 35.233 16.8772 37.7488 16.3906 38.4638L8.27447 50.4416ZM10.178 6.61832C11.7638 21.956 23.6528 35.9286 37.4256 45.5848C49.2491 53.8744 65.142 59.1003 80.7106 57.8926C92.4497 56.9818 105 52.8193 112.634 45.0333C120.521 36.9904 124.206 27.3774 123.868 17.0192C121.895 1.49303 113.146 -10.8947 98.679 -20.6606C86.1696 -29.1044 68.3959 -34.733 52.1748 -33.2646C39.7016 -32.1355 27.6096 -28.0503 19.6082 -19.6774C12.8218 -12.5758 9.34887 -2.43955 10.178 6.61832ZM17.6265 54.7658L20.7238 59.6839L35.8788 54.2746C35.958 53.9458 35.9825 53.7551 35.8788 53.4292L32.3901 48.2788L22.0364 52.1749C20.6452 52.6959 18.6427 53.2313 17.4993 54.0441L17.6265 54.7658ZM21.6482 61.8627L33.0284 80.4158L49.2872 75.2305C49.4369 74.7357 49.2872 74.6441 49.0301 74.1958L37.2706 55.5943L21.7565 61.2623L21.6482 61.8627ZM37.4256 52.2574C37.7811 52.8519 37.9129 53.4116 38.6631 53.6757L43.2262 52.0834L40.6659 50.6289C39.675 50.9501 38.0663 51.2897 37.3873 51.9623L37.4256 52.2574ZM68.6712 61.0414L73.3602 68.0827L95.7394 61.1415L98.9608 60.1588L96.8893 57.531C89.8597 59.7447 82.9433 60.9674 75.3958 60.8934C73.2151 60.8722 70.6053 60.2501 68.5425 60.5057L68.6712 61.0414ZM77.6427 199.833L79.8296 203.872L105.064 203.926L102.264 199.566L98.3204 192.918L77.8515 199.134C77.7785 199.364 77.6869 199.598 77.6427 199.833ZM81.4082 -32.3928C87.8798 -30.0327 93.6704 -27.4026 99.4527 -23.9959C100.227 -24.3803 100.258 -24.9178 100.55 -25.6082L102.524 -29.3886C99.8468 -30.3713 96.9264 -31.6681 94.1029 -32.2912C92.8831 -32.5602 91.3384 -32.4438 90.079 -32.4604C87.2044 -32.4981 84.2695 -32.6176 81.4082 -32.3928ZM84.1393 76.4266L107.138 115.084L132.091 157.268C133.006 158.796 138.47 168.651 139.67 169.228L140.598 168.74C140.641 167.803 139.284 166.226 138.756 165.377L133.531 156.681L93.2491 89.4615L85.6385 76.4931L162.607 53.7838L170.341 65.7678L176.135 57.6921L166.357 43.3535L161.792 50.8073C161.471 51.2952 160.985 52.333 160.533 52.7021C160.165 53.0034 158.704 53.3539 158.189 53.5298L147.545 56.8372L84.1897 75.5205C84.0589 75.8852 84.0267 76.0422 84.1393 76.4266ZM90.0172 78.2094L98.8757 92.8998L103.448 91.3069L98.2007 78.2774L159.81 60.3171C162.969 67.0865 168.325 73.4749 172.379 79.9331L195.445 115.336L212.107 140.259L149.107 157.24L114.622 102.619C113.791 101.28 112.977 99.5833 111.814 98.448C111.013 98.5093 110.494 98.715 109.806 99.0282C110.889 101.889 113.25 104.941 114.937 107.602L126.566 125.906L140.413 148.863C142.719 152.705 144.949 157.081 147.739 160.68L215.538 141.847C213.898 138.366 212.308 134.879 210.275 131.54L201.341 118.078L181.367 86.9234L161.636 56.2684L90.0172 77.3454C89.8278 77.7409 89.8956 77.8094 90.0172 78.2094ZM99.9167 -32.0465C101.165 -31.6202 102.425 -31.1277 103.723 -30.8245L104.224 -31.6005L104.248 -32.2183C103.021 -32.3132 101.136 -32.6694 99.9941 -32.3039L99.9167 -32.0465ZM100.226 95.2524L143.455 167.691L223.157 145.534L215.763 133.447C215.281 132.687 214.158 130.411 213.347 130.069C213.1 130.657 212.846 131.3 212.899 131.931C212.985 132.992 213.784 134.242 214.257 135.235L217.61 142.192C217.849 142.691 218.359 143.108 217.678 143.381L146.234 163.054L141.376 154.85L119.313 118.34L109.978 103.516L107.783 100.131C107.579 99.8203 107.038 99.2057 106.968 98.8989C106.942 98.7874 107.071 98.4586 107.101 98.3311C108.17 97.4441 109.389 97.1135 110.779 96.7025C107.983 91.765 105.29 87.052 103.383 81.8025L139.323 70.8851C146.057 68.9006 153.094 66.4251 160.055 65.1356C158.849 67.69 156.068 71.3083 157.418 74.0274C157.667 74.5308 157.995 74.948 158.386 75.38L158.498 75.5057C159.696 76.8242 162.239 77.2864 163.908 78.1504C166.959 79.7303 169.97 81.7718 172.649 83.7625C171.449 81.9052 170.244 79.564 168.646 77.9659C167.375 76.6954 165.746 76.3958 164.656 74.7522C163.806 73.47 164.701 72.3233 164.328 71.2002C164.052 70.3711 163.083 69.317 162.533 68.5514L158.445 62.7155L101.038 79.4249L106.151 92.4929C104.712 92.9526 100.784 93.8145 100.105 94.7511L100.226 95.2524ZM101.188 -22.8937C104.519 -20.5682 107.999 -16.5594 112.534 -16.0756L115.945 -23L116.848 -24.8751C115.735 -26.0549 106.376 -28.6077 104.329 -29.2756L101.188 -22.8937ZM107.032 84.7923L125.093 112.838C125.109 111.957 125.444 109.792 125.162 109.02C124.62 107.54 122.915 105.592 122.014 104.15L110.385 85.8197C123.625 81.0315 136.203 76.9207 150.486 81.6344C154.019 82.8002 157.501 84.2222 160.566 86.1115C161.888 86.9266 162.98 87.9519 164.264 88.7559C165.91 89.7867 167.846 90.5322 169.529 91.572C175.396 95.1963 179.434 100.39 182.307 105.931C186.558 114.13 187.456 123.025 183.478 131.445C180.02 138.764 172.762 144.682 164.16 147.769L151.52 151.344L149.734 148.387L142.634 136.51C141.923 135.329 140.952 133.037 139.833 132.202C139.504 131.956 138.609 131.742 138.158 131.557C137.087 131.117 136.069 130.57 135.053 130.047L150.31 155.013C154.915 153.651 159.768 152.65 164.284 151.155C173.788 148.008 181.829 142.127 186.253 134.348C191.175 125.697 190.915 116.386 187.094 107.488C185.902 104.711 184.478 101.92 182.449 99.4925C180.875 97.6091 178.686 95.941 176.773 94.2974C170.241 88.6871 163.336 83.1753 154.764 79.8165C144.026 75.6089 132.517 75.6715 121.459 79.0529C116.734 80.4978 111.395 81.9883 106.998 84.0069L107.032 84.7923ZM110.744 -14.9352L111.504 -14.4486L111.931 -14.7869L111.092 -15.2021L110.744 -14.9352ZM113.219 -12.9664C116.429 -9.59024 119.054 -6.21846 121.55 -2.44445L122.922 -5.66026L125.13 -10.4203L116.644 -13.2864C115.651 -13.6258 114.572 -14.2308 113.529 -14.0083C113.403 -13.6759 113.206 -13.3154 113.219 -12.9664ZM116.685 45.397L120.442 50.5316C121.048 51.4046 121.666 52.6804 122.618 53.2717L124.511 52.6219L124.66 52.2657L124.356 51.745L118.475 43.4414L116.685 45.397ZM118.388 -25.7005L126.867 -23.0644C127.888 -22.7349 129.568 -21.9943 130.645 -22.039C132.096 -24.4235 133.611 -27.0267 134.528 -29.5953L134.976 -31.0832C132.481 -32.7312 124.981 -32.0938 121.703 -32.1068C120.591 -30.0739 119.084 -27.8439 118.388 -25.7005ZM124.666 185.676L134.816 201.815L161.67 192.786L151.144 176.524L124.608 184.947L124.666 185.676ZM124.975 5.0275L126.704 9.83205L131.363 7.83071L132.279 7.07074L132.09 6.55858L125.284 4.53991L124.975 5.0275ZM125.606 -10.5279L138.651 -6.66131L141.099 -12.5386C141.716 -13.8997 142.546 -15.3596 142.911 -16.7839L130.808 -20.6179L125.606 -10.5279ZM126.484 113.268C127.267 119.453 130.3 124.329 136.116 128.258C141.97 132.213 149.559 133.982 157.02 133.295C164.094 132.644 170.674 129.612 175.107 124.958C179.544 120.3 181.137 114.812 180.471 108.923C179.149 102.559 175.233 97.2142 168.843 93.4893C163.141 90.1651 155.165 88.8262 148.358 89.8565C141.072 90.959 134.844 94.3354 130.65 99.4224C127.337 103.441 125.895 108.416 126.484 113.268ZM126.647 27.9131L129.494 31.8429L143.807 26.1638L138.158 17.7163L132.202 9.54182L127.073 11.8551C127.98 17.4996 127.516 22.3103 126.647 27.9131ZM131.162 34.2418L140.251 47.9293L154.983 43.0736C155.118 42.5275 154.974 42.4517 154.674 41.9719L145.035 27.9923C143.137 28.669 131.541 32.9316 131.02 33.7226L131.162 34.2418ZM132.426 9.38508C135.151 9.21384 138.094 7.66853 140.546 6.68273L140.86 6.29887L140.458 5.64805L139.824 5.26988C136.995 6.31258 134.419 7.31364 132.426 9.38508ZM135.493 4.71632C136.823 5.21685 138.936 4.32494 140.31 3.88882L148.78 0.802375C149.48 0.525081 150.599 0.245708 150.963 -0.3438C151.23 -0.77578 151.28 -1.37434 151.367 -1.8534C150.497 -2.43024 149.17 -2.69744 148.121 -3.00345L139.003 -5.71458C138.268 -3.72126 135.039 3.19767 135.493 4.71632ZM135.803 203.977C135.986 204.033 136.406 204.217 136.581 204.217C137.087 204.216 138.453 203.632 138.995 203.462L147.206 200.762L202.483 181.911C206.789 180.468 211.2 179.182 215.408 177.551L219.006 176C216.048 176.434 213.267 177.375 210.458 178.239L200.409 181.369L163.208 193.969C154.153 197.092 144.693 199.699 135.803 203.118C135.583 203.498 135.681 203.579 135.803 203.977ZM136.731 -31.4774L147.868 -27.8793C148.197 -28.259 148.44 -28.5857 148.641 -29.025L149.98 -31.7097L141.329 -31.8796C139.895 -31.9179 138.149 -32.1267 136.754 -31.8535L136.731 -31.4774ZM142.918 5.92612L154.152 21.8178L174.337 13.7716L162.589 -2.39454L143.019 5.38938L142.918 5.92612ZM144.118 -17.34L156.416 -13.4781C157.825 -16.3488 159.64 -19.3967 160.532 -22.4051L148.532 -26.3852L144.118 -17.34ZM145.702 26.9263L146.638 28.1524C147.447 28.185 148.233 27.7243 148.949 27.4279L154.854 25.0484C155.02 24.6467 155.009 24.6653 154.81 24.2724L153.746 22.9508C150.99 23.7459 148.187 24.9723 145.588 26.083C145.561 26.4113 145.57 26.6154 145.702 26.9263ZM153.127 -2.632L154.364 -2.01973C156.098 -2.39403 157.773 -3.4551 159.367 -4.15351L169.677 -8.64583L167.127 -9.3908L156.987 -12.2965L153.797 -5.18275C153.465 -4.43623 152.854 -3.43104 153.127 -2.632ZM153.746 176.419L163.544 191.918L183.774 185.292L174.337 169.854C168.728 171.178 163.247 173.112 157.779 174.81C157.006 175.05 154.452 175.607 154.055 175.976C153.918 176.103 153.849 176.271 153.746 176.419ZM155.739 23.5357L163.455 34.7674L185.524 30.1786C185.558 29.6519 184.588 28.5458 184.253 28.0678L175.491 15.6291L162.998 20.6062C160.677 21.501 157.78 22.2855 155.739 23.5357ZM161.571 -22.867L174.3 -18.9122L175.429 -22.1329L172.756 -24.6726L165.421 -31.2658L161.571 -22.867ZM163.027 -3.50217C164.246 -3.24144 165.325 -3.85319 166.462 -4.27172L177.661 -8.78423L177.799 -9.19087L177.567 -9.48135L176.793 -9.98394C173.471 -8.7894 170.309 -7.20789 167.098 -5.81495C166.231 -5.43858 163.397 -4.46598 163.081 -3.74403L163.027 -3.50217ZM165.501 204.881C166.401 204.91 168.319 205.195 169.108 205.001C170.243 204.721 172.002 203.542 173.081 203.009L182.006 198.804L224.726 178.368L251.482 165.873C248.441 166.21 244.714 166.34 241.867 167.293C238.338 168.475 234.888 170.546 231.612 172.169L165.705 204.497L165.501 204.881ZM167.667 42.2399L177.444 56.6344L209.431 50.4248C209.589 49.8834 209.57 49.8673 209.276 49.3634L201.443 38.4462C200.802 37.5427 199.644 35.3791 198.686 34.8957L174.267 40.4072C172.798 40.7419 168.521 41.3045 167.667 42.2399ZM173.476 -30.6036L173.788 -28.6307L174.274 -28.443C175.764 -28.9994 177.727 -29.5376 179.056 -30.3072C179.033 -31.0465 178.91 -31.0959 178.34 -31.6779L173.545 -31.7317C173.411 -31.3013 173.352 -31.0397 173.476 -30.6036ZM174.045 205.054L181.44 205.227C182.107 205.232 182.973 204.687 183.553 204.414L189.545 201.565L222.724 185.843L270.091 163.642L298.889 149.986L298.836 149.617L298.171 149.198L296.362 147.987C294.883 148.25 293.432 149.022 292.111 149.623L285.249 152.786L258.585 165.251L192.498 196.397L174.045 205.054ZM175.132 -14.6036L179.085 -9.61714L181.386 -10.6482C181.533 -11.1953 181.206 -11.4206 180.87 -11.8746L176.562 -17.4626C176.135 -16.4893 175.733 -15.5136 175.132 -14.6036ZM175.71 13.8544L177.027 15.6343L191.116 10.2594L191.179 9.65538L189.806 7.72725L175.686 13.1891L175.71 13.8544ZM178.185 78.4486L187.483 92.6908L194.724 82.8121L185.033 68.1998L180.08 75.231C179.6 75.8746 178.258 77.1405 178.042 77.8133C178.01 77.9129 178.157 78.3237 178.185 78.4486ZM179.113 -7.70376C180.474 -5.84418 189.056 6.62557 190.25 7.15222L191.611 6.68273C191.538 6.42018 191.473 6.16177 191.367 5.90672L180.942 -8.83752C180.103 -8.83752 179.776 -8.6267 179.062 -8.28991L179.113 -7.70376ZM180.97 -30.994L192.091 -16.7492L202.241 -20.5082C203.123 -20.8442 205.753 -21.5776 206.217 -22.1906L198.964 -31.4699L180.97 -31.6841L180.97 -30.994ZM182.826 -11.7786L183.754 -10.753C184.843 -10.8138 185.875 -11.3678 186.841 -11.7664L192.255 -14.0109L192.39 -14.5283L191.315 -15.6385C189.136 -15.6067 184.754 -13.3614 182.773 -12.4944L182.826 -11.7786ZM185.919 66.7626L196.017 81.9986L227.064 75.5947L227.361 75.1627L227.163 74.7132L216.231 59.2301C212.54 60.1849 186.733 65.8146 185.919 66.7626ZM187.318 205.306C189.528 205.372 191.859 205.301 194.046 205.531C194.887 205.619 195.352 205.471 196.098 205.151L206.189 200.417L243.445 182.801L281.246 165.018C289.027 161.367 297.215 157.891 304.693 153.834L304.714 153.522L303.174 152.519L301.29 151.4L187.318 205.306ZM192.725 10.3522L204.305 25.7476C204.991 25.8378 205.57 25.6573 206.223 25.501L206.337 25.0057L197.268 12.8908C196.662 12.0853 195.4 9.78135 194.427 9.45671C193.874 9.68047 193.051 9.90525 192.725 10.3522ZM192.381 7.14601L194.131 8.99757C196.095 8.18586 205.932 4.78332 206.647 3.79468L205.409 2.30344C204.017 2.31715 202.167 3.28794 200.895 3.78407C198.136 4.86014 194.93 5.79653 192.381 7.14601ZM193.963 -14.6136L206.702 2.17746L220.184 -2.94474C220.246 -3.28903 220.271 -3.3493 220.107 -3.6641L207.445 -20.4218L194.074 -15.2394L193.963 -14.6136ZM194.891 134.916C195.482 136.021 196.263 136.813 197.65 137.259C200.604 138.209 204.456 138.079 207.609 138.204L202.158 129.83C201.462 128.76 197.742 122.533 197.088 122.229C196.968 124.079 196.879 125.963 196.488 127.79C195.961 130.253 194.394 132.35 194.891 134.916ZM195.305 105.085L205.666 120.829L213.456 110.842L202.501 94.8897L195.305 105.085ZM200.15 162.871L209.177 177.015L229.106 171.224L222.102 160.453C221.598 159.655 220.602 157.598 219.764 157.182L200.149 162.154L200.15 162.871ZM200.942 205.537L206.854 205.527C207.609 205.527 208.704 205.672 209.406 205.554C210.43 205.38 212.317 204.211 213.295 203.761L227.516 197.105L311.601 157.488L311.83 157.152L310.731 156.505L308.009 155.101L200.942 205.537ZM203.538 93.8965L214.938 110.428L246.904 103.943C246.935 103.407 246.876 103.362 246.554 102.925L235.377 86.5963C227.241 89.3498 218.176 90.7161 209.688 92.5829C207.68 93.0247 205.483 93.3351 203.538 93.8965ZM207.884 -22.3029L208.812 -21.1218C210.374 -20.9741 213.552 -22.5274 215.071 -23.0905L215.463 -23.5818L214.381 -24.9162C212.54 -24.8715 209.796 -23.4537 208.054 -22.7897L207.884 -22.3029ZM208.193 4.53836L221.549 21.4906L230.993 17.7438C232.438 17.1661 234.183 16.6571 235.504 15.9279L222.019 -1.35806L208.221 3.8658L208.193 4.53836ZM209.74 27.4698L224.818 48.5442L242.381 40.408L314.456 8.44634L327.508 2.67799C328.127 2.37405 328.566 1.91259 329.154 1.57838C331.347 0.331847 334.429 -1.021 336.934 -1.76675L326.549 -15.0296L325.751 -15.9665C324.755 -15.951 323.743 -15.4318 322.84 -15.0844L316.807 -12.7732L327.657 1.70538L225.552 46.1595L211.281 27.3764L209.731 27.1493L209.74 27.4698ZM211.265 -31.2927L215.29 -26.0334L224.667 -29.6636L228.583 -31.2542L216.512 -31.3858C214.863 -31.3815 212.88 -31.555 211.265 -31.2927ZM213.762 26.2183C214.214 26.8808 214.405 27.5606 215.309 27.7701L222.322 24.7969L222.424 24.4757C221.842 23.8212 221.524 23.1626 220.568 22.9435C218.492 23.762 215.522 24.5773 213.784 25.7832L213.762 26.2183ZM215.269 205.578L221.75 205.586C222.232 205.586 223.522 205.722 223.934 205.589C225.79 204.985 227.903 203.653 229.694 202.821L294.892 172.325L319.709 160.592L319.718 160.25L318.738 159.77L315.375 158.454L215.269 205.578ZM216.856 131.43L226.232 146.635L232.679 138.748L222.576 123.547L218.393 128.812C217.982 129.31 216.905 130.304 216.726 130.845C216.698 130.936 216.831 131.315 216.856 131.43ZM216.856 -23.7057L230.39 -6.2966L243.625 -11.2442C243.758 -11.6035 243.807 -11.6076 243.615 -11.9416L230.17 -29.5493L220.419 -25.8578C219.655 -25.5771 217.672 -25.0629 217.115 -24.6164C216.998 -24.5218 216.865 -24.2124 216.781 -24.0792L216.856 -23.7057ZM221.827 -3.55313L223.507 -1.28692L229.799 -3.70757L229.849 -4.33018L228.426 -6.22831L221.827 -3.55313ZM223.352 23.5413L236.129 40.162L249.481 34.1024C248.064 32.2208 237.728 18.2094 236.661 17.7686L223.318 22.9567L223.352 23.5413ZM224.28 123.214L234.715 138.802L259.046 134.26C261.577 133.78 264.89 133.552 267.22 132.655C267.13 132.248 267.028 131.976 266.771 131.621L256.544 116.007L224.187 122.516L224.28 123.214ZM229.487 51.5055C230.715 51.7851 233.703 52.7753 234.839 52.6374C235.745 52.5275 237.84 51.2494 238.78 50.7993L337.507 -0.284573L337.816 -0.630406C334.985 0.139915 332.173 1.72737 329.578 2.95684L295.016 19.3141L270.05 31.7627L244.045 44.5154C239.216 46.8365 234.09 48.8823 229.487 51.5055ZM230.047 205.523L235.6 205.586C236.107 205.6 237.246 205.772 237.663 205.67C238.786 205.394 240.243 204.437 241.32 203.941L252.81 198.693L302.524 175.628L318.96 167.922C322.274 166.38 325.776 164.965 328.903 163.179C328.696 162.838 328.724 162.852 328.294 162.729L323.678 161.465L286.979 178.781L258.972 191.921L240.098 200.753C236.825 202.275 233.072 203.698 230.047 205.523ZM230.777 55.72L232.042 57.6036L279.699 69.1088L340.495 83.8833L349.142 85.9428C349.64 86.0618 351.416 86.3355 351.765 86.5828C352.155 86.858 352.662 87.8006 352.935 88.1977C353.201 88.5859 353.337 88.8811 353.392 89.3281C353.12 90.0192 352.913 90.5831 352.047 90.9165C351.753 91.0293 351.434 91.0728 351.119 91.1095C350.766 90.9491 350.32 90.834 350.126 90.5373C349.878 90.1566 349.566 89.6154 349.108 89.3847C347.941 88.7957 345.631 88.4778 344.279 88.1433L331.032 84.8758L234.597 61.6123L236.519 64.0709C237.403 64.8283 240.822 65.2551 242.137 65.5702L333.435 87.2414L345.98 90.2481C348.288 90.8312 350.023 91.8879 352.554 91.8995C353.358 91.9031 353.946 91.677 354.515 91.1988C355.088 90.7145 355.242 90.0953 355.428 89.4574C354.986 87.3844 353.513 86.2594 351.873 84.7545L230.947 55.2585L230.777 55.72ZM231.705 -4.4308C232.887 -2.48896 234.489 -0.718354 235.9 1.11097L244.642 12.1968C248.881 10.5175 254.05 9.10259 258.004 7.04331L245.026 -9.63396L234.789 -5.77848C233.963 -5.46006 232.172 -5.01358 231.705 -4.4308ZM236.655 15.4749L238.016 17.0549C240.29 16.2036 242.811 15.4364 244.943 14.3784L242.994 12.2902L236.673 14.8016L236.655 15.4749ZM238.7 53.6698L244.5 55.161L274.375 39.3684L290.279 31.3183L337.371 5.72125C350.262 -1.29908 363.208 -8.56825 376.666 -14.8064C377.628 -15.2523 378.658 -15.4753 379.648 -15.8923L391.317 -20.7242L413.192 -29.5312L413.706 -29.8732C411.741 -30.1442 410.445 -29.3116 408.66 -28.6359L401.173 -25.8653C391.063 -22.1446 380.796 -18.5729 371.029 -14.2419C360.613 -9.62208 350.577 -4.19567 340.545 0.981624L277.042 34.3346L252.485 46.7206C248.104 48.8831 243.226 50.9087 239.117 53.3907L238.7 53.6698ZM239.439 68.4293C239.649 68.2761 239.959 68.1137 240.058 67.8946L239.423 68.0664L239.439 68.4293ZM240.475 70.1502L244.126 75.1992L249.388 72.1404L251.442 70.9415L242.935 68.9673L240.475 70.1502ZM243.501 205.732L248.946 205.735C249.598 205.73 250.598 205.826 251.213 205.66C254.056 204.889 257.246 202.913 259.943 201.729L292.662 186.773L339.131 164.989C338.883 164.733 338.825 164.749 338.435 164.667C337.207 164.512 334.404 163.817 333.315 163.96C332.968 164.005 332.142 164.51 331.805 164.669L326.698 167.177L315.078 172.611L264.94 195.962L251.235 202.16C248.711 203.284 245.806 204.333 243.501 205.732ZM245.416 77.3808L247.408 80.2702L259.238 73.4653L259.6 73.0258C258.282 72.3911 256.525 72.1241 255.065 71.7697L245.416 77.3808ZM245.626 -11.3945L247.247 -9.65984C248.581 -10.1919 252.887 -11.4964 253.444 -12.439L253.345 -12.7176L251.504 -14.5554L245.577 -11.9167L245.626 -11.3945ZM246.245 14.3058L258.653 30.2906L271.393 24.6329L259.151 8.92386L246.375 13.6668L246.245 14.3058ZM248.37 55.8535L253.88 57.3408L277.466 44.6703L295.582 35.3212C297.503 34.2485 299.177 32.7966 300.968 31.5738C303.755 29.6708 306.833 27.8759 309.874 26.2595L321.435 20.4507L367.515 -3.80199L375.988 -8.35019C377.226 -9.02403 378.847 -9.70743 379.793 -10.6482L379.348 -11.4242L378.29 -12.7176C377.448 -12.6656 376.567 -12.0474 375.864 -11.6803L369.046 -7.98081L352.096 0.74443L303.44 26.895L290.951 33.8939L265.787 46.7338C259.984 49.6389 253.8 52.4962 248.37 55.8535ZM249.339 82.8463L251 85.1513C252.59 84.7506 254.545 83.2695 255.937 82.4578L267.591 75.6676L268.005 75.1074C266.743 74.5523 265.345 74.2266 263.99 73.859L249.345 82.2291L249.339 82.8463ZM252.742 87.7789L254.777 90.5454C260.086 87.5249 266.078 84.434 270.657 80.6585L270.947 78.6201L271.535 76.6532L271.149 76.3774L252.751 87.1475L252.742 87.7789ZM254.598 -13.4527C256.364 -10.4537 258.83 -7.68359 261.097 -4.93444L267.752 3.43848L281.175 -1.60457L267.588 -18.7084C265.524 -17.8618 255.247 -14.3361 254.598 -13.4527ZM256.175 92.6132L258.641 96.1345L266.74 91.3152C267.746 90.6957 269.246 89.9825 269.883 89.0694L270.001 87.4532C270.066 86.6775 270.465 84.9674 270.075 84.3036L256.175 92.6132ZM256.188 205.917C258.403 205.944 261.401 206.314 263.526 206.007C264.711 205.836 267.356 204.234 268.547 203.695L287.44 195.216L447.21 122.862L476.679 109.896L487.841 105.417C489.239 104.865 491.269 104.345 492.383 103.467C492.649 103.256 492.847 102.992 493.054 102.741L496.444 99.239C488.717 101.851 481.208 105.027 473.731 108.107L416.041 133.804L326.886 174.464L256.188 205.917ZM259.535 6.79137L261.298 8.86669L268.111 6.36587L268.21 5.77867L266.548 3.91806L259.535 6.79137ZM259.857 -30.5527L267.535 -20.9084L273.128 -23.0533L274.125 -23.5818C272.584 -26.1209 270.403 -28.5883 268.469 -30.9329L260.166 -30.9722L259.857 -30.5527ZM260.002 98.1596L262.879 101.932L269.756 97.352L269.71 95.5995L269.682 92.3002L260.002 98.1596ZM264.807 104.843L266.341 107.381L270.765 104.33L270.536 102.299L270.103 100.062L264.624 103.943C264.661 104.252 264.689 104.545 264.807 104.843ZM265.116 159.338C267.09 158.791 268.93 157.688 270.756 156.851L282.307 151.576C285.942 149.913 290.713 148.374 293.887 146.211C293.738 145.632 293.181 145.269 292.702 144.862L291.876 144.173C290.174 144.518 288.331 145.558 286.765 146.243L277.388 150.277C275.653 151.028 273.311 151.727 271.808 152.724C269.852 154.019 266.768 156.988 265.385 158.781C265.243 158.969 265.19 159.126 265.116 159.338ZM266.787 60.3957C268.361 60.754 270.799 61.5755 272.374 61.471C274.026 60.5902 277.255 59.3023 278.471 58.0861C279.526 57.0304 280.049 54.5536 280.921 53.2435L281.234 52.4382C279.152 53.0712 276.912 54.7386 275.056 55.7891C272.312 57.3437 269.444 58.7353 266.787 60.3957ZM268.21 109.955L269.806 112.358L272.34 110.784C272.333 110.548 272.389 110.165 272.265 109.959L271.322 106.88L268.077 109.385L268.21 109.955ZM269.15 5.19433L281.283 20.4823L294.137 14.9959L285.518 3.81536C284.637 2.69169 283.631 0.891608 282.443 0.0408394L269.15 5.19433ZM269.756 -18.815L270.685 -17.5922C272.03 -17.988 276.361 -19.278 277.017 -20.2242L276.872 -20.592L275.634 -21.9239C274.344 -21.5256 270.258 -20.2193 269.608 -19.3132L269.756 -18.815ZM269.685 206.056C271.393 206.073 274.196 206.42 275.767 206.149C276.371 206.044 277.472 205.399 278.06 205.139L284.389 202.335L451.268 127.098C461.332 122.622 471.433 117.955 481.88 114.133C483.213 113.645 485.137 110.685 486.087 109.623C481.484 110.975 476.983 113.096 472.599 114.903L438.643 129.777L336.937 175.892L292.705 195.721L277.528 202.491C274.944 203.647 272.114 204.699 269.685 206.056ZM271.613 114.805C272.374 115.904 273.144 117.389 274.242 118.258L274.938 117.911C274.92 117.659 274.929 117.381 274.864 117.135C274.524 116.298 273.8 113.78 273.005 113.38L271.656 114.205L271.613 114.805ZM272.519 96.9118C273.029 103.618 274.542 110.165 277.327 116.484C278.954 120.184 281.076 123.721 282.873 127.365C284.374 130.407 285.562 133.937 287.74 136.688C291.041 140.855 296.219 144.773 300.677 148.061C310.314 155.164 324.609 160.392 337.2 162.128C339.818 162.488 342.59 162.917 345.244 162.792C349.603 160.217 354.655 158.233 358.741 155.387C352.993 155.629 347.357 155.453 341.664 154.702C323.239 152.13 306.11 143.811 295.189 131.012C283.065 116.799 278.351 98.8145 281.834 81.6269L282.468 78.6786L274.202 76.8389C272.804 83.5108 272.095 90.1382 272.519 96.9118ZM276.253 62.4048C276.584 62.1844 276.773 62.1335 276.872 61.7822L276.269 62.1909L276.253 62.4048ZM275.699 148.645L289.958 142.351L287.675 140.226L286.153 138.713L285.927 138.993L286.255 140.157C285.494 140.855 284.445 141.013 283.61 141.642C280.832 143.735 278.1 146.247 275.699 148.645ZM277.908 -21.6831L290.846 -5.20966L305.048 -10.8094L292.451 -27.087L282.91 -23.5344C281.259 -22.9317 279.47 -22.4294 277.908 -21.6831ZM279.059 63.0091L287.313 64.9341C295.288 48.9982 309.426 37.106 328.541 30.5433C346.475 24.3851 367.679 24.5129 385.541 30.7642C402.739 36.7837 417.152 48.3634 424.221 62.8818C431.707 78.2556 432.88 96.858 425.056 112.381L423.466 115.383C427.175 112.912 430.492 110.516 432.951 107.072C440.762 95.8137 440.716 83.6158 436.778 71.2754C430.702 52.2435 417.764 35.003 397.077 25.0049C378.723 16.1325 355.063 14.6573 334.778 19.2477C314.843 23.7591 296.015 35.2426 285.75 50.3236C282.991 54.3793 280.971 58.6342 279.059 63.0091ZM281.491 206.285C283.399 206.382 286.4 206.695 288.145 206.013C289.141 205.624 289.995 204.999 290.954 204.547L298.014 201.331L404.836 153.461L454.312 131.586L467.767 125.775C469.159 125.171 471.111 124.617 472.317 123.796C472.596 123.607 472.769 123.362 472.958 123.113L475.971 119.553L424.833 141.728L339.558 180.077L296.813 199.352L286.533 203.897C284.906 204.623 282.929 205.338 281.491 206.285ZM283.059 -2.15244L284.278 -0.234647L290.595 -2.66589L288.986 -4.85141L283.198 -2.62217L283.059 -2.15244ZM292.324 94.0527C293.07 108.337 300.065 122.211 312.761 131.957C323.916 140.522 339.92 145.924 355.15 145.36C372.591 144.714 388.313 138.325 400.063 127.563C411.856 116.765 419.15 101.151 418.259 86.4387C417.399 72.2985 410.154 58.533 397.501 49.0199C384.78 39.4558 369.021 35.3442 352.047 36.1329C335.626 36.896 319.882 43.4991 308.993 53.7399L307.26 55.4502C303.619 59.3892 300.556 63.3528 298.026 67.8806L307.229 69.9823C308.467 70.2635 310.144 70.8297 311.409 70.7801C318.233 60.5732 328.442 52.8653 342.091 49.6474C354.181 46.7971 367.821 47.7922 378.825 52.9915C390.052 58.2943 398.083 67.1587 401.47 77.5345C405.245 89.1022 403.271 101.497 396.097 111.9C389.603 121.312 378.544 128.993 365.881 131.83C353.628 134.576 340.628 133.332 329.643 127.961C317.977 122.26 310.781 112.845 307.427 102.076C305.608 96.2436 305.8 90.2277 306.815 84.3132L293.704 81.391C292.816 85.5424 292.006 89.8226 292.324 94.0527ZM292.649 -3.05726L303.362 10.9764C304.857 10.6885 306.434 9.73349 307.817 9.12329L316.857 5.23598L306.215 -8.90064L292.81 -3.7505C292.733 -3.52157 292.615 -3.29601 292.649 -3.05726ZM292.959 -29.1776L294.351 -27.8325C296.377 -28.0278 299.013 -29.1473 300.798 -29.9828C300.853 -30.2045 300.918 -30.3442 300.844 -30.5659L299.765 -31.9146C298.286 -32.1577 294.484 -30.3411 292.94 -29.7552L292.959 -29.1776ZM292.856 206.256C294.49 206.351 296.547 206.56 298.069 205.974C303.956 203.713 309.689 200.937 315.409 198.384L344.777 185.287L427.12 148.847L450.455 138.758L458.062 135.535C459.318 134.998 460.908 134.474 461.982 133.734C463.414 132.749 464.856 130.787 465.935 129.496L431.525 144.236L301.002 202.42C298.307 203.638 295.353 204.779 292.856 206.256ZM304.096 -29.9533L315.762 -14.6341C319.452 -15.4546 323.338 -17.4138 326.911 -18.6611C327.762 -18.972 330.71 -19.8015 331.143 -20.3647L323.304 -30.5359L304.25 -30.683L303.953 -30.4246L304.096 -29.9533ZM307.189 -10.6749L308.018 -9.52326C309.38 -9.28037 313.745 -11.2302 315.103 -11.7755C315.171 -12.1022 315.192 -12.155 315.044 -12.4589L313.828 -13.8304C312.018 -13.759 309.061 -12.1237 307.366 -11.4242C307.276 -11.1645 307.189 -10.9478 307.189 -10.6749ZM311.799 95.2371C313.008 105.256 318.441 114.449 327.855 120.865C335.552 126.111 346.565 129.075 356.483 128.188C368.987 127.069 379.462 122.344 387.329 114.105C394.968 106.102 398.624 95.1585 397.201 85.0116C395.834 75.2755 389.783 65.9657 380.523 59.9115C372.161 54.4411 360.842 51.9778 350.333 53.1025C338.973 54.3183 328.439 59.0328 321.398 66.6566L316.956 72.2558L317.089 72.7134L318.79 73.1924C319.387 72.7793 319.672 72.284 320.034 71.7258C326.552 63.5916 335.586 57.4665 347.267 55.5327C357.349 53.8635 368.301 55.3669 376.885 60.2165C386.259 65.5094 392.316 73.493 394.435 82.7563C396.688 92.5917 393.888 102.783 387.181 111.039C381.003 118.644 371.329 123.93 360.533 125.606C350.608 127.145 340.003 125.52 331.641 120.686C322.719 115.529 316.637 107.469 314.704 98.5533C313.98 95.2258 313.915 91.8359 314.233 88.4726C314.295 87.8228 314.735 86.4113 314.073 86.0491C313.642 85.8132 312.953 85.7822 312.448 85.7214C311.867 86.4757 311.901 87.4281 311.817 88.2975C311.591 90.5971 311.554 92.937 311.799 95.2371ZM317.983 94.8556C319.025 103.127 323.353 110.943 331.189 116.277C338.407 121.189 347.614 123.569 356.87 122.735C367.057 121.818 375.886 117.172 382.256 110.56C388.694 103.876 391.834 94.6344 390.671 86.1169C389.575 78.1266 385.034 70.2599 377.377 65.2298C369.643 60.1458 360.471 57.884 350.655 58.8905C341.324 59.8476 332.133 64.1415 326.36 70.3602C325.247 71.5576 324.337 72.8481 323.508 74.1958C324.152 74.5468 324.696 74.7088 325.442 74.8508L326.156 74.1958C331.044 67.7052 338.453 63.0918 347.456 61.3668C356.186 59.6939 365.263 60.8321 372.861 64.8482C380.177 68.714 385.81 75.3497 387.679 82.4345C390.027 91.3343 388.01 99.6669 382.166 107.313C377.294 113.687 368.873 118.7 360.013 120.287C351.555 121.803 342.682 120.264 335.462 116.321C327.654 112.057 322.568 105.023 320.711 97.4555C320.158 95.1934 320.093 92.7963 320.26 90.4985C320.281 90.192 320.634 87.7015 320.547 87.5872C320.495 87.5148 320.383 87.4868 320.297 87.4405C319.793 87.1661 319.069 87.1332 318.481 87.0629C317.482 88.4928 317.621 93.2156 317.983 94.8556ZM325.408 93.6251C326.172 100.238 329.392 106.348 335.641 110.65C341.259 114.519 348.712 116.521 355.969 115.922C363.932 115.266 371.233 111.557 376.217 106.419C381.086 101.403 383.883 94.3768 383.073 87.9266C382.175 80.7676 378.225 74.327 371.472 69.8015C365.702 65.9331 358.045 64.5934 350.837 65.2983C348.529 65.5241 346.268 66.0896 344.096 66.7637C338.722 68.832 333.89 71.7408 330.735 76.0272L340.993 78.6506C345.157 75.6107 349.219 73.9159 354.865 74.275C359.796 74.5882 364.106 76.6415 367.283 79.7559C370.67 83.0806 372.01 87.1319 371.58 91.4657C371.128 95.9997 368.251 100.133 364.112 103.031C360.573 105.507 356.096 106.496 351.542 106.132C347.06 105.774 343.004 103.7 340.18 100.839C338.026 98.6568 336.572 95.7909 336.053 93.0097C335.975 92.5938 335.988 91.3416 335.79 91.0337C335.725 90.9357 326.15 88.6842 325.479 88.5332L325.408 93.6251ZM325.751 206.491L328.226 206.522L344.897 189.294C343.592 189.738 341.674 190.192 340.566 190.892C338.828 191.991 337.095 194.302 335.688 195.741C332.421 199.083 328.52 202.496 325.77 206.147L325.751 206.491ZM330.698 206.502L354.945 206.715L394.664 166.869C381.062 171.45 368.273 177.337 355.249 182.932L350.586 184.907C350.218 185.062 349.275 185.346 349.018 185.566C348.653 185.878 348.161 187.042 347.938 187.48L347.679 188.125C346.788 190.584 344.081 192.534 342.194 194.512L330.698 206.502ZM331.561 17.7458C335.156 16.8537 339.072 15.8063 342.825 15.5538C344.566 15.4367 345.832 14.2729 347.233 13.4995L353.442 10.2539C363.509 5.03836 374.135 0.149222 383.769 -5.60232L382.117 -7.80103L381.436 -8.54627C379.357 -7.85562 377.288 -6.26401 375.419 -5.20346L364.802 0.562579L343.428 11.7061C339.573 13.6562 335.078 15.4219 331.561 17.7458ZM337.197 -21.1686L348.356 -6.32505L360.984 -11.6829C361.021 -11.8433 361.16 -12.1865 361.136 -12.3337C361.018 -13.0409 353.791 -21.7931 352.823 -22.9881L350.033 -26.2091C348.288 -25.55 337.661 -21.8994 337.197 -21.1686ZM341.528 93.3142C342.525 96.1321 344.443 98.8619 347.66 100.281C350.645 101.597 353.959 101.824 357.167 100.957C360.712 99.9985 363.369 97.6629 364.987 94.9208C366.55 92.2717 366.809 88.9807 365.702 86.1738C364.57 83.3049 361.81 80.9267 358.587 79.6305C355.771 78.4983 352.743 78.4468 349.754 79.1044L347.255 80.1452L347.292 80.451C347.926 80.6243 348.935 81.025 349.572 81.0739C350.487 81.1442 351.861 80.6215 352.82 80.5374C357.312 80.1432 361.275 82.5491 363.221 85.82C364.601 88.1426 364.61 90.8472 363.589 93.2635C362.5 95.8479 360.245 97.9793 357.281 99.1591C354.983 100.073 352.26 100.122 349.881 99.365C347.36 98.5629 345.365 96.7209 344.325 94.6786L343.493 92.7006C342.874 92.4184 342.382 92.2813 341.683 92.2024C341.318 92.6641 341.439 92.7813 341.528 93.3142ZM347.406 93.8672C348.699 95.225 350.163 96.3856 352.325 96.5879C354.339 96.776 356.375 96.3042 357.925 95.1893C359.614 93.973 360.749 92.0239 360.845 90.1654C360.95 88.2194 360.102 86.2623 358.503 84.843C357.829 84.2454 356.981 83.7775 356.174 83.3176C355.335 83.0796 354.788 82.7842 353.918 82.9906L354.642 84.2798C355.112 85.0491 356.01 85.2462 356.749 85.7837C358.481 87.043 359.286 89.3578 358.686 91.1993C358.274 92.4608 357.278 93.7361 355.88 94.3613C354.8 94.8434 353.392 95.1986 352.183 94.8895C351.341 94.675 350.887 94.3175 350.345 93.763C349.399 93.6132 348.331 93.2756 347.459 93.6179L347.406 93.8672ZM348.334 -29.8879L350.596 -27.2143L357.232 -29.2748L359.227 -30.0485L359.162 -30.3607L348.644 -30.436C348.427 -30.2017 348.365 -30.1962 348.334 -29.8879ZM349.918 14.8202L356.022 14.5771C356.542 14.5634 357.72 14.6896 358.129 14.5595C360.304 13.8717 362.859 12.0574 364.904 11.0168C372.396 7.20291 379.954 3.00184 387.732 -0.363465L385.965 -2.62322L385.303 -3.27895C382.85 -2.73419 379.629 -0.396317 377.424 0.756061L361.433 8.90238C357.64 10.8766 353.881 13.1086 349.918 14.8202ZM361.946 -29.2014L371.53 -16.5133L396.669 -26.2024L403.085 -28.624C404.128 -29.0014 405.508 -29.3367 406.395 -29.8982L376.214 -29.7213C372.817 -29.7192 368.601 -29.3212 365.29 -29.7438C364.845 -29.8007 364.458 -30.0547 364.112 -30.2811C363.212 -30.1292 362.596 -30.1282 361.897 -29.6189L361.946 -29.2014ZM363.83 14.7483C365.198 14.8278 366.593 14.8774 367.948 15.0598C368.557 15.142 369.6 15.4457 370.16 15.3653C371.537 15.1676 374.312 13.2788 375.648 12.5879C380.709 9.9756 386.432 7.60514 391.15 4.61336C390.986 3.93978 390.454 3.35957 390.024 2.78274L389.022 1.76798C387.806 1.99354 386.578 2.83966 385.516 3.40537L378.763 6.96105L369.405 11.6813C367.577 12.5975 365.417 13.5494 363.83 14.7483ZM374.321 206.946C375.379 206.971 376.981 207.254 377.748 206.648C380.431 204.529 382.708 201.656 385.127 199.287L404.923 179.52L400.338 181.166C399.84 181.317 399.388 181.49 399.005 181.803C395.623 184.56 392.691 188.05 389.634 191.088C384.551 196.136 378.853 201.26 374.311 206.648L374.321 206.946ZM374.562 16.014C376.52 16.3384 378.494 16.6121 380.366 17.2026L390.067 12.5502C391.657 11.7791 393.585 11.0318 394.98 10.0454C394.643 9.40704 394.299 8.8165 393.857 8.22336L392.731 6.6747L374.562 16.014ZM380.118 207.033L386.596 207.035L457.121 138.368C453.657 139.896 449.79 141.883 446.108 142.922C445.65 143.05 445.319 143.192 444.97 143.482C443.324 144.851 441.848 146.461 440.305 147.924L429.802 158.022L401.495 185.65L386.933 200.103C384.663 202.37 382.107 204.586 380.118 207.033ZM384.514 18.2006L390.086 19.9125L397.009 16.5893C397.764 16.229 398.878 15.871 399.308 15.2189L398.677 14.4302L396.774 12.0354L384.514 18.2006ZM385.767 -14.2068L395.32 -0.706983L412.62 -7.76819C415.237 -8.82253 418.17 -9.72942 420.629 -11.0101L410.012 -24.7512C407.095 -23.5652 386.395 -15.7283 385.64 -14.655L385.767 -14.2068ZM393.736 21.1266L398.785 23.4694C399.958 22.8551 402.504 21.8163 403.135 20.8569L402.782 20.3718L400.715 17.677L393.736 21.1266ZM394.135 140.365L463.16 109.268L490.331 98.0802L498.53 94.8C499.804 94.3168 501.404 93.9329 502.57 93.2981C504.011 92.513 505.521 90.4548 506.613 89.2903L462.059 106.209L420.679 125.433C411.494 129.858 401.337 133.623 394.135 140.365ZM401.718 24.9493L406.03 27.5197C406.615 27.3906 406.893 27.2227 407.308 26.859L406.804 25.9871L404.805 23.3155L401.718 24.9493ZM407.113 15.5404L418.297 30.2676L435.692 23.0178C437.474 22.2834 442.442 20.7736 443.377 19.5058L443.191 19.0989L432.051 4.46023L407.156 15.0044L407.113 15.5404ZM408.969 29.5611L410.655 30.884L410.776 30.4804L409.588 29.0435L409.006 29.1731L408.969 29.5611ZM412.372 -24.8218L428.23 -4.03246C434.519 4.23828 491.117 79.2179 493.094 79.7187C493.796 79.8969 494.703 79.8118 495.436 79.8012L495.649 79.4999L495.154 78.8519L433.758 -0.302434L420.354 -18.0214L415.707 -24.275C415.197 -24.9512 414.81 -25.7564 413.919 -26.0702L412.341 -25.409L412.372 -24.8218ZM416.703 -26.3022L498.786 79.6478L502.493 79.8866L502.836 79.6279L502.291 78.8519L418.773 -27.8599L416.641 -26.9833L416.703 -26.3022ZM421.344 -28.4386L506.953 80.1051L513.849 80.4039C513.803 80.0353 513.744 79.9057 513.447 79.6279L424.051 -29.6414L421.557 -29.0139L421.344 -28.4386ZM425.675 45.5015C428.604 49.0703 431.008 53.2285 433.18 57.1556C433.601 57.9179 434.863 61.0957 435.417 61.3781C438.093 62.7413 439.141 64.9768 440.864 67.0441C443.414 70.1041 461.734 94.6049 462.35 94.8895C462.526 94.9722 462.752 94.9404 462.953 94.966C463.318 94.7167 463.841 94.4363 464.098 94.1134L447.704 72.4795C445.239 69.212 427.992 45.442 426.139 44.8874L425.653 45.2291L425.675 45.5015ZM430.934 47.2441L441.901 61.4012L467.315 50.2356L455.977 35.6303L430.968 46.5527L430.934 47.2441ZM434.742 108.804L454.3 99.2261L458.944 96.9912C459.197 96.8631 460.193 96.4552 460.323 96.2891C460.438 96.1445 460.447 95.9596 460.509 95.7948L459.417 94.3721L458.777 93.7699L441.997 101.374C440.985 101.858 438.758 102.635 438.065 103.347C437.653 103.768 437.316 104.654 437.022 105.161L434.742 108.804ZM438.049 67.8514L438.776 69.2811L439.132 69.3835C439.429 68.9621 439.426 68.9983 439.287 68.5237L438.049 67.0379C438.018 67.3245 437.978 67.5668 438.049 67.8514ZM439.59 99.5709L457.05 91.4424L455.234 88.9475L454.566 88.3984C452.379 89.229 442.049 93.5925 440.948 94.8093C440.592 96.4312 440.252 98.0116 439.59 99.5709ZM439.791 73.6562L440.834 77.2303L444.394 75.4892L444.459 74.9718C443.683 73.9219 442.931 72.6239 441.929 71.7263L439.803 72.6438C439.639 73.075 439.63 73.2245 439.791 73.6562ZM441.452 80.4453L441.854 84.0362L449.047 80.8543L446.492 77.5684C444.967 78.2639 442.637 79.0583 441.477 80.108L441.452 80.4453ZM441.604 91.4378L453.007 86.1071L451.237 83.7705L450.578 83.0765C449.517 83.2247 448.506 83.8297 447.575 84.2716L441.882 86.9814L441.604 91.4378ZM454.136 77.8381L465.725 93.032L490.022 80.5022L490.529 80.0094L479.519 65.997L454.136 77.266L454.136 77.8381ZM466.798 102.43C477.911 98.4739 488.695 93.7399 499.417 89.1009C504.095 87.0773 509.339 85.24 513.698 82.7901C511.882 82.6838 509.094 82.272 507.328 82.6065C506.52 82.7591 505.19 83.5936 504.426 83.9436L495.519 88.0913L479.671 95.561C475.451 97.5336 470.647 99.5737 467.021 102.262L466.798 102.43Z" fill="black"/>
<path d="M67.263 185.826L126.884 167.227C125.027 164.784 123.694 161.997 122.187 159.388L115.3 147.786L115.065 147.739L113.713 150.423L122.828 165.897L101 172.871L100.451 172.583L100.2 171.668C105.726 166.023 109.879 159.756 112.008 152.64C112.653 150.488 112.238 146.621 113.647 144.924C114.161 144.305 114.348 144.283 115.23 144.149C116.712 144.803 128.299 165.333 129.995 168.326C126.513 169.678 122.845 170.701 119.252 171.824L102.158 177.163L41.2958 195.462L31.6285 198.394C30.0641 198.876 28.0105 199.712 26.3192 199.532L26.1339 199.511C25.0827 199.403 24.2663 199.153 23.3209 198.77C22.3563 198.38 21.8555 198.156 21.3444 197.323L12.2204 180.72L-19.7825 123.432C-21.4237 120.428 -23.463 117.4 -24.7561 114.287C-24.8699 113.711 -24.6921 113.153 -24.3911 112.631C-23.9997 111.952 -23.0299 111.309 -22.2234 111.011C-19.4048 109.969 -16.3189 109.19 -13.4158 108.301L7.57223 102.023L79.1951 80.7736C80.2806 81.7381 81.1379 84.0338 81.906 85.3011L88.7454 96.7012C89.9451 98.7049 91.5816 100.886 92.3148 103.038C92.0327 103.716 92.0194 103.696 91.2546 104.031C91.09 103.979 90.6148 103.882 90.5047 103.795C89.4677 102.978 88.4595 100.567 87.7706 99.4229L78.1241 83.1349L54.1293 90.1737L-12.8534 110.339L-19.4069 112.207C-20.4575 112.51 -21.6585 112.728 -22.4857 113.377C-22.5207 113.508 -22.6889 113.925 -22.6602 114.031C-22.4501 114.809 -21.4719 116.044 -21.0512 116.823L-13.6401 130.038L23.7107 196.926C24.4411 197.16 25.9118 197.764 26.6596 197.676C29.8382 197.301 33.7575 195.631 36.8536 194.734L67.263 185.826Z" fill="black"/>
<path d="M1.68722 121.182C-2.10896 128.358 -3.0027 136.206 -2.86102 143.959C-3.79157 143.144 -4.43381 141.654 -5.04449 140.618L-10.4874 130.8L-19.1876 115.616C-19.1839 115.418 -19.0781 115.187 -19.0193 114.992L15.9278 104.462C9.98586 109.627 5.42462 114.68 1.68722 121.182ZM-15.4752 117.06L-4.61757 136.292C-3.79374 131.07 -2.58506 125.982 -0.214424 121.072C2.18684 116.582 4.97234 112.728 8.51608 108.823C5.26469 109.874 -14.381 115.42 -15.5334 116.664L-15.4752 117.06Z" fill="black"/>
<path d="M109.234 147.078C108.411 151.851 106.87 156.439 104.405 160.805C96.7025 174.448 80.6912 183.161 63.2038 185.537C60.9307 185.846 58.6742 185.967 56.3738 186.01C55.704 186.023 53.7102 185.897 53.2031 186.112C52.9986 186.199 52.7861 186.702 52.5844 186.845C52.3415 187.018 51.454 187.186 51.0994 187.292L46.8621 188.531L25.7581 194.729C20.2174 186.192 15.9299 176.929 10.9272 168.151C9.83086 166.228 8.2652 164.441 6.99805 162.589C5.75844 160.777 4.75981 158.78 3.89175 156.824C1.71291 151.916 0.369964 146.938 -0.35363 141.739C-0.677842 139.65 -0.598343 137.28 -0.355492 135.178C0.97229 123.683 7.52644 113.151 18.2563 105.808C29.6662 97.9985 45.2491 94.3853 59.8714 95.6539C74.0977 96.8885 87.9707 102.978 96.9778 112.286C106.662 122.294 110.824 134.324 109.234 147.078ZM1.81871 142.349C3.25755 153.937 9.70434 165.739 20.6545 173.208C31.9369 180.903 46.0015 185.176 60.6751 183.88C74.7842 182.634 87.825 176.815 96.7248 167.549C104.213 159.754 108.305 148.85 107.251 138.864C106.425 127.222 99.7905 116.171 89.3827 108.449C78.7932 100.592 64.6677 96.6878 50.5717 97.3945C36.3367 98.1081 22.7739 103.396 13.3038 112.356C5.01039 120.202 0.895568 131.122 1.73518 141.517L1.81871 142.349ZM16.0797 173.119L26.8603 192.319L43.3709 187.374C45.0199 186.868 46.8519 186.437 48.3771 185.708C36.9774 184.053 27.9214 180.673 18.9385 174.499C18.42 174.142 16.5982 172.682 16.0821 172.841L16.0797 173.119Z" fill="black"/>
<path d="M101.663 137.981C102.729 147.544 99.3401 157.152 92.1954 164.657C84.427 172.818 73.2813 177.995 60.8911 179.158C48.7548 180.297 35.7337 177.106 26.2218 170.725C15.9436 163.83 9.43706 154.113 8.00317 143.149C6.63424 134.412 10.2021 124.478 16.4364 117.499C23.5146 109.575 34.8935 103.935 46.6146 102.549C59.3411 101.043 72.4847 103.639 82.7704 110.132C93.7985 117.094 99.7825 126.694 101.663 137.981ZM23.7949 140.863C24.4027 148.49 28.1383 155.196 35.0649 160.254C40.7909 164.436 49.638 166.976 57.2418 166.535C65.395 166.061 73.4645 163.101 78.8266 157.863C83.6613 153.142 85.816 147.547 85.988 141.385C85.365 133.758 82.1971 127.143 75.1678 122.028C68.4952 117.173 60.4811 114.965 51.6563 115.517C43.3416 116.038 35.7767 119.495 30.4297 124.783C26.0012 129.163 23.6457 135.148 23.7949 140.863Z" fill="black"/>
<path d="M116.722 17.1734C116.927 25.4804 114.452 33.8949 108.044 40.4434C101.112 47.5266 91.3579 51.7944 80.465 52.6736C64.9817 53.9233 50.4699 49.4387 38.5997 41.1967C26.0071 32.4531 17.8836 20.5979 16.347 6.93753C16.0317 -1.31847 18.2792 -9.3339 24.5221 -15.9184C31.4751 -23.2519 41.1358 -27.2456 52.1404 -28.2391C67.4647 -29.623 82.7289 -25.5114 94.6576 -17.4282C107.76 -8.55013 114.982 3.22638 116.722 17.1734ZM19.4564 6.67084C20.7569 19.5826 28.318 30.6936 40.1103 38.9918C50.7969 46.5121 64.8608 50.9845 78.9117 49.9457C88.9168 49.2059 98.3037 45.1173 104.703 38.648C110.211 33.0796 113.788 25.0272 113.192 17.7409C112.449 5.07303 105.64 -5.59715 94.5119 -14.0391C83.825 -22.1466 69.2945 -26.4155 54.9046 -25.7393C44.871 -25.268 35.0504 -21.7299 28.3796 -15.3777C22.3458 -9.63189 18.8546 -1.23595 19.4356 6.42303L19.4564 6.67084Z" fill="black"/>
<path d="M111.764 16.0619C112.004 24.0191 110.219 31.3079 104.072 37.6539C97.9303 43.9942 89.0727 48.0313 79.3442 48.8859C66.0469 50.0541 52.3595 46.0809 42.0562 39.0598C30.6051 31.2565 22.532 20.7392 20.997 8.3015L20.9899 8.27253C20.2984 0.286846 22.433 -7.20168 28.465 -13.529C34.5885 -19.9526 43.5628 -23.6601 53.2449 -24.5469C67.2184 -25.8265 80.848 -21.9723 91.7214 -14.67C103.366 -6.8504 110.149 3.72819 111.764 16.0619ZM24.7037 8.97612C26.3214 19.9939 33.408 29.8785 43.8121 36.6945C53.7912 43.2319 66.3729 47.1202 79.1415 45.8062C87.7563 44.9192 96.1289 41.1423 101.446 35.3766C106.527 29.8666 108.863 22.5416 108.059 15.6159L107.989 15.2851C106.567 4.13404 99.6594 -5.61861 89.2493 -12.642C80.0761 -18.831 66.7439 -22.8319 54.8746 -21.711C45.6766 -20.8424 37.3375 -17.765 31.5017 -11.5872C25.9765 -5.73837 23.707 1.58771 24.7037 8.97612Z" fill="black"/>
<path d="M106.751 15.5306L106.795 15.7719C107.681 22.2263 105.14 29.5896 100.497 34.7591C95.2664 40.5823 87.0958 43.8152 78.6156 44.7663C66.3169 46.1456 54.3084 42.2388 44.7068 36.0274C34.4725 29.4067 27.5527 19.48 25.9365 8.75883C25.2037 1.96949 27.096 -5.17629 32.293 -10.5716C38.2872 -16.7945 46.1719 -19.8432 55.5378 -20.7056C67.3663 -21.7946 79.5963 -17.8059 88.7172 -11.6568C98.9162 -4.78078 105.375 4.62423 106.751 15.5306ZM30.2673 8.96369C31.8645 19.0694 38.0691 27.737 47.7759 33.936C56.7617 39.6744 67.7032 42.5754 78.998 41.288C86.0057 40.4895 92.7977 37.2522 97.0672 32.5281C101.951 27.1245 103.1 21.1877 102.511 14.5518C100.922 4.86195 94.5301 -3.8118 85.222 -9.72476C76.4736 -15.2823 65.387 -18.3328 54.3731 -17.0821C46.9453 -16.2389 40.0137 -12.9481 35.4884 -7.92958C31.2164 -3.19228 29.6727 3.08979 30.2586 8.91972L30.2673 8.96369Z" fill="black"/>
<path d="M78.6818 139.133C79.2771 143.616 78.1767 148.268 75.1557 152.058C71.4793 156.67 65.9881 159.436 59.5537 160.478C53.7238 161.422 47.0134 160.083 42.1379 157.292C36.0069 153.783 32.8394 149.161 31.4751 143.135C30.8356 138.645 31.9911 134.17 35.0426 130.42C38.6693 125.964 43.813 123.055 50.1751 122.078C56.6717 121.081 63.1577 122.135 68.5892 125.315C74.3907 128.713 77.4883 133.384 78.6818 139.133ZM36.7311 142.479C37.6506 146.886 39.8612 150.68 44.3455 153.302C48.2942 155.611 53.3695 156.887 58.177 156.172C63.2871 155.413 67.5055 153.375 70.4723 149.794C73.0725 146.655 74.0052 143.054 73.4332 139.276C72.2446 134.832 69.5554 130.968 64.8506 128.489C60.6126 126.255 55.1725 125.545 50.3109 126.5C45.5984 127.426 41.5012 130.366 39.0507 133.766C37.2849 136.215 36.2219 139.612 36.7311 142.479Z" fill="black"/>
<path d="M71.5724 139.45C71.9331 142.372 71.4455 145.283 69.6447 147.842C67.2899 151.187 63.7984 153.388 59.3114 154.367C55.1363 155.279 50.7629 154.741 47.0616 152.876C42.3498 150.502 40.1765 147.16 38.8812 142.817C38.7067 139.4 39.1376 136.602 41.4436 133.708C43.7369 130.829 47.7382 128.585 51.811 127.93C56.2874 127.209 60.7129 128.132 64.4756 130.247C68.3986 132.452 70.6666 135.611 71.5724 139.45ZM40.7169 142.834C41.7818 146.416 43.792 149.453 47.6556 151.408C50.989 153.095 54.9884 153.684 58.7871 152.889C62.4645 152.12 65.8807 150.172 67.8093 147.426C69.598 144.878 69.8319 142.414 69.7066 139.52C68.6925 135.874 66.5935 133.066 62.7178 131.065C59.3523 129.328 55.1864 128.877 51.3618 129.68C47.8418 130.42 44.5038 132.331 42.6523 134.983C40.9214 137.463 40.3927 140.01 40.7169 142.834Z" fill="black"/>
<path d="M62.9087 140.831C62.9251 142.317 62.5833 143.653 61.5355 144.874C60.3237 146.285 58.5696 147.145 56.5281 147.423C54.4739 147.703 52.202 147.165 50.5308 146.154C48.5837 144.975 47.9585 143.387 47.5718 141.474C47.6717 140.345 47.8985 139.296 48.567 138.294C49.6399 136.687 51.5879 135.547 53.704 135.099C55.6273 134.69 57.7297 135.156 59.3792 136.031C61.5846 137.201 62.3856 138.788 62.9087 140.831ZM52.5844 142.33C53.3479 143.035 53.85 143.562 55.0726 143.646C55.8574 143.699 56.6843 143.421 57.2666 142.987C57.639 142.709 58.0217 142.148 58.0304 141.736C58.0412 141.216 58.0638 140.776 57.8435 140.28C57.2468 139.656 56.8789 139.079 55.8327 138.967C54.8644 138.863 54.0167 138.955 53.2597 139.479C52.7245 139.85 52.3564 140.499 52.314 141.074C52.28 141.54 52.3777 141.903 52.5844 142.33Z" fill="black"/>
<path d="M84.8295 12.4402C85.377 15.5991 84.5579 18.8576 82.4233 21.511C80.0173 24.5018 76.3109 26.4079 72.0918 27.0794C67.0808 27.8772 61.516 26.6801 57.3872 24.2499C52.0034 21.0809 48.9549 16.6967 47.8585 11.338C47.6807 8.05628 48.1673 4.98508 50.4538 2.20928C52.8315 -0.677227 56.263 -2.52673 60.388 -3.14598C65.6045 -3.92898 71.3459 -2.37644 75.6074 0.146892C80.6614 3.13971 83.7643 7.34545 84.8295 12.4402ZM52.2048 11.1803C53.0846 15.4051 55.2712 18.7324 59.4955 21.2358C62.428 22.9736 66.6975 23.9056 70.2412 23.3743C73.6163 22.8683 76.4089 21.6349 78.383 19.2283C80.1135 17.1183 80.4037 14.8948 80.3103 12.4234C79.0871 8.08524 77.0295 4.93179 72.4126 2.52227C69.009 0.746242 64.8744 -0.06366 60.9353 0.734081C58.2884 1.27031 55.5038 2.74059 54.0817 4.71451C52.7595 6.54952 51.9613 9.04337 52.2048 11.1803Z" fill="black"/>
<path d="M82.7555 95.8952L85.8627 101.257C81.3643 99.3355 76.9423 97.3991 72.1311 96.0726C65.9244 94.3613 59.6926 93.7568 53.2031 93.4932L53.2804 93.2374C54.9773 91.9275 58.8128 91.1783 60.9851 90.5169L76.6732 85.731L82.7555 95.8952Z" fill="black"/>
<path d="M56.9154 140.624C57.024 141.01 57.0256 141.441 57.0612 141.838C56.5393 142.453 56.3623 142.507 55.5233 142.807C54.5968 142.725 54.2163 142.572 53.5125 142.077C53.2427 141.573 53.3052 141.214 53.3782 140.674C54.0288 140.087 54.1414 139.992 55.0593 139.787C56.0211 139.983 56.2008 140.054 56.9154 140.624Z" fill="black"/>
<path d="M78.4993 12.4087C78.4841 14.5013 78.305 16.2523 76.8807 18.0643C75.3076 20.0659 72.6359 21.4679 69.83 21.9053C66.7633 22.383 63.029 21.5944 60.4926 20.0855C56.7147 17.8382 54.8173 15.0099 54.0452 11.2315C53.9254 9.3018 54.5324 7.2094 55.7643 5.5614C56.9977 3.91186 59.2573 2.812 61.4748 2.3676C64.9486 1.67152 68.609 2.29207 71.6135 3.86918C75.4808 5.89949 77.5053 8.74642 78.4993 12.4087ZM56.796 11.9868C57.6641 14.7595 59.2208 16.9988 62.3042 18.4859C64.553 19.5708 67.2264 20.0157 69.7539 19.4228C71.9 18.9197 73.805 17.6499 74.8371 15.9928C75.7754 14.4858 75.745 13.0766 75.6488 11.4366C74.4989 8.63053 72.7343 6.27896 69.4205 4.95431C67.0715 4.01559 64.5186 3.67674 62.0298 4.44887C60.0598 5.06037 58.2642 6.29009 57.402 7.91791C56.7477 9.15254 56.697 10.6596 56.796 11.9868Z" fill="black"/>
<path d="M176.697 110.185C177.106 114.458 175.464 118.843 172.525 122.315C169.06 126.408 163.642 129.079 157.737 129.878C151.29 130.751 144.804 129.458 139.521 126.246C134.118 122.96 131.484 118.364 130.473 112.964C130.229 108.294 131.321 104.366 134.639 100.568C137.988 96.7348 143.667 93.8031 149.292 93.1057C155.493 92.3369 161.9 93.2262 167.008 96.4164C172.662 99.9473 175.708 104.343 176.697 110.185ZM132.014 112.696C133.127 118.113 135.89 122.266 141.332 125.486C145.801 128.129 152.2 129.341 157.59 128.512C163.156 127.655 168.188 125.097 171.381 121.166C174.246 117.638 175.367 113.671 174.912 109.44C173.623 104.282 170.794 100.154 165.453 97.21C160.312 94.3755 154.31 93.5496 148.298 94.6117C143.116 95.5271 137.946 98.514 135.086 102.249C132.656 105.423 131.785 108.967 132.014 112.696Z" fill="black"/>
<path d="M170.85 110.219C171.057 113.317 170.274 116.447 168.212 119.076C165.64 122.356 161.424 124.38 156.905 125.147C152.424 125.908 147.253 124.746 143.497 122.647C139.135 120.209 137.017 116.681 136.029 112.476C135.901 109.48 136.537 106.479 138.557 103.943C141.02 100.852 145.367 98.4858 149.715 97.8021C154.37 97.0703 159.546 97.6945 163.475 99.9778C167.809 102.496 169.955 105.955 170.85 110.219ZM147.709 112.312C148.558 113.718 149.512 114.914 151.394 115.414C152.869 115.807 154.471 115.756 155.85 115.127C157.119 114.548 158.376 113.486 158.76 112.296C158.999 111.555 159.003 110.772 158.92 110.013C158.013 108.567 157.201 107.415 155.247 106.895C153.645 106.469 151.987 106.62 150.52 107.306C149.192 107.926 148.197 109.039 147.825 110.271C147.626 110.932 147.667 111.636 147.709 112.312Z" fill="black"/>
<path d="M198.696 44.3416C198.921 45.4805 198.98 46.8031 198.512 47.9061C197.662 49.9123 195.325 51.4739 193.089 52.3368C189.559 53.698 185.127 54.0327 181.452 52.9111C178.524 52.0174 177.19 50.76 175.886 48.4402C175.68 47.3096 175.677 46.0832 176.2 45.0105C177.299 42.7598 179.443 41.0981 182.081 40.1464C185.674 38.8508 190.011 38.6984 193.655 39.9563C196.19 40.8314 197.703 42.259 198.696 44.3416ZM180.041 46.7793C180.926 48.1815 182.157 48.8947 183.96 49.3575C185.591 49.7762 187.815 49.6355 189.322 48.9612C190.566 48.405 191.692 47.5302 192.065 46.3641C192.258 45.7599 192.151 45.2904 191.929 44.7073C190.863 43.2567 189.527 42.4714 187.525 42.0865C185.641 41.7243 183.403 42.1167 181.801 43.0027C181.006 43.4419 180.079 44.3038 179.888 45.1044C179.767 45.6103 179.91 46.2764 180.041 46.7793Z" fill="black"/>
<path d="M204.527 49.1355L203.553 50.2444L202.625 50.2558L202.288 49.7563L203.234 47.8331C202.724 46.4937 201.675 45.2123 200.855 43.99C199.778 42.385 198.813 40.6578 197.444 39.2129C196.706 39.2245 196.117 39.1919 195.396 39.0417L195.2 38.999L195.103 38.1381C196.03 37.6195 196.294 37.6562 197.366 37.673C198.862 38.394 199.61 39.6206 200.475 40.8164L203.816 45.7099C204.172 46.2612 204.883 47.1756 204.917 47.8114C204.933 48.1508 204.63 48.783 204.527 49.1355Z" fill="black"/>
<path d="M217.592 69.2112C217.716 70.2112 217.774 71.1034 217.446 72.0812C216.818 73.9338 215.238 75.6749 213.19 76.5911C210.158 77.9478 205.638 78.4823 202.316 77.6318C199.222 76.8405 197.446 75.3029 196.008 72.9695C195.947 71.9979 195.87 71.0369 196.178 70.0881C196.815 68.1243 198.49 66.64 200.575 65.6356C203.643 64.1583 207.562 63.7388 210.978 64.5557C214.127 65.3089 216.067 66.8731 217.592 69.2112ZM199.841 71.0188C200.283 72.1306 201.381 72.9519 202.609 73.4803C204.317 74.2139 206.588 74.3246 208.407 73.8086C209.802 73.4131 211.2 72.62 211.844 71.479C212.218 70.8134 212.169 70.2402 212.02 69.5397C211.173 68.2461 210.139 67.2813 208.388 66.8653C206.235 66.3542 203.964 66.5904 202.031 67.5485C200.919 68.1002 200.094 68.9836 199.796 70.0483C199.706 70.3716 199.761 70.6989 199.841 71.0188Z" fill="black"/>
<path d="M221.975 74.8557L221.187 75.5471L220.302 75.4625L220.051 74.9718L221.193 72.9102L216.602 66.303C216.02 65.4698 215.179 64.1635 214.146 63.6889C213.471 63.3782 213.146 63.841 212.524 63.7931C212.33 63.7781 211.797 63.4685 211.596 63.3785C211.599 62.7822 211.745 62.7204 212.159 62.2579C212.973 62.1335 213.876 61.9581 214.681 62.1981C216.809 62.8347 219.253 67.4442 220.422 69.1039C221.159 70.1476 222.192 71.2894 222.715 72.4115C223.08 73.1898 222.347 74.1167 221.975 74.8557Z" fill="black"/>
<path d="M236.101 96.8634C236.457 98.2152 236.438 99.3536 235.878 100.671C234.993 102.751 232.729 104.422 230.368 105.322C226.811 106.677 222.588 106.911 218.938 105.692C216.141 104.759 214.489 103.261 213.347 100.979C213.149 99.8376 213.072 98.6379 213.533 97.5328C214.563 95.0667 216.945 93.4039 219.708 92.3186C222.798 91.1051 226.823 90.8273 230.053 91.8297C233.314 92.8426 234.696 94.3538 236.101 96.8634ZM217.165 98.7892C217.842 100.255 218.619 101.18 220.413 101.807C222.269 102.456 224.747 102.283 226.554 101.627C227.767 101.185 228.924 100.202 229.388 99.1575C229.607 98.6624 229.682 98.1291 229.539 97.6138C229.066 96.4387 228.187 95.4865 226.836 94.9272C225.035 94.181 222.551 94.1233 220.679 94.703C219.439 95.0874 217.941 96.1109 217.403 97.134C217.128 97.6627 217.122 98.2238 217.165 98.7892Z" fill="black"/>
<path d="M241.41 102.615C240.831 103.32 240.72 103.624 239.748 103.939L239.226 103.555C239.046 102.697 239.922 101.677 240.404 100.923C239.761 99.2934 238.257 97.5957 237.246 96.0825C236.249 94.592 234.972 91.6907 233.36 90.7127C232.583 90.7996 232.048 90.8167 231.281 90.6602L231.086 90.6178L230.897 89.7161C231.018 89.6012 231.148 89.4897 231.306 89.4072C231.81 89.1423 233.023 88.9801 233.589 89.1294C234.059 89.2523 234.628 89.5953 234.941 89.9183C236.175 91.2003 237.082 93.0532 238.047 94.5015C239.284 96.3543 240.806 98.2131 241.846 100.142C242.313 101.01 241.796 101.786 241.41 102.615Z" fill="black"/>
<path d="M256.921 126.488C257.005 127.589 257.06 128.7 256.513 129.727C255.297 132.01 252.961 133.54 250.202 134.405C246.455 135.579 242.331 135.42 238.727 133.983C235.986 132.892 234.737 131.342 233.753 129.044L233.74 128.77C233.719 127.723 233.71 126.808 234.226 125.83C235.414 123.578 237.812 122.054 240.534 121.23C244.602 119.998 248.559 120.194 252.42 121.754C254.932 122.771 256.055 124.353 256.921 126.488ZM237.892 128.294C238.625 129.601 239.312 130.275 240.97 130.759C243.031 131.362 245.397 131.412 247.402 130.594C248.534 130.132 250.035 129.191 250.381 128.118C250.588 127.472 250.517 126.603 250.267 125.975C249.308 124.53 248.117 123.743 246.183 123.31C244.349 122.9 241.877 123.14 240.259 123.943C239.29 124.424 238.109 125.318 237.778 126.248C237.583 126.796 237.651 127.756 237.892 128.294Z" fill="black"/>
<path d="M262.168 131.621C262.09 131.728 262.056 131.786 261.936 131.879C261.373 132.312 261.026 132.48 260.284 132.397L259.99 131.879C260.445 131.161 260.766 130.453 261.076 129.683C260.599 127.87 255.173 120.419 253.36 119.359C253.286 118.801 253.339 118.747 253.67 118.252L254.598 118.363C257.345 119.574 260.899 126.762 263.059 129.221C262.941 130.053 262.514 130.841 262.168 131.621Z" fill="black"/>
</g>
</g>
<defs>
<clipPath id="clip0_17_7429">
<rect width="415.884" height="101" fill="white" transform="translate(0.116013)"/>
</clipPath>
<clipPath id="clip1_17_7429">
<rect width="174" height="416" fill="white" transform="translate(0.0580139 174) rotate(-90)"/>
</clipPath>
</defs>
</svg>
