<svg width="382" height="126" viewBox="0 0 382 126" fill="none" xmlns="http://www.w3.org/2000/svg">
<mask id="path-1-outside-1_22_191" maskUnits="userSpaceOnUse" x="-101" y="-214" width="547" height="475" fill="black">
<rect fill="white" x="-101" y="-214" width="547" height="475"/>
<path d="M21.118 46H0.19V1.2H19.198C23.5927 1.2 27.006 2.288 29.438 4.464C31.9127 6.64 33.15 9.776 33.15 13.872C33.15 17.9253 31.6353 20.8907 28.606 22.768C30.7393 23.8773 32.3393 25.2427 33.406 26.864C34.4727 28.4853 35.006 30.5973 35.006 33.2C35.006 37.424 33.79 40.624 31.358 42.8C28.9687 44.9333 25.5553 46 21.118 46ZM11.198 10.8V18.928H18.558C19.4967 18.928 20.286 18.5867 20.926 17.904C21.6087 17.2213 21.95 16.24 21.95 14.96C21.95 13.6373 21.6087 12.6133 20.926 11.888C20.286 11.1627 19.4967 10.8 18.558 10.8H11.198ZM11.198 28.144V36.4H20.414C21.3527 36.4 22.1633 36.0587 22.846 35.376C23.5287 34.6507 23.87 33.648 23.87 32.368C23.87 31.0027 23.5287 29.9573 22.846 29.232C22.1633 28.5067 21.3527 28.144 20.414 28.144H11.198ZM63.987 46H43.315V1.2H54.323V17.072H63.987C68.083 17.072 71.283 18.352 73.587 20.912C75.891 23.472 77.043 26.992 77.043 31.472C77.043 35.952 75.891 39.4933 73.587 42.096C71.283 44.6987 68.083 46 63.987 46ZM54.323 26.672V36.4H61.875C62.9843 36.4 63.923 35.9947 64.691 35.184C65.5017 34.3733 65.907 33.1787 65.907 31.6C65.907 30.0213 65.5017 28.8053 64.691 27.952C63.923 27.0987 62.9843 26.672 61.875 26.672H54.323ZM92.275 46H81.267V1.2H92.275V46ZM114.429 46H113.405V35.952H114.429C117.245 35.952 119.016 34.992 119.741 33.072C120.509 31.152 120.893 27.248 120.893 21.36V1.2H151.933V46H140.925V10.8H131.261V23.344C131.261 31.1093 129.896 36.8267 127.165 40.496C124.477 44.1653 120.232 46 114.429 46ZM197.118 46.96C191.742 46.96 187.475 45.5733 184.318 42.8C181.16 40.0267 179.582 36.208 179.582 31.344V28.4H173.885V46H162.878V1.2H173.885V18.8H179.582V15.92C179.582 11.056 181.139 7.23733 184.254 4.464C187.411 1.648 191.699 0.239998 197.118 0.239998C202.536 0.239998 206.824 1.648 209.982 4.464C213.182 7.23733 214.782 11.056 214.782 15.92V31.344C214.782 36.208 213.182 40.0267 209.982 42.8C206.824 45.5733 202.536 46.96 197.118 46.96ZM203.774 31.6V15.536C203.774 14.0853 203.198 12.8693 202.046 11.888C200.894 10.864 199.272 10.352 197.182 10.352C195.091 10.352 193.47 10.864 192.318 11.888C191.166 12.8693 190.59 14.0853 190.59 15.536V31.6C190.59 33.0507 191.166 34.288 192.318 35.312C193.47 36.336 195.091 36.848 197.182 36.848C199.272 36.848 200.894 36.336 202.046 35.312C203.198 34.288 203.774 33.0507 203.774 31.6ZM246.328 46H224.44V1.2H256.504V10.8H235.448V17.456H246.328C250.381 17.456 253.56 18.7573 255.864 21.36C258.211 23.92 259.384 27.3973 259.384 31.792C259.384 36.144 258.211 39.6 255.864 42.16C253.56 44.72 250.381 46 246.328 46ZM235.448 27.056V36.4H244.408C245.475 36.4 246.371 35.9947 247.096 35.184C247.864 34.3733 248.248 33.2213 248.248 31.728C248.248 30.2347 247.864 29.0827 247.096 28.272C246.371 27.4613 245.475 27.056 244.408 27.056H235.448ZM277.74 46H267.628V1.2H278.635V26.16L293.356 1.2H303.468V46H292.46V21.04L277.74 46ZM333 46H321.992V10.8H309.96V1.2H344.968V10.8H333V46ZM381.52 46H351.44V1.2H381.392V10.8H362.448V18.992H378.448V28.08H362.448V36.4H381.52V46ZM95.8855 125H84.8775V80.2H105.678C109.774 80.2 112.974 81.48 115.278 84.04C117.582 86.6 118.734 90.12 118.734 94.6C118.734 99.08 117.582 102.621 115.278 105.224C112.974 107.827 109.774 109.128 105.678 109.128H95.8855V125ZM95.8855 89.8V99.528H103.566C104.675 99.528 105.614 99.1227 106.382 98.312C107.192 97.5013 107.598 96.3067 107.598 94.728C107.598 93.1493 107.192 91.9333 106.382 91.08C105.614 90.2267 104.675 89.8 103.566 89.8H95.8855ZM150.879 110.152V94.984C150.879 93.448 150.239 92.1253 148.959 91.016C147.722 89.9067 145.972 89.352 143.711 89.352C141.45 89.352 139.679 89.9067 138.399 91.016C137.162 92.1253 136.543 93.448 136.543 94.984V110.152C136.543 111.773 137.162 113.139 138.399 114.248C139.636 115.315 141.407 115.848 143.711 115.848C146.015 115.848 147.786 115.315 149.023 114.248C150.26 113.139 150.879 111.773 150.879 110.152ZM156.959 121.672C153.716 124.531 149.3 125.96 143.711 125.96C138.122 125.96 133.706 124.531 130.463 121.672C127.178 118.771 125.535 114.803 125.535 109.768V95.56C125.535 90.44 127.156 86.4507 130.399 83.592C133.684 80.6907 138.122 79.24 143.711 79.24C149.258 79.24 153.674 80.6907 156.959 83.592C160.244 86.4933 161.887 90.4827 161.887 95.56V109.768C161.887 114.803 160.244 118.771 156.959 121.672ZM168.685 110.024H179.693C179.693 113.907 182.104 115.848 186.925 115.848C188.717 115.848 190.104 115.464 191.085 114.696C192.109 113.928 192.621 112.84 192.621 111.432C192.621 108.573 190.68 107.144 186.797 107.144H181.293V98.056H186.797C190.125 98.056 191.789 96.648 191.789 93.832C191.789 92.424 191.341 91.336 190.445 90.568C189.549 89.7573 188.29 89.352 186.669 89.352C182.872 89.352 180.973 91.2933 180.973 95.176H169.901C169.901 89.8 171.501 85.7893 174.701 83.144C177.858 80.5413 181.89 79.24 186.797 79.24C191.917 79.24 195.864 80.5413 198.637 83.144C201.496 85.704 202.925 88.968 202.925 92.936C202.925 96.8187 201.346 100.019 198.189 102.536C201.901 104.371 203.757 107.485 203.757 111.88C203.757 116.232 202.242 119.667 199.213 122.184C196.226 124.701 192.109 125.96 186.861 125.96C181.528 125.96 177.176 124.659 173.805 122.056C170.392 119.411 168.685 115.4 168.685 110.024ZM232.737 125H212.065V80.2H223.073V96.072H232.737C236.833 96.072 240.033 97.352 242.337 99.912C244.641 102.472 245.793 105.992 245.793 110.472C245.793 114.952 244.641 118.493 242.337 121.096C240.033 123.699 236.833 125 232.737 125ZM223.073 105.672V115.4H230.625C231.734 115.4 232.673 114.995 233.441 114.184C234.252 113.373 234.657 112.179 234.657 110.6C234.657 109.021 234.252 107.805 233.441 106.952C232.673 106.099 231.734 105.672 230.625 105.672H223.073ZM261.025 125H250.017V80.2H261.025V125ZM287.428 110.92H277.444V103.304L284.356 98.312C285.807 97.288 286.809 96.392 287.364 95.624C287.919 94.856 288.196 93.896 288.196 92.744C288.196 91.464 287.748 90.4187 286.852 89.608C285.956 88.7547 284.804 88.328 283.396 88.328C281.561 88.328 280.153 88.904 279.172 90.056C278.191 91.208 277.7 92.7867 277.7 94.792H268.1C268.1 89.9707 269.551 86.1733 272.452 83.4C275.353 80.6267 279.065 79.24 283.588 79.24C288.239 79.24 291.844 80.52 294.404 83.08C296.964 85.64 298.244 88.7333 298.244 92.36C298.244 95.6027 297.284 98.2693 295.364 100.36C294.425 101.341 293.572 102.152 292.804 102.792L289.732 105.096L287.428 106.696V110.92ZM287.428 125H277.444V115.528H287.428V125Z"/>
</mask>
<path d="M21.118 46H0.19V1.2H19.198C23.5927 1.2 27.006 2.288 29.438 4.464C31.9127 6.64 33.15 9.776 33.15 13.872C33.15 17.9253 31.6353 20.8907 28.606 22.768C30.7393 23.8773 32.3393 25.2427 33.406 26.864C34.4727 28.4853 35.006 30.5973 35.006 33.2C35.006 37.424 33.79 40.624 31.358 42.8C28.9687 44.9333 25.5553 46 21.118 46ZM11.198 10.8V18.928H18.558C19.4967 18.928 20.286 18.5867 20.926 17.904C21.6087 17.2213 21.95 16.24 21.95 14.96C21.95 13.6373 21.6087 12.6133 20.926 11.888C20.286 11.1627 19.4967 10.8 18.558 10.8H11.198ZM11.198 28.144V36.4H20.414C21.3527 36.4 22.1633 36.0587 22.846 35.376C23.5287 34.6507 23.87 33.648 23.87 32.368C23.87 31.0027 23.5287 29.9573 22.846 29.232C22.1633 28.5067 21.3527 28.144 20.414 28.144H11.198ZM63.987 46H43.315V1.2H54.323V17.072H63.987C68.083 17.072 71.283 18.352 73.587 20.912C75.891 23.472 77.043 26.992 77.043 31.472C77.043 35.952 75.891 39.4933 73.587 42.096C71.283 44.6987 68.083 46 63.987 46ZM54.323 26.672V36.4H61.875C62.9843 36.4 63.923 35.9947 64.691 35.184C65.5017 34.3733 65.907 33.1787 65.907 31.6C65.907 30.0213 65.5017 28.8053 64.691 27.952C63.923 27.0987 62.9843 26.672 61.875 26.672H54.323ZM92.275 46H81.267V1.2H92.275V46ZM114.429 46H113.405V35.952H114.429C117.245 35.952 119.016 34.992 119.741 33.072C120.509 31.152 120.893 27.248 120.893 21.36V1.2H151.933V46H140.925V10.8H131.261V23.344C131.261 31.1093 129.896 36.8267 127.165 40.496C124.477 44.1653 120.232 46 114.429 46ZM197.118 46.96C191.742 46.96 187.475 45.5733 184.318 42.8C181.16 40.0267 179.582 36.208 179.582 31.344V28.4H173.885V46H162.878V1.2H173.885V18.8H179.582V15.92C179.582 11.056 181.139 7.23733 184.254 4.464C187.411 1.648 191.699 0.239998 197.118 0.239998C202.536 0.239998 206.824 1.648 209.982 4.464C213.182 7.23733 214.782 11.056 214.782 15.92V31.344C214.782 36.208 213.182 40.0267 209.982 42.8C206.824 45.5733 202.536 46.96 197.118 46.96ZM203.774 31.6V15.536C203.774 14.0853 203.198 12.8693 202.046 11.888C200.894 10.864 199.272 10.352 197.182 10.352C195.091 10.352 193.47 10.864 192.318 11.888C191.166 12.8693 190.59 14.0853 190.59 15.536V31.6C190.59 33.0507 191.166 34.288 192.318 35.312C193.47 36.336 195.091 36.848 197.182 36.848C199.272 36.848 200.894 36.336 202.046 35.312C203.198 34.288 203.774 33.0507 203.774 31.6ZM246.328 46H224.44V1.2H256.504V10.8H235.448V17.456H246.328C250.381 17.456 253.56 18.7573 255.864 21.36C258.211 23.92 259.384 27.3973 259.384 31.792C259.384 36.144 258.211 39.6 255.864 42.16C253.56 44.72 250.381 46 246.328 46ZM235.448 27.056V36.4H244.408C245.475 36.4 246.371 35.9947 247.096 35.184C247.864 34.3733 248.248 33.2213 248.248 31.728C248.248 30.2347 247.864 29.0827 247.096 28.272C246.371 27.4613 245.475 27.056 244.408 27.056H235.448ZM277.74 46H267.628V1.2H278.635V26.16L293.356 1.2H303.468V46H292.46V21.04L277.74 46ZM333 46H321.992V10.8H309.96V1.2H344.968V10.8H333V46ZM381.52 46H351.44V1.2H381.392V10.8H362.448V18.992H378.448V28.08H362.448V36.4H381.52V46ZM95.8855 125H84.8775V80.2H105.678C109.774 80.2 112.974 81.48 115.278 84.04C117.582 86.6 118.734 90.12 118.734 94.6C118.734 99.08 117.582 102.621 115.278 105.224C112.974 107.827 109.774 109.128 105.678 109.128H95.8855V125ZM95.8855 89.8V99.528H103.566C104.675 99.528 105.614 99.1227 106.382 98.312C107.192 97.5013 107.598 96.3067 107.598 94.728C107.598 93.1493 107.192 91.9333 106.382 91.08C105.614 90.2267 104.675 89.8 103.566 89.8H95.8855ZM150.879 110.152V94.984C150.879 93.448 150.239 92.1253 148.959 91.016C147.722 89.9067 145.972 89.352 143.711 89.352C141.45 89.352 139.679 89.9067 138.399 91.016C137.162 92.1253 136.543 93.448 136.543 94.984V110.152C136.543 111.773 137.162 113.139 138.399 114.248C139.636 115.315 141.407 115.848 143.711 115.848C146.015 115.848 147.786 115.315 149.023 114.248C150.26 113.139 150.879 111.773 150.879 110.152ZM156.959 121.672C153.716 124.531 149.3 125.96 143.711 125.96C138.122 125.96 133.706 124.531 130.463 121.672C127.178 118.771 125.535 114.803 125.535 109.768V95.56C125.535 90.44 127.156 86.4507 130.399 83.592C133.684 80.6907 138.122 79.24 143.711 79.24C149.258 79.24 153.674 80.6907 156.959 83.592C160.244 86.4933 161.887 90.4827 161.887 95.56V109.768C161.887 114.803 160.244 118.771 156.959 121.672ZM168.685 110.024H179.693C179.693 113.907 182.104 115.848 186.925 115.848C188.717 115.848 190.104 115.464 191.085 114.696C192.109 113.928 192.621 112.84 192.621 111.432C192.621 108.573 190.68 107.144 186.797 107.144H181.293V98.056H186.797C190.125 98.056 191.789 96.648 191.789 93.832C191.789 92.424 191.341 91.336 190.445 90.568C189.549 89.7573 188.29 89.352 186.669 89.352C182.872 89.352 180.973 91.2933 180.973 95.176H169.901C169.901 89.8 171.501 85.7893 174.701 83.144C177.858 80.5413 181.89 79.24 186.797 79.24C191.917 79.24 195.864 80.5413 198.637 83.144C201.496 85.704 202.925 88.968 202.925 92.936C202.925 96.8187 201.346 100.019 198.189 102.536C201.901 104.371 203.757 107.485 203.757 111.88C203.757 116.232 202.242 119.667 199.213 122.184C196.226 124.701 192.109 125.96 186.861 125.96C181.528 125.96 177.176 124.659 173.805 122.056C170.392 119.411 168.685 115.4 168.685 110.024ZM232.737 125H212.065V80.2H223.073V96.072H232.737C236.833 96.072 240.033 97.352 242.337 99.912C244.641 102.472 245.793 105.992 245.793 110.472C245.793 114.952 244.641 118.493 242.337 121.096C240.033 123.699 236.833 125 232.737 125ZM223.073 105.672V115.4H230.625C231.734 115.4 232.673 114.995 233.441 114.184C234.252 113.373 234.657 112.179 234.657 110.6C234.657 109.021 234.252 107.805 233.441 106.952C232.673 106.099 231.734 105.672 230.625 105.672H223.073ZM261.025 125H250.017V80.2H261.025V125ZM287.428 110.92H277.444V103.304L284.356 98.312C285.807 97.288 286.809 96.392 287.364 95.624C287.919 94.856 288.196 93.896 288.196 92.744C288.196 91.464 287.748 90.4187 286.852 89.608C285.956 88.7547 284.804 88.328 283.396 88.328C281.561 88.328 280.153 88.904 279.172 90.056C278.191 91.208 277.7 92.7867 277.7 94.792H268.1C268.1 89.9707 269.551 86.1733 272.452 83.4C275.353 80.6267 279.065 79.24 283.588 79.24C288.239 79.24 291.844 80.52 294.404 83.08C296.964 85.64 298.244 88.7333 298.244 92.36C298.244 95.6027 297.284 98.2693 295.364 100.36C294.425 101.341 293.572 102.152 292.804 102.792L289.732 105.096L287.428 106.696V110.92ZM287.428 125H277.444V115.528H287.428V125Z" fill="black"/>
<path d="M0.19 46H-63.81V110H0.19V46ZM0.19 1.2V-62.8H-63.81V1.2H0.19ZM29.438 4.464L-13.2368 52.1595L-13.031 52.3437L-12.8235 52.5261L29.438 4.464ZM28.606 22.768L-5.10707 -31.6326L-100.75 27.6388L-0.920561 79.5499L28.606 22.768ZM33.406 26.864L86.8727 -8.31142L86.8727 -8.31144L33.406 26.864ZM31.358 42.8L73.983 90.54L74.008 90.5177L74.0329 90.4954L31.358 42.8ZM11.198 10.8V-53.2H-52.802V10.8H11.198ZM11.198 18.928H-52.802V82.928H11.198V18.928ZM20.926 17.904L-24.3288 -27.3508L-25.0586 -26.6211L-25.7644 -25.8682L20.926 17.904ZM20.926 11.888L-27.0636 54.2318L-26.3834 55.0027L-25.6788 55.7513L20.926 11.888ZM11.198 28.144V-35.856H-52.802V28.144H11.198ZM11.198 36.4H-52.802V100.4H11.198V36.4ZM22.846 35.376L68.1008 80.6308L68.7864 79.9453L69.4508 79.2393L22.846 35.376ZM22.846 29.232L69.4508 -14.6313L69.4508 -14.6314L22.846 29.232ZM21.118 -18H0.19V110H21.118V-18ZM64.19 46V1.2H-63.81V46H64.19ZM0.19 65.2H19.198V-62.8H0.19V65.2ZM19.198 65.2C13.3739 65.2 -0.380911 63.6621 -13.2368 52.1595L72.1129 -43.2315C54.3929 -59.0861 33.8114 -62.8 19.198 -62.8V65.2ZM-12.8235 52.5261C-19.3916 46.7507 -24.2928 39.5885 -27.3116 31.9374C-30.2038 24.6072 -30.85 18.1844 -30.85 13.872H97.15C97.15 -3.7932 91.2484 -26.4086 71.6995 -43.5981L-12.8235 52.5261ZM-30.85 13.872C-30.85 7.94747 -29.7231 -0.693235 -24.9812 -9.97665C-20.054 -19.6228 -12.789 -26.872 -5.10707 -31.6326L62.3191 77.1686C87.0515 61.8415 97.15 36.4747 97.15 13.872H-30.85ZM-0.920561 79.5499C-6.19181 76.8088 -13.8481 71.4826 -20.0607 62.0394L86.8727 -8.31144C78.5268 -20.9973 67.6705 -29.0542 58.1326 -34.0139L-0.920561 79.5499ZM-20.0607 62.0394C-27.844 50.2089 -28.994 38.9345 -28.994 33.2H99.006C99.006 22.2601 96.7893 6.76181 86.8727 -8.31142L-20.0607 62.0394ZM-28.994 33.2C-28.994 24.9123 -26.1881 8.41041 -11.3169 -4.89544L74.0329 90.4954C93.7681 72.8376 99.006 49.9357 99.006 33.2H-28.994ZM-11.267 -4.94001C1.92424 -16.7179 15.9025 -18 21.118 -18V110C35.2082 110 56.0131 106.585 73.983 90.54L-11.267 -4.94001ZM-52.802 10.8V18.928H75.198V10.8H-52.802ZM11.198 82.928H18.558V-45.072H11.198V82.928ZM18.558 82.928C37.1242 82.928 54.8346 75.3102 67.6164 61.6762L-25.7644 -25.8682C-20.6219 -31.3535 -13.8863 -36.4652 -5.54832 -40.0708C2.78517 -43.6745 11.0961 -45.072 18.558 -45.072V82.928ZM66.1808 63.1588C82.3845 46.9552 85.95 27.4888 85.95 14.96H-42.05C-42.05 4.99125 -39.1672 -12.5125 -24.3288 -27.3508L66.1808 63.1588ZM85.95 14.96C85.95 2.81448 82.649 -15.9122 67.5308 -31.9753L-25.6788 55.7513C-39.4317 41.1389 -42.05 24.4602 -42.05 14.96H85.95ZM68.9156 -30.4558C56.5499 -44.4703 38.4895 -53.2 18.558 -53.2V74.8C10.558 74.8 1.78025 73.1999 -6.86596 69.2273C-15.4638 65.277 -22.1485 59.8023 -27.0636 54.2318L68.9156 -30.4558ZM18.558 -53.2H11.198V74.8H18.558V-53.2ZM-52.802 28.144V36.4H75.198V28.144H-52.802ZM11.198 100.4H20.414V-27.6H11.198V100.4ZM20.414 100.4C38.8606 100.4 55.7989 92.9328 68.1008 80.6308L-22.4088 -9.87883C-17.4693 -14.8184 -11.0481 -19.4982 -3.10966 -22.8407C4.86443 -26.1982 12.9337 -27.6 20.414 -27.6V100.4ZM69.4508 79.2393C84.222 63.545 87.87 45.1323 87.87 32.368H-40.13C-40.13 22.1637 -37.1646 5.75638 -23.7588 -8.48734L69.4508 79.2393ZM87.87 32.368C87.87 20.8255 84.8971 1.78032 69.4508 -14.6313L-23.7588 73.0953C-37.8397 58.1343 -40.13 41.1798 -40.13 32.368H87.87ZM69.4508 -14.6314C57.5024 -27.3265 40.1732 -35.856 20.414 -35.856V92.144C12.3988 92.144 3.87159 90.541 -4.40942 86.8364C-12.6066 83.1692 -19.0091 78.1419 -23.7588 73.0954L69.4508 -14.6314ZM20.414 -35.856H11.198V92.144H20.414V-35.856ZM43.315 46H-20.685V110H43.315V46ZM43.315 1.2V-62.8H-20.685V1.2H43.315ZM54.323 1.2H118.323V-62.8H54.323V1.2ZM54.323 17.072H-9.677V81.072H54.323V17.072ZM54.323 26.672V-37.328H-9.677V26.672H54.323ZM54.323 36.4H-9.677V100.4H54.323V36.4ZM64.691 35.184L19.4362 -10.0708L18.8247 -9.45939L18.23 -8.83166L64.691 35.184ZM64.691 27.952L17.1202 70.7657L17.6971 71.4067L18.2911 72.032L64.691 27.952ZM92.275 46V110H156.275V46H92.275ZM81.267 46H17.267V110H81.267V46ZM81.267 1.2V-62.8H17.267V1.2H81.267ZM92.275 1.2H156.275V-62.8H92.275V1.2ZM63.987 -18H43.315V110H63.987V-18ZM107.315 46V1.2H-20.685V46H107.315ZM43.315 65.2H54.323V-62.8H43.315V65.2ZM-9.677 1.2V17.072H118.323V1.2H-9.677ZM54.323 81.072H63.987V-46.928H54.323V81.072ZM63.987 81.072C59.3959 81.072 52.93 80.3505 45.69 77.4545C38.1954 74.4567 31.4262 69.7369 26.0162 63.7257L121.158 -21.9018C104.416 -40.5034 82.4768 -46.928 63.987 -46.928V81.072ZM26.0162 63.7257C14.8802 51.3524 13.043 37.9244 13.043 31.472H141.043C141.043 16.0596 136.902 -4.40841 121.158 -21.9018L26.0162 63.7257ZM13.043 31.472C13.043 24.9576 14.9025 11.8333 25.6662 -0.325684L121.508 84.5177C136.88 67.1533 141.043 46.9464 141.043 31.472H13.043ZM25.6662 -0.325684C31.0048 -6.35632 37.7611 -11.1752 45.3497 -14.2612C52.6875 -17.2453 59.2754 -18 63.987 -18V110C82.8198 110 104.864 103.319 121.508 84.5177L25.6662 -0.325684ZM-9.677 26.672V36.4H118.323V26.672H-9.677ZM54.323 100.4H61.875V-27.6H54.323V100.4ZM61.875 100.4C80.6902 100.4 98.3886 92.6721 111.152 79.1997L18.23 -8.83166C23.2518 -14.1324 29.8463 -19.1222 38.0391 -22.66C46.2413 -26.2018 54.4523 -27.6 61.875 -27.6V100.4ZM109.946 80.4388C126.701 63.6836 129.907 43.618 129.907 31.6H1.907C1.907 22.7393 4.30224 5.06309 19.4362 -10.0708L109.946 80.4388ZM129.907 31.6C129.907 19.3423 126.61 0.208171 111.091 -16.128L18.2911 72.032C4.39303 57.4025 1.907 40.7004 1.907 31.6H129.907ZM112.262 -14.8617C99.838 -28.666 81.8348 -37.328 61.875 -37.328V90.672C53.9976 90.672 45.3933 89.1035 36.9276 85.2554C28.515 81.4315 21.957 76.14 17.1202 70.7657L112.262 -14.8617ZM61.875 -37.328H54.323V90.672H61.875V-37.328ZM92.275 -18H81.267V110H92.275V-18ZM145.267 46V1.2H17.267V46H145.267ZM81.267 65.2H92.275V-62.8H81.267V65.2ZM28.275 1.2V46H156.275V1.2H28.275ZM113.405 46H49.405V110H113.405V46ZM113.405 35.952V-28.048H49.405V35.952H113.405ZM119.741 33.072L60.3185 9.30299L60.0891 9.87652L59.8708 10.4544L119.741 33.072ZM120.893 1.2V-62.8H56.893V1.2H120.893ZM151.933 1.2H215.933V-62.8H151.933V1.2ZM151.933 46V110H215.933V46H151.933ZM140.925 46H76.925V110H140.925V46ZM140.925 10.8H204.925V-53.2H140.925V10.8ZM131.261 10.8V-53.2H67.261V10.8H131.261ZM127.165 40.496L75.8221 2.28731L75.6783 2.48049L75.536 2.67475L127.165 40.496ZM114.429 -18H113.405V110H114.429V-18ZM177.405 46V35.952H49.405V46H177.405ZM113.405 99.952H114.429V-28.048H113.405V99.952ZM114.429 99.952C122.48 99.952 135.136 98.6713 148.373 91.4949C163.048 83.5382 173.93 70.7271 179.611 55.6896L59.8708 10.4544C64.8263 -2.66307 74.4602 -14.0342 87.365 -21.0309C98.831 -27.2473 109.194 -28.048 114.429 -28.048V99.952ZM179.164 56.841C182.979 47.3019 183.943 38.5715 184.298 34.9689C184.768 30.183 184.893 25.4724 184.893 21.36H56.893C56.893 23.1356 56.8256 23.321 56.9124 22.4391C56.9592 21.963 57.0989 20.6743 57.4614 18.8413C57.7839 17.2109 58.5606 13.6976 60.3185 9.30299L179.164 56.841ZM184.893 21.36V1.2H56.893V21.36H184.893ZM120.893 65.2H151.933V-62.8H120.893V65.2ZM87.933 1.2V46H215.933V1.2H87.933ZM151.933 -18H140.925V110H151.933V-18ZM204.925 46V10.8H76.925V46H204.925ZM140.925 -53.2H131.261V74.8H140.925V-53.2ZM67.261 10.8V23.344H195.261V10.8H67.261ZM67.261 23.344C67.261 23.7161 67.2046 21.8683 67.9874 18.5904C68.7692 15.3167 70.757 9.09357 75.8221 2.28731L178.508 78.7047C193.447 58.6303 195.261 36.211 195.261 23.344H67.261ZM75.536 2.67475C81.0388 -4.83697 88.4302 -10.6043 96.5761 -14.1247C104.232 -17.4334 110.748 -18 114.429 -18V110C134.408 110 160.794 102.888 178.794 78.3172L75.536 2.67475ZM179.582 28.4H243.582V-35.6H179.582V28.4ZM173.885 28.4V-35.6H109.885V28.4H173.885ZM173.885 46V110H237.885V46H173.885ZM162.878 46H98.8775V110H162.878V46ZM162.878 1.2V-62.8H98.8775V1.2H162.878ZM173.885 1.2H237.885V-62.8H173.885V1.2ZM173.885 18.8H109.885V82.8H173.885V18.8ZM179.582 18.8V82.8H243.582V18.8H179.582ZM184.254 4.464L226.813 52.2621L226.833 52.2445L226.853 52.2269L184.254 4.464ZM209.982 4.464L167.382 52.2269L167.722 52.5299L168.066 52.8281L209.982 4.464ZM209.982 42.8L168.066 -5.5641L167.905 -5.42474L167.745 -5.28432L209.982 42.8ZM202.046 11.888L159.526 59.7222L160.03 60.1703L160.544 60.6076L202.046 11.888ZM192.318 11.888L233.819 60.6076L234.333 60.1703L234.837 59.7222L192.318 11.888ZM197.118 -17.04C202.822 -17.04 215.066 -15.375 226.554 -5.28432L142.081 90.8843C159.884 106.522 180.661 110.96 197.118 110.96V-17.04ZM226.554 -5.28432C232.219 -0.308091 236.885 6.08573 239.911 13.4049C242.842 20.4947 243.582 26.8485 243.582 31.344H115.582C115.582 51.4157 122.852 73.9937 142.081 90.8843L226.554 -5.28432ZM243.582 31.344V28.4H115.582V31.344H243.582ZM179.582 -35.6H173.885V92.4H179.582V-35.6ZM109.885 28.4V46H237.885V28.4H109.885ZM173.885 -18H162.878V110H173.885V-18ZM226.878 46V1.2H98.8775V46H226.878ZM162.878 65.2H173.885V-62.8H162.878V65.2ZM109.885 1.2V18.8H237.885V1.2H109.885ZM173.885 82.8H179.582V-45.2H173.885V82.8ZM243.582 18.8V15.92H115.582V18.8H243.582ZM243.582 15.92C243.582 20.3135 242.87 26.566 240.011 33.576C237.057 40.8202 232.469 47.2263 226.813 52.2621L141.694 -43.3341C122.629 -26.3584 115.582 -3.86372 115.582 15.92H243.582ZM226.853 52.2269C215.287 62.5427 202.866 64.24 197.118 64.24V-63.76C180.531 -63.76 159.535 -59.2467 141.654 -43.2989L226.853 52.2269ZM197.118 64.24C191.369 64.24 178.948 62.5427 167.382 52.2269L252.581 -43.2989C234.7 -59.2467 213.704 -63.76 197.118 -63.76V64.24ZM168.066 52.8281C162.394 47.9122 157.651 41.5325 154.553 34.1404C151.55 26.9723 150.782 20.5177 150.782 15.92H278.782C278.782 -4.44064 271.284 -27.0977 251.897 -43.9001L168.066 52.8281ZM150.782 15.92V31.344H278.782V15.92H150.782ZM150.782 31.344C150.782 26.7463 151.55 20.2917 154.553 13.1236C157.651 5.73147 162.394 -0.648222 168.066 -5.5641L251.897 91.1641C271.284 74.3617 278.782 51.7046 278.782 31.344H150.782ZM167.745 -5.28432C179.321 -15.4521 191.605 -17.04 197.118 -17.04V110.96C213.467 110.96 234.327 106.599 252.218 90.8843L167.745 -5.28432ZM267.774 31.6V15.536H139.774V31.6H267.774ZM267.774 15.536C267.774 -5.5739 258.268 -24.2916 243.547 -36.8316L160.544 60.6076C155.088 55.9604 149.547 49.4729 145.502 40.9335C141.423 32.3219 139.774 23.5332 139.774 15.536H267.774ZM244.565 -35.9462C228.076 -50.6027 209.309 -53.648 197.182 -53.648V74.352C189.235 74.352 173.711 72.3307 159.526 59.7222L244.565 -35.9462ZM197.182 -53.648C185.054 -53.648 166.287 -50.6027 149.798 -35.9462L234.837 59.7222C220.652 72.3307 205.128 74.352 197.182 74.352V-53.648ZM150.816 -36.8316C136.095 -24.2916 126.59 -5.5739 126.59 15.536H254.59C254.59 23.5332 252.94 32.3219 248.861 40.9335C244.816 49.4729 239.275 55.9604 233.819 60.6076L150.816 -36.8316ZM126.59 15.536V31.6H254.59V15.536H126.59ZM126.59 31.6C126.59 52.5849 135.949 70.8354 149.798 83.1462L234.837 -12.5222C239.952 -7.975 245.192 -1.66632 249.043 6.6061C252.938 14.9737 254.59 23.5926 254.59 31.6H126.59ZM149.798 83.1462C166.287 97.8027 185.054 100.848 197.182 100.848V-27.152C205.128 -27.152 220.652 -25.1307 234.837 -12.5222L149.798 83.1462ZM197.182 100.848C209.309 100.848 228.076 97.8027 244.565 83.1462L159.526 -12.5222C173.711 -25.1307 189.235 -27.152 197.182 -27.152V100.848ZM244.565 83.1462C258.414 70.8354 267.774 52.5849 267.774 31.6H139.774C139.774 23.5926 141.425 14.9737 145.32 6.6061C149.171 -1.66632 154.411 -7.975 159.526 -12.5222L244.565 83.1462ZM224.44 46H160.44V110H224.44V46ZM224.44 1.2V-62.8H160.44V1.2H224.44ZM256.504 1.2H320.504V-62.8H256.504V1.2ZM256.504 10.8V74.8H320.504V10.8H256.504ZM235.448 10.8V-53.2H171.448V10.8H235.448ZM235.448 17.456H171.448V81.456H235.448V17.456ZM255.864 21.36L207.943 63.7817L208.311 64.1973L208.686 64.6064L255.864 21.36ZM255.864 42.16L208.686 -1.08638L208.489 -0.870962L208.293 -0.653751L255.864 42.16ZM235.448 27.056V-36.944H171.448V27.056H235.448ZM235.448 36.4H171.448V100.4H235.448V36.4ZM247.096 35.184L200.635 -8.83167L200.008 -8.17005L199.401 -7.49085L247.096 35.184ZM247.096 28.272L199.401 70.9469L200.008 71.6261L200.635 72.2877L247.096 28.272ZM246.328 -18H224.44V110H246.328V-18ZM288.44 46V1.2H160.44V46H288.44ZM224.44 65.2H256.504V-62.8H224.44V65.2ZM192.504 1.2V10.8H320.504V1.2H192.504ZM256.504 -53.2H235.448V74.8H256.504V-53.2ZM171.448 10.8V17.456H299.448V10.8H171.448ZM235.448 81.456H246.328V-46.544H235.448V81.456ZM246.328 81.456C241.511 81.456 234.865 80.6741 227.504 77.6607C219.907 74.5504 213.21 69.7307 207.943 63.7817L303.785 -21.0617C287.275 -39.7119 265.354 -46.544 246.328 -46.544V81.456ZM208.686 64.6064C197.561 52.4697 195.384 38.9966 195.384 31.792H323.384C323.384 15.7981 318.86 -4.6297 303.042 -21.8864L208.686 64.6064ZM195.384 31.792C195.384 24.3542 197.663 10.9388 208.686 -1.08638L303.042 85.4064C318.758 68.2612 323.384 47.9338 323.384 31.792H195.384ZM208.293 -0.653751C213.631 -6.58427 220.341 -11.3054 227.846 -14.3274C235.109 -17.2523 241.633 -18 246.328 -18V110C265.009 110 286.826 103.428 303.435 84.9738L208.293 -0.653751ZM171.448 27.056V36.4H299.448V27.056H171.448ZM235.448 100.4H244.408V-27.6H235.448V100.4ZM244.408 100.4C264.091 100.4 282.2 91.9321 294.791 77.8588L199.401 -7.49085C204.344 -13.0155 211.009 -18.3732 219.501 -22.2149C228.024 -26.0706 236.624 -27.6 244.408 -27.6V100.4ZM293.557 79.1997C308.952 62.9491 312.248 43.9433 312.248 31.728H184.248C184.248 22.4994 186.776 5.79761 200.635 -8.83167L293.557 79.1997ZM312.248 31.728C312.248 19.5127 308.952 0.506948 293.557 -15.7437L200.635 72.2877C186.776 57.6584 184.248 40.9566 184.248 31.728H312.248ZM294.791 -14.4029C282.2 -28.4761 264.091 -36.944 244.408 -36.944V91.056C236.624 91.056 228.024 89.5266 219.501 85.6709C211.009 81.8292 204.344 76.4716 199.401 70.9469L294.791 -14.4029ZM244.408 -36.944H235.448V91.056H244.408V-36.944ZM277.74 46V110H314.297L332.867 78.511L277.74 46ZM267.628 46H203.628V110H267.628V46ZM267.628 1.2V-62.8H203.628V1.2H267.628ZM278.635 1.2H342.635V-62.8H278.635V1.2ZM278.635 26.16H214.635V260.67L333.763 58.671L278.635 26.16ZM293.356 1.2V-62.8H256.798L238.228 -31.311L293.356 1.2ZM303.468 1.2H367.468V-62.8H303.468V1.2ZM303.468 46V110H367.468V46H303.468ZM292.46 46H228.46V110H292.46V46ZM292.46 21.04H356.46V-213.47L237.332 -11.471L292.46 21.04ZM277.74 -18H267.628V110H277.74V-18ZM331.628 46V1.2H203.628V46H331.628ZM267.628 65.2H278.635V-62.8H267.628V65.2ZM214.635 1.2V26.16H342.635V1.2H214.635ZM333.763 58.671L348.483 33.711L238.228 -31.311L223.508 -6.35104L333.763 58.671ZM293.356 65.2H303.468V-62.8H293.356V65.2ZM239.468 1.2V46H367.468V1.2H239.468ZM303.468 -18H292.46V110H303.468V-18ZM356.46 46V21.04H228.46V46H356.46ZM237.332 -11.471L222.612 13.489L332.867 78.511L347.587 53.551L237.332 -11.471ZM333 46V110H397V46H333ZM321.992 46H257.992V110H321.992V46ZM321.992 10.8H385.992V-53.2H321.992V10.8ZM309.96 10.8H245.96V74.8H309.96V10.8ZM309.96 1.2V-62.8H245.96V1.2H309.96ZM344.968 1.2H408.968V-62.8H344.968V1.2ZM344.968 10.8V74.8H408.968V10.8H344.968ZM333 10.8V-53.2H269V10.8H333ZM333 -18H321.992V110H333V-18ZM385.992 46V10.8H257.992V46H385.992ZM321.992 -53.2H309.96V74.8H321.992V-53.2ZM373.96 10.8V1.2H245.96V10.8H373.96ZM309.96 65.2H344.968V-62.8H309.96V65.2ZM280.968 1.2V10.8H408.968V1.2H280.968ZM344.968 -53.2H333V74.8H344.968V-53.2ZM269 10.8V46H397V10.8H269ZM381.52 46V110H445.52V46H381.52ZM351.44 46H287.44V110H351.44V46ZM351.44 1.2V-62.8H287.44V1.2H351.44ZM381.392 1.2H445.392V-62.8H381.392V1.2ZM381.392 10.8V74.8H445.392V10.8H381.392ZM362.448 10.8V-53.2H298.448V10.8H362.448ZM362.448 18.992H298.448V82.992H362.448V18.992ZM378.448 18.992H442.448V-45.008H378.448V18.992ZM378.448 28.08V92.08H442.448V28.08H378.448ZM362.448 28.08V-35.92H298.448V28.08H362.448ZM362.448 36.4H298.448V100.4H362.448V36.4ZM381.52 36.4H445.52V-27.6H381.52V36.4ZM381.52 -18H351.44V110H381.52V-18ZM415.44 46V1.2H287.44V46H415.44ZM351.44 65.2H381.392V-62.8H351.44V65.2ZM317.392 1.2V10.8H445.392V1.2H317.392ZM381.392 -53.2H362.448V74.8H381.392V-53.2ZM298.448 10.8V18.992H426.448V10.8H298.448ZM362.448 82.992H378.448V-45.008H362.448V82.992ZM314.448 18.992V28.08H442.448V18.992H314.448ZM378.448 -35.92H362.448V92.08H378.448V-35.92ZM298.448 28.08V36.4H426.448V28.08H298.448ZM362.448 100.4H381.52V-27.6H362.448V100.4ZM317.52 36.4V46H445.52V36.4H317.52ZM95.8855 125V189H159.885V125H95.8855ZM84.8775 125H20.8775V189H84.8775V125ZM84.8775 80.2V16.2H20.8775V80.2H84.8775ZM115.278 84.04L67.7067 126.854L67.7067 126.854L115.278 84.04ZM115.278 105.224L67.3567 62.8023L67.3567 62.8023L115.278 105.224ZM95.8855 109.128V45.128H31.8855V109.128H95.8855ZM95.8855 89.8V25.8H31.8855V89.8H95.8855ZM95.8855 99.528H31.8855V163.528H95.8855V99.528ZM106.382 98.312L61.1267 53.0572L60.5152 53.6686L59.9205 54.2963L106.382 98.312ZM106.382 91.08L58.8107 133.894L59.3876 134.535L59.9816 135.16L106.382 91.08ZM95.8855 61H84.8775V189H95.8855V61ZM148.878 125V80.2H20.8775V125H148.878ZM84.8775 144.2H105.678V16.2H84.8775V144.2ZM105.678 144.2C101.086 144.2 94.6205 143.478 87.3805 140.583C79.8859 137.585 73.1167 132.865 67.7067 126.854L162.848 41.2263C146.107 22.6246 124.167 16.2 105.678 16.2V144.2ZM67.7067 126.854C56.5707 114.48 54.7335 101.052 54.7335 94.6H182.734C182.734 79.1876 178.592 58.7196 162.848 41.2262L67.7067 126.854ZM54.7335 94.6C54.7335 88.0856 56.593 74.9613 67.3567 62.8023L163.198 147.646C178.57 130.281 182.734 110.074 182.734 94.6H54.7335ZM67.3567 62.8023C72.6953 56.7717 79.4516 51.9528 87.0402 48.8668C94.378 45.8827 100.966 45.128 105.678 45.128V173.128C124.51 173.128 146.555 166.447 163.198 147.646L67.3567 62.8023ZM105.678 45.128H95.8855V173.128H105.678V45.128ZM31.8855 109.128V125H159.885V109.128H31.8855ZM31.8855 89.8V99.528H159.885V89.8H31.8855ZM95.8855 163.528H103.566V35.528H95.8855V163.528ZM103.566 163.528C122.381 163.528 140.079 155.8 152.842 142.328L59.9205 54.2963C64.9423 48.9956 71.5368 44.0058 79.7296 40.468C87.9318 36.9262 96.1428 35.528 103.566 35.528V163.528ZM151.636 143.567C168.392 126.812 171.598 106.746 171.598 94.728H43.5975C43.5975 85.8673 45.9927 68.1911 61.1267 53.0572L151.636 143.567ZM171.598 94.728C171.598 82.4703 168.301 63.3362 152.781 47L59.9816 135.16C46.0835 120.53 43.5975 103.828 43.5975 94.728H171.598ZM153.952 48.2662C141.528 34.462 123.525 25.8 103.566 25.8V153.8C95.6881 153.8 87.0839 152.232 78.6181 148.383C70.2056 144.56 63.6476 139.268 58.8107 133.894L153.952 48.2662ZM103.566 25.8H95.8855V153.8H103.566V25.8ZM148.959 91.016L106.236 138.668L106.637 139.028L107.043 139.38L148.959 91.016ZM138.399 91.016L96.4834 42.6519L96.0768 43.0044L95.6761 43.3636L138.399 91.016ZM138.399 114.248L95.6761 161.9L96.1395 162.316L96.6109 162.722L138.399 114.248ZM149.023 114.248L190.811 162.722L191.283 162.316L191.746 161.9L149.023 114.248ZM156.959 121.672L199.282 169.68L199.303 169.662L199.323 169.643L156.959 121.672ZM130.463 121.672L88.0986 169.643L88.1194 169.662L88.1401 169.68L130.463 121.672ZM130.399 83.592L172.722 131.6L172.743 131.582L172.763 131.563L130.399 83.592ZM156.959 83.592L114.595 131.563L114.595 131.563L156.959 83.592ZM214.879 110.152V94.984H86.879V110.152H214.879ZM214.879 94.984C214.879 72.8455 204.561 54.5135 190.875 42.6519L107.043 139.38C102.111 135.105 96.7893 128.984 92.7888 120.716C88.7118 112.29 86.879 103.421 86.879 94.984H214.879ZM191.682 43.3636C175.036 28.4395 156 25.352 143.711 25.352V153.352C135.944 153.352 120.408 151.374 106.236 138.668L191.682 43.3636ZM143.711 25.352C131.269 25.352 112.814 28.4984 96.4834 42.6519L180.315 139.38C166.544 151.315 151.631 153.352 143.711 153.352V25.352ZM95.6761 43.3636C82.1445 55.4954 72.543 73.6532 72.543 94.984H200.543C200.543 103.089 198.845 111.689 194.979 119.956C191.169 128.102 186.035 134.264 181.122 138.668L95.6761 43.3636ZM72.543 94.984V110.152H200.543V94.984H72.543ZM72.543 110.152C72.543 130.47 81.2837 148.997 95.6761 161.9L181.122 66.5956C186.389 71.3174 191.569 77.7397 195.302 85.9773C199.052 94.2534 200.543 102.606 200.543 110.152H72.543ZM96.6109 162.722C113.449 177.238 132.302 179.848 143.711 179.848V51.848C150.512 51.848 165.824 53.3914 180.187 65.7738L96.6109 162.722ZM143.711 179.848C155.12 179.848 173.973 177.238 190.811 162.722L107.235 65.7738C121.598 53.3913 136.91 51.848 143.711 51.848V179.848ZM191.746 161.9C206.138 148.997 214.879 130.47 214.879 110.152H86.879C86.879 102.606 88.3703 94.2534 92.1204 85.9772C95.8531 77.7396 101.033 71.3174 106.3 66.5955L191.746 161.9ZM114.636 73.6639C126.173 63.4936 138.396 61.96 143.711 61.96V189.96C160.205 189.96 181.26 185.568 199.282 169.68L114.636 73.6639ZM143.711 61.96C149.026 61.96 161.249 63.4936 172.786 73.6639L88.1401 169.68C106.162 185.568 127.217 189.96 143.711 189.96V61.96ZM172.827 73.7006C178.334 78.5639 182.915 84.8289 185.9 92.0401C188.796 99.035 189.535 105.311 189.535 109.768H61.535C61.535 130.135 68.9439 152.728 88.0986 169.643L172.827 73.7006ZM189.535 109.768V95.56H61.535V109.768H189.535ZM189.535 95.56C189.535 99.7307 188.87 105.866 186.041 112.825C183.108 120.043 178.501 126.506 172.722 131.6L88.0761 35.5839C68.4895 52.851 61.535 75.7846 61.535 95.56H189.535ZM172.763 131.563C161.416 141.585 149.302 143.24 143.711 143.24V15.24C126.942 15.24 105.953 19.7966 88.0346 35.6206L172.763 131.563ZM143.711 143.24C137.932 143.24 125.856 141.509 114.595 131.563L199.323 35.6206C181.491 19.8724 160.583 15.24 143.711 15.24V143.24ZM114.595 131.563C109.022 126.642 104.442 120.332 101.476 113.128C98.6034 106.153 97.887 99.9261 97.887 95.56H225.887C225.887 75.34 218.601 52.6452 199.323 35.6206L114.595 131.563ZM97.887 95.56V109.768H225.887V95.56H97.887ZM97.887 109.768C97.887 105.311 98.6261 99.035 101.522 92.0401C104.507 84.8289 109.088 78.5639 114.595 73.7006L199.323 169.643C218.478 152.728 225.887 130.135 225.887 109.768H97.887ZM168.685 110.024V46.024H104.685V110.024H168.685ZM179.693 110.024H243.693V46.024H179.693V110.024ZM191.085 114.696L152.685 63.496L152.159 63.8905L151.641 64.2957L191.085 114.696ZM181.293 107.144H117.293V171.144H181.293V107.144ZM181.293 98.056V34.056H117.293V98.056H181.293ZM190.445 90.568L147.507 138.026L148.143 138.602L148.794 139.16L190.445 90.568ZM180.973 95.176V159.176H244.973V95.176H180.973ZM169.901 95.176H105.901V159.176H169.901V95.176ZM174.701 83.144L133.992 33.7597L133.958 33.7881L133.924 33.8165L174.701 83.144ZM198.637 83.144L154.841 129.812L155.385 130.323L155.941 130.821L198.637 83.144ZM198.189 102.536L158.291 52.4945L79.539 115.283L169.831 159.911L198.189 102.536ZM199.213 122.184L158.309 72.9611L158.138 73.1038L157.967 73.2478L199.213 122.184ZM173.805 122.056L134.6 172.643L134.645 172.677L134.691 172.712L173.805 122.056ZM168.685 174.024H179.693V46.024H168.685V174.024ZM115.693 110.024C115.693 125.944 121.318 148.099 141.359 164.238C158.753 178.245 177.602 179.848 186.925 179.848V51.848C191.427 51.848 206.66 52.4802 221.643 64.5458C239.274 78.7441 243.693 97.9862 243.693 110.024H115.693ZM186.925 179.848C196.933 179.848 214.287 177.807 230.529 165.096L151.641 64.2957C165.92 53.1209 180.501 51.848 186.925 51.848V179.848ZM229.485 165.896C248.398 151.711 256.621 130.66 256.621 111.432H128.621C128.621 104.314 129.944 95.3711 134.329 86.053C138.809 76.5325 145.391 68.9662 152.685 63.496L229.485 165.896ZM256.621 111.432C256.621 93.9382 249.629 71.7852 229.11 56.6782C212.252 44.2659 194.71 43.144 186.797 43.144V171.144C182.766 171.144 168.137 170.737 153.22 159.754C134.642 146.076 128.621 126.067 128.621 111.432H256.621ZM186.797 43.144H181.293V171.144H186.797V43.144ZM245.293 107.144V98.056H117.293V107.144H245.293ZM181.293 162.056H186.797V34.056H181.293V162.056ZM186.797 162.056C195.958 162.056 214.761 160.343 231.881 145.857C251.049 129.638 255.789 108.166 255.789 93.832H127.789C127.789 82.3137 131.697 62.9543 149.201 48.1433C164.657 35.0648 180.964 34.056 186.797 34.056V162.056ZM255.789 93.832C255.789 77.709 249.936 57.2672 232.096 41.9756L148.794 139.16C141.592 132.987 135.91 125.158 132.274 116.328C128.755 107.782 127.789 99.8784 127.789 93.832H255.789ZM233.383 43.1097C217.191 28.4592 198.65 25.352 186.669 25.352V153.352C177.93 153.352 161.907 151.055 147.507 138.026L233.383 43.1097ZM186.669 25.352C174.54 25.352 153.771 28.5451 136.642 46.0588C119.771 63.3091 116.973 83.7221 116.973 95.176H244.973C244.973 102.747 243.124 120.248 228.152 135.557C212.922 151.13 195.001 153.352 186.669 153.352V25.352ZM180.973 31.176H169.901V159.176H180.973V31.176ZM233.901 95.176C233.901 98.6895 233.393 104.712 230.545 111.85C227.534 119.399 222.487 126.678 215.478 132.471L133.924 33.8165C111.909 52.0155 105.901 76.7778 105.901 95.176H233.901ZM215.41 132.528C204.934 141.163 193.665 143.24 186.797 143.24V15.24C170.116 15.24 150.782 19.9192 133.992 33.7597L215.41 132.528ZM186.797 143.24C181.39 143.24 167.546 141.735 154.841 129.812L242.433 36.476C224.182 19.3477 202.444 15.24 186.797 15.24V143.24ZM155.941 130.821C151.08 126.468 146.464 120.574 143.228 113.185C140.015 105.847 138.925 98.7815 138.925 92.936H266.925C266.925 71.4742 258.264 50.63 241.333 35.4672L155.941 130.821ZM138.925 92.936C138.925 85.938 140.417 77.8967 144.345 69.9329C148.237 62.0442 153.483 56.3283 158.291 52.4945L238.087 152.578C255.769 138.48 266.925 117.184 266.925 92.936H138.925ZM169.831 159.911C162.24 156.159 153.636 149.498 147.386 139.009C141.272 128.748 139.757 118.769 139.757 111.88H267.757C267.757 100.597 265.314 86.8624 257.344 73.4866C249.238 59.8834 237.85 50.7481 226.547 45.1614L169.831 159.911ZM139.757 111.88C139.757 106.569 140.705 99.51 144.062 91.896C147.498 84.1047 152.594 77.7105 158.309 72.9611L240.117 171.407C259.431 155.357 267.757 132.998 267.757 111.88H139.757ZM157.967 73.2478C169.964 63.136 182.227 61.96 186.861 61.96V189.96C201.991 189.96 222.489 186.267 240.459 171.12L157.967 73.2478ZM186.861 61.96C192.046 61.96 202.513 63.3644 212.919 71.3997L134.691 172.712C151.838 185.953 171.01 189.96 186.861 189.96V61.96ZM213.01 71.4694C220.019 76.9019 225.474 84.0588 228.855 92.0045C232.062 99.5416 232.685 106.053 232.685 110.024H104.685C104.685 129.838 111.753 154.936 134.6 172.643L213.01 71.4694ZM212.065 125H148.065V189H212.065V125ZM212.065 80.2V16.2H148.065V80.2H212.065ZM223.073 80.2H287.073V16.2H223.073V80.2ZM223.073 96.072H159.073V160.072H223.073V96.072ZM223.073 105.672V41.672H159.073V105.672H223.073ZM223.073 115.4H159.073V179.4H223.073V115.4ZM233.441 114.184L188.186 68.9292L187.575 69.5406L186.98 70.1683L233.441 114.184ZM233.441 106.952L185.87 149.766L186.447 150.407L187.041 151.032L233.441 106.952ZM261.025 125V189H325.025V125H261.025ZM250.017 125H186.017V189H250.017V125ZM250.017 80.2V16.2H186.017V80.2H250.017ZM261.025 80.2H325.025V16.2H261.025V80.2ZM232.737 61H212.065V189H232.737V61ZM276.065 125V80.2H148.065V125H276.065ZM212.065 144.2H223.073V16.2H212.065V144.2ZM159.073 80.2V96.072H287.073V80.2H159.073ZM223.073 160.072H232.737V32.072H223.073V160.072ZM232.737 160.072C228.146 160.072 221.68 159.35 214.44 156.455C206.945 153.457 200.176 148.737 194.766 142.726L289.908 57.0982C273.166 38.4966 251.227 32.072 232.737 32.072V160.072ZM194.766 142.726C183.63 130.352 181.793 116.924 181.793 110.472H309.793C309.793 95.0596 305.652 74.5916 289.908 57.0982L194.766 142.726ZM181.793 110.472C181.793 103.958 183.652 90.8333 194.416 78.6743L290.258 163.518C305.63 146.153 309.793 125.946 309.793 110.472H181.793ZM194.416 78.6743C199.755 72.6437 206.511 67.8248 214.1 64.7388C221.437 61.7547 228.025 61 232.737 61V189C251.57 189 273.614 182.319 290.258 163.518L194.416 78.6743ZM159.073 105.672V115.4H287.073V105.672H159.073ZM223.073 179.4H230.625V51.4H223.073V179.4ZM230.625 179.4C249.44 179.4 267.139 171.672 279.902 158.2L186.98 70.1683C192.002 64.8676 198.596 59.8778 206.789 56.34C214.991 52.7982 223.202 51.4 230.625 51.4V179.4ZM278.696 159.439C295.451 142.684 298.657 122.618 298.657 110.6H170.657C170.657 101.739 173.052 84.0631 188.186 68.9292L278.696 159.439ZM298.657 110.6C298.657 98.3423 295.36 79.2082 279.841 62.872L187.041 151.032C173.143 136.402 170.657 119.7 170.657 110.6H298.657ZM281.012 64.1383C268.588 50.334 250.585 41.672 230.625 41.672V169.672C222.748 169.672 214.143 168.104 205.678 164.255C197.265 160.432 190.707 155.14 185.87 149.766L281.012 64.1383ZM230.625 41.672H223.073V169.672H230.625V41.672ZM261.025 61H250.017V189H261.025V61ZM314.017 125V80.2H186.017V125H314.017ZM250.017 144.2H261.025V16.2H250.017V144.2ZM197.025 80.2V125H325.025V80.2H197.025ZM287.428 110.92V174.92H351.428V110.92H287.428ZM277.444 110.92H213.444V174.92H277.444V110.92ZM277.444 103.304L239.973 51.4205L213.444 70.5801V103.304H277.444ZM284.356 98.312L247.448 46.026L247.165 46.2258L246.885 46.4285L284.356 98.312ZM287.364 95.624L235.481 58.1526L235.48 58.1526L287.364 95.624ZM286.852 89.608L242.714 135.953L243.307 136.517L243.914 137.066L286.852 89.608ZM279.172 90.056L327.892 131.558L327.892 131.558L279.172 90.056ZM277.7 94.792V158.792H341.7V94.792H277.7ZM268.1 94.792H204.1V158.792H268.1V94.792ZM272.452 83.4L228.229 37.1361L228.229 37.1361L272.452 83.4ZM295.364 100.36L341.613 144.598L342.062 144.129L342.502 143.65L295.364 100.36ZM292.804 102.792L331.204 153.992L332.516 153.008L333.776 151.958L292.804 102.792ZM289.732 105.096L326.237 157.664L327.197 156.997L328.132 156.296L289.732 105.096ZM287.428 106.696L250.923 54.1283L223.428 73.2219V106.696H287.428ZM287.428 125V189H351.428V125H287.428ZM277.444 125H213.444V189H277.444V125ZM277.444 115.528V51.528H213.444V115.528H277.444ZM287.428 115.528H351.428V51.528H287.428V115.528ZM287.428 46.92H277.444V174.92H287.428V46.92ZM341.444 110.92V103.304H213.444V110.92H341.444ZM314.915 155.187L321.827 150.195L246.885 46.4285L239.973 51.4205L314.915 155.187ZM321.264 150.598C324.363 148.41 332.376 142.609 339.248 133.095L235.48 58.1526C238.767 53.6023 241.919 50.6079 243.551 49.15C245.343 47.5482 246.767 46.5069 247.448 46.026L321.264 150.598ZM339.247 133.095C349.253 119.242 352.196 104.386 352.196 92.744H224.196C224.196 83.4056 226.585 70.47 235.481 58.1526L339.247 133.095ZM352.196 92.744C352.196 74.5903 344.969 55.8829 329.79 42.1497L243.914 137.066C237.961 131.68 232.666 124.685 229.035 116.211C225.441 107.825 224.196 99.6846 224.196 92.744H352.196ZM330.99 43.2632C316.532 29.4938 298.79 24.328 283.396 24.328V152.328C270.818 152.328 255.38 148.016 242.714 135.953L330.99 43.2632ZM283.396 24.328C267.171 24.328 246.163 30.1113 230.452 48.5542L327.892 131.558C321.717 138.806 313.902 144.434 305.197 147.995C296.8 151.43 289.118 152.328 283.396 152.328V24.328ZM230.452 48.5541C216.788 64.5953 213.7 82.5786 213.7 94.792H341.7C341.7 102.995 339.594 117.821 327.892 131.558L230.452 48.5541ZM277.7 30.792H268.1V158.792H277.7V30.792ZM332.1 94.792C332.1 98.7673 331.5 104.555 328.974 111.168C326.357 118.017 322.175 124.407 316.675 129.664L228.229 37.1361C210.196 54.3739 204.1 76.2859 204.1 94.792H332.1ZM316.675 129.664C311.936 134.193 306.188 137.85 299.808 140.233C293.564 142.566 287.906 143.24 283.588 143.24V15.24C264.855 15.24 244.581 21.5057 228.229 37.1361L316.675 129.664ZM283.588 143.24C276.32 143.24 261.747 140.933 249.149 128.335L339.659 37.8252C321.941 20.107 300.157 15.24 283.588 15.24V143.24ZM249.149 128.335C244.969 124.155 240.978 118.631 238.147 111.791C235.317 104.952 234.244 98.2382 234.244 92.36H362.244C362.244 71.7926 354.245 52.4109 339.659 37.8252L249.149 128.335ZM234.244 92.36C234.244 82.0185 237.752 68.4754 248.226 57.0701L342.502 143.65C356.816 128.063 362.244 109.187 362.244 92.36H234.244ZM249.115 56.1217C249.247 55.9838 249.525 55.6987 249.94 55.304C250.349 54.916 250.984 54.3329 251.832 53.6259L333.776 151.958C336.915 149.342 339.555 146.75 341.613 144.598L249.115 56.1217ZM254.404 51.592L251.332 53.896L328.132 156.296L331.204 153.992L254.404 51.592ZM253.227 52.5283L250.923 54.1283L323.933 159.264L326.237 157.664L253.227 52.5283ZM223.428 106.696V110.92H351.428V106.696H223.428ZM287.428 61H277.444V189H287.428V61ZM341.444 125V115.528H213.444V125H341.444ZM277.444 179.528H287.428V51.528H277.444V179.528ZM223.428 115.528V125H351.428V115.528H223.428Z" fill="#FF0000" mask="url(#path-1-outside-1_22_191)"/>
</svg>
