<svg width="49" height="250" viewBox="0 0 49 250" fill="none" xmlns="http://www.w3.org/2000/svg">
<path d="M48.116 25.11L48.116 26.39L25.46 26.39L36.852 46.102L35.7 46.742L24.308 27.03L12.916 46.742L11.892 46.102L23.156 26.39L0.5 26.39L0.5 25.11L23.156 25.11L11.764 5.398L12.916 4.758L24.308 24.47L35.7 4.758L36.724 5.398L25.46 25.11L48.116 25.11Z" fill="black"/>
<path d="M48.116 74.735L48.116 76.015L25.46 76.015L36.852 95.727L35.7 96.367L24.308 76.655L12.916 96.367L11.892 95.727L23.156 76.015L0.5 76.015L0.5 74.735L23.156 74.735L11.764 55.023L12.916 54.383L24.308 74.095L35.7 54.383L36.724 55.023L25.46 74.735L48.116 74.735Z" fill="black"/>
<path d="M48.116 124.36L48.116 125.64L25.46 125.64L36.852 145.352L35.7 145.992L24.308 126.28L12.916 145.992L11.892 145.352L23.156 125.64L0.5 125.64L0.5 124.36L23.156 124.36L11.764 104.648L12.916 104.008L24.308 123.72L35.7 104.008L36.724 104.648L25.46 124.36L48.116 124.36Z" fill="black"/>
<path d="M48.116 173.985L48.116 175.265L25.46 175.265L36.852 194.977L35.7 195.617L24.308 175.905L12.916 195.617L11.892 194.977L23.156 175.265L0.5 175.265L0.5 173.985L23.156 173.985L11.764 154.273L12.916 153.633L24.308 173.345L35.7 153.633L36.724 154.273L25.46 173.985L48.116 173.985Z" fill="black"/>
<path d="M48.116 223.61L48.116 224.89L25.46 224.89L36.852 244.602L35.7 245.242L24.308 225.53L12.916 245.242L11.892 244.602L23.156 224.89L0.5 224.89L0.5 223.61L23.156 223.61L11.764 203.898L12.916 203.258L24.308 222.97L35.7 203.258L36.724 203.898L25.46 223.61L48.116 223.61Z" fill="black"/>
</svg>
