<svg width="356" height="360" viewBox="0 0 356 360" fill="none" xmlns="http://www.w3.org/2000/svg">
<path d="M229.767 0C230.641 0.0594839 231.316 0.87681 231.897 1.46006L306.129 76.6741L335.954 106.816L354.397 125.551C354.663 125.836 355.276 126.435 355.416 126.776C355.591 127.201 355.438 128.474 355.441 128.989L355.455 137.907L355.402 168.857L355.351 185.478C354.259 186.584 352.75 187.284 351.41 188.049L343.877 192.284C344.986 193.898 346.644 195.307 348.074 196.639L355.248 203.367C355.723 206.531 355.365 210.244 355.358 213.466L355.307 235.775L355.298 242.825C355.294 243.445 355.434 244.691 355.178 245.218C354.977 245.635 354.695 245.911 354.312 246.164C352.416 247.412 350.203 248.376 348.208 249.477L333.462 257.631L277.954 288.231L187.498 338.388L156.038 355.995L151.694 358.425C150.809 358.945 149.827 359.654 148.844 359.94C147.082 360.453 143.093 357.539 141.475 356.6L109.07 338.711L41.0054 301.016L15.6542 287.008L6.42057 281.914C4.49048 280.843 2.34347 279.889 0.717235 278.39C0.288001 274.214 0.625818 269.717 0.634508 265.511L0.647752 240.154L0.743458 150.556L0.70494 136.829L0.681337 131.473C0.677542 130.181 0.483056 128.701 1.13045 127.535C3.1087 126.078 5.52867 124.987 7.67624 123.772L23.3363 115.04L68.759 89.7079L199.701 16.6681L222.275 3.87516L226.591 1.48021C227.611 0.910661 228.612 0.249598 229.767 0Z" fill="black"/>
<path d="M92.6177 194.809C93.0234 194.804 92.8466 194.739 93.1505 194.998L93.1604 202.269L91.0285 200.137L88.3668 197.117L92.6177 194.809Z" fill="#FEFEFE"/>
<path d="M297.654 133.47C298.671 133.871 299.698 135.171 300.473 135.927L306.057 141.347C305.391 142.136 303.911 142.819 303.01 143.384L297.583 146.638L297.55 138.34C297.545 136.732 297.429 135.06 297.654 133.47Z" fill="#FEFEFE"/>
<path d="M221.33 67.0188L221.692 66.965C222.199 67.2092 222.608 67.8041 222.977 68.2259L225.294 70.8597L213.641 77.6119L213.284 77.6221L209.763 73.7369L221.33 67.0188Z" fill="#FEFEFE"/>
<path d="M328.248 171.282L328.181 184.015C326.548 185.48 323.926 186.64 321.983 187.72C321.734 187.791 321.879 187.787 321.558 187.615L321.638 174.928L328.248 171.282Z" fill="#FEFEFE"/>
<path d="M279.786 198.406L280.241 198.477L280.265 210.879L273.22 214.824C272.927 214.901 273.105 214.869 272.68 214.877C272.403 213.633 272.561 212.126 272.551 210.836L272.49 202.315L279.786 198.406Z" fill="#FEFEFE"/>
<path d="M243.611 218.285L243.99 218.18C244.331 219.08 244.116 220.555 244.117 221.559L244.122 230.595L236.599 235.042C236.347 235.109 236.493 235.107 236.172 234.945L236.084 222.566L243.611 218.285Z" fill="#FEFEFE"/>
<path d="M170.854 258.988L171.221 258.888C171.491 259.165 171.411 259.163 171.412 259.54L171.45 271.131C168.748 272.251 166.167 274.058 163.549 275.406L163.258 275.354C163.036 274.146 163.167 272.748 163.161 271.518L163.13 263.481L170.854 258.988Z" fill="#FEFEFE"/>
<path d="M231.61 224.911L232.092 224.842C232.312 226.169 232.16 227.688 232.158 229.047L232.14 237.332L224.646 241.646L224.337 241.75C223.924 241.136 224.154 239.556 224.155 238.755L224.164 229.035C224.787 228.459 225.804 228.059 226.553 227.655L231.61 224.911Z" fill="#FEFEFE"/>
<path d="M207.763 238.145C207.922 239.61 207.799 241.23 207.791 242.71L207.741 250.903L200.018 255.391L199.886 255.344C199.465 254.553 199.682 253.03 199.678 252.125C199.666 249.061 199.408 245.758 199.724 242.733L207.763 238.145Z" fill="#FEFEFE"/>
<path d="M183.27 251.983L183.73 251.903C184.022 252.971 183.829 254.406 183.83 255.532L183.822 264.018L175.931 268.643L175.614 268.694C175.222 268.147 175.435 266.572 175.431 265.831L175.392 256.462L183.27 251.983Z" fill="#FEFEFE"/>
<path d="M268.446 204.456C268.648 205.796 268.523 207.34 268.527 208.697L268.548 217.164C267.911 217.699 267.059 218.083 266.339 218.504L260.886 221.558L260.585 221.492C260.129 220.657 260.462 210.57 260.47 208.844L268.446 204.456Z" fill="#FEFEFE"/>
<path d="M304.584 184.396L304.642 184.412L305.018 184.5L305.009 196.973L297.128 201.506C296.872 201.453 297.033 201.496 296.657 201.332L296.659 189.007L304.584 184.396Z" fill="#FEFEFE"/>
<path d="M265.608 102.521L293.523 129.793L293.495 148.615C293.41 149.158 292.661 149.417 292.231 149.681L289.648 151.115L289.63 132.575C288.981 131.618 288.053 130.854 287.22 130.057L283.796 126.719L265.937 109.298C265.29 108.649 265.606 103.699 265.608 102.521Z" fill="#FEFEFE"/>
<path d="M147.068 265.357C147.368 267.708 147.13 270.358 147.131 272.749L147.138 288.529C147.141 291.392 146.988 294.352 147.256 297.198L147.284 297.489L139.932 301.585L139.421 301.64C139.033 298.419 139.355 294.854 139.352 291.583L139.281 269.896L147.068 265.357Z" fill="#FEFEFE"/>
<path d="M174.464 148.994C174.653 149.035 174.527 148.996 174.813 149.183C174.816 149.646 174.99 152.26 174.836 152.485C174.689 152.7 173.477 153.23 173.155 153.408L164.616 158.127C163.456 158.778 162.013 159.29 161.082 160.236C160.569 161.428 160.6 163.948 160.772 165.249C160.775 165.278 160.834 165.641 160.883 165.71C161.381 166.42 162.283 167.142 162.902 167.766L168.692 173.371L180.516 184.855C182.139 186.409 183.709 188.267 185.559 189.548C185.622 189.591 185.711 189.609 185.749 189.675C186.066 190.218 185.588 205.735 186.173 208.43L186.244 208.747L183.195 210.333L182.618 210.655C182.544 210.611 182.434 210.6 182.396 210.522C182.177 210.076 182.376 207.971 182.371 207.385L182.259 195.052C182.251 194.316 182.446 192.634 182.226 191.993C182.023 191.398 178.506 188.382 177.841 187.744L159.191 169.72C158.834 169.36 157.959 168.628 157.749 168.188C157.574 167.82 157.719 166.435 157.721 165.994L157.759 158.129L174.464 148.994Z" fill="#FEFEFE"/>
<path d="M132.029 172.469L132.272 172.577L132.225 176.314C132.22 176.411 132.229 176.996 132.185 177.071C132.037 177.32 130.99 177.864 130.7 178.044L123.499 182.167C122.329 182.828 120.701 183.555 119.843 184.587C118.967 185.64 118.7 187.511 119.264 188.758C119.847 190.05 121.066 191.153 122.044 192.157L127.684 197.746L141.148 210.94L143.922 213.696C144.117 213.91 144.557 214.327 144.656 214.584C144.923 215.283 144.701 217.466 144.702 218.307C144.706 222.945 144.495 227.689 144.811 232.311L142.296 233.681L141.255 234.281L140.912 234.187L140.903 223.802L140.875 218.598C140.869 217.897 140.964 217.005 140.852 216.32C140.731 215.584 138.789 214.04 138.232 213.508L130.577 205.984L119.238 194.404L117.005 192.071C116.881 191.941 116.47 191.598 116.426 191.461C116.275 190.982 116.423 189.82 116.423 189.283L116.411 181.505L132.029 172.469Z" fill="#FEFEFE"/>
<path d="M153.421 160.732L153.689 160.888L153.644 164.065C150.413 166.29 146.767 168.115 143.358 170.073C142.467 170.586 141.487 170.922 140.653 171.523C140.009 172.588 140.275 174.775 140.278 176.009C140.279 176.317 140.19 177.137 140.284 177.394C140.57 178.18 145.609 182.592 146.683 183.623L161.56 198.213L164.556 201.222C164.809 201.482 165.431 201.98 165.574 202.271C165.778 202.686 165.59 204.452 165.588 205.032L165.518 213.698C165.505 215.552 165.38 217.5 165.719 219.328L165.769 219.574L162.24 221.692L161.946 221.503L161.908 204.614C161.236 203.253 159.954 202.192 158.871 201.153L154.335 196.812L140.903 183.78C140.359 183.243 136.568 179.607 136.481 179.286C136.323 178.709 136.472 177.575 136.469 176.949L136.434 170.019L153.421 160.732Z" fill="#FEFEFE"/>
<path d="M196.332 136.688C196.448 136.731 196.548 136.809 196.652 136.877L196.614 140.384L182.625 148.228C182.481 149.635 182.557 151.079 182.567 152.492C182.57 152.796 182.484 153.491 182.578 153.76C183.02 155.034 189.219 160.56 190.456 161.761L203.716 174.776L206.491 177.521C206.757 177.785 207.412 178.286 207.577 178.597C207.793 179.002 207.511 191.689 207.64 193.294C207.714 194.215 208.008 195.102 208.272 195.983L204.722 198.097C204.511 198.179 204.334 198.22 204.113 198.262C203.831 196.893 204.009 195.216 204.006 193.798L203.99 184.809L203.934 181.435C203.927 181.156 203.989 180.625 203.905 180.39C203.74 179.927 202.804 179.233 202.444 178.9L198.521 175.238L185.973 163.013L178.859 156.263L178.934 146.503L196.332 136.688Z" fill="#FEFEFE"/>
<path d="M218.369 124.572C218.759 125.136 218.527 127.628 218.53 128.436C215.865 129.669 213.31 131.202 210.728 132.602C208.607 133.751 206.193 134.8 204.317 136.301C203.972 138.156 204.114 140.171 204.111 142.056C205.121 143.433 206.477 144.6 207.702 145.784L214.213 152.024C219.102 156.75 223.814 161.99 229.1 166.276L229.285 166.424L229.289 185.84L225.974 187.539L225.758 187.567C225.256 186.508 225.558 183.802 225.549 182.51L225.422 168.359L204.784 148.489L201.695 145.52C201.461 145.294 200.805 144.789 200.672 144.527C200.56 144.305 200.68 142.939 200.681 142.598L200.643 134.487L218.369 124.572Z" fill="#FEFEFE"/>
<path d="M261.174 100.718C261.37 100.76 261.239 100.721 261.537 100.907L261.542 104.262C259.557 105.074 257.58 106.421 255.686 107.458C252.852 109.012 249.659 110.457 247.025 112.294C246.647 114.115 246.803 116.084 246.822 117.937C249.073 120.697 251.913 123.154 254.46 125.652L266.342 137.227L270.323 140.985C270.531 141.182 271.356 141.817 271.447 142.048C271.528 142.258 271.456 142.825 271.458 143.089L271.462 146.302L271.535 161.829L268.476 163.633L267.812 163.878C267.353 163.053 267.595 146.437 267.588 143.866L243.491 120.565C243.324 119.339 243.42 118.035 243.426 116.798L243.459 110.522L261.174 100.718Z" fill="#FEFEFE"/>
<path d="M239.175 113.023L239.463 113.177C239.489 114.28 239.608 115.486 239.456 116.574L226.425 123.779C226.162 125.622 226.095 127.377 226.101 129.233C226.102 129.442 226.047 130.007 226.107 130.18C226.454 131.169 229.539 133.74 230.464 134.65L247.298 151.059L249.306 153.059C249.54 153.293 250.065 153.693 250.217 153.972C250.352 154.22 250.28 154.821 250.282 155.118L250.293 158.208L250.346 173.218L246.881 175.309L246.51 175.529L246.265 175.354L246.27 170.261L246.216 159.213C246.211 158.218 246.423 156.603 246.197 155.702C245.952 154.723 241.331 150.697 240.387 149.797L222.571 132.776L222.584 122.326L233.41 116.042C235.27 115.007 237.172 113.744 239.175 113.023Z" fill="#FEFEFE"/>
<path d="M111.907 184.018C112.14 184.06 112.006 184.017 112.287 184.207L112.3 188.781C111.792 189.387 110.614 189.887 109.916 190.296L104.058 193.737C102.932 194.42 101.607 195.147 100.712 196.127C99.9072 197.008 99.8469 199.403 100.368 200.446C100.875 201.46 101.849 202.281 102.641 203.08L106.846 207.301C107.96 208.419 123.448 223.913 123.519 224.376C123.651 225.249 123.525 226.359 123.528 227.254L123.547 233.358L122.335 232.11L122.226 232.002L100.962 210.036C100.404 209.449 97.2705 206.431 97.1381 205.94C96.9882 205.384 97.2186 204.11 97.2216 203.47L97.2375 192.472L111.907 184.018Z" fill="#FEFEFE"/>
<path d="M351.196 130.441L351.39 130.534L351.313 183.1C350.883 183.651 349.964 184.059 349.363 184.409L344.562 187.214C344.401 187.159 344.509 187.202 344.254 187.047L344.507 133.955L351.196 130.441Z" fill="#FEFEFE"/>
<path d="M112.295 193.862C112.502 193.826 112.678 193.83 112.887 193.834L122.899 204.162L134.482 215.699C134.899 216.12 136.581 217.524 136.743 218.008C136.896 218.464 136.75 219.651 136.752 220.169L136.781 227.886L128.446 232.703L127.969 232.902C127.468 232.589 127.666 231.521 127.661 230.92L127.72 224.866C127.728 224.326 127.877 223.35 127.75 222.877C127.392 221.545 106.782 201.605 104.158 198.552L112.295 193.862Z" fill="#FEFEFE"/>
<path d="M153.027 169.639L178.001 193.431C178.083 193.514 178.188 193.579 178.246 193.679C178.367 193.886 178.241 195.399 178.24 195.709L178.212 204.643C175.712 206.504 172.737 207.978 170 209.465L169.689 209.444C169.204 208.75 169.555 202.271 169.576 200.756C168.839 199.334 167.3 198.087 166.165 196.967L160.022 190.948L144.311 175.716C144.744 175.136 145.244 174.343 145.807 173.896C146.613 173.257 147.742 172.882 148.654 172.389C150.16 171.574 151.602 170.588 153.027 169.639Z" fill="#FEFEFE"/>
<path d="M132.996 181.853C135.878 184.106 138.525 187.045 141.156 189.602L157.934 205.892C158.079 207.083 157.97 208.381 157.966 209.583L157.941 216.367L151.832 219.86C150.973 220.355 149.832 221.186 148.867 221.37L148.738 220.935L148.787 214.593C148.79 214.211 148.926 213.036 148.799 212.725C148.693 212.464 147.833 211.777 147.603 211.551L143.919 207.947L131.762 196.061C128.806 193.166 125.786 190.306 123.044 187.206L132.996 181.853Z" fill="#FEFEFE"/>
<path d="M238.525 122.3L239.056 122.212L263.453 145.776L263.564 158.009C263.58 159.669 263.854 161.825 263.523 163.407L257.234 160.738C256.806 160.562 254.523 159.795 254.356 159.552C254.314 159.491 254.351 158.571 254.351 158.438C254.344 157.042 254.743 152.659 253.948 151.687C251.983 149.282 249.478 147.156 247.238 145.003L235.508 133.566C233.692 131.794 231.7 130.132 229.993 128.263L230.184 127.317L230.228 126.937L238.525 122.3Z" fill="#FEFEFE"/>
<path d="M174.558 157.978L199.975 182.51C200.124 183.594 199.986 184.844 199.969 185.943L199.904 192.422L190.303 197.926L189.914 198.081C189.454 197.586 189.687 189.241 189.687 187.857L164.573 163.548L174.558 157.978Z" fill="#FEFEFE"/>
<path d="M217.763 134.066C218.784 134.809 219.684 135.786 220.596 136.659L225.412 141.28L242.217 157.48C242.449 159.266 242.304 161.226 242.31 163.031L242.303 173.4L235.414 170.612C235.109 170.507 233.396 170.037 233.283 169.882C232.945 169.419 233.573 165.438 233.273 164.57C233.159 164.24 232.45 163.702 232.181 163.454L216.565 148.504C213.689 145.72 210.531 143.016 207.911 139.996C208.487 139.282 209.602 138.739 210.39 138.253L217.763 134.066Z" fill="#FEFEFE"/>
<path d="M195.741 146.154L196.179 146.065L216.426 165.525L219.963 169.126C220.373 169.546 221.149 170.157 221.436 170.635C221.767 171.186 221.511 179.954 221.508 181.326C220.183 181.723 218.917 182.518 217.722 183.206L212.123 186.547L211.75 186.702C211.245 185.987 211.649 179.802 211.685 178.455C211.696 178.03 211.85 177.059 211.732 176.724C211.619 176.404 210.771 175.637 210.512 175.362L204.909 169.829L192.645 157.827C190.519 155.745 188.248 153.766 186.263 151.55L195.741 146.154Z" fill="#FEFEFE"/>
<path d="M260.922 109.805L261.427 109.779C261.654 110.418 261.928 110.946 262.353 111.477C264.191 113.775 266.798 115.919 268.922 117.979L282.723 131.476L284.841 133.637C284.942 133.741 285.469 134.202 285.503 134.319C285.728 135.097 285.51 136.7 285.512 137.55L285.491 149.249L277.801 146.71C277.401 146.561 275.569 146.184 275.4 145.979C275.101 145.613 275.67 141.16 275.347 140.278C275.215 139.919 274.508 139.246 274.239 138.96C271.236 135.775 267.825 132.895 264.658 129.865L250.614 115.934L260.922 109.805Z" fill="#FEFEFE"/>
<path d="M242.864 79.6338L245.28 81.9651L71.4696 179.657L69.1183 177.306L242.864 79.6338Z" fill="#FEFEFE"/>
<path d="M228.412 20.8251L228.804 20.7879C229.573 21.4575 230.224 22.2548 230.898 23.0175L28.9576 135.943L26.3953 133.646L228.412 20.8251Z" fill="#FEFEFE"/>
<path d="M22.7214 135.794L145.684 261.325L139.072 265.153C138.856 265.246 138.636 265.289 138.408 265.344L15.9536 139.658L22.7214 135.794Z" fill="#FEFEFE"/>
<path d="M309.253 144.434C310.134 145.022 310.934 145.911 311.713 146.637L315.856 150.479C316.541 151.115 318.251 152.377 318.587 153.182L142.131 252.047C141.232 251.448 140.384 250.411 139.61 249.64L133.731 243.637C131.832 241.648 129.732 239.764 128.004 237.63L134.424 233.941C134.426 235.082 134.281 236.573 134.592 237.653C134.842 238.52 136.064 239.373 136.822 239.762C137.81 240.267 138.663 240.457 139.718 240.071C141.211 239.526 150.358 234.312 150.748 233.239L150.837 232.954L150.829 232.843C150.62 231.652 149.56 231.054 148.633 230.43L148.64 226.011L153.536 223.453L153.983 225.005C154.647 226.789 156.346 227.922 157.979 228.738C159.199 228.407 160.359 227.683 161.457 227.071L166.975 223.919C168.375 223.11 170.278 222.32 171.438 221.219C171.554 220.836 171.616 220.581 171.562 220.175C171.434 219.221 170.304 218.695 169.573 218.229C169.322 216.98 169.494 215.419 169.5 214.132L175.711 210.886C175.722 211.86 175.579 213.376 176.24 214.152L177.573 215.533C178.345 216.228 179.325 216.748 180.394 216.654C181.495 216.556 182.474 215.946 183.419 215.424L187.889 212.886C189.32 212.088 191.403 211.276 192.485 210.049C192.627 209.514 192.729 209.26 192.48 208.724C192.081 207.866 190.859 207.261 190.048 206.875L189.807 206.762L189.809 202.665C192.681 201.435 195.442 199.586 198.193 198.086C198.19 199.262 197.968 201.31 198.462 202.348C198.838 203.139 200.188 204.137 201.023 204.356C201.504 204.482 202.069 204.421 202.532 204.252C205.039 203.339 207.653 201.4 209.97 200.028C211.094 199.362 212.412 198.793 213.45 198.027C213.958 197.652 214.097 197.098 214.222 196.513C213.857 195.342 213.058 194.818 212.027 194.268L211.772 194.134L211.721 191.248L219.067 187.023C219.157 188.109 219.142 189.248 219.798 190.167C220.576 191.258 222.485 192.649 223.828 192.79C224.354 192.845 224.863 192.711 225.347 192.513C227.011 191.83 228.623 190.69 230.211 189.817C231.781 188.955 233.928 188.146 235.272 186.985C235.861 186.477 235.882 186.254 235.96 185.532C235.569 184.582 234.572 184.047 233.69 183.622L233.427 183.497L233.308 174.104L242.026 177.606L241.912 177.705C242.659 179.122 243.533 180.023 244.835 180.933C247.526 179.698 250.111 178.046 252.722 176.636C253.733 176.09 255.833 175.307 256.511 174.42C256.714 174.155 256.877 173.711 256.77 173.374C256.493 172.505 255.44 171.96 254.679 171.556L254.414 171.418L254.376 164.179L266.972 169.09C268.969 168.277 270.89 166.905 272.783 165.838C274.434 164.907 276.413 164.075 277.899 162.914C278.289 162.609 278.512 162.292 278.756 161.868C278.834 161.256 278.947 160.67 278.562 160.131C277.897 159.2 276.839 159.125 275.784 159.042L275.567 159.026L275.515 149.914L281.835 152.243C282.936 152.62 284.459 152.873 285.458 153.421C286.455 153.968 287.107 155.254 288.249 155.592C288.876 155.778 289.62 155.536 290.21 155.294C292.602 154.317 294.91 152.636 297.154 151.343L309.253 144.434Z" fill="#FEFEFE"/>
<path d="M340.533 194.89L350.339 204.076L149.035 316.553L139.112 306.883C140.12 305.966 141.862 305.271 143.079 304.582L156.281 297.239L199.279 273.405L295.426 219.747L325.651 203.062L340.533 194.89Z" fill="#FEFEFE"/>
<path d="M248.265 85.145L259.861 96.5988L85.9443 193.911L85.3751 194.116L74.3807 183.007L248.265 85.145Z" fill="#FEFEFE"/>
<path d="M229.334 4.74702L349.837 126.716L343.486 130.241L291.161 77.6206L238.888 24.7473L233.264 19.1232C232.221 18.0695 230.985 16.472 229.632 15.8776C228.963 15.796 228.596 15.8972 227.987 16.1848C225.42 17.3979 222.939 19.0739 220.465 20.4793L204.994 29.2062L159.571 54.6389L13.2121 136.444L6.25304 129.431L229.334 4.74702Z" fill="#FEFEFE"/>
<path d="M234.589 25.9502L340.486 133.053L340.129 167.547L339.907 168.031L234.655 65.8961C234.454 64.4808 234.567 62.9432 234.562 61.5134L234.544 53.8884L234.589 25.9502Z" fill="#FEFEFE"/>
<path d="M16.2115 145.566C17.3616 147.165 18.8978 148.469 20.2462 149.898L30.5129 160.64L70.5253 201.886L113.53 245.765L127.795 260.4C130.166 262.809 132.495 265.446 135.091 267.611L135.331 267.81L135.309 303.395L35.5563 203.7L20.0671 188.09L17.1647 185.075C16.9734 184.868 16.3673 184.343 16.2741 184.097C16.1493 183.766 16.2726 182.771 16.2721 182.392L16.263 177.018L16.2115 145.566Z" fill="#FEFEFE"/>
<path d="M321.837 156.103L328.158 162.287L328.151 167.155C325.869 167.982 323.857 169.173 321.751 170.354L314.298 174.497L282.542 192.187L225.428 223.61L196.486 239.935L172.753 253.314L164.362 258.043C162.584 259.056 160.752 259.988 159.141 261.259C159.156 264 158.826 279.176 159.371 280.082C159.719 280.661 160.548 281.072 161.178 281.224C162.34 280.987 163.494 280.162 164.529 279.574L170.766 276.032L183.377 269.054C184.856 268.222 186.72 267.507 187.946 266.337L187.868 249.701C188.456 249.052 189.484 248.589 190.241 248.155L195.632 245.183C195.588 247.532 195.054 259.441 195.982 260.502C196.384 260.962 197.096 261.27 197.703 261.27C198.222 261.27 198.718 260.974 199.156 260.727L205.742 256.816L209.146 254.932C209.902 254.535 210.854 254.166 211.464 253.559C211.751 253.273 211.868 253.046 211.903 252.646C212.045 251.032 211.872 249.264 211.866 247.637L211.838 235.836L220.107 231.278L220.111 242.212C220.109 243.385 219.877 245.281 220.201 246.398C220.236 246.518 220.44 246.773 220.502 246.842C220.856 247.235 221.553 247.548 222.085 247.528C223.477 247.476 234.199 240.866 236.254 239.704L243.573 235.662C245.132 234.801 246.819 234.006 248.161 232.823C248.49 231.429 248.26 229.524 248.255 228.078L248.098 215.694L256.5 211.035L256.461 220.896C256.456 222.574 256.235 224.623 256.636 226.236C257.142 226.811 257.502 227.072 258.231 227.315C258.581 227.307 258.835 227.29 259.155 227.131L271.965 219.988L279.655 215.768C281.201 214.912 282.802 214.149 284.239 213.114C284.545 211.432 284.309 209.342 284.307 207.619L284.312 195.698L292.647 191.216C292.644 193.26 292.353 205.527 292.732 206.342C292.986 206.887 293.857 207.199 294.376 207.374C296.089 207.082 298.281 205.42 299.836 204.547C302.82 202.871 306.461 201.298 309.082 199.139C309.462 197.662 309.159 195.305 309.154 193.729L309.166 181.866L317.513 177.228L317.517 184.018L317.511 189.367C317.513 190.346 317.42 191.399 317.675 192.348C318.109 192.846 318.423 193.03 319.036 193.267C319.984 193.276 321.167 192.385 321.993 191.921C324.216 190.675 326.579 189.509 328.666 188.049L328.882 187.897C329.393 188.076 329.924 188.252 330.471 188.265C331.102 188.281 331.635 188.045 332.051 187.588C332.914 186.64 332.477 168.828 332.393 166.206C334.773 168.517 337.178 171.25 339.855 173.215L340.051 173.355L340.131 190.207L151.238 295.561L151.188 267.929L151.164 262.557C151.158 262.183 151.253 261.247 151.136 260.939C150.99 260.553 150.013 259.703 149.705 259.389L145.38 254.888L321.837 156.103Z" fill="#FEFEFE"/>
<path d="M350.988 208.251L351.201 208.339C351.38 209.521 351.261 210.853 351.255 212.052L351.219 218.981L351.214 243.051L150.9 354.215L150.47 354.31C150.176 353.579 150.342 352.386 150.344 351.568L150.348 344.971L150.288 320.473L350.988 208.251Z" fill="#FEFEFE"/>
<path d="M229.751 28.3978C230.13 28.2812 229.963 28.2566 230.26 28.3978L230.203 69.5497C228.659 68.1828 227.236 66.6618 225.846 65.1423C224.913 64.1219 223.982 62.808 222.749 62.1674C222.17 62.1394 221.752 62.2128 221.21 62.4207C218.261 63.5505 215.248 65.6444 212.504 67.2309C210.663 68.2949 208.648 69.2237 206.939 70.4853C206.032 71.1551 205.442 71.8896 205.293 73.0309C205.139 74.2058 205.344 74.9396 206.058 75.8669C206.831 76.8725 207.768 77.7881 208.607 78.7426C209.726 80.0167 211.14 82.2692 212.977 82.3965C214.066 82.4718 215.553 81.4324 216.492 80.9099L224.888 76.1062C226.612 75.1293 228.747 74.2395 230.23 72.9229C230.489 72.6927 230.576 72.5947 230.925 72.5027C231.648 72.3118 232.524 71.943 232.947 71.2831C233.185 70.9124 232.932 70.6666 233.374 70.3671L239.465 76.6415L78.5318 167.083L65.8165 174.289L31.6903 139.132C32.0489 138.564 46.3429 131.039 48.0904 130.064L113.137 93.8476L148.048 74.213L197.174 46.7424L215.498 36.4477L229.751 28.3978Z" fill="#FEFEFE"/>
<path d="M182.207 61.4888C183.538 61.4158 184.847 61.6558 185.997 62.3412C187.579 63.2836 188.817 64.8402 189.191 66.6622C189.551 68.4209 189.175 70.4614 188.179 71.9502C186.968 73.759 185.357 74.6079 183.284 75.0793C181.651 75.1194 180.273 74.8737 178.905 73.9392C177.414 72.9207 176.349 71.2569 176.048 69.4751C175.749 67.6993 176.127 65.839 177.184 64.3684C178.368 62.7217 180.272 61.8633 182.207 61.4888Z" fill="black"/>
<path d="M182.25 65.8829C182.719 65.8 183.072 65.7314 183.526 65.9147C184.216 66.193 184.786 66.8026 185.009 67.5114C185.226 68.2024 185.182 69.0767 184.787 69.6958C184.311 70.4402 183.733 70.7344 182.902 70.9555C182.532 70.9979 182.241 70.9748 181.879 70.8824C181.277 70.7294 180.749 70.2315 180.465 69.6886C180.161 69.1066 180.074 68.3955 180.303 67.7761C180.684 66.7462 181.283 66.3274 182.25 65.8829Z" fill="#FEFEFE"/>
<path d="M205.687 48.0211C206.799 47.9204 207.889 47.9344 208.942 48.3293C210.87 49.0513 212.536 50.5042 213.308 52.4413C213.928 53.9967 213.833 56.2295 213.109 57.7361C212.106 59.8221 210.476 60.8792 208.354 61.5933C207.002 61.7671 205.767 61.7709 204.509 61.2033C202.752 60.4105 201.442 59.0989 200.781 57.2772C200.128 55.4772 200.139 53.2239 201.042 51.4947C202.006 49.6485 203.801 48.6761 205.687 48.0211Z" fill="black"/>
<path d="M206.718 52.3674C207.148 52.4284 207.635 52.481 208.037 52.6488C208.609 52.8873 209.314 53.5329 209.487 54.1451C209.679 54.8297 209.688 55.5972 209.303 56.2148C208.825 56.9796 208.143 57.3238 207.301 57.5529C206.931 57.5684 206.495 57.5389 206.147 57.4075C205.468 57.1515 204.91 56.334 204.676 55.6801C204.443 55.0319 204.383 54.4166 204.721 53.7911C205.17 52.96 205.845 52.6192 206.718 52.3674Z" fill="#FEFEFE"/>
<path d="M158.516 74.9107C159.711 74.8888 160.938 75.1122 161.978 75.7275C163.493 76.6237 164.885 78.3189 165.27 80.0492C165.697 81.964 165.47 84.106 164.369 85.7614C163.179 87.5512 161.443 88.349 159.41 88.7901C157.967 88.7564 156.87 88.5943 155.586 87.8514C153.875 86.8605 152.662 85.4024 152.223 83.435C151.834 81.6929 152.164 79.8387 153.148 78.3541C154.464 76.3685 156.208 75.3697 158.516 74.9107Z" fill="black"/>
<path d="M158.131 79.5138C158.562 79.3722 159.112 79.3067 159.565 79.3885C160.207 79.5051 160.76 80.0621 161.063 80.6221C161.415 81.2722 161.499 82.123 161.25 82.8216C160.953 83.6519 160.408 84.0813 159.63 84.4361C159.279 84.5281 158.884 84.5838 158.521 84.5467C157.836 84.4766 157.181 83.9859 156.82 83.4183C156.443 82.8269 156.28 82.0359 156.467 81.3521C156.715 80.4419 157.336 79.9443 158.131 79.5138Z" fill="#FEFEFE"/>
<path d="M107.385 102.535C108.676 102.427 109.782 102.476 110.984 103.027C112.763 103.843 114.191 105.45 114.793 107.307C115.333 108.974 115.126 111.046 114.3 112.589C113.189 114.663 111.504 115.713 109.31 116.348C108.224 116.485 107.036 116.386 106.01 115.993C104.338 115.353 102.999 114.089 102.272 112.455C101.479 110.671 101.481 108.419 102.276 106.639C103.215 104.538 105.325 103.312 107.385 102.535Z" fill="black"/>
<path d="M107.674 106.965C108.145 106.83 108.707 106.821 109.188 106.92C109.752 107.035 110.223 107.452 110.543 107.912C110.966 108.52 111.019 109.25 110.86 109.962C110.611 111.08 109.996 111.617 109.056 112.201C108.637 112.288 108.202 112.394 107.772 112.325C107.106 112.219 106.649 111.693 106.343 111.13C105.926 110.364 105.759 109.347 106.063 108.513C106.36 107.697 106.919 107.322 107.674 106.965Z" fill="#FEFEFE"/>
<path d="M82.7018 116.375C84.0482 116.287 85.5407 116.317 86.7797 116.915C88.5261 117.758 89.6615 119.274 90.2809 121.07C90.877 122.8 90.6315 124.755 89.8171 126.375C88.7967 128.404 87.0666 129.471 84.9817 130.137C83.7522 130.294 82.5288 130.229 81.3702 129.762C79.7487 129.11 78.2641 127.692 77.6418 126.043C76.8927 124.06 76.972 122.056 77.9256 120.159C78.9411 118.138 80.6306 117.08 82.7018 116.375Z" fill="black"/>
<path d="M83.1941 120.785C83.6472 120.661 84.1637 120.603 84.6297 120.706C85.2741 120.848 85.9063 121.464 86.1932 122.041C86.515 122.688 86.4956 123.605 86.2501 124.273C85.9355 125.128 85.3921 125.521 84.5978 125.897C84.1565 125.989 83.6423 126.055 83.1937 125.985C82.5448 125.884 81.9934 125.306 81.6849 124.761C81.3483 124.165 81.2641 123.316 81.4462 122.665C81.7168 121.697 82.3638 121.267 83.1941 120.785Z" fill="#FEFEFE"/>
<path d="M59.2192 129.415C60.6737 129.36 61.7439 129.366 63.0952 130.013C64.8116 130.834 66.1994 132.411 66.8187 134.202C67.3841 135.837 67.1864 137.814 66.4332 139.345C65.401 141.441 63.6785 142.544 61.5113 143.229C60.2571 143.397 59.1839 143.404 57.9756 142.93C56.145 142.212 54.6988 140.7 54.0013 138.865C53.3751 137.218 53.4757 134.981 54.2654 133.397C55.3113 131.298 57.0474 130.15 59.2192 129.415Z" fill="black"/>
<path d="M59.9016 133.763C60.3991 133.72 60.9524 133.681 61.4279 133.87C62.0005 134.097 62.4312 134.623 62.6229 135.196C62.8844 135.976 62.8544 136.992 62.4525 137.721C62.0252 138.496 61.5341 138.787 60.7088 139.049C60.3297 139.089 60.0428 139.1 59.6652 139.015C59.055 138.878 58.5355 138.364 58.2364 137.836C57.822 137.105 57.6995 136.15 57.9636 135.344C58.2482 134.476 59.1313 134.102 59.9016 133.763Z" fill="#FEFEFE"/>
<path d="M132.484 89.4777C133.694 89.3948 134.706 89.4289 135.846 89.8776C137.672 90.5955 139.137 91.9953 139.885 93.8074C140.588 95.5106 140.434 97.6044 139.682 99.2621C138.689 101.449 136.929 102.548 134.757 103.354C133.252 103.604 132.262 103.517 130.883 102.815C129.106 101.91 127.75 100.463 127.142 98.5381C126.539 96.6275 126.688 94.6401 127.702 92.8915C128.795 91.0093 130.447 90.0544 132.484 89.4777Z" fill="black"/>
<path d="M132.93 93.9021C133.346 93.8037 133.809 93.7556 134.234 93.8366C134.849 93.954 135.403 94.4477 135.692 94.9861C136.032 95.6223 136.095 96.4988 135.88 97.183C135.569 98.1743 135.051 98.6283 134.139 99.0679L133.095 99.1C132.413 99.0353 131.78 98.4162 131.416 97.8778C131.013 97.2784 130.915 96.2625 131.134 95.5867C131.42 94.7033 132.13 94.2686 132.93 93.9021Z" fill="#FEFEFE"/>
<path d="M172.637 89.8446L173.795 90.004C174.659 90.2016 180.876 97.072 181.391 98.0799C181.659 98.604 181.574 99.4737 181.383 100.016C181.234 100.44 180.957 100.776 180.606 101.05C178.983 102.323 176.761 103.303 174.946 104.32C171.688 106.146 168.457 108.122 165.082 109.721C164.592 109.778 164.133 109.715 163.647 109.66C161.86 108.617 160.191 106.51 158.748 105.019C157.98 104.226 156.813 103.238 156.375 102.218C156.099 101.578 156.101 100.301 156.408 99.6842C156.715 99.0686 157.229 98.5805 157.78 98.1837C160.322 96.3534 163.346 94.9206 166.074 93.3701C168.131 92.2005 170.379 90.472 172.637 89.8446Z" fill="black"/>
<path d="M172.235 94.6594L172.501 94.6041C173.146 94.6041 175.789 98.0001 176.298 98.6669C174.861 99.841 172.709 100.682 171.06 101.595L165.063 105.159C164.671 104.924 164.23 104.383 163.892 104.056L160.982 101.248L172.235 94.6594Z" fill="#FEFEFE"/>
<path d="M97.8913 131.324C98.3702 131.249 98.9368 131.162 99.4161 131.27C100.842 131.591 106.094 137.154 106.966 138.573C107.458 139.374 107.509 140.292 107.228 141.183C107.073 141.673 106.756 142.038 106.346 142.339C104.491 143.701 102.173 144.744 100.166 145.893L91.2678 151.041C90.7916 151.141 90.4128 151.218 89.9267 151.082C88.7734 150.757 82.7583 144.711 82.1621 143.504C81.835 142.841 81.9128 141.743 82.1499 141.063C82.3389 140.52 82.7169 140.129 83.1662 139.784C85.2401 138.192 87.9496 136.987 90.2348 135.683C92.7664 134.239 95.2486 132.545 97.8913 131.324Z" fill="black"/>
<path d="M98.3779 135.774L102.373 139.686L90.8068 146.499L86.8992 142.349L98.3779 135.774Z" fill="#FEFEFE"/>
<path d="M196.197 76.4026C196.775 76.2962 197.428 76.2833 198.008 76.3939C199.153 76.612 204.879 83.0057 205.646 84.2173C206.005 84.7849 206.105 85.4982 205.903 86.154C205.711 86.7777 205.36 87.204 204.85 87.605C203.058 89.015 200.747 90.0472 198.747 91.1566L189.93 95.9948C189.478 96.1292 188.587 96.4147 188.118 96.2417C187.476 96.005 186.541 94.8207 186.016 94.2955L182.35 90.7181C181.829 90.1949 181.04 89.5065 180.711 88.8427C180.26 87.9355 180.332 86.814 180.681 85.889C180.856 85.4267 181.108 85.0886 181.491 84.7769C183.343 83.2681 185.927 82.1477 188.022 80.9758C190.741 79.4537 193.404 77.7854 196.197 76.4026Z" fill="black"/>
<path d="M196.854 80.8432C198.39 82.0201 199.644 83.4229 200.809 84.956C197.302 87.4618 193.125 89.5016 189.308 91.5201L185.26 87.3853L196.854 80.8432Z" fill="#FEFEFE"/>
<path d="M122.774 117.288L123.798 117.311C124.331 117.394 124.993 117.668 125.393 118.039C126.025 118.623 126.48 119.44 127.073 120.077C128.551 121.66 130.491 123.1 131.673 124.915C132.092 125.559 132.317 126.374 132.093 127.133C131.91 127.751 131.437 128.324 130.932 128.709C129.672 129.669 128.093 130.388 126.717 131.179L115.993 137.309C115.434 137.493 115.02 137.648 114.431 137.445C113.431 137.102 107.782 131.272 107.136 130.04C106.631 129.075 106.736 127.935 107.105 126.934C107.249 126.543 107.412 126.181 107.728 125.897C109.26 124.517 111.691 123.475 113.507 122.45C116.557 120.727 119.625 118.805 122.774 117.288Z" fill="black"/>
<path d="M122.944 121.902C124.432 123.016 125.8 124.596 127.198 125.845C126.802 126.435 125.169 127.116 124.481 127.507C121.586 129.155 118.719 130.972 115.734 132.443L115.206 132.523L111.291 128.678C112.916 127.335 115.033 126.387 116.888 125.387L122.944 121.902Z" fill="#FEFEFE"/>
<path d="M73.4469 144.552C73.8757 144.525 74.3497 144.472 74.7739 144.552C76.0543 144.792 81.8661 150.833 82.5867 152.138C82.9283 152.756 83.0797 153.699 82.8763 154.383C82.7188 154.912 82.3951 155.323 81.9682 155.666C80.55 156.807 78.5695 157.672 76.9734 158.584L66.4526 164.641C65.9908 164.724 65.4402 164.722 64.9787 164.622C63.6809 164.341 58.0015 158.408 57.3257 157.181C56.9056 156.418 56.8126 155.353 57.1097 154.529C57.3018 153.996 57.707 153.525 58.1465 153.177C59.576 152.047 61.5243 151.214 63.123 150.31C66.5403 148.377 69.9272 146.286 73.4469 144.552Z" fill="black"/>
<path d="M73.6216 149.373C73.836 149.373 74.0595 149.31 74.2644 149.373C74.4022 149.415 77.5394 152.772 78.0437 153.265L65.8779 160.17C64.459 159.123 63.1649 157.426 61.9586 156.124C62.6473 155.344 63.9911 154.753 64.8923 154.217L73.6216 149.373Z" fill="#FEFEFE"/>
<path d="M148.075 103.368C148.542 103.27 149.054 103.354 149.509 103.485C150.67 103.82 156.17 109.992 156.825 111.257C157.131 111.849 157.12 112.762 156.883 113.382C156.652 113.985 156.123 114.506 155.617 114.888C154.078 116.047 152.058 116.885 150.362 117.843C146.97 119.758 143.583 122.023 140.005 123.554C139.483 123.562 138.995 123.552 138.504 123.346C137.392 122.882 131.936 117.122 131.507 116.01C131.141 115.06 131.223 113.787 131.667 112.873C132.441 111.282 138.869 108.247 140.686 107.24C143.01 105.952 145.56 104.19 148.075 103.368Z" fill="black"/>
<path d="M148.183 107.883L151.953 111.917L139.935 119.045L135.995 114.731L148.183 107.883Z" fill="#FEFEFE"/>
<path d="M4.84499 133.92L7.14959 136.04L10.7504 139.685C11.1182 140.059 11.8734 140.654 12.1167 141.079C12.498 141.747 12.2341 179.635 12.2542 183.681C12.2588 184.618 12.1673 185.597 12.7491 186.387C13.854 187.887 15.4382 189.271 16.7407 190.611L26.9286 200.813L52.7399 226.544L65.2208 239.309L104.372 278.45L131.691 305.47L144.666 317.936C145.05 318.317 146.091 319.143 146.272 319.579C146.368 319.809 146.266 320.785 146.265 321.073L146.25 326.036L146.243 354.526L4.85159 276.277C4.64925 274.893 4.76879 273.4 4.76765 271.996L4.76419 264.533L4.7404 238.032L4.84499 133.92Z" fill="#FEFEFE"/>
</svg>
