<svg width="100" height="100" viewBox="0 0 100 100" fill="none" xmlns="http://www.w3.org/2000/svg">
<g clip-path="url(#clip0_17_7319)">
<path d="M0 0V100H100V0H0Z" fill="white"/>
<path d="M50.9248 97.5279C41.6141 97.8047 32.0916 94.9197 24.2761 89.8903C21.8941 88.3574 19.6365 86.565 17.5537 84.6489C10.6235 78.2731 5.67406 69.4701 3.6049 60.2986C2.96579 57.4658 2.6263 54.5893 2.51122 51.6893C2.0081 39.0099 6.94319 26.5805 15.5342 17.3155C22.8862 9.38681 32.9479 4.25755 43.6279 2.73849C45.4382 2.48101 47.239 2.38813 49.0635 2.31704L49.1128 2.31529C56.3115 2.14274 63.5793 3.68762 70.079 6.78636C72.9673 8.16333 75.7423 9.9126 78.2946 11.8389C80.2029 13.279 81.9805 14.8917 83.7032 16.5464C84.6857 17.49 85.5751 18.5743 86.4529 19.6148C93.1828 27.5924 97.3121 37.8703 97.5201 48.3488C97.5863 51.6796 97.4225 54.9976 96.8295 58.2812C95.548 65.3772 92.4296 72.301 88.2074 78.1202C87.0329 79.739 85.7543 81.3485 84.3672 82.7904C82.1579 85.0871 79.8185 87.1672 77.2032 88.9952C75.6371 90.09 73.9636 91.0589 72.2753 91.9508C65.6895 95.4302 58.3795 97.3813 50.9248 97.5279ZM49.3194 3.56235L49.2658 47.5132L29.813 47.5584L29.8303 37.0758L48.4904 37.0748L48.504 29.9159L48.4985 28.9973C48.4984 28.958 48.5127 28.7644 48.4968 28.7353C48.4827 28.7097 48.4572 28.6921 48.4375 28.6704L47.9008 28.6634L47.9083 33.627L47.9212 35.2488C47.924 35.5438 47.9631 35.8788 47.876 36.1606C47.7522 36.2595 47.7156 36.2908 47.56 36.3103C47.2264 36.352 46.8586 36.3227 46.5218 36.3235L44.4214 36.3263L42.3204 36.3259C41.9639 36.3254 41.5746 36.3566 41.2214 36.3112C41.1284 36.2993 41.0066 36.2779 40.9551 36.1897C40.8639 36.0335 40.8981 35.7053 40.8978 35.5221L40.8974 33.6525L40.9089 25.9373L36.7646 25.9339L36.7567 32.9765L36.7584 35.0742C36.7599 35.4193 36.819 35.8542 36.6943 36.1783C36.5657 36.2832 36.5357 36.2884 36.3718 36.3083C35.7271 36.3866 34.9955 36.3191 34.3385 36.319L29.8312 36.3149L29.8411 30.0762C29.8414 29.873 29.891 28.8323 29.8433 28.7353C29.83 28.7083 29.8045 28.6893 29.7852 28.6662L29.5166 28.6718C29.422 28.872 29.473 29.2876 29.4723 29.5205L29.4654 31.726C29.4652 31.9302 29.5077 32.2743 29.4399 32.4551L23.3592 32.4678C22.3015 32.4696 21.1581 32.558 20.1136 32.4125C21.5462 31.8629 22.7607 30.8333 23.3939 29.4159C24.0294 27.9934 24.044 26.1276 23.4716 24.6851C22.8837 23.2034 21.6254 22.0049 20.166 21.3932C18.7247 20.789 17.1519 20.8048 15.7114 21.3996C14.1926 22.0267 13.0502 23.1224 12.4268 24.6516C11.7982 26.1935 11.8114 27.83 12.4756 29.3582C12.8627 30.249 13.4774 31.0846 14.2599 31.6692C14.6553 31.9646 15.0837 32.1761 15.5104 32.4181L6.38066 32.4674L6.31345 61.6165L37.3453 61.6093L37.34 64.3938C37.3388 64.8445 37.3868 65.3639 37.3123 65.8058L30.9584 69.512L30.9577 67.5236L28.9056 67.5147L28.9052 70.6157L24.8539 72.9395V69.0439C24.8539 68.8218 24.7811 68.0737 24.8818 67.9073L27.71 67.91C27.7933 67.7852 27.764 67.6962 27.7588 67.5487C27.488 67.4495 26.9811 67.5121 26.6837 67.5116L24.0892 67.5082L14.1735 67.5056L9.17374 67.4922L9.16708 63.6234L8.24838 63.6218L8.23717 67.904L15.5815 67.9206C15.582 68.1237 15.5225 68.5071 15.6494 68.6571L15.9912 68.6502C16.1083 68.4685 16.0575 68.1381 16.0601 67.9188L22.8082 67.923L22.8103 74.1176L16.5544 77.722L14.4951 78.9184C14.2313 79.076 13.8586 79.2455 13.6568 79.4678C13.7296 79.5744 13.7964 79.6518 13.8916 79.739C14.1716 79.6465 14.4567 79.4325 14.7125 79.2805L15.9862 78.5518L22.8486 74.5762L22.8566 76.1771L16.98 79.6024L15.4449 80.4766C15.227 80.6002 14.9027 80.7388 14.7411 80.9326L14.9917 81.2167L20.4833 78.0582L21.9891 77.196C22.2717 77.0353 22.5822 76.8863 22.8389 76.6885L22.8225 78.1982C22.9462 78.2661 23.0956 78.2237 23.23 78.207C23.352 77.853 23.2633 77.1636 23.261 76.7703C23.2608 76.7301 23.2454 76.4981 23.2593 76.4784C23.3317 76.3754 24.2369 75.9385 24.4142 75.8412L24.4205 77.7208C24.4209 77.8326 24.3854 78.1546 24.4223 78.2471C24.4343 78.2771 24.4656 78.2951 24.4873 78.3191L24.797 78.3519C24.9431 78.1373 24.8546 76.3312 24.8552 75.9478C24.8553 75.9107 24.8418 75.6464 24.8557 75.6269C24.9309 75.5215 25.4175 75.2965 25.5557 75.2147L28.8926 73.2729L28.9045 91.7578L29.3653 91.9757L29.3482 73.0205L30.5096 72.3435L30.5228 89.0915L30.5208 91.7764C30.5203 91.9415 30.4693 92.3691 30.5185 92.5049C30.5285 92.5328 30.5504 92.555 30.5664 92.5801C30.6852 92.617 30.8342 92.6996 30.9492 92.6514L30.9466 72.1176L37.3355 68.4515L37.3327 70.2881L37.4024 70.353C37.549 70.3439 37.731 70.368 37.835 70.2637L37.8308 61.6108L39.1126 61.6144L39.1114 63.8428L39.1289 68.9206C39.1316 69.1581 39.0709 69.9632 39.209 70.118L39.5508 70.1192C39.5706 70.0941 39.5977 70.0733 39.6104 70.0439C39.6319 69.994 39.6105 69.7977 39.6106 69.7284L39.6108 68.6153L39.6045 61.6074L49.2845 61.6234L49.3038 70.2295C48.8508 70.4187 48.3919 70.5946 47.9598 70.8292C46.5328 71.6035 45.4164 72.7377 44.7903 74.2468C44.2655 75.512 44.2284 76.7512 44.24 78.1006L44.3115 78.1723L44.6533 78.1689C44.7365 78.0255 44.7016 77.8556 44.6986 77.6909C44.6931 77.3838 44.6875 77.077 44.7085 76.7702C44.9045 73.8984 46.6175 71.7255 49.306 70.7393L49.313 71.7826C48.9375 72.0208 48.5393 72.2078 48.169 72.4592C47.029 73.2328 46.1924 74.3728 45.8856 75.7229C45.6933 76.5692 45.7042 77.4575 45.749 78.3203C45.8622 78.4118 45.9773 78.4091 46.1182 78.4343C46.2265 78.316 46.1781 78.0276 46.1786 77.8653C46.18 77.3817 46.1717 76.8991 46.2421 76.4195C46.4334 75.116 47.0965 73.9265 48.1276 73.1001C48.4884 72.8108 48.9 72.5846 49.3025 72.3595L49.3168 92.513L64.4061 92.5396L67.7932 92.5436C68.1003 92.5439 68.6555 92.6202 68.9185 92.5216L68.9311 80.423C69.7804 81.1163 70.5396 81.9623 71.3061 82.7446L74.1666 85.6211C74.6736 86.1358 75.1732 86.7248 75.7308 87.1823L76.4152 86.4977L69.0028 79.1036L68.9498 68.5759L84.065 68.5618L79.2758 73.3899L79.9386 74.0442C80.561 73.4894 81.1265 72.8718 81.7126 72.2793L84.1654 69.8242L85.1056 68.8721C85.1656 68.8127 85.3528 68.602 85.4207 68.5774C85.4919 68.5518 85.6817 68.5676 85.7632 68.5655L86.8274 68.5633L91.8943 68.5752L92.805 68.5797C92.8301 68.5799 93.0032 68.5923 93.0245 68.5814C93.0967 68.5446 93.4935 67.9846 93.5375 67.8891L93.5553 37.9895C91.8492 37.9883 77.8732 38.0436 77.7337 37.9553L77.7261 27.276L77.718 24.9534C77.7161 24.6577 77.6569 24.2044 77.7398 23.9272L88.9707 23.9216L88.4655 23.1587L77.0034 23.1505L77.0037 37.9826L69.1284 37.988L69.0571 7.30541C68.7725 7.1662 68.4936 7.02483 68.1909 6.9281L68.0552 91.0105L50.1527 91.0402L50.2115 3.55697L49.3194 3.56235ZM43.7143 7.4402C42.5238 7.5732 41.4473 8.03513 40.6814 8.98325C40.1989 9.58038 39.7773 10.4335 39.7038 11.2046C39.6629 11.6345 39.6892 12.0894 39.6892 12.522L40.717 12.5228C40.718 12.1228 40.6927 11.6923 40.7497 11.2968C40.8493 10.6067 41.1929 9.96045 41.685 9.47047C42.3767 8.78192 43.2373 8.44867 44.2139 8.47051C45.1401 8.49122 46.0247 8.92788 46.6481 9.60222C47.4983 10.5221 47.5182 11.6369 47.5116 12.8174L47.5128 19.8125C47.7972 19.8096 48.2652 19.8653 48.5234 19.7746L48.51 14.0241L48.5017 12.2149C48.4978 11.6739 48.5056 11.1381 48.3707 10.6098C48.1868 9.88906 47.7965 9.27781 47.2747 8.75487C46.3715 7.8496 45.2906 7.41707 44.0155 7.42559C43.9131 7.42628 43.816 7.42762 43.7143 7.4402ZM34.0584 7.48917C32.7776 7.62514 31.7543 8.08311 30.931 9.09906C30.4851 9.64934 30.1951 10.3136 30.0646 11.0086C29.9859 11.427 30.0004 11.8948 29.9993 12.3207L30.0028 14.16L30.0072 19.8303L31.012 19.8304L31.0476 12.6099C31.0428 11.3939 31.1177 10.3809 32.035 9.47666C32.6396 8.88073 33.5159 8.53817 34.3646 8.55144C35.1779 8.56415 35.9432 8.94947 36.4956 9.53524C36.9397 10.0061 37.2625 10.5724 37.3691 11.217C37.4381 11.6348 37.4081 12.0894 37.4071 12.5125L38.4238 12.5107C38.4288 11.0478 38.3433 9.88662 37.2702 8.78407C36.4649 7.95665 35.3815 7.50122 34.2285 7.48236L34.0584 7.48917ZM71.4725 9.2941C70.9523 9.37514 70.5909 9.56262 70.2722 9.98535C70.0144 10.3272 69.8994 10.852 69.9758 11.2716C70.0546 11.7041 70.3193 12.1108 70.682 12.3582C71.0524 12.6109 71.4034 12.6508 71.8367 12.6452C72.3724 12.5183 72.7532 12.2918 73.0479 11.8087C73.2717 11.4416 73.3636 10.9465 73.2597 10.5241C73.1573 10.1077 72.8604 9.69265 72.4854 9.48015C72.194 9.31505 71.803 9.27511 71.4725 9.2941ZM52.1319 9.93613L51.5123 9.95576L57.4491 15.9227C57.475 14.688 57.7983 13.6699 58.7018 12.7948C59.477 12.044 60.5528 11.6122 61.6328 11.635C62.7979 11.6594 63.8538 12.0723 64.6569 12.9312C65.4777 13.8092 65.8238 14.8685 65.7724 16.0589C65.7257 17.1375 65.121 18.1747 64.3399 18.8867C63.5068 19.6461 62.3846 19.9475 61.2748 19.8901C60.1572 19.8324 59.1681 19.3049 58.4317 18.4714C58.1623 18.1666 58.0093 17.775 57.7508 17.4855C57.5626 17.2749 57.3171 17.0896 57.1097 16.8958L55.8409 15.6713L50.9494 10.8076C50.9481 11.0372 50.888 12.2471 50.9681 12.375C51.0687 12.5356 51.3033 12.719 51.4395 12.8586L52.5984 14.044L53.1494 14.5917L67.4321 29.0169L67.4391 9.9125L52.1319 9.93613ZM43.8176 10.0707C43.4276 10.1651 43.1474 10.3106 42.9235 10.6569C42.8137 10.8269 42.7765 11.001 42.7576 11.1996C42.6726 12.0923 42.7431 13.0575 42.7451 13.9575L42.7591 19.8198L43.7155 19.8175L43.7318 14.0048L43.7262 12.3126C43.7252 12.0301 43.699 11.7153 43.7337 11.4363C43.7488 11.3137 43.7892 11.2389 43.8721 11.1459C44.0388 11.0897 44.0962 11.0785 44.2627 11.1496L44.3193 11.2114C44.3841 11.2876 44.4137 11.3659 44.4275 11.4642C44.548 12.3247 44.4579 13.3167 44.4576 14.189L44.4478 19.8048L45.3548 19.8076L45.3277 13.5391L45.3212 11.9808C45.321 11.6865 45.3464 11.3687 45.3066 11.0783C45.2776 10.8676 45.1915 10.654 45.044 10.4985C44.7351 10.1731 44.3003 10.0672 43.8658 10.0688L43.8176 10.0707ZM33.9416 10.2615C33.5766 10.4111 33.2648 10.5808 33.1044 10.9673C32.9557 11.3256 33.0124 11.8091 33.0143 12.1937L33.0228 14.2255L33.0168 19.7902L33.9259 19.7956L33.9266 14.2733C33.9271 13.3859 33.8695 12.4548 33.9328 11.5718C33.9421 11.4418 33.9816 11.3775 34.0576 11.2789C34.1717 11.2287 34.2372 11.2082 34.3661 11.2454C34.403 11.2562 34.4248 11.2798 34.4516 11.3037L34.4935 11.3663C34.6556 11.6408 34.5579 13.2174 34.5578 13.6028L34.5571 19.7952L35.4513 19.7904L35.4526 13.9157L35.4516 12.2153C35.4513 11.8965 35.4736 11.5607 35.4248 11.2455C35.3863 10.9971 35.2803 10.7766 35.1065 10.5936C34.8686 10.3431 34.5769 10.2411 34.2353 10.2357C34.1342 10.2342 34.041 10.2453 33.9416 10.2615ZM61.2089 12.368C60.2487 12.5184 59.4112 12.9441 58.8342 13.7491C58.289 14.5097 58.0862 15.5045 58.2435 16.423C58.3951 17.3085 58.9587 18.091 59.6924 18.5972C60.402 19.0867 61.2442 19.2319 62.0875 19.1302C63.0686 18.9421 63.8889 18.4877 64.45 17.635C64.9695 16.8454 65.1382 15.8617 64.9363 14.9385C64.7461 14.0687 64.1866 13.3227 63.4329 12.855C62.7364 12.4228 62.0073 12.3274 61.2089 12.368ZM38.1667 13.303L38.1808 23.05L39.3939 23.0481L39.3693 13.3067L38.1667 13.303ZM29.0318 13.4033L27.6732 14.0793C28.0465 14.4249 28.414 14.781 28.724 15.1857L29.2469 15.9973L29.2484 14.3466C29.2484 14.0366 29.2812 13.6901 29.2236 13.3855C29.0945 13.3845 29.1585 13.3785 29.0318 13.4033ZM23.125 13.4457C21.3998 13.6656 19.9879 14.3508 18.9071 15.7553C18.2302 16.6349 17.9039 17.6445 17.7531 18.7326C17.6767 19.284 17.695 19.9224 17.7626 20.4739L18.8904 20.5201C18.6504 19.0457 18.8092 17.714 19.6952 16.478C20.4506 15.4244 21.5527 14.7503 22.8272 14.551C24.0913 14.3533 25.3106 14.6339 26.3441 15.3832C27.4216 16.1645 28.1331 17.3129 28.3429 18.6277C28.3793 18.8556 28.3751 19.0938 28.3771 19.3242C28.3526 20.6932 27.9053 21.9057 26.9114 22.8734C26.0533 23.7091 25.0054 24.1538 23.8181 24.2062L24.084 25.1591C24.2471 25.195 24.4341 25.1624 24.5986 25.1438C25.3312 25.0616 26.0993 24.7467 26.7155 24.3485C28.0359 23.4956 28.9832 22.1783 29.2932 20.6299C29.6128 19.0339 29.3675 17.3926 28.4378 16.045C27.548 14.7553 26.1658 13.8143 24.6187 13.5348C24.2092 13.4607 23.5249 13.341 23.125 13.4457ZM73.2797 13.6888C72.5084 13.7854 71.8979 14.0858 71.4114 14.7052C70.9892 15.2431 70.856 15.9863 70.9548 16.6524C71.0534 17.3171 71.4235 17.9051 71.97 18.2933C72.4696 18.6479 73.0396 18.7792 73.6478 18.7329C74.3904 18.6445 75.0559 18.3743 75.529 17.7719C75.9581 17.2254 76.1376 16.5643 76.0532 15.875C75.9701 15.1952 75.5937 14.6055 75.0521 14.1993C74.5432 13.8178 73.9131 13.6396 73.2797 13.6888ZM50.9512 13.8307L50.9564 15.04C50.9568 15.1217 50.9311 15.3157 50.9578 15.3787C50.9929 15.4613 51.1805 15.62 51.2463 15.6906L52.3767 16.8625L57.9737 22.5044L67.4197 32.0483L67.4276 30.9893C67.4263 30.8724 67.4522 30.661 67.4226 30.5535C67.3649 30.3441 66.8948 29.8941 66.741 29.7307L50.9512 13.8307ZM40.1899 13.9995C40.1861 14.521 40.1035 19.6432 40.2344 19.8231C40.3719 19.8223 40.4773 19.8381 40.6006 19.7702C40.6598 18.9228 40.6233 18.0518 40.6212 17.2016C40.6196 16.5878 40.6635 15.9281 40.5869 15.3209C40.533 14.8936 40.3837 14.384 40.1899 13.9995ZM23.1236 15.299C21.943 15.4778 21.0025 15.9843 20.2923 16.9599C19.624 17.8777 19.3944 18.9313 19.5674 20.0538L19.7011 20.6532L20.4072 20.8377C20.1203 19.736 20.0123 18.6949 20.6101 17.667C21.0774 16.8634 21.7558 16.2421 22.6807 16.0203C23.5888 15.8024 24.5671 15.9317 25.3562 16.4389C26.2028 16.9829 26.7213 17.7526 26.9196 18.7369L26.9812 19.3194C26.9061 20.3815 26.5896 21.28 25.7704 22.0014C25.0286 22.6547 24.118 22.8819 23.1502 22.9107L23.5307 23.4844C24.6886 23.4517 25.7094 23.0568 26.5101 22.1995C27.2485 21.4089 27.6668 20.3665 27.6266 19.282C27.5859 18.1876 27.1369 17.0976 26.3214 16.3518C25.4608 15.5647 24.4315 15.218 23.2666 15.2845L23.1236 15.299ZM77.4135 16.7992L77.418 19.7224L80.454 19.7188L80.4376 16.8002L77.4135 16.7992ZM50.9406 16.8921C50.9403 17.1612 50.8739 18.2332 50.9571 18.4358C51.0144 18.5751 51.2491 18.7644 51.3561 18.8773L52.6918 20.2535L57.7205 25.3605L67.411 35.093L67.4012 33.9268C67.4003 33.8215 67.4278 33.6217 67.3979 33.5334C67.2767 33.1756 63.2616 29.2925 62.6917 28.7165L53.0159 18.965L50.9406 16.8921ZM17.4667 16.9437C17.1374 17.2276 16.644 17.6179 16.4482 18.011C16.3467 18.2146 16.3475 18.5038 16.3236 18.7291L16.1714 20.275L16.1449 20.6944L17.0538 20.4905C17.0482 19.9642 17.0139 19.4122 17.0723 18.8892C17.1479 18.2115 17.3237 17.6022 17.4667 16.9437ZM81.938 19.1823L81.9372 22.1227L84.9678 22.1174L84.9686 19.1756L81.938 19.1823ZM73.0947 19.6887C72.3196 19.8916 71.665 20.25 71.2381 20.9572C70.908 21.5041 70.8273 22.2742 70.9788 22.8916C71.1381 23.5405 71.6285 24.1457 72.2094 24.4686C72.781 24.7862 73.3403 24.8131 73.9753 24.7495C74.7404 24.5724 75.3458 24.1953 75.7507 23.5095C76.0897 22.9354 76.1592 22.183 75.9889 21.5442C75.8195 20.9095 75.3893 20.3339 74.8133 20.0128C74.2662 19.7078 73.7102 19.643 73.0947 19.6887ZM50.9407 19.9144L50.9441 21.0823C50.9449 21.218 50.9172 21.4146 50.9524 21.54C50.9826 21.6482 51.1706 21.8003 51.2536 21.8873L52.4201 23.0636L65.8008 36.5663L67.4011 36.5689L50.9407 19.9144ZM29.5578 20.5281L29.507 27.9451L36.019 27.9336L36.0181 26.5869L36.0152 25.3207C36.0157 24.6395 35.974 24.0569 36.4949 23.5335C36.7511 23.2762 37.0643 23.1192 37.419 23.0504L37.4278 20.508L29.5578 20.5281ZM40.1937 20.511L40.1911 23.0632L40.258 23.0755C40.7424 23.1693 41.1769 23.3912 41.4491 23.8203L41.5524 24.0234L41.5821 24.0876C41.7369 24.4549 41.6623 25.0604 41.6629 25.4623L41.6643 27.9393L48.5241 27.9564L48.5227 20.5118L40.1937 20.511ZM50.9573 23.0188L50.9618 24.282C50.9621 24.3621 50.9359 24.5779 50.9631 24.6356C50.9918 24.6963 51.118 24.8067 51.1674 24.8602L51.8026 25.5079L54.3361 28.042L62.7933 36.5631L64.3627 36.5549L50.9573 23.0188ZM37.5659 23.85C37.2937 23.9215 37.0909 24.0522 36.9385 24.2948C36.7823 24.5433 36.7686 24.9146 36.7563 25.2007L40.0635 25.2048L40.8894 25.202C40.8831 24.8146 40.93 24.3894 40.627 24.0967C40.5401 24.0129 40.4286 23.9243 40.31 23.8925C39.9925 23.8072 39.6078 23.8372 39.2804 23.8366L37.6602 23.845L37.5659 23.85ZM84.8398 25.4555C83.2116 25.7012 81.7432 26.4464 80.7561 27.7996C79.8114 29.0947 79.4266 30.7417 79.6737 32.3254C79.9102 33.8396 80.8214 35.2698 82.0569 36.163C83.2873 37.0525 84.803 37.339 86.2913 37.2C87.8507 36.9674 89.2647 36.2232 90.2163 34.934C91.1794 33.6294 91.5828 32.0408 91.3228 30.4373C91.0625 28.8328 90.0902 27.3837 88.7722 26.4536C87.5884 25.6183 86.2718 25.3246 84.8398 25.4555ZM73.3284 25.7986C72.5841 25.8823 71.9289 26.1596 71.4508 26.7563C71.026 27.2866 70.826 28.0428 70.9218 28.7131C71.0221 29.4152 71.4278 30.0476 71.9996 30.4602C72.217 30.617 72.4493 30.7364 72.7051 30.8175L72.7846 30.8432C73.093 30.9363 73.4149 30.9221 73.7338 30.9218C74.4484 30.8295 75.0485 30.5193 75.4966 29.9437C75.9258 29.3924 76.121 28.6561 76.0332 27.9618C75.9447 27.2626 75.5363 26.7011 74.9801 26.2895C74.4941 25.9298 73.9324 25.7658 73.3284 25.7986ZM50.9582 26.0903L50.9598 27.7351L51.0288 27.7949C51.7424 28.4186 52.386 29.1434 53.0566 29.8138L56.8218 33.5923L59.2159 36.0041C59.3586 36.1401 59.6156 36.4459 59.7886 36.5188C59.8528 36.5459 60.0872 36.5192 60.1651 36.5193L61.2321 36.5188L54.172 29.3463L52.2786 27.436C51.8419 26.9791 51.449 26.4922 50.9582 26.0903ZM41.8979 28.6377L41.7236 28.6526C41.6623 28.8281 41.6872 29.0391 41.6872 29.2231L41.6871 30.4952L41.6889 35.5302L45.7533 35.5354L46.6774 35.5331C46.8074 35.5327 46.9718 35.5539 47.0891 35.4993L47.079 29.5816L47.0823 28.6702L46.1002 28.669L46.0951 32.3892C46.0971 32.9218 46.1808 33.5694 46.0918 34.0848C46.0572 34.2851 45.9758 34.4394 45.8279 34.5799C45.7513 34.6526 45.6865 34.6994 45.5811 34.7203C45.3223 34.7714 45.03 34.7485 44.7664 34.7491L43.43 34.7412C43.2189 34.7315 43.048 34.6893 42.9057 34.5235C42.8069 34.4085 42.7482 34.256 42.7326 34.1064C42.6769 33.5719 42.7229 32.9907 42.7213 32.4511L42.7083 28.6443L41.8979 28.6377ZM30.6206 28.6657L30.6321 35.5068H35.9811L35.9836 29.4189L35.9834 28.6901L35.0031 28.6802L35.0008 32.3343C34.9997 32.8883 35.0565 33.5171 34.9754 34.0631C34.9463 34.2595 34.8989 34.4217 34.7504 34.5604C34.6842 34.6223 34.6006 34.6869 34.5113 34.7083C34.22 34.7779 33.8564 34.7486 33.5579 34.7496C33.1361 34.7511 32.6867 34.7793 32.2681 34.7413C32.0742 34.7237 31.8598 34.5618 31.7462 34.4035C31.6965 34.3343 31.6668 34.2575 31.6544 34.1731C31.5755 33.6366 31.6379 33.0171 31.6373 32.4699L31.6339 28.6697L30.6206 28.6657ZM50.9736 29.1331L50.9765 30.3261C50.9768 30.4313 50.9471 30.6416 50.9775 30.7283C50.9972 30.7845 51.1908 30.9441 51.2385 30.9923L52.0884 31.8502L56.2818 36.105C56.3914 36.214 56.5944 36.4622 56.7301 36.5227C56.8723 36.5859 57.8105 36.5265 58.0322 36.5246L58.2844 36.5189L50.9736 29.1331ZM73.1748 31.9484C72.4426 32.0532 71.8255 32.3495 71.3839 32.9592C70.969 33.532 70.8092 34.3154 70.947 35.0057C71.082 35.6816 71.4852 36.2826 72.0669 36.6575C72.6016 37.0021 73.2174 37.0845 73.8383 37.0296C74.5809 36.8489 75.2296 36.4962 75.6508 35.8376C76.0023 35.288 76.1241 34.5374 75.9728 33.9011C75.8143 33.2351 75.4294 32.6858 74.8458 32.3216C74.3416 32.0069 73.7613 31.9089 73.1748 31.9484ZM50.9647 32.0923L50.9633 33.2254C50.9635 33.3281 50.9406 33.5719 50.9828 33.6616C51.0156 33.7313 51.1432 33.8478 51.1978 33.9094L51.9026 34.6409L53.6114 36.3982C53.6286 36.4154 53.7155 36.5151 53.7371 36.5222C53.8253 36.5509 54.0224 36.5219 54.127 36.5219L55.283 36.521L50.9647 32.0923ZM50.9708 35.0672L50.9655 36.5165L52.3599 36.5025L50.9708 35.0672ZM50.9648 37.2077L50.9422 49.9279L67.4416 49.9582L67.4404 37.2323L50.9648 37.2077ZM30.6281 37.9827L30.6298 38.7174L38.475 38.7178L38.4756 38.0221L30.6281 37.9827ZM40.1075 37.983L40.1107 38.7046L48.4852 38.7184L48.4838 37.9787L40.1075 37.983ZM30.6168 39.5532L30.6171 40.3176L38.4991 40.2954L38.4985 39.5714L30.6168 39.5532ZM40.272 39.5752L40.1353 39.624L40.1289 40.3036L48.3643 40.3071L48.505 40.2328L48.4869 39.5906L40.272 39.5752ZM30.6212 41.1708L30.62 41.8962L38.4945 41.8909L38.4977 41.1538L30.6212 41.1708ZM40.1058 41.1582L40.1095 41.8943L48.5236 41.8966L48.5206 41.1748L40.1058 41.1582ZM30.7866 42.749L30.6397 42.7689C30.5838 43.0026 30.6054 43.255 30.6075 43.4942L38.4033 43.492L38.5119 43.4326L38.5041 42.7575L30.7866 42.749ZM40.1155 42.7683L40.1176 43.4771L48.4995 43.4699L48.5014 42.7569L40.1155 42.7683ZM30.621 44.3461L30.6184 45.068L38.5234 45.072L38.5233 44.347L30.621 44.3461ZM40.137 44.3419L40.1355 45.0972L48.4963 45.1047L48.4984 44.3433L40.137 44.3419ZM30.7459 45.9228L30.6169 45.9717L30.6012 46.6804L38.3545 46.688L38.4822 46.6291L38.4962 45.9331L30.7459 45.9228ZM40.1249 45.9466L40.1366 46.6985L48.4846 46.7251L48.4856 45.9439L40.1249 45.9466ZM52.7349 50.6882L52.754 63.385L53.9871 63.3772L53.9923 50.6702L52.7349 50.6882ZM56.5787 50.6795L56.5703 63.3803L57.7393 63.3798C57.7635 63.3466 57.7976 63.3186 57.8118 63.2801C57.8495 63.178 57.8131 62.9132 57.8135 62.7923L57.8186 61.1125L57.8121 50.6756L56.5787 50.6795ZM60.443 50.6833L60.4595 63.3782C60.7482 63.3774 61.5044 63.4639 61.7103 63.3057L61.7111 50.685L60.443 50.6833ZM64.3268 50.6875L64.3486 63.3675L65.5786 63.3682L65.5827 50.6808L64.3268 50.6875ZM44.2944 62.6628C43.1784 62.8191 42.3407 63.2444 41.6554 64.1602C41.0749 64.9356 40.9044 65.959 41.0482 66.9022C41.1915 67.843 41.7162 68.6908 42.4852 69.2485C43.3318 69.8625 44.1038 69.9636 45.118 69.8619C46.1461 69.6875 47.0737 69.166 47.6811 68.3011C48.2195 67.5341 48.3809 66.4812 48.2122 65.5715C48.0466 64.6785 47.4201 63.7729 46.6651 63.2686C45.9258 62.7747 45.1735 62.6188 44.2944 62.6628ZM14.771 63.5986L14.6698 63.6475L14.6567 66.8L18.5791 66.8035L18.6974 66.7463L18.7146 63.602L14.771 63.5986ZM19.3943 63.5928L19.3875 66.8015L23.3783 66.8147L23.3746 63.6017L19.3943 63.5928ZM24.0676 63.5862L24.0483 66.8108L28.0565 66.8067L28.0645 63.591L24.0676 63.5862ZM9.81906 63.6197L9.81544 66.7992L13.9711 66.8044L13.9687 63.6196L9.81906 63.6197ZM28.761 63.6177L28.7601 66.8043L32.5598 66.8173L32.5527 63.6275L28.761 63.6177ZM50.9312 64.2627L50.9309 66.049L67.3482 66.0678L67.3439 64.2607L50.9312 64.2627ZM50.9111 66.797L50.9242 69.6322L54.3524 69.6313L54.3652 66.7994L50.9111 66.797ZM55.1065 66.7971L55.0968 69.6331L58.6793 69.6293L58.6782 66.8016L55.1065 66.7971ZM59.4292 66.7982L59.4339 69.6321L63.1521 69.6343L63.1541 66.8009L59.4292 66.7982ZM63.9063 66.7983L63.9152 69.6319L67.3356 69.6394L67.3364 66.8102L63.9063 66.7983ZM15.5443 69.394C14.6561 69.5948 13.8317 70.0266 13.3359 70.8208C12.8806 71.5501 12.8021 72.4191 13.003 73.2405C13.187 73.9924 13.7072 74.6822 14.3695 75.0803C14.9983 75.458 15.738 75.6208 16.467 75.5236C17.337 75.3657 18.0495 74.9458 18.5583 74.2125C19.0386 73.5201 19.1911 72.6628 19.037 71.8374C18.8859 71.0278 18.4135 70.3236 17.7286 69.8679C17.0541 69.419 16.3367 69.3186 15.5443 69.394ZM50.9181 70.3194L50.9158 72.0209C51.2273 72.0236 51.9229 72.1128 52.1729 71.9489C52.2573 71.4317 52.2028 70.8576 52.1976 70.3332L50.9181 70.3194ZM52.715 70.3369C52.6768 70.3776 52.6278 70.4104 52.6003 70.459C52.5683 70.5155 52.5754 70.7257 52.5738 70.8008L52.5817 72.0199L54.9561 72.0195L55.0645 71.9482C55.0735 71.5827 55.1747 70.6177 54.9953 70.3369C54.6074 70.2675 54.1559 70.3102 53.7604 70.3109C53.4313 70.3115 53.0355 70.2717 52.715 70.3369ZM55.6523 70.3369C55.4612 70.6298 55.4497 71.4299 55.5325 71.7773C55.566 71.9178 55.6165 71.9515 55.7373 72.0174L57.9346 72.0189L58.0515 71.9707C58.0762 71.5783 58.165 70.7804 58.0178 70.4346C57.9737 70.3971 57.9394 70.3437 57.8858 70.322C57.8063 70.29 57.5385 70.3178 57.4431 70.3168C56.8906 70.3109 56.2882 70.2668 55.7404 70.3213L55.6523 70.3369ZM58.6961 70.3369C58.6661 70.3676 58.5654 70.4496 58.5528 70.4834C58.4524 70.7539 58.5185 71.3048 58.5215 71.6011L58.547 71.9871L60.9131 72.0024L61.0349 71.9686C61.159 71.6907 61.1442 70.7504 61.05 70.4531C61.0043 70.4107 60.9696 70.3521 60.9131 70.3261C60.8391 70.2919 60.5514 70.3134 60.4611 70.3122C59.9283 70.3056 59.3434 70.2682 58.8153 70.3151L58.6961 70.3369ZM61.7846 70.3369C61.6445 70.47 61.6196 70.5104 61.6065 70.7031L61.6269 72.0047L64.0906 72.0227C64.146 71.5648 64.2451 70.8123 64.0869 70.3722C63.8715 70.2495 62.1273 70.2758 61.7846 70.3369ZM64.879 70.3369C64.7444 70.4083 64.7026 70.4387 64.6309 70.5811L64.6333 71.9871L67.0654 71.987L67.2813 71.9643C67.3396 71.7812 67.3163 71.5682 67.3161 71.3775C67.3157 71.0519 67.3347 70.7119 67.2946 70.3888C66.8111 70.3197 66.3205 70.327 65.8329 70.3197C65.5219 70.3151 65.1865 70.2884 64.879 70.3369ZM84.397 70.3411C84.2481 70.48 84.0231 70.6423 83.9253 70.8192L88.7676 75.59L89.176 75.161L84.397 70.3411ZM38.9325 70.8189C38.0273 70.9093 37.3678 71.205 36.7906 71.9191C36.2665 72.5677 36.0075 73.4137 36.1084 74.2466C36.2029 75.0272 36.647 75.8079 37.2734 76.2821C37.936 76.7837 38.6822 76.9569 39.5041 76.9175C40.3375 76.813 41.0776 76.4216 41.5913 75.7439C42.0976 75.0759 42.3064 74.2075 42.1835 73.3806C42.0686 72.6066 41.5696 71.8378 40.9369 71.3808C40.348 70.9552 39.6562 70.777 38.9325 70.8189ZM76.1761 71.1554L75.5412 71.8397L83.3435 79.6139C83.5693 79.388 83.8214 79.1643 84.0197 78.9147L78.9278 73.888L77.1292 72.0872C76.8259 71.7834 76.5162 71.414 76.1761 71.1554ZM83.096 71.7512L82.6216 72.1692L87.4862 76.9581L87.8381 76.5249L83.096 71.7512ZM75.0624 72.3579L74.4537 72.8641L82.3191 80.6479L82.9553 80.0047L78.4214 75.5522L76.6552 73.8037C76.1394 73.2947 75.6502 72.7855 75.0624 72.3579ZM50.9283 72.6701L50.9296 73.5672L51.3293 73.1494L51.7646 72.6668L50.9283 72.6701ZM53.0753 72.6586C52.5895 73.2331 52.0524 73.7601 51.5152 74.2861C51.346 74.452 51.0233 74.6748 50.9003 74.8579C50.8552 74.9251 50.9046 76.4923 50.911 76.7234L51.859 75.7583L53.7205 73.9384C54.1514 73.5232 54.6181 73.1303 54.9944 72.6639L53.0753 72.6586ZM56.3103 72.6577L52.3984 76.5404L51.3936 77.5343C51.2632 77.6649 51.0513 77.8282 50.9536 77.9815C50.8534 78.139 50.9164 78.7024 50.9185 78.9081L51.456 78.3605L57.2926 72.6641L56.3103 72.6577ZM58.6675 72.658L50.8986 80.173L50.9173 82.3161L51.9447 81.3357L60.6969 72.7091C60.0316 72.6198 59.3383 72.6547 58.6675 72.658ZM62.9182 72.6807C62.6852 72.6833 62.2799 72.631 62.0673 72.6902C61.921 72.7311 57.6222 77.0187 57.1022 77.5494C56.4298 78.2357 50.9551 83.5258 50.9137 83.6348C50.8515 83.7985 50.9166 84.299 50.9175 84.4971C50.9758 84.5364 50.9466 84.5318 51.001 84.5265L63.0287 72.7295C62.9553 72.6819 62.9929 72.6963 62.9182 72.6807ZM64.4215 72.6765C63.8662 73.1034 63.377 73.6128 62.882 74.1065L60.7899 76.1913L55.4077 81.4746L50.9166 85.9024L50.9179 87.9554L52.0075 86.8771L57.9875 80.9618L60.3252 78.7004L64.1716 74.8799C64.9468 74.1259 65.7242 73.291 66.6098 72.6664L64.4215 72.6765ZM67.307 73.0073L50.9274 89.1895L50.9322 90.0856L51.0084 90.1123L54.5787 86.602L60.4855 80.7132L65.1262 76.1955L66.8911 74.4973C66.9734 74.4174 67.2945 74.1624 67.3311 74.0666C67.3921 73.9064 67.3261 73.3854 67.3222 73.191C67.3197 73.0684 67.3239 73.1203 67.307 73.0073ZM74.0371 73.3444C73.9268 73.4679 73.4812 73.8943 73.4812 74.0245L81.2012 81.6801C81.3035 81.6332 81.2657 81.6612 81.3233 81.6096L81.9187 81.065C81.2383 80.49 80.6411 79.8277 80.0006 79.2104L76.0822 75.3862L74.7123 74.0104C74.4971 73.794 74.2767 73.5306 74.0371 73.3444ZM72.9522 74.4985L72.331 75.1034L80.0774 82.7638L80.2002 82.7304L80.7921 82.13L72.9522 74.4985ZM67.2581 75.2197L55.6195 86.7035L53.1406 89.1277L52.3593 89.8767C52.2129 90.0166 52.0308 90.1547 51.9234 90.3253L52.0264 90.3652L52.8574 90.3746L52.8936 90.3286C53.3271 89.7884 53.8736 89.3115 54.3668 88.8233L57.1046 86.1259L64.2258 79.0718L66.823 76.5681C66.9318 76.465 67.2856 76.2234 67.3363 76.1166C67.3949 75.9928 67.33 75.4157 67.3285 75.2464L67.2581 75.2197ZM71.8292 75.5777L71.2803 76.1463L79.0283 83.8294L79.126 83.7582L79.7066 83.2259L74.5826 78.1548L72.9845 76.5913C72.6198 76.2402 72.2491 75.8624 71.8292 75.5777ZM70.788 76.59L70.2284 77.2479L77.9177 84.8877C77.9665 84.8771 78.0069 84.8698 78.0518 84.8473L78.5681 84.2962L70.788 76.59ZM67.256 77.5635L54.3933 90.2588L54.3945 90.3141L54.4678 90.3324L55.8431 90.3347C55.9488 90.3346 56.17 90.362 56.264 90.3188C56.3919 90.2601 56.6119 89.9851 56.7298 89.8721L58.3823 88.2788L63.9374 82.7796L66.0629 80.713L67.0548 79.7447C67.1142 79.6845 67.2929 79.5398 67.3238 79.4704C67.3445 79.4243 67.3247 79.2608 67.325 79.1968L67.3281 78.1866C67.3284 77.9972 67.3646 77.7433 67.2826 77.5757L67.256 77.5635ZM69.7801 77.8063L69.1961 78.3837L73.5695 82.7486L75.306 84.5178C75.7696 84.9989 76.2808 85.6449 76.8547 85.989L76.9776 85.9276C77.1015 85.8079 77.4723 85.5137 77.5194 85.3677L69.7801 77.8063ZM23.2042 78.8693C22.3517 79.0591 21.5834 79.4617 21.0954 80.2155C20.6385 80.9213 20.4821 81.726 20.6634 82.5468C20.8349 83.3237 21.3142 84.0415 21.9971 84.4615C22.6636 84.8714 23.314 84.9911 24.0838 84.9033C24.9442 84.7256 25.6176 84.3547 26.1118 83.6125C26.577 82.9141 26.7596 82.106 26.585 81.2802C26.4219 80.5089 25.93 79.7683 25.2631 79.3439C24.6194 78.9343 23.9539 78.832 23.2042 78.8693ZM35.0337 78.8727C33.9566 79.0312 33.1403 79.5236 32.4973 80.3935C31.9486 81.1358 31.7216 82.1106 31.8632 83.0228C32.0257 84.0692 32.5178 84.8792 33.3767 85.4966C34.1433 86.0477 34.9575 86.1179 35.8729 86.0703C36.9104 85.9025 37.7315 85.4749 38.3504 84.6097C38.8731 83.8791 39.1946 82.9076 39.0463 82.0052C38.8808 80.9973 38.3189 80.0698 37.4812 79.4799C36.7146 78.94 35.9458 78.815 35.0337 78.8727ZM44.0393 78.8727C42.9907 79.0464 42.1031 79.5246 41.4755 80.3987C40.9606 81.1159 40.6988 82.1431 40.855 83.017C41.0312 84.0026 41.5641 84.8953 42.3919 85.468C43.13 85.9785 43.9451 86.1699 44.836 86.0682C45.9189 85.9007 46.7377 85.4686 47.3869 84.572C47.9086 83.8517 48.1668 82.8325 48.0171 81.9524C47.8461 80.9475 47.3068 80.0912 46.4608 79.5123C45.9771 79.1814 45.462 78.9963 44.8905 78.8849C44.6351 78.835 44.2977 78.8342 44.0393 78.8727ZM67.3262 80.7023L57.5657 90.2588C57.5739 90.2841 57.5787 90.3113 57.5928 90.3339L58.6861 90.336L61.6539 87.3419L65.5266 83.4886C65.7001 83.3188 67.3474 81.7632 67.3599 81.7243C67.3754 81.676 67.3545 81.5125 67.3529 81.4538L67.3346 80.7686L67.3262 80.7023ZM67.2506 82.8857L59.7412 90.2998L59.8389 90.3437L60.7137 90.3475L60.7352 90.3122C60.8973 90.0591 61.148 89.8484 61.361 89.6375L62.4218 88.5897L66.531 84.5063L67.161 83.9074C67.1892 83.8812 67.32 83.7777 67.3314 83.7503C67.3914 83.6048 67.329 83.095 67.3284 82.9124L67.2506 82.8857ZM67.2383 85.2783L62.0625 90.2812L62.1826 90.3269L63.4701 90.3277C63.6983 90.3276 63.9669 90.3561 64.1868 90.3003C64.5905 89.8976 67.2572 87.3982 67.3279 87.1648C67.3557 87.0734 67.3308 86.8775 67.3317 86.7775L67.3395 85.7422L67.3299 85.2875L67.2383 85.2783ZM34.9915 87.0268C33.9914 87.1884 33.1376 87.5859 32.5283 88.4288C32.1919 88.8942 31.9586 89.3946 31.8783 89.9658L31.8652 90.0533C31.7346 90.9792 31.9633 92.002 32.5357 92.7486C33.1008 93.4857 33.9508 94.0073 34.8777 94.1271C35.2236 94.1719 35.582 94.1513 35.9276 94.1136C36.987 93.8811 37.8523 93.4061 38.4485 92.4696C38.941 91.6957 39.1427 90.6774 38.9266 89.7826C38.7011 88.8495 38.0626 87.9926 37.2411 87.4987C36.5713 87.0961 35.7669 86.9302 34.9915 87.0268ZM44.3515 87.0326C43.2861 87.094 42.4467 87.4152 41.7272 88.2264C41.1436 88.8843 40.7593 89.8646 40.8201 90.7471C40.8889 91.7453 41.3965 92.7185 42.1571 93.366C42.8626 93.9667 43.6188 94.1611 44.5333 94.1791C45.59 94.0727 46.4944 93.7455 47.1904 92.9042C47.8287 92.1326 48.1037 91.1963 48.0032 90.2017C47.9083 89.2616 47.3948 88.3504 46.6527 87.7686C45.9778 87.2394 45.1891 87.0673 44.3515 87.0326ZM67.3058 88.501C66.6622 89.0018 66.0123 89.6684 65.4747 90.2813L65.6006 90.336L66.5403 90.3377L67.1652 89.6286C67.2077 89.577 67.337 89.4475 67.3565 89.3898C67.4183 89.2067 67.3596 88.755 67.3606 88.5439L67.3058 88.501Z" fill="#FF0000"/>
<path d="M71.7871 11.6971C71.6512 11.705 71.5189 11.6983 71.3856 11.6673C71.2026 11.6246 71.049 11.4847 70.9609 11.3218C70.8683 11.1509 70.8236 10.9409 70.886 10.7523C70.9815 10.4631 71.1905 10.3473 71.4454 10.2103C71.5815 10.2021 71.7415 10.1839 71.8726 10.2272C72.0346 10.2808 72.2102 10.4316 72.2852 10.584C72.3779 10.7722 72.3952 11.0425 72.3171 11.2381C72.2182 11.4854 72.0164 11.5911 71.7871 11.6971Z" fill="#FF0000"/>
<path d="M61.7302 18.1669C61.1416 18.1502 60.6585 18.0671 60.1793 17.698C59.6581 17.2967 59.2857 16.7223 59.2148 16.0613C59.1419 15.3825 59.3276 14.696 59.7657 14.167C60.2513 13.5809 60.8303 13.4155 61.5639 13.3491C62.0955 13.3763 62.551 13.4664 63.0063 13.7578C63.5308 14.0935 63.8938 14.6289 64.0003 15.2441C64.1113 15.8854 63.9885 16.6828 63.5981 17.2157C63.1353 17.8477 62.4754 18.059 61.7302 18.1669Z" fill="#FF0000"/>
<path d="M73.7577 18.112C73.2708 18.1348 72.868 18.1212 72.4386 17.8561C71.9977 17.5837 71.709 17.1283 71.5907 16.6296C71.473 16.1333 71.5823 15.5946 71.8587 15.1675C72.1883 14.658 72.6733 14.4287 73.2498 14.3165C73.707 14.2899 74.1008 14.353 74.5038 14.585C74.95 14.8417 75.2992 15.3268 75.4074 15.8271C75.5088 16.2963 75.3999 16.8434 75.1364 17.243C74.8115 17.7358 74.3195 17.9899 73.7577 18.112ZM73.2722 14.9526C72.8661 15.0478 72.5627 15.2069 72.3324 15.5767C72.1813 15.8193 72.0995 16.1622 72.166 16.4453C72.253 16.8153 72.5035 17.1036 72.8272 17.2912C73.1072 17.4536 73.3617 17.44 73.6732 17.4301C74.0748 17.315 74.4134 17.1354 74.6294 16.7626C74.7777 16.5065 74.82 16.2037 74.7441 15.9173C74.6514 15.5678 74.3945 15.2727 74.0827 15.0976C73.8365 14.9594 73.5491 14.9318 73.2722 14.9526Z" fill="#FF0000"/>
<path d="M79.6433 18.9832H78.1556L78.1558 17.53L79.6367 17.5345L79.6433 18.9832Z" fill="#FF0000"/>
<path d="M84.2231 21.3393L82.7153 21.3395L82.7151 19.9245L84.2218 19.9228L84.2231 21.3393Z" fill="#FF0000"/>
<path d="M73.5962 24.1558C73.2071 24.1759 72.8158 24.0887 72.4854 23.88C72.0198 23.586 71.6952 23.1287 71.587 22.5862C71.4859 22.0798 71.6152 21.5103 71.9206 21.0937C72.296 20.5815 72.7777 20.3772 73.3823 20.2783C73.8088 20.2678 74.3128 20.3987 74.6582 20.6508C75.0792 20.958 75.3155 21.4036 75.3977 21.9119C75.4798 22.4204 75.3655 22.9447 75.0591 23.3621C74.6888 23.8664 74.1983 24.0614 73.5962 24.1558ZM73.2094 20.9559C72.8086 21.1106 72.4915 21.2873 72.315 21.708C72.1829 22.0229 72.169 22.4171 72.3162 22.7295C72.4661 23.0477 72.698 23.3203 73.0355 23.4466C73.2938 23.5432 73.5741 23.5378 73.8411 23.4937C74.2178 23.3392 74.5207 23.1041 74.689 22.7223C74.8325 22.3967 74.8417 22.0832 74.7083 21.7529C74.5882 21.4554 74.3619 21.1808 74.0594 21.0584C73.7848 20.9475 73.5007 20.9411 73.2094 20.9559Z" fill="#FF0000"/>
<path d="M18.4163 31.9378C17.059 32.0112 15.8298 31.7163 14.773 30.8258C13.6632 29.8906 13.0966 28.705 12.9759 27.268C12.8679 25.9814 13.2862 24.6841 14.1287 23.7073C15.05 22.6392 16.2122 22.102 17.6041 21.9929C18.9133 21.9211 20.0386 22.2657 21.053 23.0978C22.1281 23.9798 22.7381 25.1 22.8702 26.4791C22.9958 27.7905 22.6454 29.0686 21.7952 30.0789C20.9478 31.0859 19.7379 31.8188 18.4163 31.9378ZM17.3488 22.8141C16.2036 23.0363 15.1485 23.606 14.4766 24.588C13.8198 25.5479 13.6455 26.7186 13.8665 27.8496C14.0701 28.8916 14.7728 29.8543 15.6522 30.4357C16.5081 31.0018 17.5654 31.2155 18.5804 31.0671C19.7678 30.829 20.7051 30.2724 21.3915 29.248C21.9908 28.3536 22.192 27.1758 21.9858 26.125C21.7794 25.0741 21.0643 24.0291 20.1689 23.4456C19.3327 22.9006 18.3345 22.7027 17.3488 22.8141Z" fill="#FF0000"/>
<path d="M18.2247 30.5061C17.3402 30.5366 16.5256 30.3935 15.805 29.8459C15.0773 29.2931 14.5321 28.4297 14.4151 27.5159C14.2892 26.5328 14.4944 25.5068 15.1211 24.7199C15.7615 23.9157 16.5931 23.5187 17.5994 23.4063C18.4359 23.3453 19.306 23.5788 19.9838 24.0763C20.7484 24.6374 21.2875 25.5179 21.4189 26.4601C21.5518 27.4142 21.3391 28.3666 20.7439 29.1297C20.0968 29.9592 19.2511 30.3713 18.2247 30.5061Z" fill="#FF0000"/>
<path d="M73.6352 30.3094C73.2195 30.3114 72.8362 30.2379 72.4824 30.0086C71.9856 29.6865 71.7025 29.2323 71.5855 28.6562C71.4836 28.1546 71.6263 27.6327 71.9199 27.2189C72.2747 26.7191 72.7118 26.5332 73.2948 26.4284C73.7186 26.4096 74.1353 26.4823 74.4997 26.7128C74.9337 26.9871 75.2577 27.4304 75.3549 27.9376C75.4566 28.4683 75.342 29.0223 75.036 29.4675C74.6873 29.9749 74.2269 30.2024 73.6352 30.3094ZM73.1644 27.1081C72.8081 27.243 72.5117 27.3898 72.3354 27.753C72.1807 28.0714 72.1596 28.4759 72.2864 28.8072C72.4118 29.1349 72.6675 29.4262 72.9909 29.5683C73.2399 29.6776 73.5543 29.655 73.8194 29.6289C74.1983 29.4602 74.5101 29.235 74.663 28.8319C74.7949 28.4844 74.7898 28.1416 74.6338 27.8005C74.4809 27.466 74.2428 27.2788 73.8983 27.1648C73.6538 27.0841 73.417 27.0974 73.1644 27.1081Z" fill="#FF0000"/>
<path d="M85.6529 33.983C84.9732 33.997 84.3563 33.8607 83.8135 33.4285C83.3034 33.0224 82.9438 32.3468 82.8703 31.6992C82.786 30.9559 83.0109 30.1868 83.4949 29.6143C83.9877 29.0313 84.6487 28.8012 85.3903 28.7311C85.9614 28.7563 86.4737 28.8407 86.9547 29.176C87.5286 29.5759 87.952 30.2425 88.0661 30.9326C88.1791 31.6155 88.0005 32.3524 87.5846 32.9033C87.0783 33.5738 86.4654 33.8638 85.6529 33.983Z" fill="#FF0000"/>
<path d="M73.8033 36.3724C73.3663 36.4187 72.9784 36.3926 72.583 36.187C72.1197 35.9463 71.7788 35.5444 71.6329 35.0417C71.4786 34.51 71.539 33.9801 71.8146 33.5009C72.1134 32.9815 72.5808 32.7162 73.143 32.574C73.5715 32.5496 73.9766 32.5483 74.3658 32.7595C74.8114 33.0012 75.1642 33.4237 75.3001 33.9151C75.4377 34.4128 75.4 34.9734 75.1371 35.4238C74.8322 35.9463 74.3767 36.2281 73.8033 36.3724ZM73.2719 33.2074C72.8753 33.3247 72.5455 33.501 72.3348 33.8737C72.1502 34.2002 72.1425 34.5812 72.2629 34.9318C72.38 35.2728 72.6551 35.5585 72.9808 35.7062C73.2058 35.8082 73.4175 35.798 73.6586 35.7899C74.0452 35.6698 74.416 35.4625 74.6026 35.083C74.7673 34.7481 74.7969 34.4225 74.6634 34.0714C74.533 33.7284 74.2627 33.4401 73.9258 33.295C73.7038 33.1994 73.5102 33.1977 73.2719 33.2074Z" fill="#FF0000"/>
<path d="M28.9951 47.5642L7.23224 47.56L7.24398 33.3006L28.9893 33.2835L28.9951 47.5642ZM18.0619 34.1985C17.3532 34.2676 16.8159 34.4777 16.3527 35.0397C15.957 35.5198 15.7975 36.1811 15.8679 36.7926C15.9374 37.3964 16.2845 38.0103 16.7685 38.3752C17.2494 38.7377 17.7558 38.8309 18.342 38.8213C19.0686 38.6802 19.5977 38.4129 20.0276 37.7821C20.3807 37.2643 20.4924 36.6229 20.3776 36.0106C20.2658 35.4144 19.8911 34.8584 19.3819 34.5325C18.9698 34.2687 18.5363 34.2189 18.0619 34.1985ZM11.1797 34.2378C10.4888 34.4253 9.9746 34.7337 9.61013 35.3751C9.31073 35.9019 9.2296 36.6016 9.39767 37.1855C9.57449 37.7999 9.95956 38.2714 10.5225 38.5762C11.0507 38.8623 11.6063 38.9089 12.1892 38.8049C12.8178 38.6226 13.3417 38.2756 13.6727 37.6953C13.9786 37.1592 14.0554 36.4315 13.8776 35.8398C13.7014 35.2528 13.2998 34.7596 12.7594 34.4702C12.2724 34.2095 11.7186 34.1895 11.1797 34.2378ZM24.3056 34.2382C23.6585 34.38 23.1342 34.6757 22.7606 35.2394C22.3921 35.7954 22.2992 36.4403 22.4565 37.0837C22.5991 37.6665 22.9801 38.2276 23.5041 38.5302C23.9811 38.8056 24.4527 38.8645 24.994 38.8066C25.6638 38.653 26.2363 38.3735 26.6062 37.7686C26.9296 37.2398 27.0198 36.5431 26.8639 35.9455C26.7014 35.3228 26.2749 34.7821 25.7052 34.4833C25.2489 34.244 24.806 34.2165 24.3056 34.2382ZM12.0752 39.6728L11.1881 39.693L10.3551 41.7154C10.042 42.4301 9.6101 43.259 9.53083 44.043C9.48821 44.4645 9.54909 44.8765 9.72696 45.2637C9.99677 45.8511 10.4907 46.2848 11.1084 46.4759L11.3515 46.5321C12.0689 46.5573 12.6306 46.5531 13.1853 46.0205C13.6566 45.568 13.9271 44.981 13.9284 44.3258C13.929 44.003 13.8811 43.7151 13.7837 43.4082C13.4976 42.5079 13.053 41.6108 12.6892 40.7361C12.5632 40.4335 12.4195 39.8983 12.2076 39.6635L12.0752 39.6728ZM17.6582 39.7052C17.2975 40.7657 16.7886 41.7608 16.3799 42.8018C16.2285 43.1873 16.0206 43.6481 15.9723 44.0614C15.923 44.4817 15.982 44.9051 16.1657 45.2881C16.4134 45.8044 16.9027 46.2644 17.4475 46.4442C17.8651 46.582 18.3113 46.5633 18.7415 46.498C19.3819 46.2568 19.9119 45.9003 20.2056 45.2557C20.5328 44.5371 20.3778 43.7737 20.1008 43.0732L18.6577 39.6871C18.3189 39.7164 17.9973 39.7434 17.6582 39.7052ZM24.147 39.7052L23.0013 42.351C22.7819 42.8774 22.51 43.4395 22.428 44.0079C22.3712 44.4026 22.4177 44.7774 22.5617 45.1474C22.7824 45.7144 23.2163 46.1539 23.7733 46.3902C24.1933 46.5684 24.6161 46.5697 25.0637 46.5235C25.7006 46.3335 26.2299 46.0065 26.5504 45.3988C26.8664 44.7998 26.9105 44.1561 26.7026 43.5167L25.1201 39.6917L24.147 39.7052Z" fill="#FF0000"/>
<path d="M11.8285 37.9843L11.377 37.9712C11.001 37.9237 10.6616 37.7045 10.4368 37.4036C10.2097 37.0995 10.1241 36.6686 10.1861 36.2962L10.1983 36.2305C10.2381 36.0089 10.3207 35.8155 10.4561 35.6336C10.7166 35.2834 11.0451 35.1358 11.4657 35.0698C11.779 35.0563 12.1299 35.1016 12.4015 35.265C12.7598 35.4807 13.0347 35.8268 13.1185 36.2426C13.1965 36.6297 13.1188 37.0292 12.893 37.3535C12.6238 37.7404 12.2766 37.8937 11.8285 37.9843Z" fill="#FF0000"/>
<path d="M18.4737 37.9577C18.1582 37.9915 17.8558 37.9899 17.557 37.8647C17.188 37.7099 16.8689 37.3792 16.7291 37.0041C16.5853 36.6183 16.6475 36.184 16.8279 35.821C17.0361 35.4021 17.3677 35.2147 17.7882 35.0684C18.1107 35.0335 18.4558 35.0308 18.7546 35.1747C19.1339 35.3573 19.3956 35.6855 19.5254 36.0817C19.6495 36.4605 19.5979 36.8985 19.4127 37.2471C19.2061 37.6359 18.8727 37.8248 18.4737 37.9577Z" fill="#FF0000"/>
<path d="M25.0521 37.9671C24.7097 37.9909 24.4159 38.0108 24.0883 37.8755C23.7172 37.7222 23.4166 37.4072 23.2709 37.0339C23.1353 36.6863 23.144 36.3049 23.2872 35.9619C23.4866 35.4844 23.8154 35.2612 24.2745 35.071C24.5643 35.0371 24.8338 35.0335 25.1133 35.1311C25.528 35.2759 25.8684 35.5828 26.0431 35.9867C26.1822 36.3084 26.1628 36.7414 26.0267 37.0605C25.8223 37.5401 25.5196 37.7789 25.0521 37.9671Z" fill="#FF0000"/>
<path d="M85.5713 52.0863L92.5348 52.0563L92.5292 67.5499L69.2402 67.5572L69.2361 38.9718L92.5343 38.9803L92.5357 48.4114L92.5332 50.2965C92.5321 50.4318 92.5693 50.7188 92.5267 50.8301C92.5124 50.8674 92.4796 50.8946 92.4561 50.927C92.0702 51.0573 91.4412 50.9812 91.0245 50.9822L87.9724 50.9892L69.994 51.033L69.9874 52.1344L85.5713 52.0863ZM69.9785 39.6653L69.9813 50.3115L91.8121 50.2844L91.8117 39.6858L69.9785 39.6653ZM87.5728 52.8076L84.085 52.8406C83.9128 52.841 83.3768 52.787 83.2608 52.8426C83.1653 52.8883 83.0165 53.058 82.9357 53.1328L82.125 53.9228L79.2175 56.7456L80.3584 57.8682L81.4008 58.9262L85.6413 54.7205C86.2568 54.1106 86.8985 53.3802 87.5845 52.8555L87.5728 52.8076ZM69.9748 52.8315L69.9878 64.7928L74.0976 60.7666L78.1558 56.7207L75.4683 54.0435L74.6501 53.186C74.5585 53.089 74.4266 52.9053 74.3194 52.8348C74.2588 52.7948 70.3263 52.8304 69.9748 52.8315ZM75.2819 52.8396L78.6744 56.2294L80.4659 54.4752L82.0874 52.8503L75.2819 52.8396ZM88.5794 52.8176L81.9485 59.474L85.4243 62.9639L85.5225 63.0301L89.5547 58.9876L91.3299 57.2268C91.4563 57.0981 91.761 56.8428 91.8233 56.6819C91.8756 56.5468 91.8221 56.073 91.8217 55.9026L91.8152 52.8227L88.5794 52.8176ZM78.7152 57.2612L69.9855 65.9706L69.985 66.8583L72.2889 66.861L73.0843 66.8719C73.1578 66.8729 73.3385 66.8984 73.4029 66.8762C73.4771 66.8507 73.6318 66.6828 73.6936 66.6257L74.4041 65.9473L80.8621 59.4617L78.7152 57.2612ZM91.8242 57.7477L85.9913 63.5446L87.7197 65.2803L89.2712 66.8332L91.8066 66.8271L91.8242 57.7477ZM81.4441 59.998L74.5469 66.847L78.1983 66.8534C78.607 66.8553 81.547 66.9273 81.6901 66.8412C81.8077 66.7704 81.9447 66.5976 82.0443 66.499L84.9853 63.5683L81.4441 59.998ZM85.4609 64.0854L82.7471 66.8469L85.6201 66.8519L87.4086 66.8515C87.6592 66.8513 87.9644 66.8864 88.2078 66.8331L86.3346 64.9385C86.0608 64.6639 85.7746 64.3099 85.4609 64.0854Z" fill="#FF0000"/>
<path d="M59.1914 47.9936C58.1361 48.0551 57.2024 47.7953 56.3378 47.1859C55.4185 46.538 54.7988 45.5343 54.6182 44.4255C54.4311 43.2767 54.7069 42.0839 55.3955 41.1414C56.1201 40.1498 57.2453 39.602 58.4381 39.4208C59.3306 39.2863 60.4585 39.6013 61.1894 40.1275C62.1413 40.8131 62.8332 41.8646 63.0157 43.03C63.1891 44.137 62.9204 45.2923 62.2561 46.1965C61.4806 47.2519 60.4645 47.7977 59.1914 47.9936ZM58.6301 40.2028C57.6525 40.3324 56.7001 40.7353 56.0797 41.5306C55.7569 41.9442 55.5469 42.3885 55.4156 42.8955L55.3929 42.9806C55.1808 43.8142 55.363 44.8041 55.8103 45.535C56.3018 46.3381 57.1351 46.9468 58.0531 47.1607C58.415 47.2451 58.8031 47.2379 59.1723 47.2153C60.1931 47.0371 61.06 46.5852 61.6684 45.7219C62.2243 44.9329 62.402 43.9947 62.2406 43.0457C62.0808 42.1051 61.5367 41.3098 60.7549 40.777C60.1645 40.3748 59.3452 40.1356 58.6301 40.2028Z" fill="#FF0000"/>
<path d="M86.4143 50.0653C85.1587 50.0472 84.0463 49.7582 83.0792 48.9087C82.0539 48.0079 81.4605 46.7529 81.3693 45.3997C81.2853 44.1501 81.6548 42.862 82.4909 41.9157C83.4923 40.7824 84.7622 40.2439 86.2537 40.1573C87.5616 40.2012 88.7232 40.5546 89.7089 41.4492C90.6662 42.3181 91.3216 43.6002 91.3719 44.9056C91.4194 46.1394 91.0351 47.4718 90.1715 48.3832C89.1223 49.4906 87.9248 50.0179 86.4143 50.0653ZM86.0707 40.8892C84.7969 41.0174 83.7806 41.4713 82.9552 42.4812C82.2525 43.3412 81.963 44.4852 82.092 45.5822C82.231 46.7638 82.8136 47.796 83.7575 48.5201C84.6346 49.193 85.599 49.3976 86.6867 49.3474C87.9994 49.1929 88.9961 48.7378 89.8265 47.6729C90.505 46.8026 90.7575 45.7293 90.6196 44.6436C90.4761 43.5131 89.8346 42.4222 88.9379 41.7255C88.1713 41.13 87.0408 40.8009 86.0707 40.8892Z" fill="#FF0000"/>
<path d="M59.2913 46.2703C58.6451 46.412 57.9594 46.2895 57.3944 45.9437C56.8363 45.602 56.4566 45.0588 56.2989 44.4265C56.1253 43.731 56.1969 42.9048 56.593 42.2939C57.0171 41.6398 57.6603 41.2918 58.4039 41.1216C58.9982 41.0501 59.5905 41.1613 60.1158 41.4512C60.6977 41.7724 61.1586 42.3585 61.3329 42.9998C61.528 43.7171 61.4642 44.3471 61.0942 44.9921C60.6847 45.7059 60.0702 46.0583 59.2913 46.2703Z" fill="#FF0000"/>
<path d="M86.5435 48.7437C85.6492 48.7841 84.7064 48.5754 84.0052 47.9937C83.2429 47.3616 82.7489 46.4396 82.6608 45.4519C82.5783 44.5258 82.8006 43.5617 83.4138 42.8444C84.1891 41.9374 85.0911 41.577 86.2595 41.4749C87.1 41.4418 87.9227 41.7628 88.5772 42.2747C89.3682 42.8934 89.8943 43.7726 90.01 44.7752C90.1224 45.7488 89.841 46.6588 89.2284 47.413C88.5051 48.3036 87.6586 48.6306 86.5435 48.7437Z" fill="#FF0000"/>
<path d="M76.0305 47.7051C75.6905 47.7071 75.3513 47.7177 75.0191 47.6346L74.9267 47.6108C74.5379 47.5133 74.1786 47.3574 73.8578 47.1149C73.2545 46.659 72.8398 46.0078 72.7364 45.2532C72.6315 44.4887 72.8449 43.7318 73.314 43.1208C73.8294 42.4494 74.4913 42.1208 75.3233 42.0081C75.9509 41.9637 76.5812 42.0815 77.1229 42.4093C77.7776 42.8055 78.2482 43.4402 78.4223 44.1883C78.6101 44.9954 78.4259 45.8316 77.9744 46.5191C77.4985 47.2437 76.8615 47.5492 76.0305 47.7051Z" fill="#FF0000"/>
<path d="M12.6822 45.3951C12.4138 45.5754 12.1695 45.6994 11.8408 45.7125C11.4281 45.7289 11.0319 45.6379 10.7344 45.3336C10.4406 45.0329 10.3371 44.5877 10.349 44.1785C10.3558 43.9463 10.3754 43.6477 10.552 43.4814C11.1076 43.4216 11.7327 43.4691 12.2947 43.4783C12.505 43.4817 12.7605 43.4584 12.9399 43.5791C13.0701 43.7389 13.1245 43.8943 13.1374 44.1017C13.1716 44.6481 13.0475 44.9876 12.6822 45.3951Z" fill="#FF0000"/>
<path d="M19.0492 45.4681C18.7045 45.6769 18.399 45.7804 17.9932 45.7533C17.6576 45.7311 17.3343 45.5332 17.1206 45.2811C16.8236 44.9308 16.7488 44.4763 16.8021 44.0309C16.8292 43.8043 16.8793 43.6208 17.0659 43.4814C17.5503 43.4328 18.0685 43.4623 18.5567 43.4604C18.8397 43.4594 19.1648 43.4066 19.4005 43.5881C19.5439 43.85 19.587 44.0854 19.581 44.3816C19.5713 44.8529 19.3786 45.1553 19.0492 45.4681Z" fill="#FF0000"/>
<path d="M25.4152 45.5043C25.0379 45.7235 24.6692 45.7975 24.2428 45.6901C23.9083 45.606 23.6033 45.4003 23.4289 45.0982C23.2187 44.7344 23.1581 44.1751 23.2853 43.7753C23.3389 43.6067 23.4245 43.546 23.579 43.4752C23.9307 43.4766 25.6592 43.402 25.8214 43.5638C26.0496 43.7912 26.048 44.1336 26.0316 44.4336C26.006 44.9 25.743 45.2077 25.4152 45.5043Z" fill="#FF0000"/>
<path d="M49.1703 60.7019L36.7654 60.6917L17.5896 60.6856L9.9786 60.6819L8.05918 60.6769C7.78653 60.6751 7.4551 60.715 7.19598 60.6447L7.21585 48.4871L49.1571 48.5658L49.1703 60.7019ZM7.96178 49.2183L7.98632 59.9928L8.64684 59.9935L8.66317 49.2175L7.96178 49.2183ZM9.42366 49.2194L9.3903 59.9677L14.2105 59.9646L14.2061 55.1841L11.9086 55.1833C11.6724 55.1843 11.25 55.2652 11.0596 55.1353C10.8804 54.8859 10.9861 53.9314 10.9858 53.5854L10.9673 49.2246L9.42366 49.2194ZM17.8343 49.2188L17.829 53.0134C17.8302 53.6906 17.8813 54.4061 17.809 55.0765C17.6933 55.181 17.6177 55.2264 17.4563 55.2183L14.9159 55.2141L14.9289 59.9646L16.626 59.9662L19.6185 59.9626L19.6209 49.2171L17.8343 49.2188ZM20.2975 49.2077L20.3057 59.9718L25.1024 59.9712L25.0976 55.1895L23.0469 55.1818C22.779 55.1829 22.3416 55.2632 22.1276 55.123C22.0337 54.9573 22.0555 54.7579 22.0531 54.5727L22.0449 53.1987L22.0212 49.2113L20.2975 49.2077ZM28.8671 49.2362L28.8652 53.2867C28.8661 53.8072 28.9374 54.4472 28.8615 54.9561C28.8523 55.0177 28.8222 55.0566 28.7885 55.1068C28.575 55.2295 28.1625 55.1769 27.912 55.1773L25.8309 55.1793V59.9704L27.6123 59.9724L30.6549 59.9711L30.6668 49.2241L28.8671 49.2362ZM13.0945 49.292C12.9388 49.573 13.0312 50.3406 13.0309 50.6752C13.0302 51.8501 12.9583 53.0789 13.0492 54.248C13.1679 54.3196 13.174 54.2934 13.3045 54.2725C13.3714 53.904 13.336 53.4888 13.3362 53.1138L13.335 51.0928L13.333 49.957C13.3325 49.7596 13.3559 49.5276 13.3057 49.3371C13.2151 49.294 13.1987 49.2845 13.0945 49.292ZM15.5154 49.292C15.394 49.5966 15.4225 54.0847 15.5029 54.2794C15.5796 54.2783 15.6625 54.2841 15.7381 54.2725C15.8088 53.967 15.7738 53.6072 15.7743 53.2933L15.7747 51.6141L15.7728 50.1215C15.7722 49.8629 15.7962 49.5789 15.7471 49.3252C15.6408 49.2639 15.6379 49.2714 15.5154 49.292ZM24.1599 49.292C24.0461 49.7482 24.1184 50.343 24.1177 50.8173L24.1225 54.1748L24.1943 54.2456L24.4198 54.2236C24.5327 53.6572 24.4549 52.9418 24.4544 52.3595C24.4536 51.3684 24.5165 50.3254 24.4174 49.3408L24.3166 49.2661L24.1599 49.292ZM26.5386 49.292C26.4087 49.4852 26.4645 53.679 26.4998 54.2236C26.5972 54.2873 26.6152 54.2803 26.7334 54.2775C26.7589 54.2434 26.7949 54.2148 26.8098 54.1748C26.873 54.0043 26.8106 53.4909 26.8108 53.2758L26.8024 49.3408C26.6888 49.2566 26.6815 49.2749 26.5386 49.292ZM35.1937 49.292C35.1217 49.5763 35.1545 49.911 35.1538 50.2044L35.1525 51.9767L35.1539 53.4852C35.1544 53.7445 35.1286 54.033 35.1807 54.2869C35.28 54.3311 35.3264 54.3366 35.4339 54.3213C35.6016 54.0549 35.5085 53.2832 35.5088 52.9589L35.4978 49.3408L35.4004 49.2654L35.1937 49.292ZM32.7886 49.3408C32.6872 50.5536 32.7715 51.8348 32.7766 53.0543C32.7779 53.3314 32.7045 54.0618 32.8613 54.2562C32.9316 54.2489 32.9985 54.2468 33.0656 54.2236C33.1612 53.8633 33.1077 53.3883 33.1085 53.0137L33.1088 50.5966C33.1084 50.3132 33.1918 49.6085 33.0773 49.3681L33.0511 49.3281C32.9483 49.3124 32.8855 49.2972 32.7886 49.3408ZM37.4998 49.3125L37.5051 55.1776L36.9892 55.208C36.8937 55.349 36.9638 59.4202 36.9641 59.9685L41.5649 59.9702L41.9189 59.9673C41.9421 59.9407 41.9779 59.9213 41.9884 59.8877C42.008 59.8243 41.9887 59.6642 41.9888 59.5925L41.9897 58.8701L41.9947 55.2358L40.2957 55.2361C40.034 55.2357 39.7033 55.2756 39.4526 55.2002C39.4217 55.1514 39.3806 55.1076 39.3598 55.0537C39.3376 54.9966 39.3565 54.8162 39.3557 54.7516L39.3481 53.8337L39.3076 49.8061C39.306 49.6899 39.3474 49.3426 39.2297 49.3187L37.4998 49.3125ZM45.9542 49.3167L45.9419 53.2725L45.9394 54.5134C45.9388 54.7233 45.9631 54.9698 45.874 55.1628C45.6555 55.3234 45.1148 55.2629 44.8431 55.2632L42.7146 55.2609L42.7241 59.9641L45.1416 59.9663L48.3915 59.9661L48.4089 49.3415C48.1924 49.2734 47.8717 49.3137 47.6415 49.3139L45.9542 49.3167ZM41.1676 49.4385L41.1532 53.9795L41.2109 54.0466L41.3818 54.0228C41.4486 53.6152 41.4166 53.1695 41.4171 52.7556L41.4159 50.6176C41.4153 50.3245 41.4893 49.7001 41.373 49.4474C41.2738 49.413 41.2674 49.4086 41.1676 49.4385ZM43.7308 49.4385C43.6663 49.7869 43.6992 50.1782 43.6994 50.5336L43.7022 52.4148C43.7033 52.9033 43.6222 53.5708 43.7256 54.04C43.8103 54.0788 43.8281 54.0827 43.9209 54.0755C43.946 54.0351 43.9835 54.0001 43.9961 53.9543C44.0574 53.7321 44.0027 53.3077 44.004 53.0686L44.0035 50.5444C44.0025 50.24 44.0498 49.8553 43.9976 49.5605C43.9875 49.5028 43.9804 49.4939 43.9588 49.4477C43.8684 49.419 43.8234 49.4186 43.7308 49.4385ZM31.3481 55.1734L31.3445 59.9734L36.222 59.971L36.2215 55.1785L31.3481 55.1734Z" fill="#FF0000"/>
<path d="M12.0792 66.0911C11.9217 66.1005 11.7509 66.0965 11.5967 66.0624C11.3575 66.0095 11.1096 65.7791 11.0021 65.5648C10.8592 65.2798 10.8742 64.9632 10.9952 64.6729C11.1341 64.3397 11.369 64.2358 11.6871 64.1178C11.8769 64.1165 12.0636 64.1125 12.2412 64.1888C12.5041 64.3017 12.6919 64.5132 12.7932 64.779C12.8895 65.0321 12.8473 65.3106 12.7367 65.5518C12.6016 65.8462 12.3734 65.9854 12.0792 66.0911Z" fill="#FF0000"/>
<path d="M16.8709 66.0728C16.7064 66.0751 16.56 66.0645 16.4015 66.0164C16.1618 65.9435 15.905 65.7836 15.7971 65.5462C15.6746 65.2763 15.713 64.922 15.8289 64.6571C15.9715 64.3312 16.2078 64.2306 16.5263 64.116C16.6917 64.1124 16.8878 64.1323 17.0408 64.1963C17.2966 64.3031 17.5091 64.5084 17.5992 64.7731C17.6772 65.002 17.6505 65.3154 17.5423 65.5297C17.3871 65.8371 17.192 65.9673 16.8709 66.0728Z" fill="#FF0000"/>
<path d="M21.5868 66.0411C21.4248 66.0521 21.2549 66.0439 21.0977 66.0004C20.8565 65.9337 20.6296 65.7816 20.5171 65.5518C20.3861 65.284 20.3843 64.9089 20.5043 64.6387C20.6422 64.3285 20.8643 64.2322 21.159 64.1157C21.3222 64.1059 21.4662 64.1118 21.6237 64.161C21.8565 64.2337 22.077 64.4079 22.1804 64.6319C22.3162 64.9264 22.3324 65.2805 22.1979 65.5786C22.0782 65.8434 21.8461 65.9499 21.5868 66.0411Z" fill="#FF0000"/>
<path d="M26.2014 66.0383C26.011 66.0432 25.8434 66.0453 25.6601 65.9806C25.4453 65.9048 25.254 65.7559 25.1683 65.5404C25.0534 65.2512 25.0785 64.8939 25.2059 64.6135C25.3455 64.3062 25.5605 64.2302 25.8532 64.1139C25.9905 64.1073 26.1128 64.1134 26.2452 64.1549C26.5104 64.2381 26.7473 64.433 26.8721 64.6834C26.9843 64.9085 26.9909 65.1843 26.8979 65.4168C26.7559 65.7716 26.5406 65.896 26.2014 66.0383Z" fill="#FF0000"/>
<path d="M30.8632 66.0372C30.7096 66.0547 30.5661 66.0614 30.4132 66.0316C30.1797 65.9861 29.9445 65.8588 29.8231 65.6472C29.6614 65.3652 29.6614 64.9932 29.7645 64.6912C29.8726 64.3752 30.0902 64.2479 30.3765 64.111C30.5466 64.1031 30.7184 64.0894 30.8804 64.1519C31.1463 64.2547 31.3754 64.469 31.4854 64.7337C31.592 64.9902 31.5591 65.3283 31.4511 65.5803C31.3376 65.845 31.1184 65.9425 30.8632 66.0372Z" fill="#FF0000"/>
<path d="M46.5576 68.3728L46.5109 68.3884C46.3786 68.409 46.3015 68.3947 46.185 68.3295C46.0117 68.2325 45.8589 68.0498 45.7182 67.9099C45.3695 67.5634 45.0271 67.1693 44.6218 66.8895L43.6739 67.7808C43.4296 68.0158 43.1735 68.2907 42.8467 68.4043C42.7857 68.3862 42.7177 68.3698 42.6631 68.335C42.5342 68.2526 42.4823 68.1349 42.4481 67.9932C42.5915 67.7301 42.8955 67.5091 43.1148 67.3042L44.087 66.3444C43.7863 65.9848 43.4172 65.6621 43.0814 65.3343C42.8233 65.0823 42.5767 64.8945 42.4982 64.5264C42.5483 64.352 42.5399 64.3425 42.6981 64.2334L42.823 64.2165C43.2863 64.35 44.2341 65.4459 44.6234 65.8281L45.8454 64.6557C45.9945 64.5134 46.2022 64.2612 46.4044 64.2108C46.478 64.1925 46.577 64.2551 46.6309 64.3055C46.7487 64.4159 46.7771 64.4941 46.7804 64.6484C46.6237 64.9015 46.3975 65.1048 46.1908 65.3168L45.1758 66.3527C45.49 66.6719 46.7032 67.6983 46.7694 68.042C46.7192 68.23 46.7064 68.2466 46.5576 68.3728Z" fill="#FF0000"/>
<path d="M31.0692 71.5576L30.9548 71.531L30.9529 70.0104L37.2585 66.3818L37.3311 66.4231L37.3342 67.895C37.1654 68.0554 36.9201 68.1636 36.7166 68.2794L35.4139 69.0201L31.0692 71.5576Z" fill="#FF0000"/>
<path d="M24.1044 73.3564L23.2683 73.8106L23.2512 67.919L24.4157 67.9187L24.4521 73.1565L24.1044 73.3564Z" fill="#FF0000"/>
<path d="M30.1515 69.9028L29.3351 70.3959L29.3423 67.9206L30.5177 67.9231L30.5223 69.6741L30.1515 69.9028Z" fill="#FF0000"/>
<path d="M29.3431 72.4691L29.3377 70.8624L30.4872 70.2393C30.5552 70.3312 30.5342 70.487 30.5362 70.6021L30.5323 71.8344L29.3431 72.4691Z" fill="#FF0000"/>
<path d="M24.9357 75.0244C24.8758 75.0128 24.9102 75.0243 24.8381 74.9756L24.8394 73.4896L28.8069 71.167C28.8725 71.1768 28.8378 71.1647 28.906 71.2158L28.9128 72.6957L24.9357 75.0244Z" fill="#FF0000"/>
<path d="M23.4131 75.8849L23.3364 75.9128L23.278 75.8789L23.2762 74.3182L24.2638 73.8037C24.3474 73.7876 24.2993 73.7913 24.4084 73.8037L24.4208 75.3219L23.4131 75.8849Z" fill="#FF0000"/>
<path d="M35.8573 85.0556C35.2034 85.1055 34.5641 85.0572 33.9993 84.6913C33.4358 84.3263 32.9965 83.699 32.8795 83.0338C32.7539 82.32 32.8363 81.6268 33.2635 81.0202C33.7125 80.3827 34.3537 80.0296 35.1085 79.8954C35.7354 79.8537 36.2277 79.9384 36.7676 80.2707C37.4029 80.6618 37.8324 81.2551 37.9879 81.9832C38.1269 82.6342 37.9706 83.3282 37.6074 83.8797C37.1776 84.5324 36.6158 84.9034 35.8573 85.0556ZM35.3942 80.5354C34.7799 80.626 34.2286 80.8329 33.8479 81.3523C33.5377 81.7755 33.4234 82.2936 33.5079 82.8108C33.5928 83.3299 33.8679 83.7961 34.3025 84.095C34.6684 84.3465 35.0775 84.4094 35.5098 84.4201C36.1223 84.3232 36.6192 84.1242 36.9979 83.6018C37.2857 83.2048 37.4165 82.6636 37.3365 82.1795C37.2497 81.6539 36.9652 81.1736 36.5224 80.8739C36.191 80.6498 35.7901 80.5517 35.3942 80.5354Z" fill="#FF0000"/>
<path d="M44.8678 85.0481C44.207 85.1123 43.6619 85.0452 43.0817 84.6957C42.4766 84.3313 42.0544 83.7171 41.8938 83.0322C41.7386 82.3705 41.8617 81.6712 42.2318 81.1035C42.6605 80.4456 43.3 80.0524 44.0562 79.8898C44.2749 79.8635 44.4793 79.8509 44.6993 79.8727C45.3789 79.9398 46.0905 80.3826 46.5088 80.9055C46.9282 81.4298 47.1197 82.1063 47.0408 82.7721L47.0291 82.8613C46.984 83.2189 46.8555 83.5573 46.6633 83.8623C46.2374 84.5382 45.629 84.8678 44.8678 85.0481ZM44.0752 80.5773C43.4984 80.7559 43.0043 81.0306 42.7138 81.5906C42.4833 82.035 42.4471 82.5943 42.5991 83.0685C42.7642 83.5833 43.132 84.0143 43.6263 84.2403C44.0403 84.4296 44.3996 84.4217 44.8359 84.3766C45.4262 84.1872 45.8996 83.8557 46.1855 83.2878C46.3979 82.8659 46.4441 82.3423 46.2815 81.8956C46.1022 81.4033 45.6997 80.9597 45.2229 80.7397C44.8537 80.5694 44.477 80.5242 44.0752 80.5773Z" fill="#FF0000"/>
<path d="M35.8969 93.0843C35.2221 93.1882 34.5266 93.0673 33.9497 92.6974C33.4316 92.3651 32.9726 91.7855 32.8538 91.1729C32.723 90.4994 32.8006 89.7949 33.1854 89.2155C33.6276 88.5498 34.2594 88.1992 35.0268 88.0454C35.5981 87.9946 36.1349 88.0534 36.641 88.3391C37.2478 88.6817 37.7393 89.296 37.916 89.9707C38.0834 90.6103 38.0107 91.2316 37.6681 91.7996C37.2378 92.513 36.7005 92.8843 35.8969 93.0843ZM35.2502 88.6881C34.666 88.777 34.1667 88.9982 33.8138 89.4938C33.5144 89.9143 33.414 90.4005 33.5032 90.9072C33.5944 91.4253 33.8683 91.8398 34.305 92.1315C34.7167 92.4066 35.1111 92.442 35.5871 92.4495C36.1572 92.3593 36.6145 92.1438 36.9543 91.6527C37.243 91.2354 37.384 90.7076 37.265 90.2069C37.146 89.7054 36.8304 89.2295 36.387 88.9572C36.0296 88.7377 35.6638 88.6816 35.2502 88.6881Z" fill="#FF0000"/>
<path d="M44.9667 93.1038C44.2787 93.2019 43.6843 93.1471 43.0803 92.7833C42.482 92.4227 42.0577 91.7833 41.8944 91.1105C41.7377 90.4649 41.8765 89.7725 42.2341 89.2182C42.6509 88.572 43.2571 88.2148 43.9899 88.0457C44.615 87.9534 45.2389 88.0836 45.7798 88.4087C46.3761 88.7672 46.8036 89.3375 46.9675 90.0111C47.1177 90.6282 46.9965 91.3897 46.6565 91.9258C46.2574 92.555 45.6866 92.9322 44.9667 93.1038ZM44.0236 88.7289C43.4879 88.9 43.0265 89.1368 42.7419 89.6516C42.4941 90.0998 42.4464 90.6415 42.6005 91.128C42.7637 91.6437 43.1123 92.0433 43.5954 92.2866C44.0015 92.4913 44.4345 92.5061 44.8721 92.4192C45.428 92.2551 45.8933 91.9341 46.1634 91.4093C46.3778 90.9923 46.4289 90.3959 46.2734 89.9494C46.1121 89.4861 45.7275 89.1032 45.2879 88.8985C44.8819 88.7096 44.4652 88.671 44.0236 88.7289Z" fill="#FF0000"/>
</g>
<defs>
<clipPath id="clip0_17_7319">
<rect width="100" height="100" fill="white"/>
</clipPath>
</defs>
</svg>
